G04 #@! TF.FileFunction,Legend,Bot*
%FSLAX46Y46*%
G04 Gerber Fmt 4.6, Leading zero omitted, Abs format (unit mm)*
G04 Created by KiCad (PCBNEW 4.0.2-stable) date 2016-07-18 00:25:28*
%MOMM*%
G01*
G04 APERTURE LIST*
%ADD10C,0.100000*%
%ADD11C,0.300000*%
%ADD12C,0.150000*%
%ADD13C,0.010000*%
G04 APERTURE END LIST*
D10*
D11*
X85678571Y-93071429D02*
X84964286Y-92571429D01*
X85678571Y-92214286D02*
X84178571Y-92214286D01*
X84178571Y-92785714D01*
X84250000Y-92928572D01*
X84321429Y-93000000D01*
X84464286Y-93071429D01*
X84678571Y-93071429D01*
X84821429Y-93000000D01*
X84892857Y-92928572D01*
X84964286Y-92785714D01*
X84964286Y-92214286D01*
X84892857Y-93714286D02*
X84892857Y-94214286D01*
X85678571Y-94428572D02*
X85678571Y-93714286D01*
X84178571Y-93714286D01*
X84178571Y-94428572D01*
X85607143Y-95000000D02*
X85678571Y-95214286D01*
X85678571Y-95571429D01*
X85607143Y-95714286D01*
X85535714Y-95785715D01*
X85392857Y-95857143D01*
X85250000Y-95857143D01*
X85107143Y-95785715D01*
X85035714Y-95714286D01*
X84964286Y-95571429D01*
X84892857Y-95285715D01*
X84821429Y-95142857D01*
X84750000Y-95071429D01*
X84607143Y-95000000D01*
X84464286Y-95000000D01*
X84321429Y-95071429D01*
X84250000Y-95142857D01*
X84178571Y-95285715D01*
X84178571Y-95642857D01*
X84250000Y-95857143D01*
X84892857Y-96500000D02*
X84892857Y-97000000D01*
X85678571Y-97214286D02*
X85678571Y-96500000D01*
X84178571Y-96500000D01*
X84178571Y-97214286D01*
X84178571Y-97642857D02*
X84178571Y-98500000D01*
X85678571Y-98071429D02*
X84178571Y-98071429D01*
X75750000Y-109142857D02*
X75535714Y-109214286D01*
X75464286Y-109285714D01*
X75392857Y-109428571D01*
X75392857Y-109642857D01*
X75464286Y-109785714D01*
X75535714Y-109857143D01*
X75678572Y-109928571D01*
X76250000Y-109928571D01*
X76250000Y-108428571D01*
X75750000Y-108428571D01*
X75607143Y-108500000D01*
X75535714Y-108571429D01*
X75464286Y-108714286D01*
X75464286Y-108857143D01*
X75535714Y-109000000D01*
X75607143Y-109071429D01*
X75750000Y-109142857D01*
X76250000Y-109142857D01*
X74464286Y-108428571D02*
X74178572Y-108428571D01*
X74035714Y-108500000D01*
X73892857Y-108642857D01*
X73821429Y-108928571D01*
X73821429Y-109428571D01*
X73892857Y-109714286D01*
X74035714Y-109857143D01*
X74178572Y-109928571D01*
X74464286Y-109928571D01*
X74607143Y-109857143D01*
X74750000Y-109714286D01*
X74821429Y-109428571D01*
X74821429Y-108928571D01*
X74750000Y-108642857D01*
X74607143Y-108500000D01*
X74464286Y-108428571D01*
X72892857Y-108428571D02*
X72607143Y-108428571D01*
X72464285Y-108500000D01*
X72321428Y-108642857D01*
X72250000Y-108928571D01*
X72250000Y-109428571D01*
X72321428Y-109714286D01*
X72464285Y-109857143D01*
X72607143Y-109928571D01*
X72892857Y-109928571D01*
X73035714Y-109857143D01*
X73178571Y-109714286D01*
X73250000Y-109428571D01*
X73250000Y-108928571D01*
X73178571Y-108642857D01*
X73035714Y-108500000D01*
X72892857Y-108428571D01*
X71821428Y-108428571D02*
X70964285Y-108428571D01*
X71392856Y-109928571D02*
X71392856Y-108428571D01*
X70178571Y-108428571D02*
X70035714Y-108428571D01*
X69892857Y-108500000D01*
X69821428Y-108571429D01*
X69749999Y-108714286D01*
X69678571Y-109000000D01*
X69678571Y-109357143D01*
X69749999Y-109642857D01*
X69821428Y-109785714D01*
X69892857Y-109857143D01*
X70035714Y-109928571D01*
X70178571Y-109928571D01*
X70321428Y-109857143D01*
X70392857Y-109785714D01*
X70464285Y-109642857D01*
X70535714Y-109357143D01*
X70535714Y-109000000D01*
X70464285Y-108714286D01*
X70392857Y-108571429D01*
X70321428Y-108500000D01*
X70178571Y-108428571D01*
X106357142Y-116578571D02*
X106857142Y-115864286D01*
X107214285Y-116578571D02*
X107214285Y-115078571D01*
X106642857Y-115078571D01*
X106499999Y-115150000D01*
X106428571Y-115221429D01*
X106357142Y-115364286D01*
X106357142Y-115578571D01*
X106428571Y-115721429D01*
X106499999Y-115792857D01*
X106642857Y-115864286D01*
X107214285Y-115864286D01*
X104928571Y-115150000D02*
X105071428Y-115078571D01*
X105285714Y-115078571D01*
X105499999Y-115150000D01*
X105642857Y-115292857D01*
X105714285Y-115435714D01*
X105785714Y-115721429D01*
X105785714Y-115935714D01*
X105714285Y-116221429D01*
X105642857Y-116364286D01*
X105499999Y-116507143D01*
X105285714Y-116578571D01*
X105142857Y-116578571D01*
X104928571Y-116507143D01*
X104857142Y-116435714D01*
X104857142Y-115935714D01*
X105142857Y-115935714D01*
X103714285Y-115792857D02*
X103499999Y-115864286D01*
X103428571Y-115935714D01*
X103357142Y-116078571D01*
X103357142Y-116292857D01*
X103428571Y-116435714D01*
X103499999Y-116507143D01*
X103642857Y-116578571D01*
X104214285Y-116578571D01*
X104214285Y-115078571D01*
X103714285Y-115078571D01*
X103571428Y-115150000D01*
X103499999Y-115221429D01*
X103428571Y-115364286D01*
X103428571Y-115507143D01*
X103499999Y-115650000D01*
X103571428Y-115721429D01*
X103714285Y-115792857D01*
X104214285Y-115792857D01*
X101571428Y-116578571D02*
X101571428Y-115078571D01*
X101000000Y-115078571D01*
X100857142Y-115150000D01*
X100785714Y-115221429D01*
X100714285Y-115364286D01*
X100714285Y-115578571D01*
X100785714Y-115721429D01*
X100857142Y-115792857D01*
X101000000Y-115864286D01*
X101571428Y-115864286D01*
X100142857Y-116150000D02*
X99428571Y-116150000D01*
X100285714Y-116578571D02*
X99785714Y-115078571D01*
X99285714Y-116578571D01*
X98785714Y-116578571D02*
X98785714Y-115078571D01*
X98428571Y-115078571D01*
X98214286Y-115150000D01*
X98071428Y-115292857D01*
X98000000Y-115435714D01*
X97928571Y-115721429D01*
X97928571Y-115935714D01*
X98000000Y-116221429D01*
X98071428Y-116364286D01*
X98214286Y-116507143D01*
X98428571Y-116578571D01*
X98785714Y-116578571D01*
X95500000Y-115578571D02*
X95500000Y-116578571D01*
X95857143Y-115007143D02*
X96214286Y-116078571D01*
X95285714Y-116078571D01*
X94857143Y-116578571D02*
X94071429Y-115578571D01*
X94857143Y-115578571D02*
X94071429Y-116578571D01*
X92857143Y-115578571D02*
X92857143Y-116578571D01*
X93214286Y-115007143D02*
X93571429Y-116078571D01*
X92642857Y-116078571D01*
X100249999Y-118978571D02*
X100749999Y-118264286D01*
X101107142Y-118978571D02*
X101107142Y-117478571D01*
X100535714Y-117478571D01*
X100392856Y-117550000D01*
X100321428Y-117621429D01*
X100249999Y-117764286D01*
X100249999Y-117978571D01*
X100321428Y-118121429D01*
X100392856Y-118192857D01*
X100535714Y-118264286D01*
X101107142Y-118264286D01*
X98821428Y-118978571D02*
X99678571Y-118978571D01*
X99249999Y-118978571D02*
X99249999Y-117478571D01*
X99392856Y-117692857D01*
X99535714Y-117835714D01*
X99678571Y-117907143D01*
X104928570Y-120021429D02*
X104857141Y-119950000D01*
X104714284Y-119878571D01*
X104357141Y-119878571D01*
X104214284Y-119950000D01*
X104142855Y-120021429D01*
X104071427Y-120164286D01*
X104071427Y-120307143D01*
X104142855Y-120521429D01*
X104999998Y-121378571D01*
X104071427Y-121378571D01*
X103142856Y-119878571D02*
X102999999Y-119878571D01*
X102857142Y-119950000D01*
X102785713Y-120021429D01*
X102714284Y-120164286D01*
X102642856Y-120450000D01*
X102642856Y-120807143D01*
X102714284Y-121092857D01*
X102785713Y-121235714D01*
X102857142Y-121307143D01*
X102999999Y-121378571D01*
X103142856Y-121378571D01*
X103285713Y-121307143D01*
X103357142Y-121235714D01*
X103428570Y-121092857D01*
X103499999Y-120807143D01*
X103499999Y-120450000D01*
X103428570Y-120164286D01*
X103357142Y-120021429D01*
X103285713Y-119950000D01*
X103142856Y-119878571D01*
X101214285Y-121378571D02*
X102071428Y-121378571D01*
X101642856Y-121378571D02*
X101642856Y-119878571D01*
X101785713Y-120092857D01*
X101928571Y-120235714D01*
X102071428Y-120307143D01*
X99928571Y-119878571D02*
X100214285Y-119878571D01*
X100357142Y-119950000D01*
X100428571Y-120021429D01*
X100571428Y-120235714D01*
X100642857Y-120521429D01*
X100642857Y-121092857D01*
X100571428Y-121235714D01*
X100500000Y-121307143D01*
X100357142Y-121378571D01*
X100071428Y-121378571D01*
X99928571Y-121307143D01*
X99857142Y-121235714D01*
X99785714Y-121092857D01*
X99785714Y-120735714D01*
X99857142Y-120592857D01*
X99928571Y-120521429D01*
X100071428Y-120450000D01*
X100357142Y-120450000D01*
X100500000Y-120521429D01*
X100571428Y-120592857D01*
X100642857Y-120735714D01*
X99142857Y-120807143D02*
X98000000Y-120807143D01*
X97000000Y-119878571D02*
X96857143Y-119878571D01*
X96714286Y-119950000D01*
X96642857Y-120021429D01*
X96571428Y-120164286D01*
X96500000Y-120450000D01*
X96500000Y-120807143D01*
X96571428Y-121092857D01*
X96642857Y-121235714D01*
X96714286Y-121307143D01*
X96857143Y-121378571D01*
X97000000Y-121378571D01*
X97142857Y-121307143D01*
X97214286Y-121235714D01*
X97285714Y-121092857D01*
X97357143Y-120807143D01*
X97357143Y-120450000D01*
X97285714Y-120164286D01*
X97214286Y-120021429D01*
X97142857Y-119950000D01*
X97000000Y-119878571D01*
X96000000Y-119878571D02*
X95000000Y-119878571D01*
X95642857Y-121378571D01*
X105857143Y-123778571D02*
X105857143Y-122278571D01*
X105714286Y-123207143D02*
X105285715Y-123778571D01*
X105285715Y-122778571D02*
X105857143Y-123350000D01*
X104642857Y-123778571D02*
X104642857Y-122278571D01*
X104642857Y-122850000D02*
X104500000Y-122778571D01*
X104214286Y-122778571D01*
X104071429Y-122850000D01*
X104000000Y-122921429D01*
X103928571Y-123064286D01*
X103928571Y-123492857D01*
X104000000Y-123635714D01*
X104071429Y-123707143D01*
X104214286Y-123778571D01*
X104500000Y-123778571D01*
X104642857Y-123707143D01*
X102714286Y-123707143D02*
X102857143Y-123778571D01*
X103142857Y-123778571D01*
X103285714Y-123707143D01*
X103357143Y-123564286D01*
X103357143Y-122992857D01*
X103285714Y-122850000D01*
X103142857Y-122778571D01*
X102857143Y-122778571D01*
X102714286Y-122850000D01*
X102642857Y-122992857D01*
X102642857Y-123135714D01*
X103357143Y-123278571D01*
X101357143Y-123707143D02*
X101500000Y-123778571D01*
X101785714Y-123778571D01*
X101928572Y-123707143D01*
X102000000Y-123635714D01*
X102071429Y-123492857D01*
X102071429Y-123064286D01*
X102000000Y-122921429D01*
X101928572Y-122850000D01*
X101785714Y-122778571D01*
X101500000Y-122778571D01*
X101357143Y-122850000D01*
X100714286Y-123778571D02*
X100714286Y-122278571D01*
X100571429Y-123207143D02*
X100142858Y-123778571D01*
X100142858Y-122778571D02*
X100714286Y-123350000D01*
X99500000Y-123778571D02*
X99500000Y-122778571D01*
X99500000Y-122921429D02*
X99428572Y-122850000D01*
X99285714Y-122778571D01*
X99071429Y-122778571D01*
X98928572Y-122850000D01*
X98857143Y-122992857D01*
X98857143Y-123778571D01*
X98857143Y-122992857D02*
X98785714Y-122850000D01*
X98642857Y-122778571D01*
X98428572Y-122778571D01*
X98285714Y-122850000D01*
X98214286Y-122992857D01*
X98214286Y-123778571D01*
X96857143Y-123778571D02*
X96857143Y-122992857D01*
X96928572Y-122850000D01*
X97071429Y-122778571D01*
X97357143Y-122778571D01*
X97500000Y-122850000D01*
X96857143Y-123707143D02*
X97000000Y-123778571D01*
X97357143Y-123778571D01*
X97500000Y-123707143D01*
X97571429Y-123564286D01*
X97571429Y-123421429D01*
X97500000Y-123278571D01*
X97357143Y-123207143D01*
X97000000Y-123207143D01*
X96857143Y-123135714D01*
X96142857Y-122778571D02*
X96142857Y-123778571D01*
X96142857Y-122921429D02*
X96071429Y-122850000D01*
X95928571Y-122778571D01*
X95714286Y-122778571D01*
X95571429Y-122850000D01*
X95500000Y-122992857D01*
X95500000Y-123778571D01*
X94785714Y-122778571D02*
X94785714Y-123778571D01*
X94785714Y-122921429D02*
X94714286Y-122850000D01*
X94571428Y-122778571D01*
X94357143Y-122778571D01*
X94214286Y-122850000D01*
X94142857Y-122992857D01*
X94142857Y-123778571D01*
X132892857Y-144249999D02*
X132892857Y-143107142D01*
X132321429Y-143678571D02*
X133464286Y-143678571D01*
X133821429Y-142535713D02*
X133821429Y-141607142D01*
X133250000Y-142107142D01*
X133250000Y-141892856D01*
X133178571Y-141749999D01*
X133107143Y-141678570D01*
X132964286Y-141607142D01*
X132607143Y-141607142D01*
X132464286Y-141678570D01*
X132392857Y-141749999D01*
X132321429Y-141892856D01*
X132321429Y-142321428D01*
X132392857Y-142464285D01*
X132464286Y-142535713D01*
X132464286Y-140964285D02*
X132392857Y-140892857D01*
X132321429Y-140964285D01*
X132392857Y-141035714D01*
X132464286Y-140964285D01*
X132321429Y-140964285D01*
X133821429Y-140392856D02*
X133821429Y-139464285D01*
X133250000Y-139964285D01*
X133250000Y-139749999D01*
X133178571Y-139607142D01*
X133107143Y-139535713D01*
X132964286Y-139464285D01*
X132607143Y-139464285D01*
X132464286Y-139535713D01*
X132392857Y-139607142D01*
X132321429Y-139749999D01*
X132321429Y-140178571D01*
X132392857Y-140321428D01*
X132464286Y-140392856D01*
X133821429Y-139035714D02*
X132321429Y-138535714D01*
X133821429Y-138035714D01*
X129892857Y-144142857D02*
X129821429Y-143928571D01*
X129821429Y-143571428D01*
X129892857Y-143428571D01*
X129964286Y-143357142D01*
X130107143Y-143285714D01*
X130250000Y-143285714D01*
X130392857Y-143357142D01*
X130464286Y-143428571D01*
X130535714Y-143571428D01*
X130607143Y-143857142D01*
X130678571Y-144000000D01*
X130750000Y-144071428D01*
X130892857Y-144142857D01*
X131035714Y-144142857D01*
X131178571Y-144071428D01*
X131250000Y-144000000D01*
X131321429Y-143857142D01*
X131321429Y-143500000D01*
X131250000Y-143285714D01*
X131321429Y-142785714D02*
X129821429Y-142428571D01*
X130892857Y-142142857D01*
X129821429Y-141857143D01*
X131321429Y-141500000D01*
X129821429Y-140928571D02*
X131321429Y-140928571D01*
X131321429Y-140571428D01*
X131250000Y-140357143D01*
X131107143Y-140214285D01*
X130964286Y-140142857D01*
X130678571Y-140071428D01*
X130464286Y-140071428D01*
X130178571Y-140142857D01*
X130035714Y-140214285D01*
X129892857Y-140357143D01*
X129821429Y-140571428D01*
X129821429Y-140928571D01*
X129964286Y-138571428D02*
X129892857Y-138642857D01*
X129821429Y-138857143D01*
X129821429Y-139000000D01*
X129892857Y-139214285D01*
X130035714Y-139357143D01*
X130178571Y-139428571D01*
X130464286Y-139500000D01*
X130678571Y-139500000D01*
X130964286Y-139428571D01*
X131107143Y-139357143D01*
X131250000Y-139214285D01*
X131321429Y-139000000D01*
X131321429Y-138857143D01*
X131250000Y-138642857D01*
X131178571Y-138571428D01*
X129821429Y-137214285D02*
X129821429Y-137928571D01*
X131321429Y-137928571D01*
X129821429Y-136714285D02*
X131321429Y-136714285D01*
X129821429Y-135857142D02*
X130678571Y-136499999D01*
X131321429Y-135857142D02*
X130464286Y-136714285D01*
X128750000Y-143392857D02*
X128821429Y-143535714D01*
X128821429Y-143750000D01*
X128750000Y-143964285D01*
X128607143Y-144107143D01*
X128464286Y-144178571D01*
X128178571Y-144250000D01*
X127964286Y-144250000D01*
X127678571Y-144178571D01*
X127535714Y-144107143D01*
X127392857Y-143964285D01*
X127321429Y-143750000D01*
X127321429Y-143607143D01*
X127392857Y-143392857D01*
X127464286Y-143321428D01*
X127964286Y-143321428D01*
X127964286Y-143607143D01*
X127321429Y-142678571D02*
X128821429Y-142678571D01*
X127321429Y-141821428D01*
X128821429Y-141821428D01*
X127321429Y-141107142D02*
X128821429Y-141107142D01*
X128821429Y-140749999D01*
X128750000Y-140535714D01*
X128607143Y-140392856D01*
X128464286Y-140321428D01*
X128178571Y-140249999D01*
X127964286Y-140249999D01*
X127678571Y-140321428D01*
X127535714Y-140392856D01*
X127392857Y-140535714D01*
X127321429Y-140749999D01*
X127321429Y-141107142D01*
X124892857Y-144178572D02*
X124821429Y-143964286D01*
X124821429Y-143607143D01*
X124892857Y-143464286D01*
X124964286Y-143392857D01*
X125107143Y-143321429D01*
X125250000Y-143321429D01*
X125392857Y-143392857D01*
X125464286Y-143464286D01*
X125535714Y-143607143D01*
X125607143Y-143892857D01*
X125678571Y-144035715D01*
X125750000Y-144107143D01*
X125892857Y-144178572D01*
X126035714Y-144178572D01*
X126178571Y-144107143D01*
X126250000Y-144035715D01*
X126321429Y-143892857D01*
X126321429Y-143535715D01*
X126250000Y-143321429D01*
X126321429Y-142821429D02*
X124821429Y-142464286D01*
X125892857Y-142178572D01*
X124821429Y-141892858D01*
X126321429Y-141535715D01*
X124821429Y-140964286D02*
X126321429Y-140964286D01*
X126321429Y-140607143D01*
X126250000Y-140392858D01*
X126107143Y-140250000D01*
X125964286Y-140178572D01*
X125678571Y-140107143D01*
X125464286Y-140107143D01*
X125178571Y-140178572D01*
X125035714Y-140250000D01*
X124892857Y-140392858D01*
X124821429Y-140607143D01*
X124821429Y-140964286D01*
X124821429Y-139464286D02*
X126321429Y-139464286D01*
X126321429Y-138464286D02*
X126321429Y-138178572D01*
X126250000Y-138035714D01*
X126107143Y-137892857D01*
X125821429Y-137821429D01*
X125321429Y-137821429D01*
X125035714Y-137892857D01*
X124892857Y-138035714D01*
X124821429Y-138178572D01*
X124821429Y-138464286D01*
X124892857Y-138607143D01*
X125035714Y-138750000D01*
X125321429Y-138821429D01*
X125821429Y-138821429D01*
X126107143Y-138750000D01*
X126250000Y-138607143D01*
X126321429Y-138464286D01*
X121821429Y-142571428D02*
X122535714Y-143071428D01*
X121821429Y-143428571D02*
X123321429Y-143428571D01*
X123321429Y-142857143D01*
X123250000Y-142714285D01*
X123178571Y-142642857D01*
X123035714Y-142571428D01*
X122821429Y-142571428D01*
X122678571Y-142642857D01*
X122607143Y-142714285D01*
X122535714Y-142857143D01*
X122535714Y-143428571D01*
X121892857Y-142000000D02*
X121821429Y-141785714D01*
X121821429Y-141428571D01*
X121892857Y-141285714D01*
X121964286Y-141214285D01*
X122107143Y-141142857D01*
X122250000Y-141142857D01*
X122392857Y-141214285D01*
X122464286Y-141285714D01*
X122535714Y-141428571D01*
X122607143Y-141714285D01*
X122678571Y-141857143D01*
X122750000Y-141928571D01*
X122892857Y-142000000D01*
X123035714Y-142000000D01*
X123178571Y-141928571D01*
X123250000Y-141857143D01*
X123321429Y-141714285D01*
X123321429Y-141357143D01*
X123250000Y-141142857D01*
X123321429Y-140714286D02*
X123321429Y-139857143D01*
X121821429Y-140285714D02*
X123321429Y-140285714D01*
X123580000Y-143785714D02*
X123580000Y-139714286D01*
X120821429Y-144214285D02*
X119607143Y-144214285D01*
X119464286Y-144142857D01*
X119392857Y-144071428D01*
X119321429Y-143928571D01*
X119321429Y-143642857D01*
X119392857Y-143499999D01*
X119464286Y-143428571D01*
X119607143Y-143357142D01*
X120821429Y-143357142D01*
X119178571Y-142999999D02*
X119178571Y-141857142D01*
X119321429Y-140642856D02*
X120035714Y-141142856D01*
X119321429Y-141499999D02*
X120821429Y-141499999D01*
X120821429Y-140928571D01*
X120750000Y-140785713D01*
X120678571Y-140714285D01*
X120535714Y-140642856D01*
X120321429Y-140642856D01*
X120178571Y-140714285D01*
X120107143Y-140785713D01*
X120035714Y-140928571D01*
X120035714Y-141499999D01*
X120821429Y-140142856D02*
X119321429Y-139142856D01*
X120821429Y-139142856D02*
X119321429Y-140142856D01*
X118321429Y-144035714D02*
X117107143Y-144035714D01*
X116964286Y-143964286D01*
X116892857Y-143892857D01*
X116821429Y-143750000D01*
X116821429Y-143464286D01*
X116892857Y-143321428D01*
X116964286Y-143250000D01*
X117107143Y-143178571D01*
X118321429Y-143178571D01*
X116678571Y-142821428D02*
X116678571Y-141678571D01*
X118321429Y-141535714D02*
X118321429Y-140678571D01*
X116821429Y-141107142D02*
X118321429Y-141107142D01*
X118321429Y-140321428D02*
X116821429Y-139321428D01*
X118321429Y-139321428D02*
X116821429Y-140321428D01*
X107250000Y-141642857D02*
X107321429Y-141785714D01*
X107321429Y-142000000D01*
X107250000Y-142214285D01*
X107107143Y-142357143D01*
X106964286Y-142428571D01*
X106678571Y-142500000D01*
X106464286Y-142500000D01*
X106178571Y-142428571D01*
X106035714Y-142357143D01*
X105892857Y-142214285D01*
X105821429Y-142000000D01*
X105821429Y-141857143D01*
X105892857Y-141642857D01*
X105964286Y-141571428D01*
X106464286Y-141571428D01*
X106464286Y-141857143D01*
X105821429Y-140928571D02*
X107321429Y-140928571D01*
X105821429Y-140071428D01*
X107321429Y-140071428D01*
X105821429Y-139357142D02*
X107321429Y-139357142D01*
X107321429Y-138999999D01*
X107250000Y-138785714D01*
X107107143Y-138642856D01*
X106964286Y-138571428D01*
X106678571Y-138499999D01*
X106464286Y-138499999D01*
X106178571Y-138571428D01*
X106035714Y-138642856D01*
X105892857Y-138785714D01*
X105821429Y-138999999D01*
X105821429Y-139357142D01*
X103892857Y-142428571D02*
X103892857Y-141285714D01*
X103321429Y-141857143D02*
X104464286Y-141857143D01*
X104821429Y-139857142D02*
X104821429Y-140571428D01*
X104107143Y-140642857D01*
X104178571Y-140571428D01*
X104250000Y-140428571D01*
X104250000Y-140071428D01*
X104178571Y-139928571D01*
X104107143Y-139857142D01*
X103964286Y-139785714D01*
X103607143Y-139785714D01*
X103464286Y-139857142D01*
X103392857Y-139928571D01*
X103321429Y-140071428D01*
X103321429Y-140428571D01*
X103392857Y-140571428D01*
X103464286Y-140642857D01*
X104821429Y-139357143D02*
X103321429Y-138857143D01*
X104821429Y-138357143D01*
X101392857Y-143499999D02*
X101392857Y-142357142D01*
X100821429Y-142928571D02*
X101964286Y-142928571D01*
X102321429Y-141785713D02*
X102321429Y-140857142D01*
X101750000Y-141357142D01*
X101750000Y-141142856D01*
X101678571Y-140999999D01*
X101607143Y-140928570D01*
X101464286Y-140857142D01*
X101107143Y-140857142D01*
X100964286Y-140928570D01*
X100892857Y-140999999D01*
X100821429Y-141142856D01*
X100821429Y-141571428D01*
X100892857Y-141714285D01*
X100964286Y-141785713D01*
X100964286Y-140214285D02*
X100892857Y-140142857D01*
X100821429Y-140214285D01*
X100892857Y-140285714D01*
X100964286Y-140214285D01*
X100821429Y-140214285D01*
X102321429Y-139642856D02*
X102321429Y-138714285D01*
X101750000Y-139214285D01*
X101750000Y-138999999D01*
X101678571Y-138857142D01*
X101607143Y-138785713D01*
X101464286Y-138714285D01*
X101107143Y-138714285D01*
X100964286Y-138785713D01*
X100892857Y-138857142D01*
X100821429Y-138999999D01*
X100821429Y-139428571D01*
X100892857Y-139571428D01*
X100964286Y-139642856D01*
X102321429Y-138285714D02*
X100821429Y-137785714D01*
X102321429Y-137285714D01*
X97892857Y-142285714D02*
X97821429Y-142071428D01*
X97821429Y-141714285D01*
X97892857Y-141571428D01*
X97964286Y-141499999D01*
X98107143Y-141428571D01*
X98250000Y-141428571D01*
X98392857Y-141499999D01*
X98464286Y-141571428D01*
X98535714Y-141714285D01*
X98607143Y-141999999D01*
X98678571Y-142142857D01*
X98750000Y-142214285D01*
X98892857Y-142285714D01*
X99035714Y-142285714D01*
X99178571Y-142214285D01*
X99250000Y-142142857D01*
X99321429Y-141999999D01*
X99321429Y-141642857D01*
X99250000Y-141428571D01*
X97964286Y-139928571D02*
X97892857Y-140000000D01*
X97821429Y-140214286D01*
X97821429Y-140357143D01*
X97892857Y-140571428D01*
X98035714Y-140714286D01*
X98178571Y-140785714D01*
X98464286Y-140857143D01*
X98678571Y-140857143D01*
X98964286Y-140785714D01*
X99107143Y-140714286D01*
X99250000Y-140571428D01*
X99321429Y-140357143D01*
X99321429Y-140214286D01*
X99250000Y-140000000D01*
X99178571Y-139928571D01*
X97821429Y-138571428D02*
X97821429Y-139285714D01*
X99321429Y-139285714D01*
X95392857Y-142321428D02*
X95321429Y-142107142D01*
X95321429Y-141749999D01*
X95392857Y-141607142D01*
X95464286Y-141535713D01*
X95607143Y-141464285D01*
X95750000Y-141464285D01*
X95892857Y-141535713D01*
X95964286Y-141607142D01*
X96035714Y-141749999D01*
X96107143Y-142035713D01*
X96178571Y-142178571D01*
X96250000Y-142249999D01*
X96392857Y-142321428D01*
X96535714Y-142321428D01*
X96678571Y-142249999D01*
X96750000Y-142178571D01*
X96821429Y-142035713D01*
X96821429Y-141678571D01*
X96750000Y-141464285D01*
X95321429Y-140821428D02*
X96821429Y-140821428D01*
X96821429Y-140464285D01*
X96750000Y-140250000D01*
X96607143Y-140107142D01*
X96464286Y-140035714D01*
X96178571Y-139964285D01*
X95964286Y-139964285D01*
X95678571Y-140035714D01*
X95535714Y-140107142D01*
X95392857Y-140250000D01*
X95321429Y-140464285D01*
X95321429Y-140821428D01*
X95750000Y-139392857D02*
X95750000Y-138678571D01*
X95321429Y-139535714D02*
X96821429Y-139035714D01*
X95321429Y-138535714D01*
X92821429Y-141857143D02*
X94321429Y-141857143D01*
X92821429Y-141142857D02*
X94321429Y-141142857D01*
X92821429Y-140285714D01*
X94321429Y-140285714D01*
X94321429Y-139785714D02*
X94321429Y-138928571D01*
X92821429Y-139357142D02*
X94321429Y-139357142D01*
X94580000Y-142214286D02*
X94580000Y-138785714D01*
X92821429Y-59357143D02*
X94321429Y-59357143D01*
X92821429Y-58642857D02*
X94321429Y-58642857D01*
X92821429Y-57785714D01*
X94321429Y-57785714D01*
X94321429Y-57285714D02*
X94321429Y-56428571D01*
X92821429Y-56857142D02*
X94321429Y-56857142D01*
X94580000Y-59714286D02*
X94580000Y-56285714D01*
X95392857Y-59821428D02*
X95321429Y-59607142D01*
X95321429Y-59249999D01*
X95392857Y-59107142D01*
X95464286Y-59035713D01*
X95607143Y-58964285D01*
X95750000Y-58964285D01*
X95892857Y-59035713D01*
X95964286Y-59107142D01*
X96035714Y-59249999D01*
X96107143Y-59535713D01*
X96178571Y-59678571D01*
X96250000Y-59749999D01*
X96392857Y-59821428D01*
X96535714Y-59821428D01*
X96678571Y-59749999D01*
X96750000Y-59678571D01*
X96821429Y-59535713D01*
X96821429Y-59178571D01*
X96750000Y-58964285D01*
X95321429Y-58321428D02*
X96821429Y-58321428D01*
X96821429Y-57964285D01*
X96750000Y-57750000D01*
X96607143Y-57607142D01*
X96464286Y-57535714D01*
X96178571Y-57464285D01*
X95964286Y-57464285D01*
X95678571Y-57535714D01*
X95535714Y-57607142D01*
X95392857Y-57750000D01*
X95321429Y-57964285D01*
X95321429Y-58321428D01*
X95750000Y-56892857D02*
X95750000Y-56178571D01*
X95321429Y-57035714D02*
X96821429Y-56535714D01*
X95321429Y-56035714D01*
X97892857Y-59785714D02*
X97821429Y-59571428D01*
X97821429Y-59214285D01*
X97892857Y-59071428D01*
X97964286Y-58999999D01*
X98107143Y-58928571D01*
X98250000Y-58928571D01*
X98392857Y-58999999D01*
X98464286Y-59071428D01*
X98535714Y-59214285D01*
X98607143Y-59499999D01*
X98678571Y-59642857D01*
X98750000Y-59714285D01*
X98892857Y-59785714D01*
X99035714Y-59785714D01*
X99178571Y-59714285D01*
X99250000Y-59642857D01*
X99321429Y-59499999D01*
X99321429Y-59142857D01*
X99250000Y-58928571D01*
X97964286Y-57428571D02*
X97892857Y-57500000D01*
X97821429Y-57714286D01*
X97821429Y-57857143D01*
X97892857Y-58071428D01*
X98035714Y-58214286D01*
X98178571Y-58285714D01*
X98464286Y-58357143D01*
X98678571Y-58357143D01*
X98964286Y-58285714D01*
X99107143Y-58214286D01*
X99250000Y-58071428D01*
X99321429Y-57857143D01*
X99321429Y-57714286D01*
X99250000Y-57500000D01*
X99178571Y-57428571D01*
X97821429Y-56071428D02*
X97821429Y-56785714D01*
X99321429Y-56785714D01*
X101392857Y-60999999D02*
X101392857Y-59857142D01*
X100821429Y-60428571D02*
X101964286Y-60428571D01*
X102321429Y-59285713D02*
X102321429Y-58357142D01*
X101750000Y-58857142D01*
X101750000Y-58642856D01*
X101678571Y-58499999D01*
X101607143Y-58428570D01*
X101464286Y-58357142D01*
X101107143Y-58357142D01*
X100964286Y-58428570D01*
X100892857Y-58499999D01*
X100821429Y-58642856D01*
X100821429Y-59071428D01*
X100892857Y-59214285D01*
X100964286Y-59285713D01*
X100964286Y-57714285D02*
X100892857Y-57642857D01*
X100821429Y-57714285D01*
X100892857Y-57785714D01*
X100964286Y-57714285D01*
X100821429Y-57714285D01*
X102321429Y-57142856D02*
X102321429Y-56214285D01*
X101750000Y-56714285D01*
X101750000Y-56499999D01*
X101678571Y-56357142D01*
X101607143Y-56285713D01*
X101464286Y-56214285D01*
X101107143Y-56214285D01*
X100964286Y-56285713D01*
X100892857Y-56357142D01*
X100821429Y-56499999D01*
X100821429Y-56928571D01*
X100892857Y-57071428D01*
X100964286Y-57142856D01*
X102321429Y-55785714D02*
X100821429Y-55285714D01*
X102321429Y-54785714D01*
X103892857Y-59928571D02*
X103892857Y-58785714D01*
X103321429Y-59357143D02*
X104464286Y-59357143D01*
X104821429Y-57357142D02*
X104821429Y-58071428D01*
X104107143Y-58142857D01*
X104178571Y-58071428D01*
X104250000Y-57928571D01*
X104250000Y-57571428D01*
X104178571Y-57428571D01*
X104107143Y-57357142D01*
X103964286Y-57285714D01*
X103607143Y-57285714D01*
X103464286Y-57357142D01*
X103392857Y-57428571D01*
X103321429Y-57571428D01*
X103321429Y-57928571D01*
X103392857Y-58071428D01*
X103464286Y-58142857D01*
X104821429Y-56857143D02*
X103321429Y-56357143D01*
X104821429Y-55857143D01*
X107250000Y-59142857D02*
X107321429Y-59285714D01*
X107321429Y-59500000D01*
X107250000Y-59714285D01*
X107107143Y-59857143D01*
X106964286Y-59928571D01*
X106678571Y-60000000D01*
X106464286Y-60000000D01*
X106178571Y-59928571D01*
X106035714Y-59857143D01*
X105892857Y-59714285D01*
X105821429Y-59500000D01*
X105821429Y-59357143D01*
X105892857Y-59142857D01*
X105964286Y-59071428D01*
X106464286Y-59071428D01*
X106464286Y-59357143D01*
X105821429Y-58428571D02*
X107321429Y-58428571D01*
X105821429Y-57571428D01*
X107321429Y-57571428D01*
X105821429Y-56857142D02*
X107321429Y-56857142D01*
X107321429Y-56499999D01*
X107250000Y-56285714D01*
X107107143Y-56142856D01*
X106964286Y-56071428D01*
X106678571Y-55999999D01*
X106464286Y-55999999D01*
X106178571Y-56071428D01*
X106035714Y-56142856D01*
X105892857Y-56285714D01*
X105821429Y-56499999D01*
X105821429Y-56857142D01*
X142357143Y-107178571D02*
X142357143Y-105678571D01*
X141642857Y-107178571D02*
X141642857Y-105678571D01*
X140785714Y-107178571D01*
X140785714Y-105678571D01*
X140285714Y-105678571D02*
X139428571Y-105678571D01*
X139857142Y-107178571D02*
X139857142Y-105678571D01*
X142714286Y-105420000D02*
X139285714Y-105420000D01*
X142821428Y-104607143D02*
X142607142Y-104678571D01*
X142249999Y-104678571D01*
X142107142Y-104607143D01*
X142035713Y-104535714D01*
X141964285Y-104392857D01*
X141964285Y-104250000D01*
X142035713Y-104107143D01*
X142107142Y-104035714D01*
X142249999Y-103964286D01*
X142535713Y-103892857D01*
X142678571Y-103821429D01*
X142749999Y-103750000D01*
X142821428Y-103607143D01*
X142821428Y-103464286D01*
X142749999Y-103321429D01*
X142678571Y-103250000D01*
X142535713Y-103178571D01*
X142178571Y-103178571D01*
X141964285Y-103250000D01*
X141321428Y-104678571D02*
X141321428Y-103178571D01*
X140964285Y-103178571D01*
X140750000Y-103250000D01*
X140607142Y-103392857D01*
X140535714Y-103535714D01*
X140464285Y-103821429D01*
X140464285Y-104035714D01*
X140535714Y-104321429D01*
X140607142Y-104464286D01*
X140750000Y-104607143D01*
X140964285Y-104678571D01*
X141321428Y-104678571D01*
X139892857Y-104250000D02*
X139178571Y-104250000D01*
X140035714Y-104678571D02*
X139535714Y-103178571D01*
X139035714Y-104678571D01*
X142785714Y-102107143D02*
X142571428Y-102178571D01*
X142214285Y-102178571D01*
X142071428Y-102107143D01*
X141999999Y-102035714D01*
X141928571Y-101892857D01*
X141928571Y-101750000D01*
X141999999Y-101607143D01*
X142071428Y-101535714D01*
X142214285Y-101464286D01*
X142499999Y-101392857D01*
X142642857Y-101321429D01*
X142714285Y-101250000D01*
X142785714Y-101107143D01*
X142785714Y-100964286D01*
X142714285Y-100821429D01*
X142642857Y-100750000D01*
X142499999Y-100678571D01*
X142142857Y-100678571D01*
X141928571Y-100750000D01*
X140428571Y-102035714D02*
X140500000Y-102107143D01*
X140714286Y-102178571D01*
X140857143Y-102178571D01*
X141071428Y-102107143D01*
X141214286Y-101964286D01*
X141285714Y-101821429D01*
X141357143Y-101535714D01*
X141357143Y-101321429D01*
X141285714Y-101035714D01*
X141214286Y-100892857D01*
X141071428Y-100750000D01*
X140857143Y-100678571D01*
X140714286Y-100678571D01*
X140500000Y-100750000D01*
X140428571Y-100821429D01*
X139071428Y-102178571D02*
X139785714Y-102178571D01*
X139785714Y-100678571D01*
X143999999Y-98607143D02*
X142857142Y-98607143D01*
X143428571Y-99178571D02*
X143428571Y-98035714D01*
X142285713Y-97678571D02*
X141357142Y-97678571D01*
X141857142Y-98250000D01*
X141642856Y-98250000D01*
X141499999Y-98321429D01*
X141428570Y-98392857D01*
X141357142Y-98535714D01*
X141357142Y-98892857D01*
X141428570Y-99035714D01*
X141499999Y-99107143D01*
X141642856Y-99178571D01*
X142071428Y-99178571D01*
X142214285Y-99107143D01*
X142285713Y-99035714D01*
X140714285Y-99035714D02*
X140642857Y-99107143D01*
X140714285Y-99178571D01*
X140785714Y-99107143D01*
X140714285Y-99035714D01*
X140714285Y-99178571D01*
X140142856Y-97678571D02*
X139214285Y-97678571D01*
X139714285Y-98250000D01*
X139499999Y-98250000D01*
X139357142Y-98321429D01*
X139285713Y-98392857D01*
X139214285Y-98535714D01*
X139214285Y-98892857D01*
X139285713Y-99035714D01*
X139357142Y-99107143D01*
X139499999Y-99178571D01*
X139928571Y-99178571D01*
X140071428Y-99107143D01*
X140142856Y-99035714D01*
X138785714Y-97678571D02*
X138285714Y-99178571D01*
X137785714Y-97678571D01*
X142928571Y-96107143D02*
X141785714Y-96107143D01*
X142357143Y-96678571D02*
X142357143Y-95535714D01*
X140357142Y-95178571D02*
X141071428Y-95178571D01*
X141142857Y-95892857D01*
X141071428Y-95821429D01*
X140928571Y-95750000D01*
X140571428Y-95750000D01*
X140428571Y-95821429D01*
X140357142Y-95892857D01*
X140285714Y-96035714D01*
X140285714Y-96392857D01*
X140357142Y-96535714D01*
X140428571Y-96607143D01*
X140571428Y-96678571D01*
X140928571Y-96678571D01*
X141071428Y-96607143D01*
X141142857Y-96535714D01*
X139857143Y-95178571D02*
X139357143Y-96678571D01*
X138857143Y-95178571D01*
X142142857Y-92750000D02*
X142285714Y-92678571D01*
X142500000Y-92678571D01*
X142714285Y-92750000D01*
X142857143Y-92892857D01*
X142928571Y-93035714D01*
X143000000Y-93321429D01*
X143000000Y-93535714D01*
X142928571Y-93821429D01*
X142857143Y-93964286D01*
X142714285Y-94107143D01*
X142500000Y-94178571D01*
X142357143Y-94178571D01*
X142142857Y-94107143D01*
X142071428Y-94035714D01*
X142071428Y-93535714D01*
X142357143Y-93535714D01*
X141428571Y-94178571D02*
X141428571Y-92678571D01*
X140571428Y-94178571D01*
X140571428Y-92678571D01*
X139857142Y-94178571D02*
X139857142Y-92678571D01*
X139499999Y-92678571D01*
X139285714Y-92750000D01*
X139142856Y-92892857D01*
X139071428Y-93035714D01*
X138999999Y-93321429D01*
X138999999Y-93535714D01*
X139071428Y-93821429D01*
X139142856Y-93964286D01*
X139285714Y-94107143D01*
X139499999Y-94178571D01*
X139857142Y-94178571D01*
X61857143Y-107178571D02*
X61857143Y-105678571D01*
X61142857Y-107178571D02*
X61142857Y-105678571D01*
X60285714Y-107178571D01*
X60285714Y-105678571D01*
X59785714Y-105678571D02*
X58928571Y-105678571D01*
X59357142Y-107178571D02*
X59357142Y-105678571D01*
X62214286Y-105420000D02*
X58785714Y-105420000D01*
X62321428Y-104607143D02*
X62107142Y-104678571D01*
X61749999Y-104678571D01*
X61607142Y-104607143D01*
X61535713Y-104535714D01*
X61464285Y-104392857D01*
X61464285Y-104250000D01*
X61535713Y-104107143D01*
X61607142Y-104035714D01*
X61749999Y-103964286D01*
X62035713Y-103892857D01*
X62178571Y-103821429D01*
X62249999Y-103750000D01*
X62321428Y-103607143D01*
X62321428Y-103464286D01*
X62249999Y-103321429D01*
X62178571Y-103250000D01*
X62035713Y-103178571D01*
X61678571Y-103178571D01*
X61464285Y-103250000D01*
X60821428Y-104678571D02*
X60821428Y-103178571D01*
X60464285Y-103178571D01*
X60250000Y-103250000D01*
X60107142Y-103392857D01*
X60035714Y-103535714D01*
X59964285Y-103821429D01*
X59964285Y-104035714D01*
X60035714Y-104321429D01*
X60107142Y-104464286D01*
X60250000Y-104607143D01*
X60464285Y-104678571D01*
X60821428Y-104678571D01*
X59392857Y-104250000D02*
X58678571Y-104250000D01*
X59535714Y-104678571D02*
X59035714Y-103178571D01*
X58535714Y-104678571D01*
X62285714Y-102107143D02*
X62071428Y-102178571D01*
X61714285Y-102178571D01*
X61571428Y-102107143D01*
X61499999Y-102035714D01*
X61428571Y-101892857D01*
X61428571Y-101750000D01*
X61499999Y-101607143D01*
X61571428Y-101535714D01*
X61714285Y-101464286D01*
X61999999Y-101392857D01*
X62142857Y-101321429D01*
X62214285Y-101250000D01*
X62285714Y-101107143D01*
X62285714Y-100964286D01*
X62214285Y-100821429D01*
X62142857Y-100750000D01*
X61999999Y-100678571D01*
X61642857Y-100678571D01*
X61428571Y-100750000D01*
X59928571Y-102035714D02*
X60000000Y-102107143D01*
X60214286Y-102178571D01*
X60357143Y-102178571D01*
X60571428Y-102107143D01*
X60714286Y-101964286D01*
X60785714Y-101821429D01*
X60857143Y-101535714D01*
X60857143Y-101321429D01*
X60785714Y-101035714D01*
X60714286Y-100892857D01*
X60571428Y-100750000D01*
X60357143Y-100678571D01*
X60214286Y-100678571D01*
X60000000Y-100750000D01*
X59928571Y-100821429D01*
X58571428Y-102178571D02*
X59285714Y-102178571D01*
X59285714Y-100678571D01*
X63499999Y-98607143D02*
X62357142Y-98607143D01*
X62928571Y-99178571D02*
X62928571Y-98035714D01*
X61785713Y-97678571D02*
X60857142Y-97678571D01*
X61357142Y-98250000D01*
X61142856Y-98250000D01*
X60999999Y-98321429D01*
X60928570Y-98392857D01*
X60857142Y-98535714D01*
X60857142Y-98892857D01*
X60928570Y-99035714D01*
X60999999Y-99107143D01*
X61142856Y-99178571D01*
X61571428Y-99178571D01*
X61714285Y-99107143D01*
X61785713Y-99035714D01*
X60214285Y-99035714D02*
X60142857Y-99107143D01*
X60214285Y-99178571D01*
X60285714Y-99107143D01*
X60214285Y-99035714D01*
X60214285Y-99178571D01*
X59642856Y-97678571D02*
X58714285Y-97678571D01*
X59214285Y-98250000D01*
X58999999Y-98250000D01*
X58857142Y-98321429D01*
X58785713Y-98392857D01*
X58714285Y-98535714D01*
X58714285Y-98892857D01*
X58785713Y-99035714D01*
X58857142Y-99107143D01*
X58999999Y-99178571D01*
X59428571Y-99178571D01*
X59571428Y-99107143D01*
X59642856Y-99035714D01*
X58285714Y-97678571D02*
X57785714Y-99178571D01*
X57285714Y-97678571D01*
X62428571Y-96107143D02*
X61285714Y-96107143D01*
X61857143Y-96678571D02*
X61857143Y-95535714D01*
X59857142Y-95178571D02*
X60571428Y-95178571D01*
X60642857Y-95892857D01*
X60571428Y-95821429D01*
X60428571Y-95750000D01*
X60071428Y-95750000D01*
X59928571Y-95821429D01*
X59857142Y-95892857D01*
X59785714Y-96035714D01*
X59785714Y-96392857D01*
X59857142Y-96535714D01*
X59928571Y-96607143D01*
X60071428Y-96678571D01*
X60428571Y-96678571D01*
X60571428Y-96607143D01*
X60642857Y-96535714D01*
X59357143Y-95178571D02*
X58857143Y-96678571D01*
X58357143Y-95178571D01*
X61642857Y-92750000D02*
X61785714Y-92678571D01*
X62000000Y-92678571D01*
X62214285Y-92750000D01*
X62357143Y-92892857D01*
X62428571Y-93035714D01*
X62500000Y-93321429D01*
X62500000Y-93535714D01*
X62428571Y-93821429D01*
X62357143Y-93964286D01*
X62214285Y-94107143D01*
X62000000Y-94178571D01*
X61857143Y-94178571D01*
X61642857Y-94107143D01*
X61571428Y-94035714D01*
X61571428Y-93535714D01*
X61857143Y-93535714D01*
X60928571Y-94178571D02*
X60928571Y-92678571D01*
X60071428Y-94178571D01*
X60071428Y-92678571D01*
X59357142Y-94178571D02*
X59357142Y-92678571D01*
X58999999Y-92678571D01*
X58785714Y-92750000D01*
X58642856Y-92892857D01*
X58571428Y-93035714D01*
X58499999Y-93321429D01*
X58499999Y-93535714D01*
X58571428Y-93821429D01*
X58642856Y-93964286D01*
X58785714Y-94107143D01*
X58999999Y-94178571D01*
X59357142Y-94178571D01*
D12*
X88120000Y-101820000D02*
X88120000Y-101120000D01*
X86920000Y-101120000D02*
X86920000Y-101820000D01*
X87788000Y-97910000D02*
X88488000Y-97910000D01*
X88488000Y-96710000D02*
X87788000Y-96710000D01*
X102360000Y-90582000D02*
X102360000Y-91282000D01*
X103560000Y-91282000D02*
X103560000Y-90582000D01*
X89980000Y-101810000D02*
X89980000Y-101110000D01*
X88780000Y-101110000D02*
X88780000Y-101810000D01*
X91310000Y-106440000D02*
X92010000Y-106440000D01*
X92010000Y-105240000D02*
X91310000Y-105240000D01*
X79400000Y-101775000D02*
X79400000Y-101075000D01*
X78200000Y-101075000D02*
X78200000Y-101775000D01*
X82725000Y-100275000D02*
X82725000Y-102175000D01*
X81625000Y-100275000D02*
X81625000Y-102175000D01*
X82175000Y-101175000D02*
X82175000Y-101625000D01*
X81925000Y-101125000D02*
X82425000Y-101125000D01*
X82175000Y-101125000D02*
X81925000Y-101375000D01*
X81925000Y-101375000D02*
X82425000Y-101375000D01*
X82425000Y-101375000D02*
X82175000Y-101125000D01*
X75500000Y-107325000D02*
X73950000Y-107325000D01*
X75500000Y-106025000D02*
X75500000Y-107325000D01*
X74077000Y-101834000D02*
X74077000Y-95992000D01*
X74077000Y-95992000D02*
X73823000Y-95992000D01*
X73823000Y-95992000D02*
X73823000Y-101834000D01*
X73823000Y-101834000D02*
X73950000Y-101834000D01*
X73950000Y-101834000D02*
X73950000Y-95992000D01*
X74204000Y-104501000D02*
X74204000Y-104882000D01*
X73696000Y-104501000D02*
X73696000Y-104882000D01*
X71664000Y-104501000D02*
X71664000Y-104882000D01*
X71156000Y-104501000D02*
X71156000Y-104882000D01*
X75220000Y-104501000D02*
X75220000Y-101961000D01*
X72680000Y-104501000D02*
X72680000Y-101961000D01*
X72680000Y-104501000D02*
X70140000Y-104501000D01*
X70140000Y-104501000D02*
X70140000Y-101961000D01*
X71664000Y-101961000D02*
X71664000Y-95865000D01*
X71664000Y-95865000D02*
X71156000Y-95865000D01*
X71156000Y-95865000D02*
X71156000Y-101961000D01*
X70140000Y-101961000D02*
X72680000Y-101961000D01*
X72680000Y-101961000D02*
X75220000Y-101961000D01*
X73696000Y-95865000D02*
X73696000Y-101961000D01*
X74204000Y-95865000D02*
X73696000Y-95865000D01*
X74204000Y-101961000D02*
X74204000Y-95865000D01*
X72680000Y-104501000D02*
X72680000Y-101961000D01*
X75220000Y-104501000D02*
X72680000Y-104501000D01*
X107600000Y-41940000D02*
X107600000Y-50770000D01*
X105060000Y-41940000D02*
X107600000Y-41940000D01*
X105060000Y-50770000D02*
X107600000Y-50770000D01*
X102520000Y-50770000D02*
X105060000Y-50770000D01*
X102520000Y-41940000D02*
X105060000Y-41940000D01*
X105060000Y-41940000D02*
X105060000Y-50770000D01*
X102520000Y-41940000D02*
X102520000Y-50770000D01*
X99980000Y-41940000D02*
X102520000Y-41940000D01*
X99980000Y-50770000D02*
X102520000Y-50770000D01*
X97440000Y-50770000D02*
X99980000Y-50770000D01*
X97440000Y-41940000D02*
X99980000Y-41940000D01*
X99980000Y-41940000D02*
X99980000Y-50770000D01*
X97440000Y-41940000D02*
X97440000Y-50770000D01*
X94900000Y-41940000D02*
X97440000Y-41940000D01*
X94900000Y-50770000D02*
X94900000Y-41940000D01*
X94900000Y-50770000D02*
X97440000Y-50770000D01*
X92360000Y-50770000D02*
X94900000Y-50770000D01*
X93630000Y-53440000D02*
X92080000Y-53440000D01*
X92080000Y-53440000D02*
X92080000Y-52040000D01*
X92360000Y-50770000D02*
X92360000Y-41940000D01*
X92360000Y-41940000D02*
X94900000Y-41940000D01*
X94900000Y-41940000D02*
X94900000Y-50770000D01*
X43850000Y-92360000D02*
X52680000Y-92360000D01*
X43850000Y-94900000D02*
X43850000Y-92360000D01*
X52680000Y-94900000D02*
X52680000Y-92360000D01*
X52680000Y-97440000D02*
X52680000Y-94900000D01*
X43850000Y-97440000D02*
X43850000Y-94900000D01*
X43850000Y-94900000D02*
X52680000Y-94900000D01*
X43850000Y-97440000D02*
X52680000Y-97440000D01*
X43850000Y-99980000D02*
X43850000Y-97440000D01*
X52680000Y-99980000D02*
X52680000Y-97440000D01*
X52680000Y-102520000D02*
X52680000Y-99980000D01*
X43850000Y-102520000D02*
X43850000Y-99980000D01*
X43850000Y-99980000D02*
X52680000Y-99980000D01*
X43850000Y-102520000D02*
X52680000Y-102520000D01*
X43850000Y-105060000D02*
X43850000Y-102520000D01*
X52680000Y-105060000D02*
X43850000Y-105060000D01*
X52680000Y-105060000D02*
X52680000Y-102520000D01*
X52680000Y-107600000D02*
X52680000Y-105060000D01*
X55350000Y-106330000D02*
X55350000Y-107880000D01*
X55350000Y-107880000D02*
X53950000Y-107880000D01*
X52680000Y-107600000D02*
X43850000Y-107600000D01*
X43850000Y-107600000D02*
X43850000Y-105060000D01*
X43850000Y-105060000D02*
X52680000Y-105060000D01*
X144650000Y-107870000D02*
X144650000Y-106320000D01*
X145950000Y-107870000D02*
X144650000Y-107870000D01*
X150141000Y-106447000D02*
X155983000Y-106447000D01*
X155983000Y-106447000D02*
X155983000Y-106193000D01*
X155983000Y-106193000D02*
X150141000Y-106193000D01*
X150141000Y-106193000D02*
X150141000Y-106320000D01*
X150141000Y-106320000D02*
X155983000Y-106320000D01*
X147474000Y-106574000D02*
X147093000Y-106574000D01*
X147474000Y-106066000D02*
X147093000Y-106066000D01*
X147474000Y-104034000D02*
X147093000Y-104034000D01*
X147474000Y-103526000D02*
X147093000Y-103526000D01*
X147474000Y-101494000D02*
X147093000Y-101494000D01*
X147474000Y-100986000D02*
X147093000Y-100986000D01*
X147474000Y-93366000D02*
X147093000Y-93366000D01*
X147474000Y-93874000D02*
X147093000Y-93874000D01*
X147474000Y-95906000D02*
X147093000Y-95906000D01*
X147474000Y-96414000D02*
X147093000Y-96414000D01*
X147474000Y-98446000D02*
X147093000Y-98446000D01*
X147474000Y-98954000D02*
X147093000Y-98954000D01*
X147474000Y-107590000D02*
X150014000Y-107590000D01*
X147474000Y-105050000D02*
X150014000Y-105050000D01*
X147474000Y-105050000D02*
X147474000Y-102510000D01*
X147474000Y-102510000D02*
X150014000Y-102510000D01*
X150014000Y-104034000D02*
X156110000Y-104034000D01*
X156110000Y-104034000D02*
X156110000Y-103526000D01*
X156110000Y-103526000D02*
X150014000Y-103526000D01*
X150014000Y-102510000D02*
X150014000Y-105050000D01*
X150014000Y-105050000D02*
X150014000Y-107590000D01*
X156110000Y-106066000D02*
X150014000Y-106066000D01*
X156110000Y-106574000D02*
X156110000Y-106066000D01*
X150014000Y-106574000D02*
X156110000Y-106574000D01*
X147474000Y-105050000D02*
X150014000Y-105050000D01*
X147474000Y-107590000D02*
X147474000Y-105050000D01*
X147474000Y-97430000D02*
X150014000Y-97430000D01*
X147474000Y-97430000D02*
X147474000Y-94890000D01*
X147474000Y-94890000D02*
X150014000Y-94890000D01*
X150014000Y-96414000D02*
X156110000Y-96414000D01*
X156110000Y-96414000D02*
X156110000Y-95906000D01*
X156110000Y-95906000D02*
X150014000Y-95906000D01*
X150014000Y-94890000D02*
X150014000Y-97430000D01*
X150014000Y-92350000D02*
X150014000Y-94890000D01*
X156110000Y-93366000D02*
X150014000Y-93366000D01*
X156110000Y-93874000D02*
X156110000Y-93366000D01*
X150014000Y-93874000D02*
X156110000Y-93874000D01*
X147474000Y-92350000D02*
X150014000Y-92350000D01*
X147474000Y-94890000D02*
X147474000Y-92350000D01*
X147474000Y-94890000D02*
X150014000Y-94890000D01*
X147474000Y-99970000D02*
X150014000Y-99970000D01*
X147474000Y-99970000D02*
X147474000Y-97430000D01*
X147474000Y-97430000D02*
X150014000Y-97430000D01*
X150014000Y-98954000D02*
X156110000Y-98954000D01*
X156110000Y-98954000D02*
X156110000Y-98446000D01*
X156110000Y-98446000D02*
X150014000Y-98446000D01*
X150014000Y-97430000D02*
X150014000Y-99970000D01*
X150014000Y-99970000D02*
X150014000Y-102510000D01*
X156110000Y-100986000D02*
X150014000Y-100986000D01*
X156110000Y-101494000D02*
X156110000Y-100986000D01*
X150014000Y-101494000D02*
X156110000Y-101494000D01*
X147474000Y-99970000D02*
X150014000Y-99970000D01*
X147474000Y-102510000D02*
X147474000Y-99970000D01*
X147474000Y-102510000D02*
X150014000Y-102510000D01*
X92070000Y-144650000D02*
X93620000Y-144650000D01*
X92070000Y-145950000D02*
X92070000Y-144650000D01*
X93493000Y-150141000D02*
X93493000Y-155983000D01*
X93493000Y-155983000D02*
X93747000Y-155983000D01*
X93747000Y-155983000D02*
X93747000Y-150141000D01*
X93747000Y-150141000D02*
X93620000Y-150141000D01*
X93620000Y-150141000D02*
X93620000Y-155983000D01*
X93366000Y-147474000D02*
X93366000Y-147093000D01*
X93874000Y-147474000D02*
X93874000Y-147093000D01*
X95906000Y-147474000D02*
X95906000Y-147093000D01*
X96414000Y-147474000D02*
X96414000Y-147093000D01*
X98446000Y-147474000D02*
X98446000Y-147093000D01*
X98954000Y-147474000D02*
X98954000Y-147093000D01*
X106574000Y-147474000D02*
X106574000Y-147093000D01*
X106066000Y-147474000D02*
X106066000Y-147093000D01*
X104034000Y-147474000D02*
X104034000Y-147093000D01*
X103526000Y-147474000D02*
X103526000Y-147093000D01*
X101494000Y-147474000D02*
X101494000Y-147093000D01*
X100986000Y-147474000D02*
X100986000Y-147093000D01*
X92350000Y-147474000D02*
X92350000Y-150014000D01*
X94890000Y-147474000D02*
X94890000Y-150014000D01*
X94890000Y-147474000D02*
X97430000Y-147474000D01*
X97430000Y-147474000D02*
X97430000Y-150014000D01*
X95906000Y-150014000D02*
X95906000Y-156110000D01*
X95906000Y-156110000D02*
X96414000Y-156110000D01*
X96414000Y-156110000D02*
X96414000Y-150014000D01*
X97430000Y-150014000D02*
X94890000Y-150014000D01*
X94890000Y-150014000D02*
X92350000Y-150014000D01*
X93874000Y-156110000D02*
X93874000Y-150014000D01*
X93366000Y-156110000D02*
X93874000Y-156110000D01*
X93366000Y-150014000D02*
X93366000Y-156110000D01*
X94890000Y-147474000D02*
X94890000Y-150014000D01*
X92350000Y-147474000D02*
X94890000Y-147474000D01*
X102510000Y-147474000D02*
X102510000Y-150014000D01*
X102510000Y-147474000D02*
X105050000Y-147474000D01*
X105050000Y-147474000D02*
X105050000Y-150014000D01*
X103526000Y-150014000D02*
X103526000Y-156110000D01*
X103526000Y-156110000D02*
X104034000Y-156110000D01*
X104034000Y-156110000D02*
X104034000Y-150014000D01*
X105050000Y-150014000D02*
X102510000Y-150014000D01*
X107590000Y-150014000D02*
X105050000Y-150014000D01*
X106574000Y-156110000D02*
X106574000Y-150014000D01*
X106066000Y-156110000D02*
X106574000Y-156110000D01*
X106066000Y-150014000D02*
X106066000Y-156110000D01*
X107590000Y-147474000D02*
X107590000Y-150014000D01*
X105050000Y-147474000D02*
X107590000Y-147474000D01*
X105050000Y-147474000D02*
X105050000Y-150014000D01*
X99970000Y-147474000D02*
X99970000Y-150014000D01*
X99970000Y-147474000D02*
X102510000Y-147474000D01*
X102510000Y-147474000D02*
X102510000Y-150014000D01*
X100986000Y-150014000D02*
X100986000Y-156110000D01*
X100986000Y-156110000D02*
X101494000Y-156110000D01*
X101494000Y-156110000D02*
X101494000Y-150014000D01*
X102510000Y-150014000D02*
X99970000Y-150014000D01*
X99970000Y-150014000D02*
X97430000Y-150014000D01*
X98954000Y-156110000D02*
X98954000Y-150014000D01*
X98446000Y-156110000D02*
X98954000Y-156110000D01*
X98446000Y-150014000D02*
X98446000Y-156110000D01*
X99970000Y-147474000D02*
X99970000Y-150014000D01*
X97430000Y-147474000D02*
X99970000Y-147474000D01*
X97430000Y-147474000D02*
X97430000Y-150014000D01*
X116030000Y-144670000D02*
X117580000Y-144670000D01*
X116030000Y-145970000D02*
X116030000Y-144670000D01*
X117453000Y-150161000D02*
X117453000Y-156003000D01*
X117453000Y-156003000D02*
X117707000Y-156003000D01*
X117707000Y-156003000D02*
X117707000Y-150161000D01*
X117707000Y-150161000D02*
X117580000Y-150161000D01*
X117580000Y-150161000D02*
X117580000Y-156003000D01*
X117326000Y-147494000D02*
X117326000Y-147113000D01*
X117834000Y-147494000D02*
X117834000Y-147113000D01*
X119866000Y-147494000D02*
X119866000Y-147113000D01*
X120374000Y-147494000D02*
X120374000Y-147113000D01*
X122406000Y-147494000D02*
X122406000Y-147113000D01*
X122914000Y-147494000D02*
X122914000Y-147113000D01*
X124946000Y-147494000D02*
X124946000Y-147113000D01*
X125454000Y-147494000D02*
X125454000Y-147113000D01*
X133074000Y-147494000D02*
X133074000Y-147113000D01*
X132566000Y-147494000D02*
X132566000Y-147113000D01*
X130534000Y-147494000D02*
X130534000Y-147113000D01*
X130026000Y-147494000D02*
X130026000Y-147113000D01*
X127994000Y-147494000D02*
X127994000Y-147113000D01*
X127486000Y-147494000D02*
X127486000Y-147113000D01*
X118850000Y-150034000D02*
X116310000Y-150034000D01*
X117834000Y-156130000D02*
X117834000Y-150034000D01*
X117326000Y-156130000D02*
X117834000Y-156130000D01*
X117326000Y-150034000D02*
X117326000Y-156130000D01*
X118850000Y-147494000D02*
X118850000Y-150034000D01*
X116310000Y-147494000D02*
X118850000Y-147494000D01*
X116310000Y-147494000D02*
X116310000Y-150034000D01*
X121390000Y-147494000D02*
X121390000Y-150034000D01*
X121390000Y-147494000D02*
X123930000Y-147494000D01*
X123930000Y-147494000D02*
X123930000Y-150034000D01*
X122406000Y-150034000D02*
X122406000Y-156130000D01*
X122406000Y-156130000D02*
X122914000Y-156130000D01*
X122914000Y-156130000D02*
X122914000Y-150034000D01*
X123930000Y-150034000D02*
X121390000Y-150034000D01*
X121390000Y-150034000D02*
X118850000Y-150034000D01*
X120374000Y-156130000D02*
X120374000Y-150034000D01*
X119866000Y-156130000D02*
X120374000Y-156130000D01*
X119866000Y-150034000D02*
X119866000Y-156130000D01*
X121390000Y-147494000D02*
X121390000Y-150034000D01*
X118850000Y-147494000D02*
X121390000Y-147494000D01*
X118850000Y-147494000D02*
X118850000Y-150034000D01*
X129010000Y-147494000D02*
X129010000Y-150034000D01*
X129010000Y-147494000D02*
X131550000Y-147494000D01*
X131550000Y-147494000D02*
X131550000Y-150034000D01*
X130026000Y-150034000D02*
X130026000Y-156130000D01*
X130026000Y-156130000D02*
X130534000Y-156130000D01*
X130534000Y-156130000D02*
X130534000Y-150034000D01*
X131550000Y-150034000D02*
X129010000Y-150034000D01*
X134090000Y-150034000D02*
X131550000Y-150034000D01*
X133074000Y-156130000D02*
X133074000Y-150034000D01*
X132566000Y-156130000D02*
X133074000Y-156130000D01*
X132566000Y-150034000D02*
X132566000Y-156130000D01*
X134090000Y-147494000D02*
X134090000Y-150034000D01*
X131550000Y-147494000D02*
X134090000Y-147494000D01*
X131550000Y-147494000D02*
X131550000Y-150034000D01*
X126470000Y-147494000D02*
X126470000Y-150034000D01*
X126470000Y-147494000D02*
X129010000Y-147494000D01*
X129010000Y-147494000D02*
X129010000Y-150034000D01*
X127486000Y-150034000D02*
X127486000Y-156130000D01*
X127486000Y-156130000D02*
X127994000Y-156130000D01*
X127994000Y-156130000D02*
X127994000Y-150034000D01*
X129010000Y-150034000D02*
X126470000Y-150034000D01*
X126470000Y-150034000D02*
X123930000Y-150034000D01*
X125454000Y-156130000D02*
X125454000Y-150034000D01*
X124946000Y-156130000D02*
X125454000Y-156130000D01*
X124946000Y-150034000D02*
X124946000Y-156130000D01*
X126470000Y-147494000D02*
X126470000Y-150034000D01*
X123930000Y-147494000D02*
X126470000Y-147494000D01*
X123930000Y-147494000D02*
X123930000Y-150034000D01*
X79850000Y-100925000D02*
X79850000Y-101925000D01*
X81200000Y-101925000D02*
X81200000Y-100925000D01*
X85690000Y-101720000D02*
G75*
G03X85690000Y-101720000I-750000J0D01*
G01*
X83840000Y-103370000D02*
X83540000Y-103370000D01*
X83540000Y-103370000D02*
X83540000Y-100070000D01*
X83540000Y-100070000D02*
X83840000Y-100070000D01*
X86040000Y-103370000D02*
X86340000Y-103370000D01*
X86340000Y-103370000D02*
X86340000Y-100070000D01*
X86340000Y-100070000D02*
X86040000Y-100070000D01*
X96175000Y-103625000D02*
X96175000Y-103100000D01*
X103425000Y-103625000D02*
X103425000Y-103100000D01*
X103425000Y-96375000D02*
X103425000Y-96900000D01*
X96175000Y-96375000D02*
X96175000Y-96900000D01*
X96175000Y-103625000D02*
X96700000Y-103625000D01*
X96175000Y-96375000D02*
X96700000Y-96375000D01*
X103425000Y-96375000D02*
X102900000Y-96375000D01*
X103425000Y-103625000D02*
X102900000Y-103625000D01*
X96175000Y-103100000D02*
X94800000Y-103100000D01*
D13*
G36*
X98539563Y-85930110D02*
X98385322Y-85978194D01*
X98246435Y-86052841D01*
X98125523Y-86151525D01*
X98025212Y-86271723D01*
X97948125Y-86410910D01*
X97902651Y-86542917D01*
X97885384Y-86641641D01*
X97877864Y-86757579D01*
X97880055Y-86877738D01*
X97891920Y-86989128D01*
X97904058Y-87047855D01*
X97959146Y-87200847D01*
X98039105Y-87338640D01*
X98140855Y-87458207D01*
X98261317Y-87556521D01*
X98397414Y-87630552D01*
X98543416Y-87676716D01*
X98674372Y-87695668D01*
X98799577Y-87693510D01*
X98912625Y-87675191D01*
X99061543Y-87627644D01*
X99195180Y-87554376D01*
X99311765Y-87458402D01*
X99409524Y-87342734D01*
X99486686Y-87210386D01*
X99541478Y-87064371D01*
X99572127Y-86907701D01*
X99576860Y-86743392D01*
X99555577Y-86582202D01*
X99507548Y-86426019D01*
X99434042Y-86285640D01*
X99337257Y-86163944D01*
X99219391Y-86063812D01*
X99112481Y-86001686D01*
X98966760Y-85943450D01*
X98826486Y-85913071D01*
X98683819Y-85909569D01*
X98539563Y-85930110D01*
X98539563Y-85930110D01*
G37*
X98539563Y-85930110D02*
X98385322Y-85978194D01*
X98246435Y-86052841D01*
X98125523Y-86151525D01*
X98025212Y-86271723D01*
X97948125Y-86410910D01*
X97902651Y-86542917D01*
X97885384Y-86641641D01*
X97877864Y-86757579D01*
X97880055Y-86877738D01*
X97891920Y-86989128D01*
X97904058Y-87047855D01*
X97959146Y-87200847D01*
X98039105Y-87338640D01*
X98140855Y-87458207D01*
X98261317Y-87556521D01*
X98397414Y-87630552D01*
X98543416Y-87676716D01*
X98674372Y-87695668D01*
X98799577Y-87693510D01*
X98912625Y-87675191D01*
X99061543Y-87627644D01*
X99195180Y-87554376D01*
X99311765Y-87458402D01*
X99409524Y-87342734D01*
X99486686Y-87210386D01*
X99541478Y-87064371D01*
X99572127Y-86907701D01*
X99576860Y-86743392D01*
X99555577Y-86582202D01*
X99507548Y-86426019D01*
X99434042Y-86285640D01*
X99337257Y-86163944D01*
X99219391Y-86063812D01*
X99112481Y-86001686D01*
X98966760Y-85943450D01*
X98826486Y-85913071D01*
X98683819Y-85909569D01*
X98539563Y-85930110D01*
G36*
X115442603Y-77974515D02*
X115387215Y-77980439D01*
X115316032Y-77987248D01*
X115248000Y-77993168D01*
X114989056Y-78029597D01*
X114736162Y-78096098D01*
X114489030Y-78192859D01*
X114247372Y-78320067D01*
X114010900Y-78477908D01*
X113779325Y-78666571D01*
X113552358Y-78886240D01*
X113329713Y-79137105D01*
X113168413Y-79341812D01*
X113015676Y-79553581D01*
X112855985Y-79791110D01*
X112692081Y-80049930D01*
X112526708Y-80325567D01*
X112362609Y-80613552D01*
X112202527Y-80909413D01*
X112177618Y-80956900D01*
X112133386Y-81040705D01*
X112093535Y-81114544D01*
X112060585Y-81173877D01*
X112037060Y-81214164D01*
X112025481Y-81230866D01*
X112025373Y-81230938D01*
X112014061Y-81220394D01*
X111991473Y-81185889D01*
X111960288Y-81131983D01*
X111923186Y-81063234D01*
X111897217Y-81012851D01*
X111689915Y-80616634D01*
X111484803Y-80251319D01*
X111281149Y-79916189D01*
X111078219Y-79610530D01*
X110875282Y-79333628D01*
X110671605Y-79084768D01*
X110466455Y-78863235D01*
X110259101Y-78668315D01*
X110048810Y-78499293D01*
X109834849Y-78355454D01*
X109616486Y-78236083D01*
X109392989Y-78140467D01*
X109163625Y-78067890D01*
X108927662Y-78017638D01*
X108810688Y-78001099D01*
X108738461Y-77992274D01*
X108670971Y-77983631D01*
X108619716Y-77976654D01*
X108608282Y-77974964D01*
X108548750Y-77965834D01*
X108548750Y-78848292D01*
X108548837Y-79012371D01*
X108549087Y-79166543D01*
X108549484Y-79307959D01*
X108550012Y-79433768D01*
X108550654Y-79541118D01*
X108551396Y-79627160D01*
X108552219Y-79689042D01*
X108553110Y-79723914D01*
X108553729Y-79730750D01*
X108570490Y-79732699D01*
X108612231Y-79737993D01*
X108672458Y-79745797D01*
X108737025Y-79754268D01*
X108908279Y-79785166D01*
X109064214Y-79832159D01*
X109211747Y-79898400D01*
X109357795Y-79987042D01*
X109509273Y-80101239D01*
X109523130Y-80112647D01*
X109615268Y-80192236D01*
X109700691Y-80273672D01*
X109784397Y-80362426D01*
X109871379Y-80463968D01*
X109966633Y-80583766D01*
X110033206Y-80671165D01*
X110124729Y-80795688D01*
X110213368Y-80922511D01*
X110301077Y-81054914D01*
X110389810Y-81196173D01*
X110481521Y-81349568D01*
X110578164Y-81518377D01*
X110681692Y-81705877D01*
X110794060Y-81915347D01*
X110917222Y-82150065D01*
X110934559Y-82183437D01*
X110993096Y-82296103D01*
X111048573Y-82402655D01*
X111098858Y-82499013D01*
X111141819Y-82581099D01*
X111175324Y-82644835D01*
X111197239Y-82686142D01*
X111202409Y-82695701D01*
X111239563Y-82763465D01*
X111099579Y-83038789D01*
X110958123Y-83312363D01*
X110815424Y-83579413D01*
X110673768Y-83835917D01*
X110535442Y-84077856D01*
X110402733Y-84301208D01*
X110277927Y-84501954D01*
X110195612Y-84628187D01*
X110079420Y-84797668D01*
X109970795Y-84945658D01*
X109863890Y-85079444D01*
X109752859Y-85206315D01*
X109631858Y-85333557D01*
X109620678Y-85344873D01*
X109475134Y-85484008D01*
X109338554Y-85597153D01*
X109206237Y-85686976D01*
X109073483Y-85756143D01*
X108935589Y-85807323D01*
X108787855Y-85843184D01*
X108723318Y-85854082D01*
X108548751Y-85880308D01*
X108548750Y-86775551D01*
X108548750Y-87670794D01*
X108711469Y-87660651D01*
X108886207Y-87646662D01*
X109036325Y-87627654D01*
X109168698Y-87602659D01*
X109231375Y-87587349D01*
X109439745Y-87521855D01*
X109643649Y-87436099D01*
X109843894Y-87329216D01*
X110041285Y-87200337D01*
X110236630Y-87048596D01*
X110430733Y-86873128D01*
X110624401Y-86673064D01*
X110818440Y-86447539D01*
X111013655Y-86195686D01*
X111210853Y-85916638D01*
X111410840Y-85609528D01*
X111614421Y-85273490D01*
X111822402Y-84907657D01*
X111961120Y-84652000D01*
X112003895Y-84572008D01*
X112041377Y-84502292D01*
X112071075Y-84447458D01*
X112090496Y-84412108D01*
X112097074Y-84400809D01*
X112105819Y-84411945D01*
X112126255Y-84446056D01*
X112155401Y-84497959D01*
X112190276Y-84562470D01*
X112192946Y-84567496D01*
X112336538Y-84836196D01*
X112468316Y-85078589D01*
X112589787Y-85297188D01*
X112702456Y-85494508D01*
X112807831Y-85673061D01*
X112907417Y-85835361D01*
X113002720Y-85983922D01*
X113095248Y-86121258D01*
X113186505Y-86249882D01*
X113261452Y-86350625D01*
X113479274Y-86617629D01*
X113703905Y-86854245D01*
X113935151Y-87060330D01*
X114172820Y-87235739D01*
X114416717Y-87380330D01*
X114666650Y-87493960D01*
X114909939Y-87573214D01*
X114960932Y-87584932D01*
X115032516Y-87599019D01*
X115117501Y-87614311D01*
X115208695Y-87629646D01*
X115298907Y-87643860D01*
X115380946Y-87655787D01*
X115447621Y-87664266D01*
X115491741Y-87668132D01*
X115497197Y-87668250D01*
X115501771Y-87663360D01*
X115505600Y-87647232D01*
X115508725Y-87617675D01*
X115511188Y-87572501D01*
X115513030Y-87509520D01*
X115514293Y-87426542D01*
X115515017Y-87321379D01*
X115515244Y-87191840D01*
X115515015Y-87035738D01*
X115514371Y-86850881D01*
X115514039Y-86775281D01*
X115509938Y-85882312D01*
X115367063Y-85862227D01*
X115227778Y-85837075D01*
X115104240Y-85801299D01*
X114986982Y-85751030D01*
X114866539Y-85682400D01*
X114771750Y-85618893D01*
X114643736Y-85519623D01*
X114513912Y-85400219D01*
X114381446Y-85259527D01*
X114245504Y-85096391D01*
X114105253Y-84909656D01*
X113959860Y-84698167D01*
X113808491Y-84460768D01*
X113650313Y-84196304D01*
X113484493Y-83903619D01*
X113332471Y-83623451D01*
X113272441Y-83510815D01*
X113211220Y-83395932D01*
X113152254Y-83285272D01*
X113098989Y-83185303D01*
X113054872Y-83102492D01*
X113031885Y-83059337D01*
X112931905Y-82871612D01*
X113150969Y-82440212D01*
X113312551Y-82126832D01*
X113465019Y-81841407D01*
X113609685Y-81581903D01*
X113747862Y-81346285D01*
X113880861Y-81132520D01*
X114009994Y-80938572D01*
X114136573Y-80762409D01*
X114261909Y-80601994D01*
X114387316Y-80455294D01*
X114514105Y-80320275D01*
X114525506Y-80308749D01*
X114671756Y-80169118D01*
X114809697Y-80054399D01*
X114944976Y-79960985D01*
X115083237Y-79885271D01*
X115230127Y-79823648D01*
X115343250Y-79786323D01*
X115509938Y-79736509D01*
X115514041Y-78851059D01*
X115518143Y-77965608D01*
X115442603Y-77974515D01*
X115442603Y-77974515D01*
G37*
X115442603Y-77974515D02*
X115387215Y-77980439D01*
X115316032Y-77987248D01*
X115248000Y-77993168D01*
X114989056Y-78029597D01*
X114736162Y-78096098D01*
X114489030Y-78192859D01*
X114247372Y-78320067D01*
X114010900Y-78477908D01*
X113779325Y-78666571D01*
X113552358Y-78886240D01*
X113329713Y-79137105D01*
X113168413Y-79341812D01*
X113015676Y-79553581D01*
X112855985Y-79791110D01*
X112692081Y-80049930D01*
X112526708Y-80325567D01*
X112362609Y-80613552D01*
X112202527Y-80909413D01*
X112177618Y-80956900D01*
X112133386Y-81040705D01*
X112093535Y-81114544D01*
X112060585Y-81173877D01*
X112037060Y-81214164D01*
X112025481Y-81230866D01*
X112025373Y-81230938D01*
X112014061Y-81220394D01*
X111991473Y-81185889D01*
X111960288Y-81131983D01*
X111923186Y-81063234D01*
X111897217Y-81012851D01*
X111689915Y-80616634D01*
X111484803Y-80251319D01*
X111281149Y-79916189D01*
X111078219Y-79610530D01*
X110875282Y-79333628D01*
X110671605Y-79084768D01*
X110466455Y-78863235D01*
X110259101Y-78668315D01*
X110048810Y-78499293D01*
X109834849Y-78355454D01*
X109616486Y-78236083D01*
X109392989Y-78140467D01*
X109163625Y-78067890D01*
X108927662Y-78017638D01*
X108810688Y-78001099D01*
X108738461Y-77992274D01*
X108670971Y-77983631D01*
X108619716Y-77976654D01*
X108608282Y-77974964D01*
X108548750Y-77965834D01*
X108548750Y-78848292D01*
X108548837Y-79012371D01*
X108549087Y-79166543D01*
X108549484Y-79307959D01*
X108550012Y-79433768D01*
X108550654Y-79541118D01*
X108551396Y-79627160D01*
X108552219Y-79689042D01*
X108553110Y-79723914D01*
X108553729Y-79730750D01*
X108570490Y-79732699D01*
X108612231Y-79737993D01*
X108672458Y-79745797D01*
X108737025Y-79754268D01*
X108908279Y-79785166D01*
X109064214Y-79832159D01*
X109211747Y-79898400D01*
X109357795Y-79987042D01*
X109509273Y-80101239D01*
X109523130Y-80112647D01*
X109615268Y-80192236D01*
X109700691Y-80273672D01*
X109784397Y-80362426D01*
X109871379Y-80463968D01*
X109966633Y-80583766D01*
X110033206Y-80671165D01*
X110124729Y-80795688D01*
X110213368Y-80922511D01*
X110301077Y-81054914D01*
X110389810Y-81196173D01*
X110481521Y-81349568D01*
X110578164Y-81518377D01*
X110681692Y-81705877D01*
X110794060Y-81915347D01*
X110917222Y-82150065D01*
X110934559Y-82183437D01*
X110993096Y-82296103D01*
X111048573Y-82402655D01*
X111098858Y-82499013D01*
X111141819Y-82581099D01*
X111175324Y-82644835D01*
X111197239Y-82686142D01*
X111202409Y-82695701D01*
X111239563Y-82763465D01*
X111099579Y-83038789D01*
X110958123Y-83312363D01*
X110815424Y-83579413D01*
X110673768Y-83835917D01*
X110535442Y-84077856D01*
X110402733Y-84301208D01*
X110277927Y-84501954D01*
X110195612Y-84628187D01*
X110079420Y-84797668D01*
X109970795Y-84945658D01*
X109863890Y-85079444D01*
X109752859Y-85206315D01*
X109631858Y-85333557D01*
X109620678Y-85344873D01*
X109475134Y-85484008D01*
X109338554Y-85597153D01*
X109206237Y-85686976D01*
X109073483Y-85756143D01*
X108935589Y-85807323D01*
X108787855Y-85843184D01*
X108723318Y-85854082D01*
X108548751Y-85880308D01*
X108548750Y-86775551D01*
X108548750Y-87670794D01*
X108711469Y-87660651D01*
X108886207Y-87646662D01*
X109036325Y-87627654D01*
X109168698Y-87602659D01*
X109231375Y-87587349D01*
X109439745Y-87521855D01*
X109643649Y-87436099D01*
X109843894Y-87329216D01*
X110041285Y-87200337D01*
X110236630Y-87048596D01*
X110430733Y-86873128D01*
X110624401Y-86673064D01*
X110818440Y-86447539D01*
X111013655Y-86195686D01*
X111210853Y-85916638D01*
X111410840Y-85609528D01*
X111614421Y-85273490D01*
X111822402Y-84907657D01*
X111961120Y-84652000D01*
X112003895Y-84572008D01*
X112041377Y-84502292D01*
X112071075Y-84447458D01*
X112090496Y-84412108D01*
X112097074Y-84400809D01*
X112105819Y-84411945D01*
X112126255Y-84446056D01*
X112155401Y-84497959D01*
X112190276Y-84562470D01*
X112192946Y-84567496D01*
X112336538Y-84836196D01*
X112468316Y-85078589D01*
X112589787Y-85297188D01*
X112702456Y-85494508D01*
X112807831Y-85673061D01*
X112907417Y-85835361D01*
X113002720Y-85983922D01*
X113095248Y-86121258D01*
X113186505Y-86249882D01*
X113261452Y-86350625D01*
X113479274Y-86617629D01*
X113703905Y-86854245D01*
X113935151Y-87060330D01*
X114172820Y-87235739D01*
X114416717Y-87380330D01*
X114666650Y-87493960D01*
X114909939Y-87573214D01*
X114960932Y-87584932D01*
X115032516Y-87599019D01*
X115117501Y-87614311D01*
X115208695Y-87629646D01*
X115298907Y-87643860D01*
X115380946Y-87655787D01*
X115447621Y-87664266D01*
X115491741Y-87668132D01*
X115497197Y-87668250D01*
X115501771Y-87663360D01*
X115505600Y-87647232D01*
X115508725Y-87617675D01*
X115511188Y-87572501D01*
X115513030Y-87509520D01*
X115514293Y-87426542D01*
X115515017Y-87321379D01*
X115515244Y-87191840D01*
X115515015Y-87035738D01*
X115514371Y-86850881D01*
X115514039Y-86775281D01*
X115509938Y-85882312D01*
X115367063Y-85862227D01*
X115227778Y-85837075D01*
X115104240Y-85801299D01*
X114986982Y-85751030D01*
X114866539Y-85682400D01*
X114771750Y-85618893D01*
X114643736Y-85519623D01*
X114513912Y-85400219D01*
X114381446Y-85259527D01*
X114245504Y-85096391D01*
X114105253Y-84909656D01*
X113959860Y-84698167D01*
X113808491Y-84460768D01*
X113650313Y-84196304D01*
X113484493Y-83903619D01*
X113332471Y-83623451D01*
X113272441Y-83510815D01*
X113211220Y-83395932D01*
X113152254Y-83285272D01*
X113098989Y-83185303D01*
X113054872Y-83102492D01*
X113031885Y-83059337D01*
X112931905Y-82871612D01*
X113150969Y-82440212D01*
X113312551Y-82126832D01*
X113465019Y-81841407D01*
X113609685Y-81581903D01*
X113747862Y-81346285D01*
X113880861Y-81132520D01*
X114009994Y-80938572D01*
X114136573Y-80762409D01*
X114261909Y-80601994D01*
X114387316Y-80455294D01*
X114514105Y-80320275D01*
X114525506Y-80308749D01*
X114671756Y-80169118D01*
X114809697Y-80054399D01*
X114944976Y-79960985D01*
X115083237Y-79885271D01*
X115230127Y-79823648D01*
X115343250Y-79786323D01*
X115509938Y-79736509D01*
X115514041Y-78851059D01*
X115518143Y-77965608D01*
X115442603Y-77974515D01*
G36*
X93824408Y-80319726D02*
X93696047Y-80322407D01*
X93582448Y-80327001D01*
X93491354Y-80333513D01*
X93483375Y-80334312D01*
X93174871Y-80376365D01*
X92865800Y-80437821D01*
X92563392Y-80516752D01*
X92274875Y-80611229D01*
X92007475Y-80719324D01*
X91961842Y-80740219D01*
X91893892Y-80773744D01*
X91812451Y-80816678D01*
X91724750Y-80864915D01*
X91638019Y-80914349D01*
X91559490Y-80960875D01*
X91496395Y-81000385D01*
X91462438Y-81023774D01*
X91456062Y-81030637D01*
X91453358Y-81041293D01*
X91455479Y-81058401D01*
X91463579Y-81084617D01*
X91478811Y-81122599D01*
X91502328Y-81175004D01*
X91535284Y-81244489D01*
X91578831Y-81333712D01*
X91634123Y-81445331D01*
X91702313Y-81582001D01*
X91720381Y-81618136D01*
X92006949Y-82191100D01*
X92106194Y-82134335D01*
X92430225Y-81966650D01*
X92770552Y-81824203D01*
X93122032Y-81708811D01*
X93479522Y-81622290D01*
X93634188Y-81594354D01*
X93747745Y-81580102D01*
X93877118Y-81570697D01*
X94014328Y-81566135D01*
X94151396Y-81566412D01*
X94280344Y-81571524D01*
X94393191Y-81581467D01*
X94475563Y-81594796D01*
X94647718Y-81643695D01*
X94793898Y-81709305D01*
X94913704Y-81791271D01*
X95006738Y-81889236D01*
X95072603Y-82002843D01*
X95110901Y-82131738D01*
X95116413Y-82168692D01*
X95120556Y-82316615D01*
X95095703Y-82451705D01*
X95041723Y-82574353D01*
X94958485Y-82684952D01*
X94935607Y-82708317D01*
X94873548Y-82763884D01*
X94803271Y-82816480D01*
X94722120Y-82867275D01*
X94627440Y-82917441D01*
X94516574Y-82968147D01*
X94386866Y-83020564D01*
X94235661Y-83075862D01*
X94060302Y-83135213D01*
X93858134Y-83199785D01*
X93731835Y-83238780D01*
X93531522Y-83300468D01*
X93358308Y-83354868D01*
X93208689Y-83403156D01*
X93079164Y-83446512D01*
X92966229Y-83486111D01*
X92866384Y-83523133D01*
X92776125Y-83558754D01*
X92757358Y-83566457D01*
X92484558Y-83691126D01*
X92241229Y-83827466D01*
X92027288Y-83975550D01*
X91842652Y-84135448D01*
X91687238Y-84307235D01*
X91560962Y-84490980D01*
X91466910Y-84679085D01*
X91394405Y-84889941D01*
X91345661Y-85113415D01*
X91320443Y-85344528D01*
X91318517Y-85578303D01*
X91339648Y-85809764D01*
X91383603Y-86033932D01*
X91450147Y-86245831D01*
X91539045Y-86440483D01*
X91550811Y-86461750D01*
X91682744Y-86663561D01*
X91840117Y-86847457D01*
X92021855Y-87012990D01*
X92226886Y-87159712D01*
X92454136Y-87287174D01*
X92702530Y-87394930D01*
X92970997Y-87482530D01*
X93258461Y-87549528D01*
X93563850Y-87595475D01*
X93886089Y-87619924D01*
X94224105Y-87622426D01*
X94324750Y-87618990D01*
X94644941Y-87593372D01*
X94967032Y-87544950D01*
X95286348Y-87475163D01*
X95598211Y-87385450D01*
X95897945Y-87277251D01*
X96180874Y-87152006D01*
X96442320Y-87011155D01*
X96579000Y-86925065D01*
X96671935Y-86861287D01*
X96758329Y-86798757D01*
X96833824Y-86740886D01*
X96894065Y-86691084D01*
X96934695Y-86652764D01*
X96948417Y-86635803D01*
X96948636Y-86621293D01*
X96939665Y-86591113D01*
X96920634Y-86543335D01*
X96890671Y-86476032D01*
X96848904Y-86387277D01*
X96794463Y-86275142D01*
X96726475Y-86137699D01*
X96691825Y-86068272D01*
X96631022Y-85947149D01*
X96574513Y-85835425D01*
X96523887Y-85736180D01*
X96480734Y-85652494D01*
X96446645Y-85587447D01*
X96423208Y-85544119D01*
X96412015Y-85525589D01*
X96411421Y-85525125D01*
X96395884Y-85534375D01*
X96361960Y-85559054D01*
X96315892Y-85594555D01*
X96296372Y-85610027D01*
X96100874Y-85752974D01*
X95889415Y-85883507D01*
X95665061Y-86000995D01*
X95430878Y-86104804D01*
X95189933Y-86194301D01*
X94945293Y-86268853D01*
X94700022Y-86327827D01*
X94457188Y-86370590D01*
X94219857Y-86396510D01*
X93991095Y-86404952D01*
X93773967Y-86395285D01*
X93571542Y-86366875D01*
X93386884Y-86319090D01*
X93223060Y-86251295D01*
X93213642Y-86246411D01*
X93112193Y-86181108D01*
X93018946Y-86098627D01*
X92941069Y-86006484D01*
X92885735Y-85912192D01*
X92878608Y-85895282D01*
X92853292Y-85801874D01*
X92841059Y-85691321D01*
X92841962Y-85575433D01*
X92856054Y-85466017D01*
X92876366Y-85392407D01*
X92930522Y-85278454D01*
X93006138Y-85174845D01*
X93105692Y-85079256D01*
X93231664Y-84989362D01*
X93386534Y-84902837D01*
X93411938Y-84890236D01*
X93488496Y-84853677D01*
X93563178Y-84820167D01*
X93640249Y-84788174D01*
X93723971Y-84756165D01*
X93818610Y-84722607D01*
X93928430Y-84685967D01*
X94057695Y-84644711D01*
X94210668Y-84597307D01*
X94316813Y-84564909D01*
X94512267Y-84505006D01*
X94681115Y-84452053D01*
X94827372Y-84404602D01*
X94955052Y-84361201D01*
X95068166Y-84320402D01*
X95170730Y-84280755D01*
X95266757Y-84240810D01*
X95360259Y-84199116D01*
X95455251Y-84154225D01*
X95459813Y-84152015D01*
X95679248Y-84032896D01*
X95879862Y-83898153D01*
X96058042Y-83750602D01*
X96210172Y-83593058D01*
X96265209Y-83524875D01*
X96375413Y-83355346D01*
X96465261Y-83164697D01*
X96533718Y-82957002D01*
X96579747Y-82736336D01*
X96602314Y-82506775D01*
X96600383Y-82272392D01*
X96596601Y-82220975D01*
X96564328Y-81980892D01*
X96509416Y-81759675D01*
X96430339Y-81552481D01*
X96325573Y-81354464D01*
X96322134Y-81348806D01*
X96259888Y-81259475D01*
X96177628Y-81159962D01*
X96082112Y-81057157D01*
X95980096Y-80957952D01*
X95878335Y-80869236D01*
X95783585Y-80797902D01*
X95778937Y-80794770D01*
X95574477Y-80673897D01*
X95345962Y-80567755D01*
X95098263Y-80477989D01*
X94836253Y-80406243D01*
X94564803Y-80354162D01*
X94416657Y-80334865D01*
X94330625Y-80328047D01*
X94220640Y-80323119D01*
X94094448Y-80320087D01*
X93959790Y-80318954D01*
X93824408Y-80319726D01*
X93824408Y-80319726D01*
G37*
X93824408Y-80319726D02*
X93696047Y-80322407D01*
X93582448Y-80327001D01*
X93491354Y-80333513D01*
X93483375Y-80334312D01*
X93174871Y-80376365D01*
X92865800Y-80437821D01*
X92563392Y-80516752D01*
X92274875Y-80611229D01*
X92007475Y-80719324D01*
X91961842Y-80740219D01*
X91893892Y-80773744D01*
X91812451Y-80816678D01*
X91724750Y-80864915D01*
X91638019Y-80914349D01*
X91559490Y-80960875D01*
X91496395Y-81000385D01*
X91462438Y-81023774D01*
X91456062Y-81030637D01*
X91453358Y-81041293D01*
X91455479Y-81058401D01*
X91463579Y-81084617D01*
X91478811Y-81122599D01*
X91502328Y-81175004D01*
X91535284Y-81244489D01*
X91578831Y-81333712D01*
X91634123Y-81445331D01*
X91702313Y-81582001D01*
X91720381Y-81618136D01*
X92006949Y-82191100D01*
X92106194Y-82134335D01*
X92430225Y-81966650D01*
X92770552Y-81824203D01*
X93122032Y-81708811D01*
X93479522Y-81622290D01*
X93634188Y-81594354D01*
X93747745Y-81580102D01*
X93877118Y-81570697D01*
X94014328Y-81566135D01*
X94151396Y-81566412D01*
X94280344Y-81571524D01*
X94393191Y-81581467D01*
X94475563Y-81594796D01*
X94647718Y-81643695D01*
X94793898Y-81709305D01*
X94913704Y-81791271D01*
X95006738Y-81889236D01*
X95072603Y-82002843D01*
X95110901Y-82131738D01*
X95116413Y-82168692D01*
X95120556Y-82316615D01*
X95095703Y-82451705D01*
X95041723Y-82574353D01*
X94958485Y-82684952D01*
X94935607Y-82708317D01*
X94873548Y-82763884D01*
X94803271Y-82816480D01*
X94722120Y-82867275D01*
X94627440Y-82917441D01*
X94516574Y-82968147D01*
X94386866Y-83020564D01*
X94235661Y-83075862D01*
X94060302Y-83135213D01*
X93858134Y-83199785D01*
X93731835Y-83238780D01*
X93531522Y-83300468D01*
X93358308Y-83354868D01*
X93208689Y-83403156D01*
X93079164Y-83446512D01*
X92966229Y-83486111D01*
X92866384Y-83523133D01*
X92776125Y-83558754D01*
X92757358Y-83566457D01*
X92484558Y-83691126D01*
X92241229Y-83827466D01*
X92027288Y-83975550D01*
X91842652Y-84135448D01*
X91687238Y-84307235D01*
X91560962Y-84490980D01*
X91466910Y-84679085D01*
X91394405Y-84889941D01*
X91345661Y-85113415D01*
X91320443Y-85344528D01*
X91318517Y-85578303D01*
X91339648Y-85809764D01*
X91383603Y-86033932D01*
X91450147Y-86245831D01*
X91539045Y-86440483D01*
X91550811Y-86461750D01*
X91682744Y-86663561D01*
X91840117Y-86847457D01*
X92021855Y-87012990D01*
X92226886Y-87159712D01*
X92454136Y-87287174D01*
X92702530Y-87394930D01*
X92970997Y-87482530D01*
X93258461Y-87549528D01*
X93563850Y-87595475D01*
X93886089Y-87619924D01*
X94224105Y-87622426D01*
X94324750Y-87618990D01*
X94644941Y-87593372D01*
X94967032Y-87544950D01*
X95286348Y-87475163D01*
X95598211Y-87385450D01*
X95897945Y-87277251D01*
X96180874Y-87152006D01*
X96442320Y-87011155D01*
X96579000Y-86925065D01*
X96671935Y-86861287D01*
X96758329Y-86798757D01*
X96833824Y-86740886D01*
X96894065Y-86691084D01*
X96934695Y-86652764D01*
X96948417Y-86635803D01*
X96948636Y-86621293D01*
X96939665Y-86591113D01*
X96920634Y-86543335D01*
X96890671Y-86476032D01*
X96848904Y-86387277D01*
X96794463Y-86275142D01*
X96726475Y-86137699D01*
X96691825Y-86068272D01*
X96631022Y-85947149D01*
X96574513Y-85835425D01*
X96523887Y-85736180D01*
X96480734Y-85652494D01*
X96446645Y-85587447D01*
X96423208Y-85544119D01*
X96412015Y-85525589D01*
X96411421Y-85525125D01*
X96395884Y-85534375D01*
X96361960Y-85559054D01*
X96315892Y-85594555D01*
X96296372Y-85610027D01*
X96100874Y-85752974D01*
X95889415Y-85883507D01*
X95665061Y-86000995D01*
X95430878Y-86104804D01*
X95189933Y-86194301D01*
X94945293Y-86268853D01*
X94700022Y-86327827D01*
X94457188Y-86370590D01*
X94219857Y-86396510D01*
X93991095Y-86404952D01*
X93773967Y-86395285D01*
X93571542Y-86366875D01*
X93386884Y-86319090D01*
X93223060Y-86251295D01*
X93213642Y-86246411D01*
X93112193Y-86181108D01*
X93018946Y-86098627D01*
X92941069Y-86006484D01*
X92885735Y-85912192D01*
X92878608Y-85895282D01*
X92853292Y-85801874D01*
X92841059Y-85691321D01*
X92841962Y-85575433D01*
X92856054Y-85466017D01*
X92876366Y-85392407D01*
X92930522Y-85278454D01*
X93006138Y-85174845D01*
X93105692Y-85079256D01*
X93231664Y-84989362D01*
X93386534Y-84902837D01*
X93411938Y-84890236D01*
X93488496Y-84853677D01*
X93563178Y-84820167D01*
X93640249Y-84788174D01*
X93723971Y-84756165D01*
X93818610Y-84722607D01*
X93928430Y-84685967D01*
X94057695Y-84644711D01*
X94210668Y-84597307D01*
X94316813Y-84564909D01*
X94512267Y-84505006D01*
X94681115Y-84452053D01*
X94827372Y-84404602D01*
X94955052Y-84361201D01*
X95068166Y-84320402D01*
X95170730Y-84280755D01*
X95266757Y-84240810D01*
X95360259Y-84199116D01*
X95455251Y-84154225D01*
X95459813Y-84152015D01*
X95679248Y-84032896D01*
X95879862Y-83898153D01*
X96058042Y-83750602D01*
X96210172Y-83593058D01*
X96265209Y-83524875D01*
X96375413Y-83355346D01*
X96465261Y-83164697D01*
X96533718Y-82957002D01*
X96579747Y-82736336D01*
X96602314Y-82506775D01*
X96600383Y-82272392D01*
X96596601Y-82220975D01*
X96564328Y-81980892D01*
X96509416Y-81759675D01*
X96430339Y-81552481D01*
X96325573Y-81354464D01*
X96322134Y-81348806D01*
X96259888Y-81259475D01*
X96177628Y-81159962D01*
X96082112Y-81057157D01*
X95980096Y-80957952D01*
X95878335Y-80869236D01*
X95783585Y-80797902D01*
X95778937Y-80794770D01*
X95574477Y-80673897D01*
X95345962Y-80567755D01*
X95098263Y-80477989D01*
X94836253Y-80406243D01*
X94564803Y-80354162D01*
X94416657Y-80334865D01*
X94330625Y-80328047D01*
X94220640Y-80323119D01*
X94094448Y-80320087D01*
X93959790Y-80318954D01*
X93824408Y-80319726D01*
G36*
X86449423Y-80337065D02*
X86119658Y-80369372D01*
X85801665Y-80424673D01*
X85680813Y-80452832D01*
X85399668Y-80534839D01*
X85142602Y-80634359D01*
X84906002Y-80753379D01*
X84686255Y-80893884D01*
X84479745Y-81057860D01*
X84338413Y-81190382D01*
X84158464Y-81387964D01*
X83999127Y-81601064D01*
X83859595Y-81831513D01*
X83739059Y-82081145D01*
X83636711Y-82351789D01*
X83551745Y-82645278D01*
X83483352Y-82963444D01*
X83441910Y-83223250D01*
X83433545Y-83300774D01*
X83425880Y-83403885D01*
X83419079Y-83526421D01*
X83413308Y-83662223D01*
X83408729Y-83805133D01*
X83405507Y-83948988D01*
X83403806Y-84087631D01*
X83403791Y-84214901D01*
X83405626Y-84324638D01*
X83409475Y-84410683D01*
X83410039Y-84418569D01*
X83421589Y-84572625D01*
X88851409Y-84572625D01*
X88841235Y-84626857D01*
X88820342Y-84712010D01*
X88786995Y-84816533D01*
X88744276Y-84932107D01*
X88695270Y-85050415D01*
X88643058Y-85163137D01*
X88640686Y-85167937D01*
X88511014Y-85395096D01*
X88358198Y-85601006D01*
X88183490Y-85784738D01*
X87988145Y-85945358D01*
X87773417Y-86081936D01*
X87540559Y-86193540D01*
X87290825Y-86279239D01*
X87077813Y-86328880D01*
X86988264Y-86341310D01*
X86875280Y-86350459D01*
X86747012Y-86356252D01*
X86611614Y-86358613D01*
X86477236Y-86357466D01*
X86352032Y-86352736D01*
X86244154Y-86344345D01*
X86188813Y-86337156D01*
X85898916Y-86276289D01*
X85620531Y-86188813D01*
X85356313Y-86075981D01*
X85108919Y-85939045D01*
X84881002Y-85779259D01*
X84726150Y-85646768D01*
X84675573Y-85601539D01*
X84632683Y-85566673D01*
X84603153Y-85546590D01*
X84593739Y-85543581D01*
X84579595Y-85555995D01*
X84546268Y-85589000D01*
X84496268Y-85640002D01*
X84432100Y-85706406D01*
X84356273Y-85785614D01*
X84271294Y-85875033D01*
X84179670Y-85972066D01*
X84174497Y-85977562D01*
X83771152Y-86406187D01*
X83900482Y-86538447D01*
X84133945Y-86754653D01*
X84388671Y-86948160D01*
X84663228Y-87118468D01*
X84956180Y-87265078D01*
X85266094Y-87387491D01*
X85591534Y-87485207D01*
X85931067Y-87557727D01*
X86283257Y-87604551D01*
X86646672Y-87625181D01*
X87006375Y-87619798D01*
X87356476Y-87588474D01*
X87693810Y-87530063D01*
X88017212Y-87445234D01*
X88325519Y-87334652D01*
X88617564Y-87198986D01*
X88892184Y-87038903D01*
X89148212Y-86855068D01*
X89384485Y-86648149D01*
X89599837Y-86418814D01*
X89793104Y-86167728D01*
X89936661Y-85941990D01*
X90068903Y-85686955D01*
X90183293Y-85409566D01*
X90278124Y-85114808D01*
X90351690Y-84807664D01*
X90381076Y-84644062D01*
X90391657Y-84558097D01*
X90400607Y-84447310D01*
X90407776Y-84318591D01*
X90413012Y-84178834D01*
X90416164Y-84034930D01*
X90417083Y-83893773D01*
X90415618Y-83762254D01*
X90411618Y-83647266D01*
X90404932Y-83555701D01*
X90404876Y-83555167D01*
X90385008Y-83417718D01*
X88879282Y-83417718D01*
X88863762Y-83419184D01*
X88818361Y-83420597D01*
X88744950Y-83421948D01*
X88645399Y-83423226D01*
X88521576Y-83424419D01*
X88375353Y-83425517D01*
X88208599Y-83426508D01*
X88023184Y-83427383D01*
X87820977Y-83428130D01*
X87603848Y-83428738D01*
X87373668Y-83429196D01*
X87132306Y-83429494D01*
X86881631Y-83429621D01*
X86829473Y-83429625D01*
X84779320Y-83429625D01*
X84790166Y-83285944D01*
X84799099Y-83207921D01*
X84814414Y-83113573D01*
X84833644Y-83017064D01*
X84846856Y-82960746D01*
X84921490Y-82724025D01*
X85020388Y-82507595D01*
X85142945Y-82312008D01*
X85288557Y-82137816D01*
X85456618Y-81985572D01*
X85646522Y-81855829D01*
X85857666Y-81749138D01*
X86089443Y-81666054D01*
X86326108Y-81609876D01*
X86435119Y-81594914D01*
X86565904Y-81585131D01*
X86709273Y-81580527D01*
X86856036Y-81581102D01*
X86997007Y-81586856D01*
X87122994Y-81597789D01*
X87204813Y-81609886D01*
X87458815Y-81672303D01*
X87695092Y-81760803D01*
X87912909Y-81874647D01*
X88111536Y-82013101D01*
X88290240Y-82175425D01*
X88448288Y-82360885D01*
X88584949Y-82568741D01*
X88699490Y-82798259D01*
X88791179Y-83048700D01*
X88847433Y-83262937D01*
X88861307Y-83326913D01*
X88872144Y-83378896D01*
X88878380Y-83411278D01*
X88879282Y-83417718D01*
X90385008Y-83417718D01*
X90353742Y-83201424D01*
X90276371Y-82864598D01*
X90173083Y-82545194D01*
X90044201Y-82243715D01*
X89890045Y-81960665D01*
X89710938Y-81696548D01*
X89507202Y-81451869D01*
X89279157Y-81227132D01*
X89027126Y-81022840D01*
X88751431Y-80839498D01*
X88625625Y-80767194D01*
X88504861Y-80706395D01*
X88361778Y-80643413D01*
X88205320Y-80581612D01*
X88044432Y-80524357D01*
X87888057Y-80475012D01*
X87752500Y-80438688D01*
X87442497Y-80378563D01*
X87117527Y-80341615D01*
X86784274Y-80327797D01*
X86449423Y-80337065D01*
X86449423Y-80337065D01*
G37*
X86449423Y-80337065D02*
X86119658Y-80369372D01*
X85801665Y-80424673D01*
X85680813Y-80452832D01*
X85399668Y-80534839D01*
X85142602Y-80634359D01*
X84906002Y-80753379D01*
X84686255Y-80893884D01*
X84479745Y-81057860D01*
X84338413Y-81190382D01*
X84158464Y-81387964D01*
X83999127Y-81601064D01*
X83859595Y-81831513D01*
X83739059Y-82081145D01*
X83636711Y-82351789D01*
X83551745Y-82645278D01*
X83483352Y-82963444D01*
X83441910Y-83223250D01*
X83433545Y-83300774D01*
X83425880Y-83403885D01*
X83419079Y-83526421D01*
X83413308Y-83662223D01*
X83408729Y-83805133D01*
X83405507Y-83948988D01*
X83403806Y-84087631D01*
X83403791Y-84214901D01*
X83405626Y-84324638D01*
X83409475Y-84410683D01*
X83410039Y-84418569D01*
X83421589Y-84572625D01*
X88851409Y-84572625D01*
X88841235Y-84626857D01*
X88820342Y-84712010D01*
X88786995Y-84816533D01*
X88744276Y-84932107D01*
X88695270Y-85050415D01*
X88643058Y-85163137D01*
X88640686Y-85167937D01*
X88511014Y-85395096D01*
X88358198Y-85601006D01*
X88183490Y-85784738D01*
X87988145Y-85945358D01*
X87773417Y-86081936D01*
X87540559Y-86193540D01*
X87290825Y-86279239D01*
X87077813Y-86328880D01*
X86988264Y-86341310D01*
X86875280Y-86350459D01*
X86747012Y-86356252D01*
X86611614Y-86358613D01*
X86477236Y-86357466D01*
X86352032Y-86352736D01*
X86244154Y-86344345D01*
X86188813Y-86337156D01*
X85898916Y-86276289D01*
X85620531Y-86188813D01*
X85356313Y-86075981D01*
X85108919Y-85939045D01*
X84881002Y-85779259D01*
X84726150Y-85646768D01*
X84675573Y-85601539D01*
X84632683Y-85566673D01*
X84603153Y-85546590D01*
X84593739Y-85543581D01*
X84579595Y-85555995D01*
X84546268Y-85589000D01*
X84496268Y-85640002D01*
X84432100Y-85706406D01*
X84356273Y-85785614D01*
X84271294Y-85875033D01*
X84179670Y-85972066D01*
X84174497Y-85977562D01*
X83771152Y-86406187D01*
X83900482Y-86538447D01*
X84133945Y-86754653D01*
X84388671Y-86948160D01*
X84663228Y-87118468D01*
X84956180Y-87265078D01*
X85266094Y-87387491D01*
X85591534Y-87485207D01*
X85931067Y-87557727D01*
X86283257Y-87604551D01*
X86646672Y-87625181D01*
X87006375Y-87619798D01*
X87356476Y-87588474D01*
X87693810Y-87530063D01*
X88017212Y-87445234D01*
X88325519Y-87334652D01*
X88617564Y-87198986D01*
X88892184Y-87038903D01*
X89148212Y-86855068D01*
X89384485Y-86648149D01*
X89599837Y-86418814D01*
X89793104Y-86167728D01*
X89936661Y-85941990D01*
X90068903Y-85686955D01*
X90183293Y-85409566D01*
X90278124Y-85114808D01*
X90351690Y-84807664D01*
X90381076Y-84644062D01*
X90391657Y-84558097D01*
X90400607Y-84447310D01*
X90407776Y-84318591D01*
X90413012Y-84178834D01*
X90416164Y-84034930D01*
X90417083Y-83893773D01*
X90415618Y-83762254D01*
X90411618Y-83647266D01*
X90404932Y-83555701D01*
X90404876Y-83555167D01*
X90385008Y-83417718D01*
X88879282Y-83417718D01*
X88863762Y-83419184D01*
X88818361Y-83420597D01*
X88744950Y-83421948D01*
X88645399Y-83423226D01*
X88521576Y-83424419D01*
X88375353Y-83425517D01*
X88208599Y-83426508D01*
X88023184Y-83427383D01*
X87820977Y-83428130D01*
X87603848Y-83428738D01*
X87373668Y-83429196D01*
X87132306Y-83429494D01*
X86881631Y-83429621D01*
X86829473Y-83429625D01*
X84779320Y-83429625D01*
X84790166Y-83285944D01*
X84799099Y-83207921D01*
X84814414Y-83113573D01*
X84833644Y-83017064D01*
X84846856Y-82960746D01*
X84921490Y-82724025D01*
X85020388Y-82507595D01*
X85142945Y-82312008D01*
X85288557Y-82137816D01*
X85456618Y-81985572D01*
X85646522Y-81855829D01*
X85857666Y-81749138D01*
X86089443Y-81666054D01*
X86326108Y-81609876D01*
X86435119Y-81594914D01*
X86565904Y-81585131D01*
X86709273Y-81580527D01*
X86856036Y-81581102D01*
X86997007Y-81586856D01*
X87122994Y-81597789D01*
X87204813Y-81609886D01*
X87458815Y-81672303D01*
X87695092Y-81760803D01*
X87912909Y-81874647D01*
X88111536Y-82013101D01*
X88290240Y-82175425D01*
X88448288Y-82360885D01*
X88584949Y-82568741D01*
X88699490Y-82798259D01*
X88791179Y-83048700D01*
X88847433Y-83262937D01*
X88861307Y-83326913D01*
X88872144Y-83378896D01*
X88878380Y-83411278D01*
X88879282Y-83417718D01*
X90385008Y-83417718D01*
X90353742Y-83201424D01*
X90276371Y-82864598D01*
X90173083Y-82545194D01*
X90044201Y-82243715D01*
X89890045Y-81960665D01*
X89710938Y-81696548D01*
X89507202Y-81451869D01*
X89279157Y-81227132D01*
X89027126Y-81022840D01*
X88751431Y-80839498D01*
X88625625Y-80767194D01*
X88504861Y-80706395D01*
X88361778Y-80643413D01*
X88205320Y-80581612D01*
X88044432Y-80524357D01*
X87888057Y-80475012D01*
X87752500Y-80438688D01*
X87442497Y-80378563D01*
X87117527Y-80341615D01*
X86784274Y-80327797D01*
X86449423Y-80337065D01*
G36*
X105326125Y-87573000D02*
X106881875Y-87573000D01*
X106881875Y-80381625D01*
X105326125Y-80381625D01*
X105326125Y-87573000D01*
X105326125Y-87573000D01*
G37*
X105326125Y-87573000D02*
X106881875Y-87573000D01*
X106881875Y-80381625D01*
X105326125Y-80381625D01*
X105326125Y-87573000D01*
G36*
X101420875Y-87573000D02*
X102976625Y-87573000D01*
X102976625Y-77540000D01*
X101420875Y-77540000D01*
X101420875Y-87573000D01*
X101420875Y-87573000D01*
G37*
X101420875Y-87573000D02*
X102976625Y-87573000D01*
X102976625Y-77540000D01*
X101420875Y-77540000D01*
X101420875Y-87573000D01*
G36*
X105935195Y-77397377D02*
X105778385Y-77439803D01*
X105675909Y-77485257D01*
X105544750Y-77571083D01*
X105434416Y-77677402D01*
X105345154Y-77800529D01*
X105277209Y-77936780D01*
X105230829Y-78082470D01*
X105206260Y-78233915D01*
X105203748Y-78387429D01*
X105223539Y-78539327D01*
X105265881Y-78685925D01*
X105331019Y-78823538D01*
X105419200Y-78948481D01*
X105530670Y-79057070D01*
X105568852Y-79086023D01*
X105676815Y-79154825D01*
X105781661Y-79202357D01*
X105893250Y-79231802D01*
X106021441Y-79246341D01*
X106072250Y-79248503D01*
X106184185Y-79248724D01*
X106276384Y-79242868D01*
X106337805Y-79232618D01*
X106489575Y-79178230D01*
X106628074Y-79097062D01*
X106750041Y-78992462D01*
X106852216Y-78867780D01*
X106931335Y-78726367D01*
X106984139Y-78571572D01*
X106985032Y-78567822D01*
X106999660Y-78477765D01*
X107006910Y-78370954D01*
X107006788Y-78259361D01*
X106999299Y-78154956D01*
X106984824Y-78071179D01*
X106933454Y-77923532D01*
X106858538Y-77784862D01*
X106764327Y-77660979D01*
X106655072Y-77557695D01*
X106564375Y-77496429D01*
X106418418Y-77431499D01*
X106261026Y-77393298D01*
X106098014Y-77381900D01*
X105935195Y-77397377D01*
X105935195Y-77397377D01*
G37*
X105935195Y-77397377D02*
X105778385Y-77439803D01*
X105675909Y-77485257D01*
X105544750Y-77571083D01*
X105434416Y-77677402D01*
X105345154Y-77800529D01*
X105277209Y-77936780D01*
X105230829Y-78082470D01*
X105206260Y-78233915D01*
X105203748Y-78387429D01*
X105223539Y-78539327D01*
X105265881Y-78685925D01*
X105331019Y-78823538D01*
X105419200Y-78948481D01*
X105530670Y-79057070D01*
X105568852Y-79086023D01*
X105676815Y-79154825D01*
X105781661Y-79202357D01*
X105893250Y-79231802D01*
X106021441Y-79246341D01*
X106072250Y-79248503D01*
X106184185Y-79248724D01*
X106276384Y-79242868D01*
X106337805Y-79232618D01*
X106489575Y-79178230D01*
X106628074Y-79097062D01*
X106750041Y-78992462D01*
X106852216Y-78867780D01*
X106931335Y-78726367D01*
X106984139Y-78571572D01*
X106985032Y-78567822D01*
X106999660Y-78477765D01*
X107006910Y-78370954D01*
X107006788Y-78259361D01*
X106999299Y-78154956D01*
X106984824Y-78071179D01*
X106933454Y-77923532D01*
X106858538Y-77784862D01*
X106764327Y-77660979D01*
X106655072Y-77557695D01*
X106564375Y-77496429D01*
X106418418Y-77431499D01*
X106261026Y-77393298D01*
X106098014Y-77381900D01*
X105935195Y-77397377D01*
G36*
X105139594Y-62324265D02*
X104909990Y-62343935D01*
X104704351Y-62368583D01*
X104515096Y-62399626D01*
X104334639Y-62438483D01*
X104155398Y-62486573D01*
X103984688Y-62540310D01*
X103740932Y-62630169D01*
X103501924Y-62735619D01*
X103266664Y-62857642D01*
X103034149Y-62997224D01*
X102803376Y-63155348D01*
X102573345Y-63332999D01*
X102343052Y-63531160D01*
X102111495Y-63750815D01*
X101877673Y-63992950D01*
X101640584Y-64258547D01*
X101399224Y-64548591D01*
X101152594Y-64864065D01*
X100899689Y-65205954D01*
X100639508Y-65575243D01*
X100371050Y-65972914D01*
X100159740Y-66296483D01*
X99973040Y-66586153D01*
X99797850Y-66304420D01*
X99530868Y-65884147D01*
X99270863Y-65493493D01*
X99016897Y-65131328D01*
X98768033Y-64796524D01*
X98523334Y-64487951D01*
X98281864Y-64204480D01*
X98042686Y-63944981D01*
X97804863Y-63708326D01*
X97567457Y-63493385D01*
X97329533Y-63299029D01*
X97261625Y-63247345D01*
X96944703Y-63028215D01*
X96618204Y-62838077D01*
X96283288Y-62677392D01*
X95941114Y-62546622D01*
X95592843Y-62446230D01*
X95239634Y-62376677D01*
X95004474Y-62347900D01*
X94926634Y-62340351D01*
X94855524Y-62332892D01*
X94800072Y-62326490D01*
X94773219Y-62322819D01*
X94721625Y-62314436D01*
X94721625Y-64406724D01*
X94908157Y-64425620D01*
X95063497Y-64444082D01*
X95199182Y-64466853D01*
X95327252Y-64496431D01*
X95459750Y-64535313D01*
X95499311Y-64548216D01*
X95721372Y-64634041D01*
X95942919Y-64744124D01*
X96164742Y-64879183D01*
X96387635Y-65039937D01*
X96612387Y-65227105D01*
X96839792Y-65441405D01*
X97070640Y-65683557D01*
X97305724Y-65954279D01*
X97545835Y-66254291D01*
X97791764Y-66584310D01*
X97883744Y-66713250D01*
X97944898Y-66801766D01*
X98015760Y-66907276D01*
X98089613Y-67019605D01*
X98159740Y-67128575D01*
X98198098Y-67189500D01*
X98251241Y-67273952D01*
X98317722Y-67378242D01*
X98393289Y-67495779D01*
X98473687Y-67619969D01*
X98554664Y-67744220D01*
X98630106Y-67859118D01*
X98898958Y-68266799D01*
X98736538Y-68525868D01*
X98470456Y-68943793D01*
X98214335Y-69332579D01*
X97967444Y-69692982D01*
X97729049Y-70025759D01*
X97498418Y-70331665D01*
X97274821Y-70611457D01*
X97057524Y-70865892D01*
X96845795Y-71095724D01*
X96638904Y-71301711D01*
X96436116Y-71484609D01*
X96236701Y-71645173D01*
X96039926Y-71784161D01*
X95845059Y-71902328D01*
X95651369Y-72000430D01*
X95458122Y-72079224D01*
X95264588Y-72139466D01*
X95229625Y-72148408D01*
X95136112Y-72169261D01*
X95030099Y-72189399D01*
X94929634Y-72205494D01*
X94896250Y-72209908D01*
X94729563Y-72230172D01*
X94725483Y-73297586D01*
X94721402Y-74365000D01*
X94757233Y-74361890D01*
X94791073Y-74359676D01*
X94844777Y-74356905D01*
X94904188Y-74354284D01*
X95217724Y-74330397D01*
X95524190Y-74284015D01*
X95824439Y-74214530D01*
X96119324Y-74121334D01*
X96409697Y-74003820D01*
X96696411Y-73861379D01*
X96980319Y-73693405D01*
X97262274Y-73499289D01*
X97543128Y-73278423D01*
X97823734Y-73030200D01*
X98104946Y-72754012D01*
X98387615Y-72449250D01*
X98672596Y-72115308D01*
X98960739Y-71751578D01*
X99252899Y-71357451D01*
X99399694Y-71150312D01*
X99441527Y-71089636D01*
X99496030Y-71009363D01*
X99560206Y-70914015D01*
X99631059Y-70808113D01*
X99705592Y-70696178D01*
X99780809Y-70582731D01*
X99853712Y-70472294D01*
X99921305Y-70369388D01*
X99980591Y-70278534D01*
X100028574Y-70204254D01*
X100062257Y-70151070D01*
X100066006Y-70145003D01*
X100098479Y-70092194D01*
X100254706Y-70335503D01*
X100452767Y-70642044D01*
X100636996Y-70922960D01*
X100808988Y-71180377D01*
X100970335Y-71416422D01*
X101122634Y-71633220D01*
X101267478Y-71832897D01*
X101406463Y-72017578D01*
X101541181Y-72189391D01*
X101673228Y-72350459D01*
X101804198Y-72502911D01*
X101935686Y-72648870D01*
X102069285Y-72790464D01*
X102182269Y-72905542D01*
X102333707Y-73054297D01*
X102472048Y-73183387D01*
X102603743Y-73298167D01*
X102735241Y-73403992D01*
X102872991Y-73506217D01*
X103023442Y-73610198D01*
X103061332Y-73635463D01*
X103378832Y-73827338D01*
X103707659Y-73989613D01*
X104047486Y-74122154D01*
X104397986Y-74224825D01*
X104595875Y-74268649D01*
X104676356Y-74283122D01*
X104771857Y-74298168D01*
X104874981Y-74312841D01*
X104978332Y-74326200D01*
X105074510Y-74337299D01*
X105156119Y-74345195D01*
X105215761Y-74348945D01*
X105226809Y-74349125D01*
X105278500Y-74349125D01*
X105278500Y-73294698D01*
X105278501Y-72240272D01*
X105234844Y-72231909D01*
X105195817Y-72225884D01*
X105138843Y-72218737D01*
X105088000Y-72213229D01*
X104856816Y-72176654D01*
X104627316Y-72112991D01*
X104398449Y-72021632D01*
X104169165Y-71901974D01*
X103938410Y-71753409D01*
X103705136Y-71575333D01*
X103468290Y-71367139D01*
X103254332Y-71156737D01*
X103146759Y-71043739D01*
X103041565Y-70928598D01*
X102937172Y-70809192D01*
X102832000Y-70683396D01*
X102724468Y-70549089D01*
X102612997Y-70404146D01*
X102496007Y-70246445D01*
X102371918Y-70073863D01*
X102239151Y-69884276D01*
X102096126Y-69675561D01*
X101941263Y-69445595D01*
X101772983Y-69192254D01*
X101623109Y-68964419D01*
X101545673Y-68846100D01*
X101473928Y-68736144D01*
X101409687Y-68637357D01*
X101354766Y-68552544D01*
X101310979Y-68484511D01*
X101280141Y-68436062D01*
X101264065Y-68410005D01*
X101262125Y-68406282D01*
X101270195Y-68390677D01*
X101292908Y-68351822D01*
X101328020Y-68293356D01*
X101373285Y-68218914D01*
X101426458Y-68132134D01*
X101485295Y-68036652D01*
X101547552Y-67936106D01*
X101610982Y-67834132D01*
X101673342Y-67734368D01*
X101732387Y-67640449D01*
X101785871Y-67556014D01*
X101817194Y-67507000D01*
X102073574Y-67117160D01*
X102323054Y-66757280D01*
X102566378Y-66426504D01*
X102804295Y-66123976D01*
X103037551Y-65848841D01*
X103266892Y-65600242D01*
X103493066Y-65377325D01*
X103716820Y-65179234D01*
X103938899Y-65005112D01*
X104097230Y-64894734D01*
X104323181Y-64760103D01*
X104566602Y-64641926D01*
X104818489Y-64543983D01*
X105069833Y-64470052D01*
X105155469Y-64450661D01*
X105278500Y-64425084D01*
X105278500Y-62314218D01*
X105139594Y-62324265D01*
X105139594Y-62324265D01*
G37*
X105139594Y-62324265D02*
X104909990Y-62343935D01*
X104704351Y-62368583D01*
X104515096Y-62399626D01*
X104334639Y-62438483D01*
X104155398Y-62486573D01*
X103984688Y-62540310D01*
X103740932Y-62630169D01*
X103501924Y-62735619D01*
X103266664Y-62857642D01*
X103034149Y-62997224D01*
X102803376Y-63155348D01*
X102573345Y-63332999D01*
X102343052Y-63531160D01*
X102111495Y-63750815D01*
X101877673Y-63992950D01*
X101640584Y-64258547D01*
X101399224Y-64548591D01*
X101152594Y-64864065D01*
X100899689Y-65205954D01*
X100639508Y-65575243D01*
X100371050Y-65972914D01*
X100159740Y-66296483D01*
X99973040Y-66586153D01*
X99797850Y-66304420D01*
X99530868Y-65884147D01*
X99270863Y-65493493D01*
X99016897Y-65131328D01*
X98768033Y-64796524D01*
X98523334Y-64487951D01*
X98281864Y-64204480D01*
X98042686Y-63944981D01*
X97804863Y-63708326D01*
X97567457Y-63493385D01*
X97329533Y-63299029D01*
X97261625Y-63247345D01*
X96944703Y-63028215D01*
X96618204Y-62838077D01*
X96283288Y-62677392D01*
X95941114Y-62546622D01*
X95592843Y-62446230D01*
X95239634Y-62376677D01*
X95004474Y-62347900D01*
X94926634Y-62340351D01*
X94855524Y-62332892D01*
X94800072Y-62326490D01*
X94773219Y-62322819D01*
X94721625Y-62314436D01*
X94721625Y-64406724D01*
X94908157Y-64425620D01*
X95063497Y-64444082D01*
X95199182Y-64466853D01*
X95327252Y-64496431D01*
X95459750Y-64535313D01*
X95499311Y-64548216D01*
X95721372Y-64634041D01*
X95942919Y-64744124D01*
X96164742Y-64879183D01*
X96387635Y-65039937D01*
X96612387Y-65227105D01*
X96839792Y-65441405D01*
X97070640Y-65683557D01*
X97305724Y-65954279D01*
X97545835Y-66254291D01*
X97791764Y-66584310D01*
X97883744Y-66713250D01*
X97944898Y-66801766D01*
X98015760Y-66907276D01*
X98089613Y-67019605D01*
X98159740Y-67128575D01*
X98198098Y-67189500D01*
X98251241Y-67273952D01*
X98317722Y-67378242D01*
X98393289Y-67495779D01*
X98473687Y-67619969D01*
X98554664Y-67744220D01*
X98630106Y-67859118D01*
X98898958Y-68266799D01*
X98736538Y-68525868D01*
X98470456Y-68943793D01*
X98214335Y-69332579D01*
X97967444Y-69692982D01*
X97729049Y-70025759D01*
X97498418Y-70331665D01*
X97274821Y-70611457D01*
X97057524Y-70865892D01*
X96845795Y-71095724D01*
X96638904Y-71301711D01*
X96436116Y-71484609D01*
X96236701Y-71645173D01*
X96039926Y-71784161D01*
X95845059Y-71902328D01*
X95651369Y-72000430D01*
X95458122Y-72079224D01*
X95264588Y-72139466D01*
X95229625Y-72148408D01*
X95136112Y-72169261D01*
X95030099Y-72189399D01*
X94929634Y-72205494D01*
X94896250Y-72209908D01*
X94729563Y-72230172D01*
X94725483Y-73297586D01*
X94721402Y-74365000D01*
X94757233Y-74361890D01*
X94791073Y-74359676D01*
X94844777Y-74356905D01*
X94904188Y-74354284D01*
X95217724Y-74330397D01*
X95524190Y-74284015D01*
X95824439Y-74214530D01*
X96119324Y-74121334D01*
X96409697Y-74003820D01*
X96696411Y-73861379D01*
X96980319Y-73693405D01*
X97262274Y-73499289D01*
X97543128Y-73278423D01*
X97823734Y-73030200D01*
X98104946Y-72754012D01*
X98387615Y-72449250D01*
X98672596Y-72115308D01*
X98960739Y-71751578D01*
X99252899Y-71357451D01*
X99399694Y-71150312D01*
X99441527Y-71089636D01*
X99496030Y-71009363D01*
X99560206Y-70914015D01*
X99631059Y-70808113D01*
X99705592Y-70696178D01*
X99780809Y-70582731D01*
X99853712Y-70472294D01*
X99921305Y-70369388D01*
X99980591Y-70278534D01*
X100028574Y-70204254D01*
X100062257Y-70151070D01*
X100066006Y-70145003D01*
X100098479Y-70092194D01*
X100254706Y-70335503D01*
X100452767Y-70642044D01*
X100636996Y-70922960D01*
X100808988Y-71180377D01*
X100970335Y-71416422D01*
X101122634Y-71633220D01*
X101267478Y-71832897D01*
X101406463Y-72017578D01*
X101541181Y-72189391D01*
X101673228Y-72350459D01*
X101804198Y-72502911D01*
X101935686Y-72648870D01*
X102069285Y-72790464D01*
X102182269Y-72905542D01*
X102333707Y-73054297D01*
X102472048Y-73183387D01*
X102603743Y-73298167D01*
X102735241Y-73403992D01*
X102872991Y-73506217D01*
X103023442Y-73610198D01*
X103061332Y-73635463D01*
X103378832Y-73827338D01*
X103707659Y-73989613D01*
X104047486Y-74122154D01*
X104397986Y-74224825D01*
X104595875Y-74268649D01*
X104676356Y-74283122D01*
X104771857Y-74298168D01*
X104874981Y-74312841D01*
X104978332Y-74326200D01*
X105074510Y-74337299D01*
X105156119Y-74345195D01*
X105215761Y-74348945D01*
X105226809Y-74349125D01*
X105278500Y-74349125D01*
X105278500Y-73294698D01*
X105278501Y-72240272D01*
X105234844Y-72231909D01*
X105195817Y-72225884D01*
X105138843Y-72218737D01*
X105088000Y-72213229D01*
X104856816Y-72176654D01*
X104627316Y-72112991D01*
X104398449Y-72021632D01*
X104169165Y-71901974D01*
X103938410Y-71753409D01*
X103705136Y-71575333D01*
X103468290Y-71367139D01*
X103254332Y-71156737D01*
X103146759Y-71043739D01*
X103041565Y-70928598D01*
X102937172Y-70809192D01*
X102832000Y-70683396D01*
X102724468Y-70549089D01*
X102612997Y-70404146D01*
X102496007Y-70246445D01*
X102371918Y-70073863D01*
X102239151Y-69884276D01*
X102096126Y-69675561D01*
X101941263Y-69445595D01*
X101772983Y-69192254D01*
X101623109Y-68964419D01*
X101545673Y-68846100D01*
X101473928Y-68736144D01*
X101409687Y-68637357D01*
X101354766Y-68552544D01*
X101310979Y-68484511D01*
X101280141Y-68436062D01*
X101264065Y-68410005D01*
X101262125Y-68406282D01*
X101270195Y-68390677D01*
X101292908Y-68351822D01*
X101328020Y-68293356D01*
X101373285Y-68218914D01*
X101426458Y-68132134D01*
X101485295Y-68036652D01*
X101547552Y-67936106D01*
X101610982Y-67834132D01*
X101673342Y-67734368D01*
X101732387Y-67640449D01*
X101785871Y-67556014D01*
X101817194Y-67507000D01*
X102073574Y-67117160D01*
X102323054Y-66757280D01*
X102566378Y-66426504D01*
X102804295Y-66123976D01*
X103037551Y-65848841D01*
X103266892Y-65600242D01*
X103493066Y-65377325D01*
X103716820Y-65179234D01*
X103938899Y-65005112D01*
X104097230Y-64894734D01*
X104323181Y-64760103D01*
X104566602Y-64641926D01*
X104818489Y-64543983D01*
X105069833Y-64470052D01*
X105155469Y-64450661D01*
X105278500Y-64425084D01*
X105278500Y-62314218D01*
X105139594Y-62324265D01*
G36*
X106097986Y-62394924D02*
X106096052Y-62439459D01*
X106094259Y-62510488D01*
X106092637Y-62605384D01*
X106091217Y-62721518D01*
X106090028Y-62856262D01*
X106089101Y-63006989D01*
X106088466Y-63171071D01*
X106088154Y-63345879D01*
X106088125Y-63417410D01*
X106088125Y-64455446D01*
X106234969Y-64491031D01*
X106545115Y-64579563D01*
X106833023Y-64689821D01*
X107100500Y-64822796D01*
X107349349Y-64979478D01*
X107581378Y-65160859D01*
X107758457Y-65326792D01*
X107955690Y-65542558D01*
X108128865Y-65767403D01*
X108280612Y-66005726D01*
X108413559Y-66261925D01*
X108530337Y-66540398D01*
X108596747Y-66729125D01*
X108688746Y-67050632D01*
X108760247Y-67390465D01*
X108810650Y-67742205D01*
X108839354Y-68099435D01*
X108845758Y-68455738D01*
X108829263Y-68804696D01*
X108809209Y-68999250D01*
X108751597Y-69349513D01*
X108668541Y-69685085D01*
X108560862Y-70004811D01*
X108429382Y-70307535D01*
X108274924Y-70592104D01*
X108098309Y-70857363D01*
X107900359Y-71102155D01*
X107681896Y-71325327D01*
X107443743Y-71525724D01*
X107186721Y-71702191D01*
X106911651Y-71853573D01*
X106715188Y-71941402D01*
X106632695Y-71973866D01*
X106547742Y-72005352D01*
X106471957Y-72031644D01*
X106429438Y-72045036D01*
X106352848Y-72067334D01*
X106266743Y-72092306D01*
X106203219Y-72110663D01*
X106088125Y-72143844D01*
X106088125Y-74317375D01*
X106131782Y-74315865D01*
X106163731Y-74312522D01*
X106219315Y-74304490D01*
X106290965Y-74292939D01*
X106371109Y-74279042D01*
X106378543Y-74277704D01*
X106801220Y-74186218D01*
X107208199Y-74067135D01*
X107599508Y-73920441D01*
X107975171Y-73746123D01*
X108335217Y-73544165D01*
X108679673Y-73314554D01*
X109008564Y-73057276D01*
X109321918Y-72772316D01*
X109422132Y-72671986D01*
X109712026Y-72352457D01*
X109976058Y-72015136D01*
X110213881Y-71661125D01*
X110425146Y-71291524D01*
X110609508Y-70907438D01*
X110766620Y-70509966D01*
X110896133Y-70100213D01*
X110997702Y-69679279D01*
X111070979Y-69248268D01*
X111115617Y-68808281D01*
X111131270Y-68360420D01*
X111117589Y-67905787D01*
X111074228Y-67445485D01*
X111072394Y-67431040D01*
X111002290Y-66989368D01*
X110907253Y-66566721D01*
X110786776Y-66161841D01*
X110640354Y-65773472D01*
X110467481Y-65400356D01*
X110267651Y-65041235D01*
X110040358Y-64694853D01*
X109889146Y-64490750D01*
X109756258Y-64329934D01*
X109600913Y-64160489D01*
X109429071Y-63987945D01*
X109246690Y-63817835D01*
X109059731Y-63655691D01*
X108874153Y-63507044D01*
X108695916Y-63377426D01*
X108672857Y-63361764D01*
X108322322Y-63143811D01*
X107952666Y-62948112D01*
X107569275Y-62777097D01*
X107177539Y-62633191D01*
X106826313Y-62529902D01*
X106774272Y-62517227D01*
X106702738Y-62500937D01*
X106617308Y-62482190D01*
X106523578Y-62462145D01*
X106427144Y-62441961D01*
X106333603Y-62422797D01*
X106248550Y-62405812D01*
X106177583Y-62392164D01*
X106126298Y-62383013D01*
X106100291Y-62379516D01*
X106100032Y-62379511D01*
X106097986Y-62394924D01*
X106097986Y-62394924D01*
G37*
X106097986Y-62394924D02*
X106096052Y-62439459D01*
X106094259Y-62510488D01*
X106092637Y-62605384D01*
X106091217Y-62721518D01*
X106090028Y-62856262D01*
X106089101Y-63006989D01*
X106088466Y-63171071D01*
X106088154Y-63345879D01*
X106088125Y-63417410D01*
X106088125Y-64455446D01*
X106234969Y-64491031D01*
X106545115Y-64579563D01*
X106833023Y-64689821D01*
X107100500Y-64822796D01*
X107349349Y-64979478D01*
X107581378Y-65160859D01*
X107758457Y-65326792D01*
X107955690Y-65542558D01*
X108128865Y-65767403D01*
X108280612Y-66005726D01*
X108413559Y-66261925D01*
X108530337Y-66540398D01*
X108596747Y-66729125D01*
X108688746Y-67050632D01*
X108760247Y-67390465D01*
X108810650Y-67742205D01*
X108839354Y-68099435D01*
X108845758Y-68455738D01*
X108829263Y-68804696D01*
X108809209Y-68999250D01*
X108751597Y-69349513D01*
X108668541Y-69685085D01*
X108560862Y-70004811D01*
X108429382Y-70307535D01*
X108274924Y-70592104D01*
X108098309Y-70857363D01*
X107900359Y-71102155D01*
X107681896Y-71325327D01*
X107443743Y-71525724D01*
X107186721Y-71702191D01*
X106911651Y-71853573D01*
X106715188Y-71941402D01*
X106632695Y-71973866D01*
X106547742Y-72005352D01*
X106471957Y-72031644D01*
X106429438Y-72045036D01*
X106352848Y-72067334D01*
X106266743Y-72092306D01*
X106203219Y-72110663D01*
X106088125Y-72143844D01*
X106088125Y-74317375D01*
X106131782Y-74315865D01*
X106163731Y-74312522D01*
X106219315Y-74304490D01*
X106290965Y-74292939D01*
X106371109Y-74279042D01*
X106378543Y-74277704D01*
X106801220Y-74186218D01*
X107208199Y-74067135D01*
X107599508Y-73920441D01*
X107975171Y-73746123D01*
X108335217Y-73544165D01*
X108679673Y-73314554D01*
X109008564Y-73057276D01*
X109321918Y-72772316D01*
X109422132Y-72671986D01*
X109712026Y-72352457D01*
X109976058Y-72015136D01*
X110213881Y-71661125D01*
X110425146Y-71291524D01*
X110609508Y-70907438D01*
X110766620Y-70509966D01*
X110896133Y-70100213D01*
X110997702Y-69679279D01*
X111070979Y-69248268D01*
X111115617Y-68808281D01*
X111131270Y-68360420D01*
X111117589Y-67905787D01*
X111074228Y-67445485D01*
X111072394Y-67431040D01*
X111002290Y-66989368D01*
X110907253Y-66566721D01*
X110786776Y-66161841D01*
X110640354Y-65773472D01*
X110467481Y-65400356D01*
X110267651Y-65041235D01*
X110040358Y-64694853D01*
X109889146Y-64490750D01*
X109756258Y-64329934D01*
X109600913Y-64160489D01*
X109429071Y-63987945D01*
X109246690Y-63817835D01*
X109059731Y-63655691D01*
X108874153Y-63507044D01*
X108695916Y-63377426D01*
X108672857Y-63361764D01*
X108322322Y-63143811D01*
X107952666Y-62948112D01*
X107569275Y-62777097D01*
X107177539Y-62633191D01*
X106826313Y-62529902D01*
X106774272Y-62517227D01*
X106702738Y-62500937D01*
X106617308Y-62482190D01*
X106523578Y-62462145D01*
X106427144Y-62441961D01*
X106333603Y-62422797D01*
X106248550Y-62405812D01*
X106177583Y-62392164D01*
X106126298Y-62383013D01*
X106100291Y-62379516D01*
X106100032Y-62379511D01*
X106097986Y-62394924D01*
G36*
X93852580Y-62370038D02*
X93819269Y-62376646D01*
X93763256Y-62387421D01*
X93693056Y-62400738D01*
X93634188Y-62411792D01*
X93232137Y-62502749D01*
X92842576Y-62622718D01*
X92466381Y-62771163D01*
X92104430Y-62947547D01*
X91757597Y-63151333D01*
X91426760Y-63381986D01*
X91112794Y-63638967D01*
X90816576Y-63921741D01*
X90538982Y-64229769D01*
X90414296Y-64384270D01*
X90171094Y-64722265D01*
X89953233Y-65078702D01*
X89761096Y-65452398D01*
X89595065Y-65842173D01*
X89455523Y-66246842D01*
X89342852Y-66665225D01*
X89257434Y-67096139D01*
X89199651Y-67538402D01*
X89169886Y-67990832D01*
X89165597Y-68245187D01*
X89179825Y-68714399D01*
X89222006Y-69171722D01*
X89291850Y-69616404D01*
X89389063Y-70047693D01*
X89513354Y-70464836D01*
X89664431Y-70867083D01*
X89842003Y-71253680D01*
X90045776Y-71623875D01*
X90275460Y-71976916D01*
X90530763Y-72312051D01*
X90811392Y-72628528D01*
X90903169Y-72722416D01*
X91212782Y-73010120D01*
X91539102Y-73270826D01*
X91882091Y-73504510D01*
X92241712Y-73711148D01*
X92617926Y-73890719D01*
X93010696Y-74043197D01*
X93099016Y-74073004D01*
X93159259Y-74091638D01*
X93237669Y-74114180D01*
X93328839Y-74139251D01*
X93427363Y-74165472D01*
X93527835Y-74191466D01*
X93624849Y-74215852D01*
X93712998Y-74237252D01*
X93786875Y-74254287D01*
X93841076Y-74265579D01*
X93870193Y-74269748D01*
X93870446Y-74269750D01*
X93875517Y-74267672D01*
X93879878Y-74259975D01*
X93883584Y-74244464D01*
X93886685Y-74218941D01*
X93889236Y-74181210D01*
X93891288Y-74129076D01*
X93892894Y-74060343D01*
X93894108Y-73972814D01*
X93894981Y-73864293D01*
X93895567Y-73732584D01*
X93895917Y-73575492D01*
X93896086Y-73390819D01*
X93896125Y-73199496D01*
X93896125Y-72129243D01*
X93741344Y-72078028D01*
X93449804Y-71965532D01*
X93176475Y-71827054D01*
X92921492Y-71662715D01*
X92684989Y-71472633D01*
X92467103Y-71256930D01*
X92267967Y-71015725D01*
X92087717Y-70749138D01*
X91931686Y-70467687D01*
X91787803Y-70152459D01*
X91670883Y-69832735D01*
X91580043Y-69504850D01*
X91514397Y-69165141D01*
X91473060Y-68809941D01*
X91456537Y-68499187D01*
X91458623Y-68109433D01*
X91485845Y-67732026D01*
X91537775Y-67368220D01*
X91613988Y-67019269D01*
X91714057Y-66686428D01*
X91837553Y-66370952D01*
X91984050Y-66074093D01*
X92153120Y-65797107D01*
X92344338Y-65541247D01*
X92535845Y-65329236D01*
X92748668Y-65132025D01*
X92972567Y-64960822D01*
X93211990Y-64812799D01*
X93471388Y-64685130D01*
X93681813Y-64600999D01*
X93888188Y-64525623D01*
X93892267Y-63443276D01*
X93896347Y-62360928D01*
X93852580Y-62370038D01*
X93852580Y-62370038D01*
G37*
X93852580Y-62370038D02*
X93819269Y-62376646D01*
X93763256Y-62387421D01*
X93693056Y-62400738D01*
X93634188Y-62411792D01*
X93232137Y-62502749D01*
X92842576Y-62622718D01*
X92466381Y-62771163D01*
X92104430Y-62947547D01*
X91757597Y-63151333D01*
X91426760Y-63381986D01*
X91112794Y-63638967D01*
X90816576Y-63921741D01*
X90538982Y-64229769D01*
X90414296Y-64384270D01*
X90171094Y-64722265D01*
X89953233Y-65078702D01*
X89761096Y-65452398D01*
X89595065Y-65842173D01*
X89455523Y-66246842D01*
X89342852Y-66665225D01*
X89257434Y-67096139D01*
X89199651Y-67538402D01*
X89169886Y-67990832D01*
X89165597Y-68245187D01*
X89179825Y-68714399D01*
X89222006Y-69171722D01*
X89291850Y-69616404D01*
X89389063Y-70047693D01*
X89513354Y-70464836D01*
X89664431Y-70867083D01*
X89842003Y-71253680D01*
X90045776Y-71623875D01*
X90275460Y-71976916D01*
X90530763Y-72312051D01*
X90811392Y-72628528D01*
X90903169Y-72722416D01*
X91212782Y-73010120D01*
X91539102Y-73270826D01*
X91882091Y-73504510D01*
X92241712Y-73711148D01*
X92617926Y-73890719D01*
X93010696Y-74043197D01*
X93099016Y-74073004D01*
X93159259Y-74091638D01*
X93237669Y-74114180D01*
X93328839Y-74139251D01*
X93427363Y-74165472D01*
X93527835Y-74191466D01*
X93624849Y-74215852D01*
X93712998Y-74237252D01*
X93786875Y-74254287D01*
X93841076Y-74265579D01*
X93870193Y-74269748D01*
X93870446Y-74269750D01*
X93875517Y-74267672D01*
X93879878Y-74259975D01*
X93883584Y-74244464D01*
X93886685Y-74218941D01*
X93889236Y-74181210D01*
X93891288Y-74129076D01*
X93892894Y-74060343D01*
X93894108Y-73972814D01*
X93894981Y-73864293D01*
X93895567Y-73732584D01*
X93895917Y-73575492D01*
X93896086Y-73390819D01*
X93896125Y-73199496D01*
X93896125Y-72129243D01*
X93741344Y-72078028D01*
X93449804Y-71965532D01*
X93176475Y-71827054D01*
X92921492Y-71662715D01*
X92684989Y-71472633D01*
X92467103Y-71256930D01*
X92267967Y-71015725D01*
X92087717Y-70749138D01*
X91931686Y-70467687D01*
X91787803Y-70152459D01*
X91670883Y-69832735D01*
X91580043Y-69504850D01*
X91514397Y-69165141D01*
X91473060Y-68809941D01*
X91456537Y-68499187D01*
X91458623Y-68109433D01*
X91485845Y-67732026D01*
X91537775Y-67368220D01*
X91613988Y-67019269D01*
X91714057Y-66686428D01*
X91837553Y-66370952D01*
X91984050Y-66074093D01*
X92153120Y-65797107D01*
X92344338Y-65541247D01*
X92535845Y-65329236D01*
X92748668Y-65132025D01*
X92972567Y-64960822D01*
X93211990Y-64812799D01*
X93471388Y-64685130D01*
X93681813Y-64600999D01*
X93888188Y-64525623D01*
X93892267Y-63443276D01*
X93896347Y-62360928D01*
X93852580Y-62370038D01*
D12*
X88107143Y-104083334D02*
X88154762Y-104035715D01*
X88202381Y-103892858D01*
X88202381Y-103797620D01*
X88154762Y-103654762D01*
X88059524Y-103559524D01*
X87964286Y-103511905D01*
X87773810Y-103464286D01*
X87630952Y-103464286D01*
X87440476Y-103511905D01*
X87345238Y-103559524D01*
X87250000Y-103654762D01*
X87202381Y-103797620D01*
X87202381Y-103892858D01*
X87250000Y-104035715D01*
X87297619Y-104083334D01*
X88202381Y-105035715D02*
X88202381Y-104464286D01*
X88202381Y-104750000D02*
X87202381Y-104750000D01*
X87345238Y-104654762D01*
X87440476Y-104559524D01*
X87488095Y-104464286D01*
X90916666Y-97607143D02*
X90964285Y-97654762D01*
X91107142Y-97702381D01*
X91202380Y-97702381D01*
X91345238Y-97654762D01*
X91440476Y-97559524D01*
X91488095Y-97464286D01*
X91535714Y-97273810D01*
X91535714Y-97130952D01*
X91488095Y-96940476D01*
X91440476Y-96845238D01*
X91345238Y-96750000D01*
X91202380Y-96702381D01*
X91107142Y-96702381D01*
X90964285Y-96750000D01*
X90916666Y-96797619D01*
X90535714Y-96797619D02*
X90488095Y-96750000D01*
X90392857Y-96702381D01*
X90154761Y-96702381D01*
X90059523Y-96750000D01*
X90011904Y-96797619D01*
X89964285Y-96892857D01*
X89964285Y-96988095D01*
X90011904Y-97130952D01*
X90583333Y-97702381D01*
X89964285Y-97702381D01*
X101417143Y-90765334D02*
X101464762Y-90717715D01*
X101512381Y-90574858D01*
X101512381Y-90479620D01*
X101464762Y-90336762D01*
X101369524Y-90241524D01*
X101274286Y-90193905D01*
X101083810Y-90146286D01*
X100940952Y-90146286D01*
X100750476Y-90193905D01*
X100655238Y-90241524D01*
X100560000Y-90336762D01*
X100512381Y-90479620D01*
X100512381Y-90574858D01*
X100560000Y-90717715D01*
X100607619Y-90765334D01*
X100512381Y-91098667D02*
X100512381Y-91717715D01*
X100893333Y-91384381D01*
X100893333Y-91527239D01*
X100940952Y-91622477D01*
X100988571Y-91670096D01*
X101083810Y-91717715D01*
X101321905Y-91717715D01*
X101417143Y-91670096D01*
X101464762Y-91622477D01*
X101512381Y-91527239D01*
X101512381Y-91241524D01*
X101464762Y-91146286D01*
X101417143Y-91098667D01*
X89857143Y-104083334D02*
X89904762Y-104035715D01*
X89952381Y-103892858D01*
X89952381Y-103797620D01*
X89904762Y-103654762D01*
X89809524Y-103559524D01*
X89714286Y-103511905D01*
X89523810Y-103464286D01*
X89380952Y-103464286D01*
X89190476Y-103511905D01*
X89095238Y-103559524D01*
X89000000Y-103654762D01*
X88952381Y-103797620D01*
X88952381Y-103892858D01*
X89000000Y-104035715D01*
X89047619Y-104083334D01*
X89285714Y-104940477D02*
X89952381Y-104940477D01*
X88904762Y-104702381D02*
X89619048Y-104464286D01*
X89619048Y-105083334D01*
X91826666Y-108097143D02*
X91874285Y-108144762D01*
X92017142Y-108192381D01*
X92112380Y-108192381D01*
X92255238Y-108144762D01*
X92350476Y-108049524D01*
X92398095Y-107954286D01*
X92445714Y-107763810D01*
X92445714Y-107620952D01*
X92398095Y-107430476D01*
X92350476Y-107335238D01*
X92255238Y-107240000D01*
X92112380Y-107192381D01*
X92017142Y-107192381D01*
X91874285Y-107240000D01*
X91826666Y-107287619D01*
X90921904Y-107192381D02*
X91398095Y-107192381D01*
X91445714Y-107668571D01*
X91398095Y-107620952D01*
X91302857Y-107573333D01*
X91064761Y-107573333D01*
X90969523Y-107620952D01*
X90921904Y-107668571D01*
X90874285Y-107763810D01*
X90874285Y-108001905D01*
X90921904Y-108097143D01*
X90969523Y-108144762D01*
X91064761Y-108192381D01*
X91302857Y-108192381D01*
X91398095Y-108144762D01*
X91445714Y-108097143D01*
X79107143Y-104083334D02*
X79154762Y-104035715D01*
X79202381Y-103892858D01*
X79202381Y-103797620D01*
X79154762Y-103654762D01*
X79059524Y-103559524D01*
X78964286Y-103511905D01*
X78773810Y-103464286D01*
X78630952Y-103464286D01*
X78440476Y-103511905D01*
X78345238Y-103559524D01*
X78250000Y-103654762D01*
X78202381Y-103797620D01*
X78202381Y-103892858D01*
X78250000Y-104035715D01*
X78297619Y-104083334D01*
X78202381Y-104940477D02*
X78202381Y-104750000D01*
X78250000Y-104654762D01*
X78297619Y-104607143D01*
X78440476Y-104511905D01*
X78630952Y-104464286D01*
X79011905Y-104464286D01*
X79107143Y-104511905D01*
X79154762Y-104559524D01*
X79202381Y-104654762D01*
X79202381Y-104845239D01*
X79154762Y-104940477D01*
X79107143Y-104988096D01*
X79011905Y-105035715D01*
X78773810Y-105035715D01*
X78678571Y-104988096D01*
X78630952Y-104940477D01*
X78583333Y-104845239D01*
X78583333Y-104654762D01*
X78630952Y-104559524D01*
X78678571Y-104511905D01*
X78773810Y-104464286D01*
X82702381Y-103511905D02*
X81702381Y-103511905D01*
X81702381Y-103750000D01*
X81750000Y-103892858D01*
X81845238Y-103988096D01*
X81940476Y-104035715D01*
X82130952Y-104083334D01*
X82273810Y-104083334D01*
X82464286Y-104035715D01*
X82559524Y-103988096D01*
X82654762Y-103892858D01*
X82702381Y-103750000D01*
X82702381Y-103511905D01*
X82702381Y-105035715D02*
X82702381Y-104464286D01*
X82702381Y-104750000D02*
X81702381Y-104750000D01*
X81845238Y-104654762D01*
X81940476Y-104559524D01*
X81988095Y-104464286D01*
X73833333Y-102952381D02*
X73833333Y-103666667D01*
X73880953Y-103809524D01*
X73976191Y-103904762D01*
X74119048Y-103952381D01*
X74214286Y-103952381D01*
X73357143Y-103952381D02*
X73357143Y-102952381D01*
X72976190Y-102952381D01*
X72880952Y-103000000D01*
X72833333Y-103047619D01*
X72785714Y-103142857D01*
X72785714Y-103285714D01*
X72833333Y-103380952D01*
X72880952Y-103428571D01*
X72976190Y-103476190D01*
X73357143Y-103476190D01*
X71833333Y-103952381D02*
X72404762Y-103952381D01*
X72119048Y-103952381D02*
X72119048Y-102952381D01*
X72214286Y-103095238D01*
X72309524Y-103190476D01*
X72404762Y-103238095D01*
X90238095Y-52452381D02*
X90238095Y-51452381D01*
X89857142Y-51452381D01*
X89761904Y-51500000D01*
X89714285Y-51547619D01*
X89666666Y-51642857D01*
X89666666Y-51785714D01*
X89714285Y-51880952D01*
X89761904Y-51928571D01*
X89857142Y-51976190D01*
X90238095Y-51976190D01*
X88714285Y-52452381D02*
X89285714Y-52452381D01*
X89000000Y-52452381D02*
X89000000Y-51452381D01*
X89095238Y-51595238D01*
X89190476Y-51690476D01*
X89285714Y-51738095D01*
X54452381Y-108761905D02*
X53452381Y-108761905D01*
X53452381Y-109142858D01*
X53500000Y-109238096D01*
X53547619Y-109285715D01*
X53642857Y-109333334D01*
X53785714Y-109333334D01*
X53880952Y-109285715D01*
X53928571Y-109238096D01*
X53976190Y-109142858D01*
X53976190Y-108761905D01*
X53547619Y-109714286D02*
X53500000Y-109761905D01*
X53452381Y-109857143D01*
X53452381Y-110095239D01*
X53500000Y-110190477D01*
X53547619Y-110238096D01*
X53642857Y-110285715D01*
X53738095Y-110285715D01*
X53880952Y-110238096D01*
X54452381Y-109666667D01*
X54452381Y-110285715D01*
X146688095Y-110202381D02*
X146688095Y-109202381D01*
X146307142Y-109202381D01*
X146211904Y-109250000D01*
X146164285Y-109297619D01*
X146116666Y-109392857D01*
X146116666Y-109535714D01*
X146164285Y-109630952D01*
X146211904Y-109678571D01*
X146307142Y-109726190D01*
X146688095Y-109726190D01*
X145783333Y-109202381D02*
X145164285Y-109202381D01*
X145497619Y-109583333D01*
X145354761Y-109583333D01*
X145259523Y-109630952D01*
X145211904Y-109678571D01*
X145164285Y-109773810D01*
X145164285Y-110011905D01*
X145211904Y-110107143D01*
X145259523Y-110154762D01*
X145354761Y-110202381D01*
X145640476Y-110202381D01*
X145735714Y-110154762D01*
X145783333Y-110107143D01*
X91702381Y-145261905D02*
X90702381Y-145261905D01*
X90702381Y-145642858D01*
X90750000Y-145738096D01*
X90797619Y-145785715D01*
X90892857Y-145833334D01*
X91035714Y-145833334D01*
X91130952Y-145785715D01*
X91178571Y-145738096D01*
X91226190Y-145642858D01*
X91226190Y-145261905D01*
X91035714Y-146690477D02*
X91702381Y-146690477D01*
X90654762Y-146452381D02*
X91369048Y-146214286D01*
X91369048Y-146833334D01*
X115452381Y-145261905D02*
X114452381Y-145261905D01*
X114452381Y-145642858D01*
X114500000Y-145738096D01*
X114547619Y-145785715D01*
X114642857Y-145833334D01*
X114785714Y-145833334D01*
X114880952Y-145785715D01*
X114928571Y-145738096D01*
X114976190Y-145642858D01*
X114976190Y-145261905D01*
X114452381Y-146738096D02*
X114452381Y-146261905D01*
X114928571Y-146214286D01*
X114880952Y-146261905D01*
X114833333Y-146357143D01*
X114833333Y-146595239D01*
X114880952Y-146690477D01*
X114928571Y-146738096D01*
X115023810Y-146785715D01*
X115261905Y-146785715D01*
X115357143Y-146738096D01*
X115404762Y-146690477D01*
X115452381Y-146595239D01*
X115452381Y-146357143D01*
X115404762Y-146261905D01*
X115357143Y-146214286D01*
X81202381Y-104083334D02*
X80726190Y-103750000D01*
X81202381Y-103511905D02*
X80202381Y-103511905D01*
X80202381Y-103892858D01*
X80250000Y-103988096D01*
X80297619Y-104035715D01*
X80392857Y-104083334D01*
X80535714Y-104083334D01*
X80630952Y-104035715D01*
X80678571Y-103988096D01*
X80726190Y-103892858D01*
X80726190Y-103511905D01*
X81202381Y-105035715D02*
X81202381Y-104464286D01*
X81202381Y-104750000D02*
X80202381Y-104750000D01*
X80345238Y-104654762D01*
X80440476Y-104559524D01*
X80488095Y-104464286D01*
X85404762Y-104666667D02*
X85452381Y-104809524D01*
X85452381Y-105047620D01*
X85404762Y-105142858D01*
X85357143Y-105190477D01*
X85261905Y-105238096D01*
X85166667Y-105238096D01*
X85071429Y-105190477D01*
X85023810Y-105142858D01*
X84976190Y-105047620D01*
X84928571Y-104857143D01*
X84880952Y-104761905D01*
X84833333Y-104714286D01*
X84738095Y-104666667D01*
X84642857Y-104666667D01*
X84547619Y-104714286D01*
X84500000Y-104761905D01*
X84452381Y-104857143D01*
X84452381Y-105095239D01*
X84500000Y-105238096D01*
X84452381Y-105571429D02*
X85452381Y-105809524D01*
X84738095Y-106000001D01*
X85452381Y-106190477D01*
X84452381Y-106428572D01*
X84452381Y-107285715D02*
X84452381Y-106809524D01*
X84928571Y-106761905D01*
X84880952Y-106809524D01*
X84833333Y-106904762D01*
X84833333Y-107142858D01*
X84880952Y-107238096D01*
X84928571Y-107285715D01*
X85023810Y-107333334D01*
X85261905Y-107333334D01*
X85357143Y-107285715D01*
X85404762Y-107238096D01*
X85452381Y-107142858D01*
X85452381Y-106904762D01*
X85404762Y-106809524D01*
X85357143Y-106761905D01*
X100561905Y-105452381D02*
X100561905Y-106261905D01*
X100514286Y-106357143D01*
X100466667Y-106404762D01*
X100371429Y-106452381D01*
X100180952Y-106452381D01*
X100085714Y-106404762D01*
X100038095Y-106357143D01*
X99990476Y-106261905D01*
X99990476Y-105452381D01*
X98990476Y-106452381D02*
X99561905Y-106452381D01*
X99276191Y-106452381D02*
X99276191Y-105452381D01*
X99371429Y-105595238D01*
X99466667Y-105690476D01*
X99561905Y-105738095D01*
M02*
