G04 #@! TF.FileFunction,Copper,L2,Bot,Signal*
%FSLAX46Y46*%
G04 Gerber Fmt 4.6, Leading zero omitted, Abs format (unit mm)*
G04 Created by KiCad (PCBNEW 4.0.2-stable) date 2016-07-18 00:25:28*
%MOMM*%
G01*
G04 APERTURE LIST*
%ADD10C,0.100000*%
%ADD11C,0.600000*%
%ADD12R,0.750000X0.800000*%
%ADD13R,0.800000X0.750000*%
%ADD14R,0.797560X0.797560*%
%ADD15R,2.032000X2.032000*%
%ADD16O,2.032000X2.032000*%
%ADD17R,1.727200X2.032000*%
%ADD18O,1.727200X2.032000*%
%ADD19R,2.032000X1.727200*%
%ADD20O,2.032000X1.727200*%
%ADD21R,0.900000X0.500000*%
%ADD22R,1.700000X0.900000*%
%ADD23R,1.300000X0.250000*%
%ADD24R,0.250000X1.300000*%
%ADD25C,1.200000*%
%ADD26C,0.203200*%
%ADD27C,0.304800*%
%ADD28C,0.508000*%
%ADD29C,0.254000*%
G04 APERTURE END LIST*
D10*
D11*
X102362000Y-141224000D03*
X101854000Y-136398000D03*
X102870000Y-132080000D03*
X141224000Y-97536000D03*
X134874000Y-97790000D03*
X131064000Y-96520000D03*
X125730000Y-74930000D03*
X74930000Y-124714000D03*
X71120000Y-123190000D03*
X96012000Y-124968000D03*
X93472000Y-123190000D03*
X103378000Y-123444000D03*
X106934000Y-124206000D03*
X69850000Y-130302000D03*
X69596000Y-145542000D03*
X58000000Y-148500000D03*
X56642000Y-147066000D03*
X51500000Y-142000000D03*
X53000000Y-143000000D03*
X103632000Y-118618000D03*
X84328000Y-73660000D03*
X120904000Y-67818000D03*
X128778000Y-56388000D03*
X125222000Y-132588000D03*
X146812000Y-144272000D03*
X148082000Y-141986000D03*
X146812000Y-142748000D03*
X149098000Y-93218000D03*
X110236000Y-146812000D03*
X115316000Y-146812000D03*
X113792000Y-146812000D03*
X112014000Y-146812000D03*
X128220000Y-142520000D03*
X128800000Y-143490000D03*
X127430000Y-143490000D03*
X55118000Y-55372000D03*
X56642000Y-148518000D03*
X134450000Y-75400000D03*
X134100000Y-125200000D03*
D12*
X87520000Y-102220000D03*
X87520000Y-100720000D03*
D13*
X87388000Y-97310000D03*
X88888000Y-97310000D03*
D12*
X102960000Y-90182000D03*
X102960000Y-91682000D03*
X89380000Y-102210000D03*
X89380000Y-100710000D03*
D13*
X90910000Y-105840000D03*
X92410000Y-105840000D03*
D12*
X78800000Y-102175000D03*
X78800000Y-100675000D03*
D14*
X82175000Y-102124300D03*
X82175000Y-100625700D03*
D15*
X73950000Y-106025000D03*
D16*
X71410000Y-106025000D03*
D17*
X93630000Y-52040000D03*
D18*
X96170000Y-52040000D03*
X98710000Y-52040000D03*
X101250000Y-52040000D03*
X103790000Y-52040000D03*
X106330000Y-52040000D03*
D19*
X53950000Y-106330000D03*
D20*
X53950000Y-103790000D03*
X53950000Y-101250000D03*
X53950000Y-98710000D03*
X53950000Y-96170000D03*
X53950000Y-93630000D03*
D19*
X145950000Y-106320000D03*
D20*
X145950000Y-103780000D03*
X145950000Y-101240000D03*
X145950000Y-98700000D03*
X145950000Y-96160000D03*
X145950000Y-93620000D03*
D17*
X93620000Y-145950000D03*
D18*
X96160000Y-145950000D03*
X98700000Y-145950000D03*
X101240000Y-145950000D03*
X103780000Y-145950000D03*
X106320000Y-145950000D03*
D17*
X117580000Y-145970000D03*
D18*
X120120000Y-145970000D03*
X122660000Y-145970000D03*
X125200000Y-145970000D03*
X127740000Y-145970000D03*
X130280000Y-145970000D03*
X132820000Y-145970000D03*
D21*
X80525000Y-102175000D03*
X80525000Y-100675000D03*
D22*
X84940000Y-103420000D03*
X84940000Y-100020000D03*
D23*
X95450000Y-102750000D03*
X95450000Y-102250000D03*
X95450000Y-101750000D03*
X95450000Y-101250000D03*
X95450000Y-100750000D03*
X95450000Y-100250000D03*
X95450000Y-99750000D03*
X95450000Y-99250000D03*
X95450000Y-98750000D03*
X95450000Y-98250000D03*
X95450000Y-97750000D03*
X95450000Y-97250000D03*
D24*
X97050000Y-95650000D03*
X97550000Y-95650000D03*
X98050000Y-95650000D03*
X98550000Y-95650000D03*
X99050000Y-95650000D03*
X99550000Y-95650000D03*
X100050000Y-95650000D03*
X100550000Y-95650000D03*
X101050000Y-95650000D03*
X101550000Y-95650000D03*
X102050000Y-95650000D03*
X102550000Y-95650000D03*
D23*
X104150000Y-97250000D03*
X104150000Y-97750000D03*
X104150000Y-98250000D03*
X104150000Y-98750000D03*
X104150000Y-99250000D03*
X104150000Y-99750000D03*
X104150000Y-100250000D03*
X104150000Y-100750000D03*
X104150000Y-101250000D03*
X104150000Y-101750000D03*
X104150000Y-102250000D03*
X104150000Y-102750000D03*
D24*
X102550000Y-104350000D03*
X102050000Y-104350000D03*
X101550000Y-104350000D03*
X101050000Y-104350000D03*
X100550000Y-104350000D03*
X100050000Y-104350000D03*
X99550000Y-104350000D03*
X99050000Y-104350000D03*
X98550000Y-104350000D03*
X98050000Y-104350000D03*
X97550000Y-104350000D03*
X97050000Y-104350000D03*
D11*
X148082000Y-143764000D03*
X120142000Y-132334000D03*
X104648000Y-106680000D03*
X97536000Y-97282000D03*
X95500000Y-94500000D03*
X138176000Y-109220000D03*
X110300000Y-64100000D03*
X97550000Y-102362000D03*
X113050000Y-59450000D03*
X62450000Y-140650000D03*
X87450000Y-140750000D03*
X112500000Y-140700000D03*
X137500000Y-140700000D03*
X112500000Y-109350000D03*
X87450000Y-109300000D03*
X62450000Y-109400000D03*
X62500000Y-90850000D03*
X87500000Y-90750000D03*
X112500000Y-90800000D03*
X137500000Y-90600000D03*
X137500000Y-59450000D03*
X87500000Y-59350000D03*
X62500000Y-59250000D03*
D25*
X91186000Y-98806000D03*
X93040000Y-100960000D03*
X78700000Y-98750000D03*
D11*
X101600000Y-129794000D03*
X81430000Y-104860000D03*
X79400000Y-121700000D03*
X99340000Y-109396090D03*
X96920000Y-107970000D03*
X97028000Y-86360000D03*
X97028000Y-91440000D03*
X70104000Y-70612000D03*
X90678000Y-96870820D03*
X78740000Y-77216000D03*
X92248665Y-97489335D03*
X101160000Y-97250000D03*
X128016000Y-101854014D03*
X101503190Y-90932000D03*
X130578000Y-104162000D03*
X68834000Y-104140010D03*
X80264000Y-94488000D03*
X94234000Y-93726000D03*
X100076000Y-97536000D03*
X93472000Y-102870000D03*
X89408000Y-103886000D03*
X99060000Y-89662000D03*
X99156820Y-90659960D03*
X100076000Y-86106000D03*
X97790000Y-85344000D03*
X99314000Y-86868000D03*
X97790000Y-82804000D03*
X69850000Y-78994000D03*
X97445190Y-92710000D03*
X96266000Y-90170000D03*
X105409994Y-129433642D03*
X129636810Y-129286000D03*
X129636810Y-105410000D03*
X128524000Y-104394000D03*
X103124000Y-97282000D03*
X100584000Y-127254000D03*
X97028000Y-128016000D03*
X127000000Y-115570000D03*
X100076002Y-128270000D03*
X96774000Y-128778000D03*
X99240000Y-110782660D03*
X121315180Y-130460000D03*
X120060000Y-121830000D03*
X100522176Y-110137574D03*
X108840000Y-101757180D03*
D25*
X87460000Y-134270000D03*
X112480000Y-134270000D03*
X137460000Y-134230000D03*
X62450000Y-134270000D03*
X87450000Y-115740000D03*
X112540000Y-115740000D03*
X137500000Y-115750000D03*
X62440000Y-115740000D03*
X87510000Y-84260000D03*
X112470000Y-84260000D03*
X137500000Y-84250000D03*
X62490000Y-84260000D03*
X87510000Y-65710000D03*
X112510000Y-65710000D03*
X137480000Y-65710000D03*
X62550000Y-65710000D03*
D11*
X101704977Y-111279977D03*
X77360000Y-101250000D03*
X77360000Y-96630000D03*
X121275000Y-106450000D03*
X98352999Y-110000910D03*
X122180807Y-105663849D03*
X101630000Y-107780000D03*
X97700000Y-106710000D03*
X72979875Y-102710291D03*
X72980000Y-96810000D03*
X96882916Y-110753618D03*
X102280000Y-108820000D03*
X103385142Y-110455142D03*
X121230000Y-107470000D03*
X71660000Y-103328010D03*
X71700000Y-96840000D03*
X96025000Y-110650000D03*
X113745328Y-99521328D03*
X121412000Y-83566000D03*
X101346000Y-68580000D03*
X101346000Y-57912000D03*
X60290000Y-60900000D03*
X103378000Y-78486000D03*
X122428000Y-83820000D03*
X113284000Y-100584000D03*
X103124000Y-64516000D03*
X60290000Y-62500000D03*
X85300000Y-62500000D03*
X64690000Y-62500000D03*
X85300000Y-60900000D03*
X64690000Y-60900000D03*
X110300000Y-62500000D03*
X89700000Y-62500000D03*
X114690000Y-137500000D03*
X135290000Y-137500000D03*
X114690000Y-139100000D03*
X135290000Y-139100000D03*
X110300000Y-60900000D03*
X89700000Y-60900000D03*
X135290000Y-62500000D03*
X114700000Y-62500000D03*
X89650000Y-137500000D03*
X110290000Y-137500000D03*
X89650000Y-139100000D03*
X110290000Y-139100000D03*
X135290000Y-60900000D03*
X114700000Y-60900000D03*
X146700000Y-86550000D03*
X146550000Y-63550000D03*
X139690000Y-87500000D03*
X139690000Y-62500000D03*
X64650000Y-137500000D03*
X85250000Y-137500000D03*
X64650000Y-139100000D03*
X85250000Y-139100000D03*
X147426380Y-62580000D03*
X146860000Y-88720000D03*
X139690000Y-89100000D03*
X139690000Y-60900000D03*
X60250000Y-112510000D03*
X60300000Y-87500000D03*
X60250000Y-110910000D03*
X60300000Y-89100000D03*
X85250000Y-112500000D03*
X64650000Y-112510000D03*
X85250000Y-110900000D03*
X64650000Y-110910000D03*
X110300000Y-112500000D03*
X89650000Y-112500000D03*
X110300000Y-110900000D03*
X89650000Y-110900000D03*
X135300000Y-112500000D03*
X114700000Y-112500000D03*
X135300000Y-110900000D03*
X114700000Y-110900000D03*
X146840000Y-137480000D03*
X146170000Y-113780000D03*
X139690000Y-137500000D03*
X139700000Y-112500000D03*
X146890000Y-139110000D03*
X147180000Y-112500000D03*
X139690000Y-139100000D03*
X139700000Y-110900000D03*
X60250000Y-137500000D03*
X60250000Y-139100000D03*
X114700000Y-87500000D03*
X135290000Y-87500000D03*
X114700000Y-89100000D03*
X135290000Y-89100000D03*
X89700000Y-87500000D03*
X110300000Y-87500000D03*
X89700000Y-89100000D03*
X110300000Y-89100000D03*
X64700000Y-87500000D03*
X85300000Y-87500000D03*
X64700000Y-89100000D03*
X85300000Y-89100000D03*
X127480000Y-106450000D03*
D26*
X78927000Y-102175000D02*
X78800000Y-102175000D01*
X102108000Y-94488000D02*
X102108000Y-94234000D01*
X102108000Y-94234000D02*
X102108000Y-90455800D01*
X102050000Y-95650000D02*
X102050000Y-94796800D01*
X102050000Y-94796800D02*
X102108000Y-94738800D01*
X102108000Y-94738800D02*
X102108000Y-94234000D01*
X102108000Y-90455800D02*
X102381800Y-90182000D01*
X102381800Y-90182000D02*
X102960000Y-90182000D01*
X97550000Y-104350000D02*
X97550000Y-105396000D01*
X97550000Y-105396000D02*
X96012000Y-106934000D01*
X96012000Y-106934000D02*
X92029000Y-106934000D01*
X92029000Y-106934000D02*
X90935000Y-105840000D01*
X90935000Y-105840000D02*
X90910000Y-105840000D01*
X97550000Y-102362000D02*
X97550000Y-103496800D01*
X97550000Y-103496800D02*
X97550000Y-104350000D01*
X96303200Y-99250000D02*
X97550000Y-100496800D01*
X95450000Y-99250000D02*
X96303200Y-99250000D01*
X97550000Y-100496800D02*
X97550000Y-102362000D01*
D27*
X100685710Y-98750000D02*
X102550000Y-96885710D01*
X102550000Y-96604800D02*
X102550000Y-95650000D01*
X95450000Y-98750000D02*
X100685710Y-98750000D01*
X102550000Y-96885710D02*
X102550000Y-96604800D01*
X102979800Y-91701800D02*
X102960000Y-91682000D01*
X102979800Y-94695200D02*
X102979800Y-91701800D01*
X102550000Y-95125000D02*
X102979800Y-94695200D01*
X102550000Y-95650000D02*
X102550000Y-95125000D01*
X89662000Y-97282000D02*
X90586001Y-98206001D01*
X88900000Y-97282000D02*
X89662000Y-97282000D01*
X90337472Y-98806000D02*
X91186000Y-98806000D01*
X78731000Y-98806000D02*
X90337472Y-98806000D01*
X78675000Y-98750000D02*
X78731000Y-98806000D01*
X90586001Y-98206001D02*
X91186000Y-98806000D01*
X91242000Y-98750000D02*
X91186000Y-98806000D01*
X95450000Y-98750000D02*
X91242000Y-98750000D01*
X101819200Y-147850000D02*
X132820000Y-147850000D01*
X132820000Y-145970000D02*
X132820000Y-147290800D01*
X132820000Y-147290800D02*
X132820000Y-147850000D01*
X89380000Y-100710000D02*
X92790000Y-100710000D01*
X92790000Y-100710000D02*
X93040000Y-100960000D01*
X92410000Y-105840000D02*
X96085000Y-105840000D01*
X96085000Y-105840000D02*
X97050000Y-104875000D01*
X97050000Y-104875000D02*
X97050000Y-104350000D01*
X92990000Y-101010000D02*
X93040000Y-100960000D01*
X95450000Y-102750000D02*
X94495200Y-102750000D01*
X94495200Y-102750000D02*
X93040000Y-101294800D01*
X93040000Y-101294800D02*
X93040000Y-100960000D01*
X95450000Y-102750000D02*
X96460000Y-102750000D01*
X96460000Y-102750000D02*
X97050000Y-103340000D01*
X97050000Y-103340000D02*
X97050000Y-104350000D01*
X78800000Y-100675000D02*
X80525000Y-100675000D01*
X78800000Y-100675000D02*
X78800000Y-98850000D01*
X78800000Y-98850000D02*
X78700000Y-98750000D01*
X101240000Y-145950000D02*
X101240000Y-147270800D01*
X101240000Y-147270800D02*
X101819200Y-147850000D01*
D26*
X81430000Y-104860000D02*
X86148000Y-104860000D01*
X86614000Y-101600000D02*
X85034000Y-100020000D01*
X86148000Y-104860000D02*
X86614000Y-104394000D01*
X86614000Y-104394000D02*
X86614000Y-101600000D01*
X85034000Y-100020000D02*
X84940000Y-100020000D01*
X87494000Y-129794000D02*
X101175736Y-129794000D01*
X101175736Y-129794000D02*
X101600000Y-129794000D01*
X79400000Y-121700000D02*
X87494000Y-129794000D01*
X95450000Y-99750000D02*
X87500000Y-99750000D01*
X87500000Y-99750000D02*
X87070000Y-99750000D01*
X87520000Y-100720000D02*
X87520000Y-100116800D01*
X87520000Y-100116800D02*
X87500000Y-100096800D01*
X87500000Y-100096800D02*
X87500000Y-99750000D01*
X87070000Y-99750000D02*
X84900000Y-99750000D01*
X84900000Y-99750000D02*
X84630000Y-100020000D01*
X80525000Y-102175000D02*
X82124300Y-102175000D01*
X82124300Y-102175000D02*
X82175000Y-102124300D01*
X99050000Y-104350000D02*
X99050000Y-109106090D01*
X99050000Y-109106090D02*
X99340000Y-109396090D01*
X75920000Y-107970000D02*
X96495736Y-107970000D01*
X96495736Y-107970000D02*
X96920000Y-107970000D01*
X73950000Y-106000000D02*
X75920000Y-107970000D01*
X88392000Y-87122000D02*
X89154000Y-86360000D01*
X89154000Y-86360000D02*
X97028000Y-86360000D01*
X88392000Y-87912894D02*
X88392000Y-87122000D01*
X88392000Y-89863800D02*
X88392000Y-87912894D01*
X95450000Y-97250000D02*
X95450000Y-96921800D01*
X95450000Y-96921800D02*
X88392000Y-89863800D01*
X97028000Y-91440000D02*
X96520000Y-91948000D01*
X96520000Y-91948000D02*
X96520000Y-95120000D01*
X96520000Y-95120000D02*
X97050000Y-95650000D01*
X78740000Y-77216000D02*
X78740000Y-71120000D01*
X78232000Y-70612000D02*
X70104000Y-70612000D01*
X78740000Y-71120000D02*
X78232000Y-70612000D01*
X92057180Y-98250000D02*
X90977999Y-97170819D01*
X90977999Y-97170819D02*
X90678000Y-96870820D01*
X95450000Y-98250000D02*
X92057180Y-98250000D01*
X92248665Y-97489335D02*
X92409335Y-97489335D01*
X92409335Y-97489335D02*
X92670000Y-97750000D01*
X92670000Y-97750000D02*
X94596800Y-97750000D01*
X94596800Y-97750000D02*
X95450000Y-97750000D01*
X101160000Y-97250000D02*
X101050000Y-97140000D01*
X101050000Y-97140000D02*
X101050000Y-95650000D01*
X128270014Y-101854014D02*
X128016000Y-101854014D01*
X130578000Y-104162000D02*
X128270014Y-101854014D01*
X101550000Y-95650000D02*
X101550000Y-90978810D01*
X101550000Y-90978810D02*
X101503190Y-90932000D01*
X101503190Y-95603190D02*
X101550000Y-95650000D01*
X68834000Y-103715746D02*
X68834000Y-104140010D01*
X68834000Y-96012000D02*
X68834000Y-103715746D01*
X80264000Y-94488000D02*
X70358000Y-94488000D01*
X70358000Y-94488000D02*
X68834000Y-96012000D01*
X94234000Y-90678000D02*
X94234000Y-93726000D01*
X95854801Y-89057199D02*
X94234000Y-90678000D01*
X99550000Y-95650000D02*
X99550000Y-91161886D01*
X99761621Y-90950265D02*
X99761621Y-89468515D01*
X99550000Y-91161886D02*
X99761621Y-90950265D01*
X99761621Y-89468515D02*
X99350305Y-89057199D01*
X99350305Y-89057199D02*
X95854801Y-89057199D01*
X100050000Y-95650000D02*
X100050000Y-97510000D01*
X100050000Y-97510000D02*
X100076000Y-97536000D01*
X89408000Y-103886000D02*
X92456000Y-103886000D01*
X92456000Y-103886000D02*
X93472000Y-102870000D01*
X98550000Y-95650000D02*
X98550000Y-90680000D01*
X98760001Y-89961999D02*
X99060000Y-89662000D01*
X98550000Y-90680000D02*
X98552000Y-90678000D01*
X98552000Y-90678000D02*
X98552000Y-90170000D01*
X98552000Y-90170000D02*
X98760001Y-89961999D01*
X99050000Y-90766780D02*
X99156820Y-90659960D01*
X99050000Y-95650000D02*
X99050000Y-90766780D01*
X99314000Y-86868000D02*
X97790000Y-85344000D01*
X93980000Y-78994000D02*
X97790000Y-82804000D01*
X69850000Y-78994000D02*
X93980000Y-78994000D01*
X97550000Y-95650000D02*
X97550000Y-92814810D01*
X97550000Y-92814810D02*
X97445190Y-92710000D01*
X98050000Y-95650000D02*
X98050000Y-91529736D01*
X98050000Y-91529736D02*
X97945190Y-91424926D01*
X96266000Y-90170000D02*
X96690264Y-90170000D01*
X96690264Y-90170000D02*
X97945190Y-91424926D01*
X105709993Y-129733641D02*
X105409994Y-129433642D01*
X107041153Y-131064801D02*
X105709993Y-129733641D01*
X127858009Y-131064801D02*
X107041153Y-131064801D01*
X129636810Y-129286000D02*
X127858009Y-131064801D01*
X104150000Y-98250000D02*
X123275106Y-98250000D01*
X123275106Y-98250000D02*
X129636810Y-104611704D01*
X129636810Y-104611704D02*
X129636810Y-105410000D01*
X128524000Y-104394000D02*
X122880000Y-98750000D01*
X122880000Y-98750000D02*
X104150000Y-98750000D01*
X104150000Y-97250000D02*
X103156000Y-97250000D01*
X103156000Y-97250000D02*
X103124000Y-97282000D01*
X97028000Y-128016000D02*
X97790000Y-127254000D01*
X97790000Y-127254000D02*
X100584000Y-127254000D01*
X104150000Y-97750000D02*
X125436000Y-97750000D01*
X127254000Y-115316000D02*
X127000000Y-115570000D01*
X125436000Y-97750000D02*
X136895199Y-109209199D01*
X136895199Y-109209199D02*
X136895199Y-113781199D01*
X136895199Y-113781199D02*
X135360398Y-115316000D01*
X135360398Y-115316000D02*
X127254000Y-115316000D01*
X99776003Y-128569999D02*
X100076002Y-128270000D01*
X99568002Y-128778000D02*
X99776003Y-128569999D01*
X96774000Y-128778000D02*
X99568002Y-128778000D01*
X101126978Y-108736835D02*
X101126978Y-110427880D01*
X99664264Y-110782660D02*
X99240000Y-110782660D01*
X100050000Y-107659857D02*
X101126978Y-108736835D01*
X100772198Y-110782660D02*
X99664264Y-110782660D01*
X100050000Y-104350000D02*
X100050000Y-107659857D01*
X101126978Y-110427880D02*
X100772198Y-110782660D01*
X121315180Y-130035736D02*
X121315180Y-130460000D01*
X121315180Y-123085180D02*
X121315180Y-130035736D01*
X120060000Y-121830000D02*
X121315180Y-123085180D01*
X99550000Y-108741134D02*
X100522176Y-109713310D01*
X100522176Y-109713310D02*
X100522176Y-110137574D01*
X99550000Y-104350000D02*
X99550000Y-108741134D01*
X108832820Y-101750000D02*
X108840000Y-101757180D01*
X104150000Y-101750000D02*
X108832820Y-101750000D01*
D28*
X113069999Y-84859999D02*
X136890001Y-84859999D01*
X112470000Y-84260000D02*
X113069999Y-84859999D01*
X136890001Y-84859999D02*
X136900001Y-84849999D01*
X136900001Y-84849999D02*
X137500000Y-84250000D01*
X112540000Y-115740000D02*
X113139999Y-116339999D01*
X113139999Y-116339999D02*
X136061473Y-116339999D01*
X136061473Y-116339999D02*
X136651472Y-115750000D01*
X136651472Y-115750000D02*
X137500000Y-115750000D01*
X103780000Y-145950000D02*
X103780000Y-145280000D01*
X103780000Y-145280000D02*
X106810000Y-142250000D01*
X106810000Y-142250000D02*
X108950000Y-142250000D01*
X108950000Y-142250000D02*
X112480000Y-138720000D01*
X112480000Y-138720000D02*
X112480000Y-135118528D01*
X112480000Y-135118528D02*
X112480000Y-134270000D01*
X62550000Y-65710000D02*
X87510000Y-65710000D01*
X103790000Y-52040000D02*
X103790000Y-52192400D01*
X103790000Y-52192400D02*
X112510000Y-60912400D01*
X112510000Y-64861472D02*
X112510000Y-65710000D01*
X112510000Y-60912400D02*
X112510000Y-64861472D01*
X51850000Y-95700000D02*
X51850000Y-96600000D01*
X51850000Y-96600000D02*
X51850000Y-114900000D01*
X53950000Y-96170000D02*
X52426000Y-96170000D01*
X52426000Y-96170000D02*
X51996000Y-96600000D01*
X51996000Y-96600000D02*
X51850000Y-96600000D01*
X51850000Y-85000000D02*
X51850000Y-95700000D01*
X52426000Y-96170000D02*
X51956000Y-95700000D01*
X51956000Y-95700000D02*
X51850000Y-95700000D01*
X148150000Y-115500000D02*
X148150000Y-96650000D01*
X148150000Y-96650000D02*
X148150000Y-96100000D01*
X147650000Y-96100000D02*
X147650000Y-96150000D01*
X147650000Y-96150000D02*
X148150000Y-96650000D01*
X147650000Y-96160000D02*
X148090000Y-96160000D01*
X147650000Y-96100000D02*
X148150000Y-95600000D01*
X145950000Y-96160000D02*
X147650000Y-96160000D01*
X148150000Y-96100000D02*
X148150000Y-95600000D01*
X148150000Y-95600000D02*
X148150000Y-85100000D01*
X147650000Y-96160000D02*
X147650000Y-96100000D01*
X148090000Y-96160000D02*
X148150000Y-96100000D01*
X147000000Y-115750000D02*
X147300000Y-115750000D01*
X148150000Y-115750000D02*
X148150000Y-115500000D01*
X137500000Y-115750000D02*
X147000000Y-115750000D01*
X148150000Y-124388528D02*
X148150000Y-115750000D01*
X147000000Y-115750000D02*
X148150000Y-115750000D01*
X147300000Y-115750000D02*
X148100000Y-114950000D01*
X148100000Y-114950000D02*
X148150000Y-114950000D01*
X147000000Y-84250000D02*
X147300000Y-84250000D01*
X137500000Y-84250000D02*
X147000000Y-84250000D01*
X148150000Y-85100000D02*
X148150000Y-84350000D01*
X148150000Y-84350000D02*
X148150000Y-76350000D01*
X147000000Y-84250000D02*
X148050000Y-84250000D01*
X148050000Y-84250000D02*
X148150000Y-84350000D01*
X147300000Y-84250000D02*
X148150000Y-85100000D01*
X51850000Y-76400000D02*
X51850000Y-84300000D01*
X51850000Y-84300000D02*
X51850000Y-85000000D01*
X52590000Y-84260000D02*
X51890000Y-84260000D01*
X51890000Y-84260000D02*
X51850000Y-84300000D01*
X62490000Y-84260000D02*
X52590000Y-84260000D01*
X52590000Y-84260000D02*
X51850000Y-85000000D01*
X62550000Y-65750000D02*
X62550000Y-65700000D01*
X62550000Y-65700000D02*
X51850000Y-76400000D01*
X51850000Y-114900000D02*
X51850000Y-115800000D01*
X51850000Y-115800000D02*
X51850000Y-123670000D01*
X52690000Y-115740000D02*
X51910000Y-115740000D01*
X51910000Y-115740000D02*
X51850000Y-115800000D01*
X62440000Y-115740000D02*
X52690000Y-115740000D01*
X52690000Y-115740000D02*
X51850000Y-114900000D01*
X51850000Y-123670000D02*
X62450000Y-134270000D01*
X137460000Y-134230000D02*
X138308528Y-134230000D01*
X138308528Y-134230000D02*
X148150000Y-124388528D01*
X148150000Y-76350000D02*
X137500000Y-65700000D01*
X137500000Y-65700000D02*
X137490000Y-65700000D01*
X137490000Y-65700000D02*
X137480000Y-65710000D01*
X112510000Y-65710000D02*
X137480000Y-65710000D01*
X112480000Y-134270000D02*
X137420000Y-134270000D01*
X62450000Y-134270000D02*
X87460000Y-134270000D01*
X87460000Y-134270000D02*
X112480000Y-134270000D01*
X137420000Y-134270000D02*
X137460000Y-134230000D01*
X62440000Y-115740000D02*
X87450000Y-115740000D01*
X87450000Y-115740000D02*
X112540000Y-115740000D01*
X62490000Y-84260000D02*
X87510000Y-84260000D01*
X87510000Y-84260000D02*
X112470000Y-84260000D01*
X87510000Y-65710000D02*
X112510000Y-65710000D01*
D26*
X121275000Y-106450000D02*
X106534954Y-106450000D01*
X102004976Y-110979978D02*
X101704977Y-111279977D01*
X98352999Y-107272107D02*
X98352999Y-109576646D01*
X106534954Y-106450000D02*
X102004976Y-110979978D01*
X98352999Y-109576646D02*
X98352999Y-110000910D01*
X98550000Y-104350000D02*
X98550000Y-107075106D01*
X98550000Y-107075106D02*
X98352999Y-107272107D01*
X77360000Y-96630000D02*
X77360000Y-101250000D01*
X98710000Y-52040000D02*
X98710000Y-52192400D01*
X121756543Y-105663849D02*
X122180807Y-105663849D01*
X103746151Y-105663849D02*
X121756543Y-105663849D01*
X101630000Y-107780000D02*
X103746151Y-105663849D01*
X96882916Y-110753618D02*
X96882916Y-109442192D01*
X96882916Y-109442192D02*
X97700000Y-108625108D01*
X97700000Y-108625108D02*
X97700000Y-107134264D01*
X97700000Y-107134264D02*
X97700000Y-106710000D01*
X97999999Y-106410001D02*
X97700000Y-106710000D01*
X98050000Y-106360000D02*
X97999999Y-106410001D01*
X98050000Y-104350000D02*
X98050000Y-106360000D01*
X72980000Y-96810000D02*
X72980000Y-102710166D01*
X72980000Y-102710166D02*
X72979875Y-102710291D01*
X102280000Y-108820000D02*
X101980001Y-108520001D01*
X101980001Y-108520001D02*
X101581883Y-108520001D01*
X101581883Y-108520001D02*
X101533389Y-108568495D01*
X121230000Y-107470000D02*
X106370284Y-107470000D01*
X106370284Y-107470000D02*
X103385142Y-110455142D01*
X96025000Y-111074264D02*
X96025000Y-110650000D01*
X100550000Y-104350000D02*
X100550000Y-107585106D01*
X100742129Y-111387480D02*
X96338216Y-111387480D01*
X96338216Y-111387480D02*
X96025000Y-111074264D01*
X101533389Y-108568495D02*
X101533389Y-110596220D01*
X101533389Y-110596220D02*
X100742129Y-111387480D01*
X100550000Y-107585106D02*
X101533389Y-108568495D01*
X71700000Y-96840000D02*
X71700000Y-103288010D01*
X71700000Y-103288010D02*
X71660000Y-103328010D01*
X113474000Y-99250000D02*
X113745328Y-99521328D01*
X104150000Y-99250000D02*
X113474000Y-99250000D01*
X102204802Y-79344802D02*
X101346000Y-78486000D01*
X121412000Y-83566000D02*
X117190802Y-79344802D01*
X117190802Y-79344802D02*
X102204802Y-79344802D01*
X101346000Y-69004264D02*
X101346000Y-68580000D01*
X101346000Y-78486000D02*
X101346000Y-69004264D01*
X100076000Y-56642000D02*
X101346000Y-57912000D01*
X63644800Y-56642000D02*
X100076000Y-56642000D01*
X60290000Y-60900000D02*
X60290000Y-59996800D01*
X60290000Y-59996800D02*
X63644800Y-56642000D01*
X122428000Y-83820000D02*
X122428000Y-83395736D01*
X122428000Y-83395736D02*
X117772264Y-78740000D01*
X117772264Y-78740000D02*
X104056264Y-78740000D01*
X104056264Y-78740000D02*
X103802264Y-78486000D01*
X103802264Y-78486000D02*
X103378000Y-78486000D01*
X112984001Y-100284001D02*
X113284000Y-100584000D01*
X112450000Y-99750000D02*
X112984001Y-100284001D01*
X104150000Y-99750000D02*
X112450000Y-99750000D01*
X60290000Y-62500000D02*
X61193200Y-62500000D01*
X63209200Y-64516000D02*
X65810894Y-64516000D01*
X61193200Y-62500000D02*
X63209200Y-64516000D01*
X65810894Y-64516000D02*
X103124000Y-64516000D01*
X85300000Y-62500000D02*
X84150000Y-61350000D01*
X66733200Y-61360000D02*
X65593200Y-62500000D01*
X84150000Y-61350000D02*
X78780000Y-61350000D01*
X78780000Y-61350000D02*
X76480000Y-59050000D01*
X76480000Y-59050000D02*
X73390000Y-59050000D01*
X73390000Y-59050000D02*
X71080000Y-61360000D01*
X71080000Y-61360000D02*
X66733200Y-61360000D01*
X65593200Y-62500000D02*
X64690000Y-62500000D01*
X78904750Y-60900000D02*
X84396800Y-60900000D01*
X73221660Y-58643589D02*
X76648340Y-58643589D01*
X64690000Y-60900000D02*
X70965249Y-60900000D01*
X84396800Y-60900000D02*
X85300000Y-60900000D01*
X76648340Y-58643589D02*
X78904750Y-60900000D01*
X70965249Y-60900000D02*
X73221660Y-58643589D01*
X89700000Y-62500000D02*
X89750000Y-62500000D01*
X89750000Y-62500000D02*
X90920000Y-61330000D01*
X90920000Y-61330000D02*
X109080000Y-61330000D01*
X109080000Y-61330000D02*
X110250000Y-62500000D01*
X110250000Y-62500000D02*
X110300000Y-62500000D01*
X135290000Y-137500000D02*
X134140000Y-138650000D01*
X126795250Y-141120000D02*
X123114750Y-141120000D01*
X134140000Y-138650000D02*
X129265250Y-138650000D01*
X116753200Y-138660000D02*
X115593200Y-137500000D01*
X129265250Y-138650000D02*
X126795250Y-141120000D01*
X123114750Y-141120000D02*
X120654750Y-138660000D01*
X120654750Y-138660000D02*
X116753200Y-138660000D01*
X115593200Y-137500000D02*
X114690000Y-137500000D01*
X134386800Y-139100000D02*
X135290000Y-139100000D01*
X126963590Y-141526411D02*
X129390001Y-139100000D01*
X122946410Y-141526411D02*
X126963590Y-141526411D01*
X120519999Y-139100000D02*
X122946410Y-141526411D01*
X114690000Y-139100000D02*
X120519999Y-139100000D01*
X129390001Y-139100000D02*
X134386800Y-139100000D01*
X109396800Y-60900000D02*
X110300000Y-60900000D01*
X89700000Y-60900000D02*
X109396800Y-60900000D01*
X135290000Y-62500000D02*
X134120000Y-61330000D01*
X134120000Y-61330000D02*
X128600000Y-61330000D01*
X128600000Y-61330000D02*
X126360000Y-59090000D01*
X123544750Y-59090000D02*
X121304750Y-61330000D01*
X126360000Y-59090000D02*
X123544750Y-59090000D01*
X121304750Y-61330000D02*
X116773200Y-61330000D01*
X116773200Y-61330000D02*
X115603200Y-62500000D01*
X115603200Y-62500000D02*
X114700000Y-62500000D01*
X110290000Y-137500000D02*
X109386800Y-137500000D01*
X109386800Y-137500000D02*
X108196800Y-138690000D01*
X108196800Y-138690000D02*
X90840000Y-138690000D01*
X90840000Y-138690000D02*
X89650000Y-137500000D01*
X89650000Y-139100000D02*
X90553200Y-139100000D01*
X90553200Y-139100000D02*
X110290000Y-139100000D01*
X128744751Y-60900000D02*
X134386800Y-60900000D01*
X126528340Y-58683589D02*
X128744751Y-60900000D01*
X114700000Y-60900000D02*
X121159999Y-60900000D01*
X134386800Y-60900000D02*
X135290000Y-60900000D01*
X123376410Y-58683589D02*
X126528340Y-58683589D01*
X121159999Y-60900000D02*
X123376410Y-58683589D01*
X139690000Y-87500000D02*
X140860000Y-88670000D01*
X140860000Y-88670000D02*
X145740000Y-88670000D01*
X145740000Y-88670000D02*
X146700000Y-87710000D01*
X146700000Y-87710000D02*
X146700000Y-86550000D01*
X139690000Y-62500000D02*
X140850000Y-61340000D01*
X140850000Y-61340000D02*
X145770000Y-61340000D01*
X145770000Y-61340000D02*
X146540000Y-62110000D01*
X146540000Y-62110000D02*
X146540000Y-63540000D01*
X146540000Y-63540000D02*
X146550000Y-63550000D01*
X85250000Y-137500000D02*
X84080000Y-138670000D01*
X65553200Y-137500000D02*
X64650000Y-137500000D01*
X84080000Y-138670000D02*
X79335250Y-138670000D01*
X79335250Y-138670000D02*
X76811661Y-141193589D01*
X76811661Y-141193589D02*
X72998339Y-141193589D01*
X72998339Y-141193589D02*
X70474750Y-138670000D01*
X70474750Y-138670000D02*
X66723200Y-138670000D01*
X66723200Y-138670000D02*
X65553200Y-137500000D01*
X72830000Y-141600000D02*
X76980000Y-141600000D01*
X64650000Y-139100000D02*
X70330000Y-139100000D01*
X70330000Y-139100000D02*
X72830000Y-141600000D01*
X76980000Y-141600000D02*
X79480000Y-139100000D01*
X79480000Y-139100000D02*
X85250000Y-139100000D01*
X147426380Y-62155736D02*
X147426380Y-62580000D01*
X146170644Y-60900000D02*
X147426380Y-62155736D01*
X139690000Y-60900000D02*
X146170644Y-60900000D01*
X146560001Y-89019999D02*
X146860000Y-88720000D01*
X146480000Y-89100000D02*
X146560001Y-89019999D01*
X139690000Y-89100000D02*
X146480000Y-89100000D01*
X60300000Y-87500000D02*
X60250000Y-87500000D01*
X59346800Y-111656800D02*
X60200000Y-112510000D01*
X60250000Y-87500000D02*
X59346800Y-88403200D01*
X59346800Y-88403200D02*
X59346800Y-111656800D01*
X60200000Y-112510000D02*
X60250000Y-112510000D01*
X60300000Y-89100000D02*
X60300000Y-110860000D01*
X60300000Y-110860000D02*
X60250000Y-110910000D01*
X64650000Y-112510000D02*
X65830000Y-111330000D01*
X65830000Y-111330000D02*
X70910000Y-111330000D01*
X70910000Y-111330000D02*
X73300000Y-108940000D01*
X73300000Y-108940000D02*
X76420000Y-108940000D01*
X76420000Y-108940000D02*
X78810000Y-111330000D01*
X84346800Y-112500000D02*
X85250000Y-112500000D01*
X78810000Y-111330000D02*
X83176800Y-111330000D01*
X83176800Y-111330000D02*
X84346800Y-112500000D01*
X65553200Y-110910000D02*
X64650000Y-110910000D01*
X70755249Y-110910000D02*
X65553200Y-110910000D01*
X73131660Y-108533589D02*
X70755249Y-110910000D01*
X76588340Y-108533589D02*
X73131660Y-108533589D01*
X78954750Y-110900000D02*
X76588340Y-108533589D01*
X85250000Y-110900000D02*
X78954750Y-110900000D01*
X89650000Y-112500000D02*
X110300000Y-112500000D01*
X109110000Y-112090000D02*
X110300000Y-110900000D01*
X90840000Y-112090000D02*
X109110000Y-112090000D01*
X89650000Y-110900000D02*
X90840000Y-112090000D01*
X114700000Y-112500000D02*
X115860000Y-111340000D01*
X115860000Y-111340000D02*
X120754750Y-111340000D01*
X120754750Y-111340000D02*
X123194750Y-108900000D01*
X123194750Y-108900000D02*
X126765250Y-108900000D01*
X126765250Y-108900000D02*
X129185250Y-111320000D01*
X129185250Y-111320000D02*
X133216800Y-111320000D01*
X133216800Y-111320000D02*
X134396800Y-112500000D01*
X134396800Y-112500000D02*
X135300000Y-112500000D01*
X129340000Y-110900000D02*
X126933589Y-108493589D01*
X123026411Y-108493589D02*
X120620000Y-110900000D01*
X135300000Y-110900000D02*
X129340000Y-110900000D01*
X126933589Y-108493589D02*
X123026411Y-108493589D01*
X120620000Y-110900000D02*
X114700000Y-110900000D01*
X139700000Y-112500000D02*
X140890000Y-111310000D01*
X140890000Y-111310000D02*
X145370000Y-111310000D01*
X145370000Y-111310000D02*
X146170000Y-112110000D01*
X146170000Y-112110000D02*
X146170000Y-113780000D01*
X146840000Y-137480000D02*
X145660000Y-138660000D01*
X145660000Y-138660000D02*
X140850000Y-138660000D01*
X140850000Y-138660000D02*
X139690000Y-137500000D01*
X146890000Y-139110000D02*
X139700000Y-139110000D01*
X139700000Y-139110000D02*
X139690000Y-139100000D01*
X139700000Y-110900000D02*
X145580000Y-110900000D01*
X145580000Y-110900000D02*
X147180000Y-112500000D01*
X135290000Y-87500000D02*
X134100000Y-88690000D01*
X121104750Y-88690000D02*
X116793200Y-88690000D01*
X134100000Y-88690000D02*
X129085250Y-88690000D01*
X126805250Y-90970000D02*
X123384750Y-90970000D01*
X129085250Y-88690000D02*
X126805250Y-90970000D01*
X123384750Y-90970000D02*
X121104750Y-88690000D01*
X116793200Y-88690000D02*
X115603200Y-87500000D01*
X115603200Y-87500000D02*
X114700000Y-87500000D01*
X120940000Y-89100000D02*
X123216411Y-91376411D01*
X114700000Y-89100000D02*
X120940000Y-89100000D01*
X123216411Y-91376411D02*
X126973589Y-91376411D01*
X126973589Y-91376411D02*
X129250000Y-89100000D01*
X129250000Y-89100000D02*
X135290000Y-89100000D01*
X110300000Y-87500000D02*
X89750000Y-87500000D01*
X89750000Y-87500000D02*
X89700000Y-87500000D01*
X110300000Y-89100000D02*
X109396800Y-89100000D01*
X109396800Y-89100000D02*
X108206800Y-87910000D01*
X108206800Y-87910000D02*
X90890000Y-87910000D01*
X90890000Y-87910000D02*
X89700000Y-89100000D01*
X85300000Y-87500000D02*
X84150000Y-88650000D01*
X73464750Y-90920000D02*
X71214750Y-88670000D01*
X84150000Y-88650000D02*
X78690000Y-88650000D01*
X78690000Y-88650000D02*
X76420000Y-90920000D01*
X76420000Y-90920000D02*
X73464750Y-90920000D01*
X71214750Y-88670000D02*
X66773200Y-88670000D01*
X66773200Y-88670000D02*
X65603200Y-87500000D01*
X65603200Y-87500000D02*
X64700000Y-87500000D01*
X65603200Y-89100000D02*
X64700000Y-89100000D01*
X73296410Y-91326411D02*
X71070000Y-89100000D01*
X76588340Y-91326411D02*
X73296410Y-91326411D01*
X71070000Y-89100000D02*
X65603200Y-89100000D01*
X85300000Y-89100000D02*
X78814750Y-89100000D01*
X78814750Y-89100000D02*
X76588340Y-91326411D01*
X127180001Y-106150001D02*
X127480000Y-106450000D01*
X125380000Y-104350000D02*
X127180001Y-106150001D01*
X102550000Y-104350000D02*
X125380000Y-104350000D01*
D29*
G36*
X92169969Y-50772110D02*
X92118960Y-51024000D01*
X92118960Y-53056000D01*
X92163238Y-53291317D01*
X92302310Y-53507441D01*
X92514510Y-53652431D01*
X92766400Y-53703440D01*
X94493600Y-53703440D01*
X94728917Y-53659162D01*
X94945041Y-53520090D01*
X95090031Y-53307890D01*
X95098400Y-53266561D01*
X95110330Y-53284415D01*
X95596511Y-53609271D01*
X96170000Y-53723345D01*
X96743489Y-53609271D01*
X97229670Y-53284415D01*
X97440000Y-52969634D01*
X97650330Y-53284415D01*
X98136511Y-53609271D01*
X98710000Y-53723345D01*
X99283489Y-53609271D01*
X99769670Y-53284415D01*
X99980000Y-52969634D01*
X100190330Y-53284415D01*
X100676511Y-53609271D01*
X101250000Y-53723345D01*
X101823489Y-53609271D01*
X102309670Y-53284415D01*
X102520000Y-52969634D01*
X102730330Y-53284415D01*
X103216511Y-53609271D01*
X103790000Y-53723345D01*
X104018298Y-53677934D01*
X110305368Y-59965004D01*
X110114833Y-59964838D01*
X109771057Y-60106883D01*
X109714441Y-60163400D01*
X90285822Y-60163400D01*
X90230327Y-60107808D01*
X89886799Y-59965162D01*
X89514833Y-59964838D01*
X89171057Y-60106883D01*
X88907808Y-60369673D01*
X88765162Y-60713201D01*
X88764838Y-61085167D01*
X88906883Y-61428943D01*
X89169673Y-61692192D01*
X89188097Y-61699842D01*
X89171057Y-61706883D01*
X88907808Y-61969673D01*
X88765162Y-62313201D01*
X88764838Y-62685167D01*
X88906883Y-63028943D01*
X89169673Y-63292192D01*
X89513201Y-63434838D01*
X89885167Y-63435162D01*
X90228943Y-63293117D01*
X90492192Y-63030327D01*
X90634838Y-62686799D01*
X90634864Y-62656846D01*
X91225110Y-62066600D01*
X108774890Y-62066600D01*
X109364863Y-62656573D01*
X109364838Y-62685167D01*
X109506883Y-63028943D01*
X109769673Y-63292192D01*
X110113201Y-63434838D01*
X110485167Y-63435162D01*
X110828943Y-63293117D01*
X111092192Y-63030327D01*
X111234838Y-62686799D01*
X111235162Y-62314833D01*
X111093117Y-61971057D01*
X110830327Y-61707808D01*
X110811903Y-61700158D01*
X110828943Y-61693117D01*
X111092192Y-61430327D01*
X111234838Y-61086799D01*
X111235005Y-60894641D01*
X111621000Y-61280636D01*
X111621000Y-64821000D01*
X104009756Y-64821000D01*
X104058838Y-64702799D01*
X104059162Y-64330833D01*
X103917117Y-63987057D01*
X103654327Y-63723808D01*
X103310799Y-63581162D01*
X102938833Y-63580838D01*
X102595057Y-63722883D01*
X102538441Y-63779400D01*
X76740348Y-63779400D01*
X76808909Y-63710959D01*
X77134628Y-62926541D01*
X77135370Y-62077185D01*
X76811020Y-61292200D01*
X76210959Y-60691091D01*
X75426541Y-60365372D01*
X74577185Y-60364630D01*
X73792200Y-60688980D01*
X73191091Y-61289041D01*
X72865372Y-62073459D01*
X72864630Y-62922815D01*
X73188980Y-63707800D01*
X73260455Y-63779400D01*
X63514310Y-63779400D01*
X61714055Y-61979145D01*
X61475085Y-61819470D01*
X61193200Y-61763400D01*
X60875822Y-61763400D01*
X60820327Y-61707808D01*
X60801903Y-61700158D01*
X60818943Y-61693117D01*
X61082192Y-61430327D01*
X61224838Y-61086799D01*
X61224839Y-61085167D01*
X63754838Y-61085167D01*
X63896883Y-61428943D01*
X64159673Y-61692192D01*
X64178097Y-61699842D01*
X64161057Y-61706883D01*
X63897808Y-61969673D01*
X63755162Y-62313201D01*
X63754838Y-62685167D01*
X63896883Y-63028943D01*
X64159673Y-63292192D01*
X64503201Y-63434838D01*
X64875167Y-63435162D01*
X65218943Y-63293117D01*
X65275559Y-63236600D01*
X65593200Y-63236600D01*
X65875085Y-63180530D01*
X66114055Y-63020855D01*
X67038310Y-62096600D01*
X71080000Y-62096600D01*
X71361885Y-62040530D01*
X71600855Y-61880855D01*
X73695110Y-59786600D01*
X76174890Y-59786600D01*
X78259145Y-61870855D01*
X78498115Y-62030530D01*
X78780000Y-62086600D01*
X83844890Y-62086600D01*
X84364906Y-62606616D01*
X84364838Y-62685167D01*
X84506883Y-63028943D01*
X84769673Y-63292192D01*
X85113201Y-63434838D01*
X85485167Y-63435162D01*
X85828943Y-63293117D01*
X86092192Y-63030327D01*
X86234838Y-62686799D01*
X86235162Y-62314833D01*
X86093117Y-61971057D01*
X85830327Y-61707808D01*
X85811903Y-61700158D01*
X85828943Y-61693117D01*
X86092192Y-61430327D01*
X86234838Y-61086799D01*
X86235162Y-60714833D01*
X86093117Y-60371057D01*
X85830327Y-60107808D01*
X85486799Y-59965162D01*
X85114833Y-59964838D01*
X84771057Y-60106883D01*
X84714441Y-60163400D01*
X79209860Y-60163400D01*
X77169195Y-58122734D01*
X76930225Y-57963059D01*
X76648340Y-57906989D01*
X73221660Y-57906989D01*
X72939775Y-57963059D01*
X72700805Y-58122734D01*
X70660139Y-60163400D01*
X65275822Y-60163400D01*
X65220327Y-60107808D01*
X64876799Y-59965162D01*
X64504833Y-59964838D01*
X64161057Y-60106883D01*
X63897808Y-60369673D01*
X63755162Y-60713201D01*
X63754838Y-61085167D01*
X61224839Y-61085167D01*
X61225162Y-60714833D01*
X61083117Y-60371057D01*
X61026600Y-60314441D01*
X61026600Y-60301910D01*
X63949910Y-57378600D01*
X99770890Y-57378600D01*
X100410906Y-58018616D01*
X100410838Y-58097167D01*
X100552883Y-58440943D01*
X100815673Y-58704192D01*
X101159201Y-58846838D01*
X101531167Y-58847162D01*
X101874943Y-58705117D01*
X102138192Y-58442327D01*
X102280838Y-58098799D01*
X102281162Y-57726833D01*
X102139117Y-57383057D01*
X101876327Y-57119808D01*
X101532799Y-56977162D01*
X101452802Y-56977092D01*
X100596855Y-56121145D01*
X100357885Y-55961470D01*
X100076000Y-55905400D01*
X63644800Y-55905400D01*
X63362915Y-55961470D01*
X63123945Y-56121145D01*
X59769145Y-59475945D01*
X59609470Y-59714915D01*
X59553400Y-59996800D01*
X59553400Y-60314178D01*
X59497808Y-60369673D01*
X59355162Y-60713201D01*
X59354838Y-61085167D01*
X59496883Y-61428943D01*
X59759673Y-61692192D01*
X59778097Y-61699842D01*
X59761057Y-61706883D01*
X59497808Y-61969673D01*
X59355162Y-62313201D01*
X59354838Y-62685167D01*
X59496883Y-63028943D01*
X59759673Y-63292192D01*
X60103201Y-63434838D01*
X60475167Y-63435162D01*
X60818943Y-63293117D01*
X60875559Y-63236600D01*
X60888090Y-63236600D01*
X62178655Y-64527165D01*
X61851343Y-64662408D01*
X61503629Y-65009515D01*
X61315215Y-65463266D01*
X61315028Y-65677736D01*
X51221382Y-75771382D01*
X51028671Y-76059794D01*
X50961000Y-76400000D01*
X50961000Y-123670000D01*
X51028671Y-124010206D01*
X51221382Y-124298618D01*
X61214980Y-134292216D01*
X61214786Y-134514579D01*
X61402408Y-134968657D01*
X61749515Y-135316371D01*
X62203266Y-135504785D01*
X62694579Y-135505214D01*
X63148657Y-135317592D01*
X63307526Y-135159000D01*
X86602419Y-135159000D01*
X86759515Y-135316371D01*
X87213266Y-135504785D01*
X87704579Y-135505214D01*
X88158657Y-135317592D01*
X88317526Y-135159000D01*
X111591000Y-135159000D01*
X111591000Y-138351764D01*
X111167495Y-138775269D01*
X111083117Y-138571057D01*
X110820327Y-138307808D01*
X110801903Y-138300158D01*
X110818943Y-138293117D01*
X111082192Y-138030327D01*
X111224838Y-137686799D01*
X111225162Y-137314833D01*
X111083117Y-136971057D01*
X110820327Y-136707808D01*
X110476799Y-136565162D01*
X110104833Y-136564838D01*
X109761057Y-136706883D01*
X109704441Y-136763400D01*
X109386800Y-136763400D01*
X109104915Y-136819470D01*
X108865945Y-136979145D01*
X107891690Y-137953400D01*
X91145110Y-137953400D01*
X90585094Y-137393384D01*
X90585162Y-137314833D01*
X90443117Y-136971057D01*
X90180327Y-136707808D01*
X89836799Y-136565162D01*
X89464833Y-136564838D01*
X89121057Y-136706883D01*
X88857808Y-136969673D01*
X88715162Y-137313201D01*
X88714838Y-137685167D01*
X88856883Y-138028943D01*
X89119673Y-138292192D01*
X89138097Y-138299842D01*
X89121057Y-138306883D01*
X88857808Y-138569673D01*
X88715162Y-138913201D01*
X88714838Y-139285167D01*
X88856883Y-139628943D01*
X89119673Y-139892192D01*
X89463201Y-140034838D01*
X89835167Y-140035162D01*
X90178943Y-139893117D01*
X90235559Y-139836600D01*
X109704178Y-139836600D01*
X109759673Y-139892192D01*
X109965221Y-139977543D01*
X108581764Y-141361000D01*
X106810000Y-141361000D01*
X106469794Y-141428671D01*
X106323516Y-141526411D01*
X106181382Y-141621382D01*
X103475550Y-144327214D01*
X103206511Y-144380729D01*
X102720330Y-144705585D01*
X102510000Y-145020366D01*
X102299670Y-144705585D01*
X101813489Y-144380729D01*
X101240000Y-144266655D01*
X100666511Y-144380729D01*
X100180330Y-144705585D01*
X99970000Y-145020366D01*
X99759670Y-144705585D01*
X99273489Y-144380729D01*
X98700000Y-144266655D01*
X98126511Y-144380729D01*
X97640330Y-144705585D01*
X97430000Y-145020366D01*
X97219670Y-144705585D01*
X96733489Y-144380729D01*
X96160000Y-144266655D01*
X95586511Y-144380729D01*
X95100330Y-144705585D01*
X95090757Y-144719913D01*
X95086762Y-144698683D01*
X94947690Y-144482559D01*
X94735490Y-144337569D01*
X94483600Y-144286560D01*
X92756400Y-144286560D01*
X92521083Y-144330838D01*
X92304959Y-144469910D01*
X92159969Y-144682110D01*
X92108960Y-144934000D01*
X92108960Y-146966000D01*
X92153238Y-147201317D01*
X92292310Y-147417441D01*
X92504510Y-147562431D01*
X92756400Y-147613440D01*
X94483600Y-147613440D01*
X94718917Y-147569162D01*
X94935041Y-147430090D01*
X95080031Y-147217890D01*
X95088400Y-147176561D01*
X95100330Y-147194415D01*
X95586511Y-147519271D01*
X96160000Y-147633345D01*
X96733489Y-147519271D01*
X97219670Y-147194415D01*
X97430000Y-146879634D01*
X97640330Y-147194415D01*
X98126511Y-147519271D01*
X98700000Y-147633345D01*
X99273489Y-147519271D01*
X99759670Y-147194415D01*
X99970000Y-146879634D01*
X100180330Y-147194415D01*
X100476811Y-147392517D01*
X100512537Y-147572125D01*
X100683224Y-147827576D01*
X101262424Y-148406776D01*
X101517875Y-148577463D01*
X101819200Y-148637400D01*
X132820000Y-148637400D01*
X133121325Y-148577463D01*
X133376776Y-148406776D01*
X133547463Y-148151325D01*
X133607400Y-147850000D01*
X133607400Y-147396340D01*
X133879670Y-147214415D01*
X134204526Y-146728234D01*
X134318600Y-146154745D01*
X134318600Y-145785255D01*
X134204526Y-145211766D01*
X133879670Y-144725585D01*
X133393489Y-144400729D01*
X132820000Y-144286655D01*
X132246511Y-144400729D01*
X131760330Y-144725585D01*
X131550000Y-145040366D01*
X131339670Y-144725585D01*
X130853489Y-144400729D01*
X130280000Y-144286655D01*
X129706511Y-144400729D01*
X129220330Y-144725585D01*
X129013539Y-145035069D01*
X128642036Y-144619268D01*
X128114791Y-144365291D01*
X128099026Y-144362642D01*
X127867000Y-144483783D01*
X127867000Y-145843000D01*
X127887000Y-145843000D01*
X127887000Y-146097000D01*
X127867000Y-146097000D01*
X127867000Y-146117000D01*
X127613000Y-146117000D01*
X127613000Y-146097000D01*
X127593000Y-146097000D01*
X127593000Y-145843000D01*
X127613000Y-145843000D01*
X127613000Y-144483783D01*
X127380974Y-144362642D01*
X127365209Y-144365291D01*
X126837964Y-144619268D01*
X126466461Y-145035069D01*
X126259670Y-144725585D01*
X125773489Y-144400729D01*
X125200000Y-144286655D01*
X124626511Y-144400729D01*
X124140330Y-144725585D01*
X123930000Y-145040366D01*
X123719670Y-144725585D01*
X123233489Y-144400729D01*
X122660000Y-144286655D01*
X122086511Y-144400729D01*
X121600330Y-144725585D01*
X121390000Y-145040366D01*
X121179670Y-144725585D01*
X120693489Y-144400729D01*
X120120000Y-144286655D01*
X119546511Y-144400729D01*
X119060330Y-144725585D01*
X119050757Y-144739913D01*
X119046762Y-144718683D01*
X118907690Y-144502559D01*
X118695490Y-144357569D01*
X118443600Y-144306560D01*
X116716400Y-144306560D01*
X116481083Y-144350838D01*
X116264959Y-144489910D01*
X116119969Y-144702110D01*
X116068960Y-144954000D01*
X116068960Y-146986000D01*
X116083373Y-147062600D01*
X107434798Y-147062600D01*
X107611954Y-146864320D01*
X107805184Y-146311913D01*
X107660924Y-146077000D01*
X106447000Y-146077000D01*
X106447000Y-146097000D01*
X106193000Y-146097000D01*
X106193000Y-146077000D01*
X106173000Y-146077000D01*
X106173000Y-145823000D01*
X106193000Y-145823000D01*
X106193000Y-144463783D01*
X106447000Y-144463783D01*
X106447000Y-145823000D01*
X107660924Y-145823000D01*
X107805184Y-145588087D01*
X107611954Y-145035680D01*
X107222036Y-144599268D01*
X106694791Y-144345291D01*
X106679026Y-144342642D01*
X106447000Y-144463783D01*
X106193000Y-144463783D01*
X105969922Y-144347314D01*
X107178236Y-143139000D01*
X108950000Y-143139000D01*
X109290206Y-143071329D01*
X109578618Y-142878618D01*
X113108618Y-139348618D01*
X113133740Y-139311020D01*
X113301329Y-139060206D01*
X113369000Y-138720000D01*
X113369000Y-137685167D01*
X113754838Y-137685167D01*
X113896883Y-138028943D01*
X114159673Y-138292192D01*
X114178097Y-138299842D01*
X114161057Y-138306883D01*
X113897808Y-138569673D01*
X113755162Y-138913201D01*
X113754838Y-139285167D01*
X113896883Y-139628943D01*
X114159673Y-139892192D01*
X114503201Y-140034838D01*
X114875167Y-140035162D01*
X115218943Y-139893117D01*
X115275559Y-139836600D01*
X120214889Y-139836600D01*
X122425555Y-142047266D01*
X122664525Y-142206941D01*
X122946410Y-142263011D01*
X126963590Y-142263011D01*
X127245475Y-142206941D01*
X127484445Y-142047266D01*
X129695111Y-139836600D01*
X134704178Y-139836600D01*
X134759673Y-139892192D01*
X135103201Y-140034838D01*
X135475167Y-140035162D01*
X135818943Y-139893117D01*
X136082192Y-139630327D01*
X136224838Y-139286799D01*
X136225162Y-138914833D01*
X136083117Y-138571057D01*
X135820327Y-138307808D01*
X135801903Y-138300158D01*
X135818943Y-138293117D01*
X136082192Y-138030327D01*
X136224838Y-137686799D01*
X136224839Y-137685167D01*
X138754838Y-137685167D01*
X138896883Y-138028943D01*
X139159673Y-138292192D01*
X139178097Y-138299842D01*
X139161057Y-138306883D01*
X138897808Y-138569673D01*
X138755162Y-138913201D01*
X138754838Y-139285167D01*
X138896883Y-139628943D01*
X139159673Y-139892192D01*
X139503201Y-140034838D01*
X139875167Y-140035162D01*
X140218943Y-139893117D01*
X140265541Y-139846600D01*
X146304178Y-139846600D01*
X146359673Y-139902192D01*
X146703201Y-140044838D01*
X147075167Y-140045162D01*
X147418943Y-139903117D01*
X147682192Y-139640327D01*
X147824838Y-139296799D01*
X147825162Y-138924833D01*
X147683117Y-138581057D01*
X147420327Y-138317808D01*
X147340752Y-138284765D01*
X147368943Y-138273117D01*
X147632192Y-138010327D01*
X147774838Y-137666799D01*
X147775162Y-137294833D01*
X147633117Y-136951057D01*
X147370327Y-136687808D01*
X147026799Y-136545162D01*
X146654833Y-136544838D01*
X146311057Y-136686883D01*
X146047808Y-136949673D01*
X145905162Y-137293201D01*
X145905092Y-137373198D01*
X145354890Y-137923400D01*
X141155110Y-137923400D01*
X140625094Y-137393384D01*
X140625162Y-137314833D01*
X140483117Y-136971057D01*
X140220327Y-136707808D01*
X139876799Y-136565162D01*
X139504833Y-136564838D01*
X139161057Y-136706883D01*
X138897808Y-136969673D01*
X138755162Y-137313201D01*
X138754838Y-137685167D01*
X136224839Y-137685167D01*
X136225162Y-137314833D01*
X136083117Y-136971057D01*
X135820327Y-136707808D01*
X135476799Y-136565162D01*
X135104833Y-136564838D01*
X134761057Y-136706883D01*
X134497808Y-136969673D01*
X134355162Y-137313201D01*
X134355092Y-137393198D01*
X133834890Y-137913400D01*
X129265250Y-137913400D01*
X128983365Y-137969470D01*
X128744395Y-138129145D01*
X126490140Y-140383400D01*
X123419860Y-140383400D01*
X121175605Y-138139145D01*
X120936635Y-137979470D01*
X120654750Y-137923400D01*
X117058310Y-137923400D01*
X117057725Y-137922815D01*
X122864630Y-137922815D01*
X123188980Y-138707800D01*
X123789041Y-139308909D01*
X124573459Y-139634628D01*
X125422815Y-139635370D01*
X126207800Y-139311020D01*
X126808909Y-138710959D01*
X127134628Y-137926541D01*
X127135370Y-137077185D01*
X126811020Y-136292200D01*
X126210959Y-135691091D01*
X125426541Y-135365372D01*
X124577185Y-135364630D01*
X123792200Y-135688980D01*
X123191091Y-136289041D01*
X122865372Y-137073459D01*
X122864630Y-137922815D01*
X117057725Y-137922815D01*
X116114055Y-136979145D01*
X115875085Y-136819470D01*
X115593200Y-136763400D01*
X115275822Y-136763400D01*
X115220327Y-136707808D01*
X114876799Y-136565162D01*
X114504833Y-136564838D01*
X114161057Y-136706883D01*
X113897808Y-136969673D01*
X113755162Y-137313201D01*
X113754838Y-137685167D01*
X113369000Y-137685167D01*
X113369000Y-135159000D01*
X136642349Y-135159000D01*
X136759515Y-135276371D01*
X137213266Y-135464785D01*
X137704579Y-135465214D01*
X138158657Y-135277592D01*
X138319766Y-135116765D01*
X138648734Y-135051329D01*
X138937146Y-134858618D01*
X148778618Y-125017146D01*
X148971329Y-124728734D01*
X149039000Y-124388528D01*
X149039000Y-76350000D01*
X148971329Y-76009794D01*
X148778618Y-75721382D01*
X138715046Y-65657810D01*
X138715214Y-65465421D01*
X138527592Y-65011343D01*
X138180485Y-64663629D01*
X137726734Y-64475215D01*
X137235421Y-64474786D01*
X136781343Y-64662408D01*
X136622474Y-64821000D01*
X113399000Y-64821000D01*
X113399000Y-61085167D01*
X113764838Y-61085167D01*
X113906883Y-61428943D01*
X114169673Y-61692192D01*
X114188097Y-61699842D01*
X114171057Y-61706883D01*
X113907808Y-61969673D01*
X113765162Y-62313201D01*
X113764838Y-62685167D01*
X113906883Y-63028943D01*
X114169673Y-63292192D01*
X114513201Y-63434838D01*
X114885167Y-63435162D01*
X115228943Y-63293117D01*
X115285559Y-63236600D01*
X115603200Y-63236600D01*
X115885085Y-63180530D01*
X116124055Y-63020855D01*
X116222095Y-62922815D01*
X122864630Y-62922815D01*
X123188980Y-63707800D01*
X123789041Y-64308909D01*
X124573459Y-64634628D01*
X125422815Y-64635370D01*
X126207800Y-64311020D01*
X126808909Y-63710959D01*
X127134628Y-62926541D01*
X127135370Y-62077185D01*
X126811020Y-61292200D01*
X126210959Y-60691091D01*
X125426541Y-60365372D01*
X124577185Y-60364630D01*
X123792200Y-60688980D01*
X123191091Y-61289041D01*
X122865372Y-62073459D01*
X122864630Y-62922815D01*
X116222095Y-62922815D01*
X117078310Y-62066600D01*
X121304750Y-62066600D01*
X121586635Y-62010530D01*
X121825605Y-61850855D01*
X123849860Y-59826600D01*
X126054890Y-59826600D01*
X128079145Y-61850855D01*
X128318115Y-62010530D01*
X128600000Y-62066600D01*
X133814890Y-62066600D01*
X134354906Y-62606616D01*
X134354838Y-62685167D01*
X134496883Y-63028943D01*
X134759673Y-63292192D01*
X135103201Y-63434838D01*
X135475167Y-63435162D01*
X135818943Y-63293117D01*
X136082192Y-63030327D01*
X136224838Y-62686799D01*
X136225162Y-62314833D01*
X136083117Y-61971057D01*
X135820327Y-61707808D01*
X135801903Y-61700158D01*
X135818943Y-61693117D01*
X136082192Y-61430327D01*
X136224838Y-61086799D01*
X136224839Y-61085167D01*
X138754838Y-61085167D01*
X138896883Y-61428943D01*
X139159673Y-61692192D01*
X139178097Y-61699842D01*
X139161057Y-61706883D01*
X138897808Y-61969673D01*
X138755162Y-62313201D01*
X138754838Y-62685167D01*
X138896883Y-63028943D01*
X139159673Y-63292192D01*
X139503201Y-63434838D01*
X139875167Y-63435162D01*
X140218943Y-63293117D01*
X140482192Y-63030327D01*
X140624838Y-62686799D01*
X140624908Y-62606802D01*
X141155110Y-62076600D01*
X145464890Y-62076600D01*
X145803400Y-62415110D01*
X145803400Y-62974160D01*
X145757808Y-63019673D01*
X145615162Y-63363201D01*
X145614838Y-63735167D01*
X145756883Y-64078943D01*
X146019673Y-64342192D01*
X146363201Y-64484838D01*
X146735167Y-64485162D01*
X147078943Y-64343117D01*
X147342192Y-64080327D01*
X147484838Y-63736799D01*
X147485031Y-63515052D01*
X147611547Y-63515162D01*
X147955323Y-63373117D01*
X148218572Y-63110327D01*
X148361218Y-62766799D01*
X148361542Y-62394833D01*
X148219497Y-62051057D01*
X148122913Y-61954304D01*
X148106910Y-61873851D01*
X147947235Y-61634881D01*
X146691499Y-60379145D01*
X146452529Y-60219470D01*
X146170644Y-60163400D01*
X140275822Y-60163400D01*
X140220327Y-60107808D01*
X139876799Y-59965162D01*
X139504833Y-59964838D01*
X139161057Y-60106883D01*
X138897808Y-60369673D01*
X138755162Y-60713201D01*
X138754838Y-61085167D01*
X136224839Y-61085167D01*
X136225162Y-60714833D01*
X136083117Y-60371057D01*
X135820327Y-60107808D01*
X135476799Y-59965162D01*
X135104833Y-59964838D01*
X134761057Y-60106883D01*
X134704441Y-60163400D01*
X129049861Y-60163400D01*
X127049195Y-58162734D01*
X126810225Y-58003059D01*
X126528340Y-57946989D01*
X123376410Y-57946989D01*
X123094525Y-58003059D01*
X122855555Y-58162734D01*
X120854889Y-60163400D01*
X115285822Y-60163400D01*
X115230327Y-60107808D01*
X114886799Y-59965162D01*
X114514833Y-59964838D01*
X114171057Y-60106883D01*
X113907808Y-60369673D01*
X113765162Y-60713201D01*
X113764838Y-61085167D01*
X113399000Y-61085167D01*
X113399000Y-60912400D01*
X113331329Y-60572194D01*
X113138618Y-60283782D01*
X106457002Y-53602166D01*
X106457002Y-53526218D01*
X106689026Y-53647358D01*
X106704791Y-53644709D01*
X107232036Y-53390732D01*
X107621954Y-52954320D01*
X107815184Y-52401913D01*
X107670924Y-52167000D01*
X106457000Y-52167000D01*
X106457000Y-52187000D01*
X106203000Y-52187000D01*
X106203000Y-52167000D01*
X106183000Y-52167000D01*
X106183000Y-51913000D01*
X106203000Y-51913000D01*
X106203000Y-51893000D01*
X106457000Y-51893000D01*
X106457000Y-51913000D01*
X107670924Y-51913000D01*
X107815184Y-51678087D01*
X107621954Y-51125680D01*
X107250559Y-50710000D01*
X146129598Y-50710000D01*
X145606364Y-51232321D01*
X145265389Y-52053481D01*
X145264613Y-52942619D01*
X145604155Y-53764372D01*
X146232321Y-54393636D01*
X147053481Y-54734611D01*
X147942619Y-54735387D01*
X148764372Y-54395845D01*
X149290000Y-53871134D01*
X149290000Y-146129598D01*
X148767679Y-145606364D01*
X147946519Y-145265389D01*
X147057381Y-145264613D01*
X146235628Y-145604155D01*
X145606364Y-146232321D01*
X145265389Y-147053481D01*
X145264613Y-147942619D01*
X145604155Y-148764372D01*
X146128866Y-149290000D01*
X53870402Y-149290000D01*
X54393636Y-148767679D01*
X54734611Y-147946519D01*
X54735387Y-147057381D01*
X54395845Y-146235628D01*
X53767679Y-145606364D01*
X52946519Y-145265389D01*
X52057381Y-145264613D01*
X51235628Y-145604155D01*
X50710000Y-146128866D01*
X50710000Y-137685167D01*
X59314838Y-137685167D01*
X59456883Y-138028943D01*
X59719673Y-138292192D01*
X59738097Y-138299842D01*
X59721057Y-138306883D01*
X59457808Y-138569673D01*
X59315162Y-138913201D01*
X59314838Y-139285167D01*
X59456883Y-139628943D01*
X59719673Y-139892192D01*
X60063201Y-140034838D01*
X60435167Y-140035162D01*
X60778943Y-139893117D01*
X61042192Y-139630327D01*
X61184838Y-139286799D01*
X61185162Y-138914833D01*
X61043117Y-138571057D01*
X60780327Y-138307808D01*
X60761903Y-138300158D01*
X60778943Y-138293117D01*
X61042192Y-138030327D01*
X61184838Y-137686799D01*
X61184839Y-137685167D01*
X63714838Y-137685167D01*
X63856883Y-138028943D01*
X64119673Y-138292192D01*
X64138097Y-138299842D01*
X64121057Y-138306883D01*
X63857808Y-138569673D01*
X63715162Y-138913201D01*
X63714838Y-139285167D01*
X63856883Y-139628943D01*
X64119673Y-139892192D01*
X64463201Y-140034838D01*
X64835167Y-140035162D01*
X65178943Y-139893117D01*
X65235559Y-139836600D01*
X70024890Y-139836600D01*
X72309145Y-142120855D01*
X72548115Y-142280530D01*
X72830000Y-142336600D01*
X76980000Y-142336600D01*
X77261885Y-142280530D01*
X77500855Y-142120855D01*
X79785110Y-139836600D01*
X84664178Y-139836600D01*
X84719673Y-139892192D01*
X85063201Y-140034838D01*
X85435167Y-140035162D01*
X85778943Y-139893117D01*
X86042192Y-139630327D01*
X86184838Y-139286799D01*
X86185162Y-138914833D01*
X86043117Y-138571057D01*
X85780327Y-138307808D01*
X85761903Y-138300158D01*
X85778943Y-138293117D01*
X86042192Y-138030327D01*
X86184838Y-137686799D01*
X86185162Y-137314833D01*
X86043117Y-136971057D01*
X85780327Y-136707808D01*
X85436799Y-136565162D01*
X85064833Y-136564838D01*
X84721057Y-136706883D01*
X84457808Y-136969673D01*
X84315162Y-137313201D01*
X84315092Y-137393198D01*
X83774890Y-137933400D01*
X79335250Y-137933400D01*
X79053365Y-137989470D01*
X78844327Y-138129145D01*
X78814395Y-138149145D01*
X76506551Y-140456989D01*
X73303449Y-140456989D01*
X70995605Y-138149145D01*
X70756635Y-137989470D01*
X70474750Y-137933400D01*
X67028310Y-137933400D01*
X67018725Y-137923815D01*
X72816630Y-137923815D01*
X73140980Y-138708800D01*
X73741041Y-139309909D01*
X74525459Y-139635628D01*
X75374815Y-139636370D01*
X76159800Y-139312020D01*
X76760909Y-138711959D01*
X77086628Y-137927541D01*
X77087370Y-137078185D01*
X76763020Y-136293200D01*
X76162959Y-135692091D01*
X75378541Y-135366372D01*
X74529185Y-135365630D01*
X73744200Y-135689980D01*
X73143091Y-136290041D01*
X72817372Y-137074459D01*
X72816630Y-137923815D01*
X67018725Y-137923815D01*
X66074055Y-136979145D01*
X65835085Y-136819470D01*
X65553200Y-136763400D01*
X65235822Y-136763400D01*
X65180327Y-136707808D01*
X64836799Y-136565162D01*
X64464833Y-136564838D01*
X64121057Y-136706883D01*
X63857808Y-136969673D01*
X63715162Y-137313201D01*
X63714838Y-137685167D01*
X61184839Y-137685167D01*
X61185162Y-137314833D01*
X61043117Y-136971057D01*
X60780327Y-136707808D01*
X60436799Y-136565162D01*
X60064833Y-136564838D01*
X59721057Y-136706883D01*
X59457808Y-136969673D01*
X59315162Y-137313201D01*
X59314838Y-137685167D01*
X50710000Y-137685167D01*
X50710000Y-53870402D01*
X51232321Y-54393636D01*
X52053481Y-54734611D01*
X52942619Y-54735387D01*
X53764372Y-54395845D01*
X54393636Y-53767679D01*
X54734611Y-52946519D01*
X54735387Y-52057381D01*
X54395845Y-51235628D01*
X53871134Y-50710000D01*
X92212407Y-50710000D01*
X92169969Y-50772110D01*
X92169969Y-50772110D01*
G37*
X92169969Y-50772110D02*
X92118960Y-51024000D01*
X92118960Y-53056000D01*
X92163238Y-53291317D01*
X92302310Y-53507441D01*
X92514510Y-53652431D01*
X92766400Y-53703440D01*
X94493600Y-53703440D01*
X94728917Y-53659162D01*
X94945041Y-53520090D01*
X95090031Y-53307890D01*
X95098400Y-53266561D01*
X95110330Y-53284415D01*
X95596511Y-53609271D01*
X96170000Y-53723345D01*
X96743489Y-53609271D01*
X97229670Y-53284415D01*
X97440000Y-52969634D01*
X97650330Y-53284415D01*
X98136511Y-53609271D01*
X98710000Y-53723345D01*
X99283489Y-53609271D01*
X99769670Y-53284415D01*
X99980000Y-52969634D01*
X100190330Y-53284415D01*
X100676511Y-53609271D01*
X101250000Y-53723345D01*
X101823489Y-53609271D01*
X102309670Y-53284415D01*
X102520000Y-52969634D01*
X102730330Y-53284415D01*
X103216511Y-53609271D01*
X103790000Y-53723345D01*
X104018298Y-53677934D01*
X110305368Y-59965004D01*
X110114833Y-59964838D01*
X109771057Y-60106883D01*
X109714441Y-60163400D01*
X90285822Y-60163400D01*
X90230327Y-60107808D01*
X89886799Y-59965162D01*
X89514833Y-59964838D01*
X89171057Y-60106883D01*
X88907808Y-60369673D01*
X88765162Y-60713201D01*
X88764838Y-61085167D01*
X88906883Y-61428943D01*
X89169673Y-61692192D01*
X89188097Y-61699842D01*
X89171057Y-61706883D01*
X88907808Y-61969673D01*
X88765162Y-62313201D01*
X88764838Y-62685167D01*
X88906883Y-63028943D01*
X89169673Y-63292192D01*
X89513201Y-63434838D01*
X89885167Y-63435162D01*
X90228943Y-63293117D01*
X90492192Y-63030327D01*
X90634838Y-62686799D01*
X90634864Y-62656846D01*
X91225110Y-62066600D01*
X108774890Y-62066600D01*
X109364863Y-62656573D01*
X109364838Y-62685167D01*
X109506883Y-63028943D01*
X109769673Y-63292192D01*
X110113201Y-63434838D01*
X110485167Y-63435162D01*
X110828943Y-63293117D01*
X111092192Y-63030327D01*
X111234838Y-62686799D01*
X111235162Y-62314833D01*
X111093117Y-61971057D01*
X110830327Y-61707808D01*
X110811903Y-61700158D01*
X110828943Y-61693117D01*
X111092192Y-61430327D01*
X111234838Y-61086799D01*
X111235005Y-60894641D01*
X111621000Y-61280636D01*
X111621000Y-64821000D01*
X104009756Y-64821000D01*
X104058838Y-64702799D01*
X104059162Y-64330833D01*
X103917117Y-63987057D01*
X103654327Y-63723808D01*
X103310799Y-63581162D01*
X102938833Y-63580838D01*
X102595057Y-63722883D01*
X102538441Y-63779400D01*
X76740348Y-63779400D01*
X76808909Y-63710959D01*
X77134628Y-62926541D01*
X77135370Y-62077185D01*
X76811020Y-61292200D01*
X76210959Y-60691091D01*
X75426541Y-60365372D01*
X74577185Y-60364630D01*
X73792200Y-60688980D01*
X73191091Y-61289041D01*
X72865372Y-62073459D01*
X72864630Y-62922815D01*
X73188980Y-63707800D01*
X73260455Y-63779400D01*
X63514310Y-63779400D01*
X61714055Y-61979145D01*
X61475085Y-61819470D01*
X61193200Y-61763400D01*
X60875822Y-61763400D01*
X60820327Y-61707808D01*
X60801903Y-61700158D01*
X60818943Y-61693117D01*
X61082192Y-61430327D01*
X61224838Y-61086799D01*
X61224839Y-61085167D01*
X63754838Y-61085167D01*
X63896883Y-61428943D01*
X64159673Y-61692192D01*
X64178097Y-61699842D01*
X64161057Y-61706883D01*
X63897808Y-61969673D01*
X63755162Y-62313201D01*
X63754838Y-62685167D01*
X63896883Y-63028943D01*
X64159673Y-63292192D01*
X64503201Y-63434838D01*
X64875167Y-63435162D01*
X65218943Y-63293117D01*
X65275559Y-63236600D01*
X65593200Y-63236600D01*
X65875085Y-63180530D01*
X66114055Y-63020855D01*
X67038310Y-62096600D01*
X71080000Y-62096600D01*
X71361885Y-62040530D01*
X71600855Y-61880855D01*
X73695110Y-59786600D01*
X76174890Y-59786600D01*
X78259145Y-61870855D01*
X78498115Y-62030530D01*
X78780000Y-62086600D01*
X83844890Y-62086600D01*
X84364906Y-62606616D01*
X84364838Y-62685167D01*
X84506883Y-63028943D01*
X84769673Y-63292192D01*
X85113201Y-63434838D01*
X85485167Y-63435162D01*
X85828943Y-63293117D01*
X86092192Y-63030327D01*
X86234838Y-62686799D01*
X86235162Y-62314833D01*
X86093117Y-61971057D01*
X85830327Y-61707808D01*
X85811903Y-61700158D01*
X85828943Y-61693117D01*
X86092192Y-61430327D01*
X86234838Y-61086799D01*
X86235162Y-60714833D01*
X86093117Y-60371057D01*
X85830327Y-60107808D01*
X85486799Y-59965162D01*
X85114833Y-59964838D01*
X84771057Y-60106883D01*
X84714441Y-60163400D01*
X79209860Y-60163400D01*
X77169195Y-58122734D01*
X76930225Y-57963059D01*
X76648340Y-57906989D01*
X73221660Y-57906989D01*
X72939775Y-57963059D01*
X72700805Y-58122734D01*
X70660139Y-60163400D01*
X65275822Y-60163400D01*
X65220327Y-60107808D01*
X64876799Y-59965162D01*
X64504833Y-59964838D01*
X64161057Y-60106883D01*
X63897808Y-60369673D01*
X63755162Y-60713201D01*
X63754838Y-61085167D01*
X61224839Y-61085167D01*
X61225162Y-60714833D01*
X61083117Y-60371057D01*
X61026600Y-60314441D01*
X61026600Y-60301910D01*
X63949910Y-57378600D01*
X99770890Y-57378600D01*
X100410906Y-58018616D01*
X100410838Y-58097167D01*
X100552883Y-58440943D01*
X100815673Y-58704192D01*
X101159201Y-58846838D01*
X101531167Y-58847162D01*
X101874943Y-58705117D01*
X102138192Y-58442327D01*
X102280838Y-58098799D01*
X102281162Y-57726833D01*
X102139117Y-57383057D01*
X101876327Y-57119808D01*
X101532799Y-56977162D01*
X101452802Y-56977092D01*
X100596855Y-56121145D01*
X100357885Y-55961470D01*
X100076000Y-55905400D01*
X63644800Y-55905400D01*
X63362915Y-55961470D01*
X63123945Y-56121145D01*
X59769145Y-59475945D01*
X59609470Y-59714915D01*
X59553400Y-59996800D01*
X59553400Y-60314178D01*
X59497808Y-60369673D01*
X59355162Y-60713201D01*
X59354838Y-61085167D01*
X59496883Y-61428943D01*
X59759673Y-61692192D01*
X59778097Y-61699842D01*
X59761057Y-61706883D01*
X59497808Y-61969673D01*
X59355162Y-62313201D01*
X59354838Y-62685167D01*
X59496883Y-63028943D01*
X59759673Y-63292192D01*
X60103201Y-63434838D01*
X60475167Y-63435162D01*
X60818943Y-63293117D01*
X60875559Y-63236600D01*
X60888090Y-63236600D01*
X62178655Y-64527165D01*
X61851343Y-64662408D01*
X61503629Y-65009515D01*
X61315215Y-65463266D01*
X61315028Y-65677736D01*
X51221382Y-75771382D01*
X51028671Y-76059794D01*
X50961000Y-76400000D01*
X50961000Y-123670000D01*
X51028671Y-124010206D01*
X51221382Y-124298618D01*
X61214980Y-134292216D01*
X61214786Y-134514579D01*
X61402408Y-134968657D01*
X61749515Y-135316371D01*
X62203266Y-135504785D01*
X62694579Y-135505214D01*
X63148657Y-135317592D01*
X63307526Y-135159000D01*
X86602419Y-135159000D01*
X86759515Y-135316371D01*
X87213266Y-135504785D01*
X87704579Y-135505214D01*
X88158657Y-135317592D01*
X88317526Y-135159000D01*
X111591000Y-135159000D01*
X111591000Y-138351764D01*
X111167495Y-138775269D01*
X111083117Y-138571057D01*
X110820327Y-138307808D01*
X110801903Y-138300158D01*
X110818943Y-138293117D01*
X111082192Y-138030327D01*
X111224838Y-137686799D01*
X111225162Y-137314833D01*
X111083117Y-136971057D01*
X110820327Y-136707808D01*
X110476799Y-136565162D01*
X110104833Y-136564838D01*
X109761057Y-136706883D01*
X109704441Y-136763400D01*
X109386800Y-136763400D01*
X109104915Y-136819470D01*
X108865945Y-136979145D01*
X107891690Y-137953400D01*
X91145110Y-137953400D01*
X90585094Y-137393384D01*
X90585162Y-137314833D01*
X90443117Y-136971057D01*
X90180327Y-136707808D01*
X89836799Y-136565162D01*
X89464833Y-136564838D01*
X89121057Y-136706883D01*
X88857808Y-136969673D01*
X88715162Y-137313201D01*
X88714838Y-137685167D01*
X88856883Y-138028943D01*
X89119673Y-138292192D01*
X89138097Y-138299842D01*
X89121057Y-138306883D01*
X88857808Y-138569673D01*
X88715162Y-138913201D01*
X88714838Y-139285167D01*
X88856883Y-139628943D01*
X89119673Y-139892192D01*
X89463201Y-140034838D01*
X89835167Y-140035162D01*
X90178943Y-139893117D01*
X90235559Y-139836600D01*
X109704178Y-139836600D01*
X109759673Y-139892192D01*
X109965221Y-139977543D01*
X108581764Y-141361000D01*
X106810000Y-141361000D01*
X106469794Y-141428671D01*
X106323516Y-141526411D01*
X106181382Y-141621382D01*
X103475550Y-144327214D01*
X103206511Y-144380729D01*
X102720330Y-144705585D01*
X102510000Y-145020366D01*
X102299670Y-144705585D01*
X101813489Y-144380729D01*
X101240000Y-144266655D01*
X100666511Y-144380729D01*
X100180330Y-144705585D01*
X99970000Y-145020366D01*
X99759670Y-144705585D01*
X99273489Y-144380729D01*
X98700000Y-144266655D01*
X98126511Y-144380729D01*
X97640330Y-144705585D01*
X97430000Y-145020366D01*
X97219670Y-144705585D01*
X96733489Y-144380729D01*
X96160000Y-144266655D01*
X95586511Y-144380729D01*
X95100330Y-144705585D01*
X95090757Y-144719913D01*
X95086762Y-144698683D01*
X94947690Y-144482559D01*
X94735490Y-144337569D01*
X94483600Y-144286560D01*
X92756400Y-144286560D01*
X92521083Y-144330838D01*
X92304959Y-144469910D01*
X92159969Y-144682110D01*
X92108960Y-144934000D01*
X92108960Y-146966000D01*
X92153238Y-147201317D01*
X92292310Y-147417441D01*
X92504510Y-147562431D01*
X92756400Y-147613440D01*
X94483600Y-147613440D01*
X94718917Y-147569162D01*
X94935041Y-147430090D01*
X95080031Y-147217890D01*
X95088400Y-147176561D01*
X95100330Y-147194415D01*
X95586511Y-147519271D01*
X96160000Y-147633345D01*
X96733489Y-147519271D01*
X97219670Y-147194415D01*
X97430000Y-146879634D01*
X97640330Y-147194415D01*
X98126511Y-147519271D01*
X98700000Y-147633345D01*
X99273489Y-147519271D01*
X99759670Y-147194415D01*
X99970000Y-146879634D01*
X100180330Y-147194415D01*
X100476811Y-147392517D01*
X100512537Y-147572125D01*
X100683224Y-147827576D01*
X101262424Y-148406776D01*
X101517875Y-148577463D01*
X101819200Y-148637400D01*
X132820000Y-148637400D01*
X133121325Y-148577463D01*
X133376776Y-148406776D01*
X133547463Y-148151325D01*
X133607400Y-147850000D01*
X133607400Y-147396340D01*
X133879670Y-147214415D01*
X134204526Y-146728234D01*
X134318600Y-146154745D01*
X134318600Y-145785255D01*
X134204526Y-145211766D01*
X133879670Y-144725585D01*
X133393489Y-144400729D01*
X132820000Y-144286655D01*
X132246511Y-144400729D01*
X131760330Y-144725585D01*
X131550000Y-145040366D01*
X131339670Y-144725585D01*
X130853489Y-144400729D01*
X130280000Y-144286655D01*
X129706511Y-144400729D01*
X129220330Y-144725585D01*
X129013539Y-145035069D01*
X128642036Y-144619268D01*
X128114791Y-144365291D01*
X128099026Y-144362642D01*
X127867000Y-144483783D01*
X127867000Y-145843000D01*
X127887000Y-145843000D01*
X127887000Y-146097000D01*
X127867000Y-146097000D01*
X127867000Y-146117000D01*
X127613000Y-146117000D01*
X127613000Y-146097000D01*
X127593000Y-146097000D01*
X127593000Y-145843000D01*
X127613000Y-145843000D01*
X127613000Y-144483783D01*
X127380974Y-144362642D01*
X127365209Y-144365291D01*
X126837964Y-144619268D01*
X126466461Y-145035069D01*
X126259670Y-144725585D01*
X125773489Y-144400729D01*
X125200000Y-144286655D01*
X124626511Y-144400729D01*
X124140330Y-144725585D01*
X123930000Y-145040366D01*
X123719670Y-144725585D01*
X123233489Y-144400729D01*
X122660000Y-144286655D01*
X122086511Y-144400729D01*
X121600330Y-144725585D01*
X121390000Y-145040366D01*
X121179670Y-144725585D01*
X120693489Y-144400729D01*
X120120000Y-144286655D01*
X119546511Y-144400729D01*
X119060330Y-144725585D01*
X119050757Y-144739913D01*
X119046762Y-144718683D01*
X118907690Y-144502559D01*
X118695490Y-144357569D01*
X118443600Y-144306560D01*
X116716400Y-144306560D01*
X116481083Y-144350838D01*
X116264959Y-144489910D01*
X116119969Y-144702110D01*
X116068960Y-144954000D01*
X116068960Y-146986000D01*
X116083373Y-147062600D01*
X107434798Y-147062600D01*
X107611954Y-146864320D01*
X107805184Y-146311913D01*
X107660924Y-146077000D01*
X106447000Y-146077000D01*
X106447000Y-146097000D01*
X106193000Y-146097000D01*
X106193000Y-146077000D01*
X106173000Y-146077000D01*
X106173000Y-145823000D01*
X106193000Y-145823000D01*
X106193000Y-144463783D01*
X106447000Y-144463783D01*
X106447000Y-145823000D01*
X107660924Y-145823000D01*
X107805184Y-145588087D01*
X107611954Y-145035680D01*
X107222036Y-144599268D01*
X106694791Y-144345291D01*
X106679026Y-144342642D01*
X106447000Y-144463783D01*
X106193000Y-144463783D01*
X105969922Y-144347314D01*
X107178236Y-143139000D01*
X108950000Y-143139000D01*
X109290206Y-143071329D01*
X109578618Y-142878618D01*
X113108618Y-139348618D01*
X113133740Y-139311020D01*
X113301329Y-139060206D01*
X113369000Y-138720000D01*
X113369000Y-137685167D01*
X113754838Y-137685167D01*
X113896883Y-138028943D01*
X114159673Y-138292192D01*
X114178097Y-138299842D01*
X114161057Y-138306883D01*
X113897808Y-138569673D01*
X113755162Y-138913201D01*
X113754838Y-139285167D01*
X113896883Y-139628943D01*
X114159673Y-139892192D01*
X114503201Y-140034838D01*
X114875167Y-140035162D01*
X115218943Y-139893117D01*
X115275559Y-139836600D01*
X120214889Y-139836600D01*
X122425555Y-142047266D01*
X122664525Y-142206941D01*
X122946410Y-142263011D01*
X126963590Y-142263011D01*
X127245475Y-142206941D01*
X127484445Y-142047266D01*
X129695111Y-139836600D01*
X134704178Y-139836600D01*
X134759673Y-139892192D01*
X135103201Y-140034838D01*
X135475167Y-140035162D01*
X135818943Y-139893117D01*
X136082192Y-139630327D01*
X136224838Y-139286799D01*
X136225162Y-138914833D01*
X136083117Y-138571057D01*
X135820327Y-138307808D01*
X135801903Y-138300158D01*
X135818943Y-138293117D01*
X136082192Y-138030327D01*
X136224838Y-137686799D01*
X136224839Y-137685167D01*
X138754838Y-137685167D01*
X138896883Y-138028943D01*
X139159673Y-138292192D01*
X139178097Y-138299842D01*
X139161057Y-138306883D01*
X138897808Y-138569673D01*
X138755162Y-138913201D01*
X138754838Y-139285167D01*
X138896883Y-139628943D01*
X139159673Y-139892192D01*
X139503201Y-140034838D01*
X139875167Y-140035162D01*
X140218943Y-139893117D01*
X140265541Y-139846600D01*
X146304178Y-139846600D01*
X146359673Y-139902192D01*
X146703201Y-140044838D01*
X147075167Y-140045162D01*
X147418943Y-139903117D01*
X147682192Y-139640327D01*
X147824838Y-139296799D01*
X147825162Y-138924833D01*
X147683117Y-138581057D01*
X147420327Y-138317808D01*
X147340752Y-138284765D01*
X147368943Y-138273117D01*
X147632192Y-138010327D01*
X147774838Y-137666799D01*
X147775162Y-137294833D01*
X147633117Y-136951057D01*
X147370327Y-136687808D01*
X147026799Y-136545162D01*
X146654833Y-136544838D01*
X146311057Y-136686883D01*
X146047808Y-136949673D01*
X145905162Y-137293201D01*
X145905092Y-137373198D01*
X145354890Y-137923400D01*
X141155110Y-137923400D01*
X140625094Y-137393384D01*
X140625162Y-137314833D01*
X140483117Y-136971057D01*
X140220327Y-136707808D01*
X139876799Y-136565162D01*
X139504833Y-136564838D01*
X139161057Y-136706883D01*
X138897808Y-136969673D01*
X138755162Y-137313201D01*
X138754838Y-137685167D01*
X136224839Y-137685167D01*
X136225162Y-137314833D01*
X136083117Y-136971057D01*
X135820327Y-136707808D01*
X135476799Y-136565162D01*
X135104833Y-136564838D01*
X134761057Y-136706883D01*
X134497808Y-136969673D01*
X134355162Y-137313201D01*
X134355092Y-137393198D01*
X133834890Y-137913400D01*
X129265250Y-137913400D01*
X128983365Y-137969470D01*
X128744395Y-138129145D01*
X126490140Y-140383400D01*
X123419860Y-140383400D01*
X121175605Y-138139145D01*
X120936635Y-137979470D01*
X120654750Y-137923400D01*
X117058310Y-137923400D01*
X117057725Y-137922815D01*
X122864630Y-137922815D01*
X123188980Y-138707800D01*
X123789041Y-139308909D01*
X124573459Y-139634628D01*
X125422815Y-139635370D01*
X126207800Y-139311020D01*
X126808909Y-138710959D01*
X127134628Y-137926541D01*
X127135370Y-137077185D01*
X126811020Y-136292200D01*
X126210959Y-135691091D01*
X125426541Y-135365372D01*
X124577185Y-135364630D01*
X123792200Y-135688980D01*
X123191091Y-136289041D01*
X122865372Y-137073459D01*
X122864630Y-137922815D01*
X117057725Y-137922815D01*
X116114055Y-136979145D01*
X115875085Y-136819470D01*
X115593200Y-136763400D01*
X115275822Y-136763400D01*
X115220327Y-136707808D01*
X114876799Y-136565162D01*
X114504833Y-136564838D01*
X114161057Y-136706883D01*
X113897808Y-136969673D01*
X113755162Y-137313201D01*
X113754838Y-137685167D01*
X113369000Y-137685167D01*
X113369000Y-135159000D01*
X136642349Y-135159000D01*
X136759515Y-135276371D01*
X137213266Y-135464785D01*
X137704579Y-135465214D01*
X138158657Y-135277592D01*
X138319766Y-135116765D01*
X138648734Y-135051329D01*
X138937146Y-134858618D01*
X148778618Y-125017146D01*
X148971329Y-124728734D01*
X149039000Y-124388528D01*
X149039000Y-76350000D01*
X148971329Y-76009794D01*
X148778618Y-75721382D01*
X138715046Y-65657810D01*
X138715214Y-65465421D01*
X138527592Y-65011343D01*
X138180485Y-64663629D01*
X137726734Y-64475215D01*
X137235421Y-64474786D01*
X136781343Y-64662408D01*
X136622474Y-64821000D01*
X113399000Y-64821000D01*
X113399000Y-61085167D01*
X113764838Y-61085167D01*
X113906883Y-61428943D01*
X114169673Y-61692192D01*
X114188097Y-61699842D01*
X114171057Y-61706883D01*
X113907808Y-61969673D01*
X113765162Y-62313201D01*
X113764838Y-62685167D01*
X113906883Y-63028943D01*
X114169673Y-63292192D01*
X114513201Y-63434838D01*
X114885167Y-63435162D01*
X115228943Y-63293117D01*
X115285559Y-63236600D01*
X115603200Y-63236600D01*
X115885085Y-63180530D01*
X116124055Y-63020855D01*
X116222095Y-62922815D01*
X122864630Y-62922815D01*
X123188980Y-63707800D01*
X123789041Y-64308909D01*
X124573459Y-64634628D01*
X125422815Y-64635370D01*
X126207800Y-64311020D01*
X126808909Y-63710959D01*
X127134628Y-62926541D01*
X127135370Y-62077185D01*
X126811020Y-61292200D01*
X126210959Y-60691091D01*
X125426541Y-60365372D01*
X124577185Y-60364630D01*
X123792200Y-60688980D01*
X123191091Y-61289041D01*
X122865372Y-62073459D01*
X122864630Y-62922815D01*
X116222095Y-62922815D01*
X117078310Y-62066600D01*
X121304750Y-62066600D01*
X121586635Y-62010530D01*
X121825605Y-61850855D01*
X123849860Y-59826600D01*
X126054890Y-59826600D01*
X128079145Y-61850855D01*
X128318115Y-62010530D01*
X128600000Y-62066600D01*
X133814890Y-62066600D01*
X134354906Y-62606616D01*
X134354838Y-62685167D01*
X134496883Y-63028943D01*
X134759673Y-63292192D01*
X135103201Y-63434838D01*
X135475167Y-63435162D01*
X135818943Y-63293117D01*
X136082192Y-63030327D01*
X136224838Y-62686799D01*
X136225162Y-62314833D01*
X136083117Y-61971057D01*
X135820327Y-61707808D01*
X135801903Y-61700158D01*
X135818943Y-61693117D01*
X136082192Y-61430327D01*
X136224838Y-61086799D01*
X136224839Y-61085167D01*
X138754838Y-61085167D01*
X138896883Y-61428943D01*
X139159673Y-61692192D01*
X139178097Y-61699842D01*
X139161057Y-61706883D01*
X138897808Y-61969673D01*
X138755162Y-62313201D01*
X138754838Y-62685167D01*
X138896883Y-63028943D01*
X139159673Y-63292192D01*
X139503201Y-63434838D01*
X139875167Y-63435162D01*
X140218943Y-63293117D01*
X140482192Y-63030327D01*
X140624838Y-62686799D01*
X140624908Y-62606802D01*
X141155110Y-62076600D01*
X145464890Y-62076600D01*
X145803400Y-62415110D01*
X145803400Y-62974160D01*
X145757808Y-63019673D01*
X145615162Y-63363201D01*
X145614838Y-63735167D01*
X145756883Y-64078943D01*
X146019673Y-64342192D01*
X146363201Y-64484838D01*
X146735167Y-64485162D01*
X147078943Y-64343117D01*
X147342192Y-64080327D01*
X147484838Y-63736799D01*
X147485031Y-63515052D01*
X147611547Y-63515162D01*
X147955323Y-63373117D01*
X148218572Y-63110327D01*
X148361218Y-62766799D01*
X148361542Y-62394833D01*
X148219497Y-62051057D01*
X148122913Y-61954304D01*
X148106910Y-61873851D01*
X147947235Y-61634881D01*
X146691499Y-60379145D01*
X146452529Y-60219470D01*
X146170644Y-60163400D01*
X140275822Y-60163400D01*
X140220327Y-60107808D01*
X139876799Y-59965162D01*
X139504833Y-59964838D01*
X139161057Y-60106883D01*
X138897808Y-60369673D01*
X138755162Y-60713201D01*
X138754838Y-61085167D01*
X136224839Y-61085167D01*
X136225162Y-60714833D01*
X136083117Y-60371057D01*
X135820327Y-60107808D01*
X135476799Y-59965162D01*
X135104833Y-59964838D01*
X134761057Y-60106883D01*
X134704441Y-60163400D01*
X129049861Y-60163400D01*
X127049195Y-58162734D01*
X126810225Y-58003059D01*
X126528340Y-57946989D01*
X123376410Y-57946989D01*
X123094525Y-58003059D01*
X122855555Y-58162734D01*
X120854889Y-60163400D01*
X115285822Y-60163400D01*
X115230327Y-60107808D01*
X114886799Y-59965162D01*
X114514833Y-59964838D01*
X114171057Y-60106883D01*
X113907808Y-60369673D01*
X113765162Y-60713201D01*
X113764838Y-61085167D01*
X113399000Y-61085167D01*
X113399000Y-60912400D01*
X113331329Y-60572194D01*
X113138618Y-60283782D01*
X106457002Y-53602166D01*
X106457002Y-53526218D01*
X106689026Y-53647358D01*
X106704791Y-53644709D01*
X107232036Y-53390732D01*
X107621954Y-52954320D01*
X107815184Y-52401913D01*
X107670924Y-52167000D01*
X106457000Y-52167000D01*
X106457000Y-52187000D01*
X106203000Y-52187000D01*
X106203000Y-52167000D01*
X106183000Y-52167000D01*
X106183000Y-51913000D01*
X106203000Y-51913000D01*
X106203000Y-51893000D01*
X106457000Y-51893000D01*
X106457000Y-51913000D01*
X107670924Y-51913000D01*
X107815184Y-51678087D01*
X107621954Y-51125680D01*
X107250559Y-50710000D01*
X146129598Y-50710000D01*
X145606364Y-51232321D01*
X145265389Y-52053481D01*
X145264613Y-52942619D01*
X145604155Y-53764372D01*
X146232321Y-54393636D01*
X147053481Y-54734611D01*
X147942619Y-54735387D01*
X148764372Y-54395845D01*
X149290000Y-53871134D01*
X149290000Y-146129598D01*
X148767679Y-145606364D01*
X147946519Y-145265389D01*
X147057381Y-145264613D01*
X146235628Y-145604155D01*
X145606364Y-146232321D01*
X145265389Y-147053481D01*
X145264613Y-147942619D01*
X145604155Y-148764372D01*
X146128866Y-149290000D01*
X53870402Y-149290000D01*
X54393636Y-148767679D01*
X54734611Y-147946519D01*
X54735387Y-147057381D01*
X54395845Y-146235628D01*
X53767679Y-145606364D01*
X52946519Y-145265389D01*
X52057381Y-145264613D01*
X51235628Y-145604155D01*
X50710000Y-146128866D01*
X50710000Y-137685167D01*
X59314838Y-137685167D01*
X59456883Y-138028943D01*
X59719673Y-138292192D01*
X59738097Y-138299842D01*
X59721057Y-138306883D01*
X59457808Y-138569673D01*
X59315162Y-138913201D01*
X59314838Y-139285167D01*
X59456883Y-139628943D01*
X59719673Y-139892192D01*
X60063201Y-140034838D01*
X60435167Y-140035162D01*
X60778943Y-139893117D01*
X61042192Y-139630327D01*
X61184838Y-139286799D01*
X61185162Y-138914833D01*
X61043117Y-138571057D01*
X60780327Y-138307808D01*
X60761903Y-138300158D01*
X60778943Y-138293117D01*
X61042192Y-138030327D01*
X61184838Y-137686799D01*
X61184839Y-137685167D01*
X63714838Y-137685167D01*
X63856883Y-138028943D01*
X64119673Y-138292192D01*
X64138097Y-138299842D01*
X64121057Y-138306883D01*
X63857808Y-138569673D01*
X63715162Y-138913201D01*
X63714838Y-139285167D01*
X63856883Y-139628943D01*
X64119673Y-139892192D01*
X64463201Y-140034838D01*
X64835167Y-140035162D01*
X65178943Y-139893117D01*
X65235559Y-139836600D01*
X70024890Y-139836600D01*
X72309145Y-142120855D01*
X72548115Y-142280530D01*
X72830000Y-142336600D01*
X76980000Y-142336600D01*
X77261885Y-142280530D01*
X77500855Y-142120855D01*
X79785110Y-139836600D01*
X84664178Y-139836600D01*
X84719673Y-139892192D01*
X85063201Y-140034838D01*
X85435167Y-140035162D01*
X85778943Y-139893117D01*
X86042192Y-139630327D01*
X86184838Y-139286799D01*
X86185162Y-138914833D01*
X86043117Y-138571057D01*
X85780327Y-138307808D01*
X85761903Y-138300158D01*
X85778943Y-138293117D01*
X86042192Y-138030327D01*
X86184838Y-137686799D01*
X86185162Y-137314833D01*
X86043117Y-136971057D01*
X85780327Y-136707808D01*
X85436799Y-136565162D01*
X85064833Y-136564838D01*
X84721057Y-136706883D01*
X84457808Y-136969673D01*
X84315162Y-137313201D01*
X84315092Y-137393198D01*
X83774890Y-137933400D01*
X79335250Y-137933400D01*
X79053365Y-137989470D01*
X78844327Y-138129145D01*
X78814395Y-138149145D01*
X76506551Y-140456989D01*
X73303449Y-140456989D01*
X70995605Y-138149145D01*
X70756635Y-137989470D01*
X70474750Y-137933400D01*
X67028310Y-137933400D01*
X67018725Y-137923815D01*
X72816630Y-137923815D01*
X73140980Y-138708800D01*
X73741041Y-139309909D01*
X74525459Y-139635628D01*
X75374815Y-139636370D01*
X76159800Y-139312020D01*
X76760909Y-138711959D01*
X77086628Y-137927541D01*
X77087370Y-137078185D01*
X76763020Y-136293200D01*
X76162959Y-135692091D01*
X75378541Y-135366372D01*
X74529185Y-135365630D01*
X73744200Y-135689980D01*
X73143091Y-136290041D01*
X72817372Y-137074459D01*
X72816630Y-137923815D01*
X67018725Y-137923815D01*
X66074055Y-136979145D01*
X65835085Y-136819470D01*
X65553200Y-136763400D01*
X65235822Y-136763400D01*
X65180327Y-136707808D01*
X64836799Y-136565162D01*
X64464833Y-136564838D01*
X64121057Y-136706883D01*
X63857808Y-136969673D01*
X63715162Y-137313201D01*
X63714838Y-137685167D01*
X61184839Y-137685167D01*
X61185162Y-137314833D01*
X61043117Y-136971057D01*
X60780327Y-136707808D01*
X60436799Y-136565162D01*
X60064833Y-136564838D01*
X59721057Y-136706883D01*
X59457808Y-136969673D01*
X59315162Y-137313201D01*
X59314838Y-137685167D01*
X50710000Y-137685167D01*
X50710000Y-53870402D01*
X51232321Y-54393636D01*
X52053481Y-54734611D01*
X52942619Y-54735387D01*
X53764372Y-54395845D01*
X54393636Y-53767679D01*
X54734611Y-52946519D01*
X54735387Y-52057381D01*
X54395845Y-51235628D01*
X53871134Y-50710000D01*
X92212407Y-50710000D01*
X92169969Y-50772110D01*
G36*
X61739515Y-116786371D02*
X62193266Y-116974785D01*
X62684579Y-116975214D01*
X63138657Y-116787592D01*
X63297526Y-116629000D01*
X86592419Y-116629000D01*
X86749515Y-116786371D01*
X87203266Y-116974785D01*
X87694579Y-116975214D01*
X88148657Y-116787592D01*
X88307526Y-116629000D01*
X111682419Y-116629000D01*
X111839515Y-116786371D01*
X112293266Y-116974785D01*
X112520910Y-116974984D01*
X112799793Y-117161328D01*
X113139999Y-117228999D01*
X136061473Y-117228999D01*
X136401679Y-117161328D01*
X136690091Y-116968617D01*
X136843905Y-116814803D01*
X137253266Y-116984785D01*
X137744579Y-116985214D01*
X138198657Y-116797592D01*
X138357526Y-116639000D01*
X147261000Y-116639000D01*
X147261000Y-124020292D01*
X138116095Y-133165197D01*
X137706734Y-132995215D01*
X137215421Y-132994786D01*
X136761343Y-133182408D01*
X136562404Y-133381000D01*
X113337581Y-133381000D01*
X113180485Y-133223629D01*
X112726734Y-133035215D01*
X112235421Y-133034786D01*
X111781343Y-133222408D01*
X111622474Y-133381000D01*
X88317581Y-133381000D01*
X88160485Y-133223629D01*
X87706734Y-133035215D01*
X87215421Y-133034786D01*
X86761343Y-133222408D01*
X86602474Y-133381000D01*
X63307581Y-133381000D01*
X63150485Y-133223629D01*
X62696734Y-133035215D01*
X62472255Y-133035019D01*
X54861051Y-125423815D01*
X60316630Y-125423815D01*
X60640980Y-126208800D01*
X61241041Y-126809909D01*
X62025459Y-127135628D01*
X62874815Y-127136370D01*
X63659800Y-126812020D01*
X64260909Y-126211959D01*
X64586628Y-125427541D01*
X64587370Y-124578185D01*
X64263020Y-123793200D01*
X63662959Y-123192091D01*
X62878541Y-122866372D01*
X62029185Y-122865630D01*
X61244200Y-123189980D01*
X60643091Y-123790041D01*
X60317372Y-124574459D01*
X60316630Y-125423815D01*
X54861051Y-125423815D01*
X52739000Y-123301764D01*
X52739000Y-121885167D01*
X78464838Y-121885167D01*
X78606883Y-122228943D01*
X78869673Y-122492192D01*
X79213201Y-122634838D01*
X79293198Y-122634908D01*
X86973145Y-130314855D01*
X87212115Y-130474530D01*
X87258883Y-130483833D01*
X87494000Y-130530601D01*
X87494005Y-130530600D01*
X101014178Y-130530600D01*
X101069673Y-130586192D01*
X101413201Y-130728838D01*
X101785167Y-130729162D01*
X102128943Y-130587117D01*
X102392192Y-130324327D01*
X102534838Y-129980799D01*
X102535153Y-129618809D01*
X104474832Y-129618809D01*
X104616877Y-129962585D01*
X104879667Y-130225834D01*
X105223195Y-130368480D01*
X105303192Y-130368550D01*
X106520298Y-131585656D01*
X106759269Y-131745332D01*
X107041153Y-131801402D01*
X107041158Y-131801401D01*
X119352084Y-131801401D01*
X119349808Y-131803673D01*
X119207162Y-132147201D01*
X119206838Y-132519167D01*
X119348883Y-132862943D01*
X119611673Y-133126192D01*
X119955201Y-133268838D01*
X120327167Y-133269162D01*
X120670943Y-133127117D01*
X120934192Y-132864327D01*
X121076838Y-132520799D01*
X121077162Y-132148833D01*
X120935117Y-131805057D01*
X120931467Y-131801401D01*
X127858009Y-131801401D01*
X128139894Y-131745331D01*
X128378864Y-131585656D01*
X129743426Y-130221094D01*
X129821977Y-130221162D01*
X130165753Y-130079117D01*
X130429002Y-129816327D01*
X130571648Y-129472799D01*
X130571972Y-129100833D01*
X130429927Y-128757057D01*
X130167137Y-128493808D01*
X129823609Y-128351162D01*
X129451643Y-128350838D01*
X129107867Y-128492883D01*
X128844618Y-128755673D01*
X128701972Y-129099201D01*
X128701902Y-129179198D01*
X127552899Y-130328201D01*
X122250296Y-130328201D01*
X122250342Y-130274833D01*
X122108297Y-129931057D01*
X122051780Y-129874441D01*
X122051780Y-125422815D01*
X135364630Y-125422815D01*
X135688980Y-126207800D01*
X136289041Y-126808909D01*
X137073459Y-127134628D01*
X137922815Y-127135370D01*
X138707800Y-126811020D01*
X139308909Y-126210959D01*
X139634628Y-125426541D01*
X139635370Y-124577185D01*
X139311020Y-123792200D01*
X138710959Y-123191091D01*
X137926541Y-122865372D01*
X137077185Y-122864630D01*
X136292200Y-123188980D01*
X135691091Y-123789041D01*
X135365372Y-124573459D01*
X135364630Y-125422815D01*
X122051780Y-125422815D01*
X122051780Y-123085185D01*
X122051781Y-123085180D01*
X121995710Y-122803296D01*
X121995710Y-122803295D01*
X121836035Y-122564325D01*
X120995094Y-121723384D01*
X120995162Y-121644833D01*
X120853117Y-121301057D01*
X120590327Y-121037808D01*
X120246799Y-120895162D01*
X119874833Y-120894838D01*
X119531057Y-121036883D01*
X119267808Y-121299673D01*
X119125162Y-121643201D01*
X119124838Y-122015167D01*
X119266883Y-122358943D01*
X119529673Y-122622192D01*
X119873201Y-122764838D01*
X119953198Y-122764908D01*
X120578580Y-123390290D01*
X120578580Y-129874178D01*
X120522988Y-129929673D01*
X120380342Y-130273201D01*
X120380294Y-130328201D01*
X107346263Y-130328201D01*
X106345088Y-129327026D01*
X106345156Y-129248475D01*
X106203111Y-128904699D01*
X105940321Y-128641450D01*
X105596793Y-128498804D01*
X105224827Y-128498480D01*
X104881051Y-128640525D01*
X104617802Y-128903315D01*
X104475156Y-129246843D01*
X104474832Y-129618809D01*
X102535153Y-129618809D01*
X102535162Y-129608833D01*
X102393117Y-129265057D01*
X102130327Y-129001808D01*
X101786799Y-128859162D01*
X101414833Y-128858838D01*
X101071057Y-129000883D01*
X101014441Y-129057400D01*
X100610672Y-129057400D01*
X100868194Y-128800327D01*
X101010840Y-128456799D01*
X101011160Y-128089173D01*
X101112943Y-128047117D01*
X101376192Y-127784327D01*
X101518838Y-127440799D01*
X101519162Y-127068833D01*
X101377117Y-126725057D01*
X101114327Y-126461808D01*
X100770799Y-126319162D01*
X100398833Y-126318838D01*
X100055057Y-126460883D01*
X99998441Y-126517400D01*
X97790000Y-126517400D01*
X97508115Y-126573470D01*
X97283321Y-126723673D01*
X97269145Y-126733145D01*
X96921384Y-127080906D01*
X96842833Y-127080838D01*
X96499057Y-127222883D01*
X96235808Y-127485673D01*
X96093162Y-127829201D01*
X96092894Y-128136781D01*
X95981808Y-128247673D01*
X95839162Y-128591201D01*
X95838838Y-128963167D01*
X95877774Y-129057400D01*
X87799110Y-129057400D01*
X84165525Y-125423815D01*
X85316630Y-125423815D01*
X85640980Y-126208800D01*
X86241041Y-126809909D01*
X87025459Y-127135628D01*
X87874815Y-127136370D01*
X88659800Y-126812020D01*
X89260909Y-126211959D01*
X89586628Y-125427541D01*
X89586632Y-125422815D01*
X110364630Y-125422815D01*
X110688980Y-126207800D01*
X111289041Y-126808909D01*
X112073459Y-127134628D01*
X112922815Y-127135370D01*
X113707800Y-126811020D01*
X114308909Y-126210959D01*
X114634628Y-125426541D01*
X114635370Y-124577185D01*
X114311020Y-123792200D01*
X113710959Y-123191091D01*
X112926541Y-122865372D01*
X112077185Y-122864630D01*
X111292200Y-123188980D01*
X110691091Y-123789041D01*
X110365372Y-124573459D01*
X110364630Y-125422815D01*
X89586632Y-125422815D01*
X89587370Y-124578185D01*
X89263020Y-123793200D01*
X88662959Y-123192091D01*
X87878541Y-122866372D01*
X87029185Y-122865630D01*
X86244200Y-123189980D01*
X85643091Y-123790041D01*
X85317372Y-124574459D01*
X85316630Y-125423815D01*
X84165525Y-125423815D01*
X80335094Y-121593384D01*
X80335162Y-121514833D01*
X80193117Y-121171057D01*
X79930327Y-120907808D01*
X79586799Y-120765162D01*
X79214833Y-120764838D01*
X78871057Y-120906883D01*
X78607808Y-121169673D01*
X78465162Y-121513201D01*
X78464838Y-121885167D01*
X52739000Y-121885167D01*
X52739000Y-116629000D01*
X61582419Y-116629000D01*
X61739515Y-116786371D01*
X61739515Y-116786371D01*
G37*
X61739515Y-116786371D02*
X62193266Y-116974785D01*
X62684579Y-116975214D01*
X63138657Y-116787592D01*
X63297526Y-116629000D01*
X86592419Y-116629000D01*
X86749515Y-116786371D01*
X87203266Y-116974785D01*
X87694579Y-116975214D01*
X88148657Y-116787592D01*
X88307526Y-116629000D01*
X111682419Y-116629000D01*
X111839515Y-116786371D01*
X112293266Y-116974785D01*
X112520910Y-116974984D01*
X112799793Y-117161328D01*
X113139999Y-117228999D01*
X136061473Y-117228999D01*
X136401679Y-117161328D01*
X136690091Y-116968617D01*
X136843905Y-116814803D01*
X137253266Y-116984785D01*
X137744579Y-116985214D01*
X138198657Y-116797592D01*
X138357526Y-116639000D01*
X147261000Y-116639000D01*
X147261000Y-124020292D01*
X138116095Y-133165197D01*
X137706734Y-132995215D01*
X137215421Y-132994786D01*
X136761343Y-133182408D01*
X136562404Y-133381000D01*
X113337581Y-133381000D01*
X113180485Y-133223629D01*
X112726734Y-133035215D01*
X112235421Y-133034786D01*
X111781343Y-133222408D01*
X111622474Y-133381000D01*
X88317581Y-133381000D01*
X88160485Y-133223629D01*
X87706734Y-133035215D01*
X87215421Y-133034786D01*
X86761343Y-133222408D01*
X86602474Y-133381000D01*
X63307581Y-133381000D01*
X63150485Y-133223629D01*
X62696734Y-133035215D01*
X62472255Y-133035019D01*
X54861051Y-125423815D01*
X60316630Y-125423815D01*
X60640980Y-126208800D01*
X61241041Y-126809909D01*
X62025459Y-127135628D01*
X62874815Y-127136370D01*
X63659800Y-126812020D01*
X64260909Y-126211959D01*
X64586628Y-125427541D01*
X64587370Y-124578185D01*
X64263020Y-123793200D01*
X63662959Y-123192091D01*
X62878541Y-122866372D01*
X62029185Y-122865630D01*
X61244200Y-123189980D01*
X60643091Y-123790041D01*
X60317372Y-124574459D01*
X60316630Y-125423815D01*
X54861051Y-125423815D01*
X52739000Y-123301764D01*
X52739000Y-121885167D01*
X78464838Y-121885167D01*
X78606883Y-122228943D01*
X78869673Y-122492192D01*
X79213201Y-122634838D01*
X79293198Y-122634908D01*
X86973145Y-130314855D01*
X87212115Y-130474530D01*
X87258883Y-130483833D01*
X87494000Y-130530601D01*
X87494005Y-130530600D01*
X101014178Y-130530600D01*
X101069673Y-130586192D01*
X101413201Y-130728838D01*
X101785167Y-130729162D01*
X102128943Y-130587117D01*
X102392192Y-130324327D01*
X102534838Y-129980799D01*
X102535153Y-129618809D01*
X104474832Y-129618809D01*
X104616877Y-129962585D01*
X104879667Y-130225834D01*
X105223195Y-130368480D01*
X105303192Y-130368550D01*
X106520298Y-131585656D01*
X106759269Y-131745332D01*
X107041153Y-131801402D01*
X107041158Y-131801401D01*
X119352084Y-131801401D01*
X119349808Y-131803673D01*
X119207162Y-132147201D01*
X119206838Y-132519167D01*
X119348883Y-132862943D01*
X119611673Y-133126192D01*
X119955201Y-133268838D01*
X120327167Y-133269162D01*
X120670943Y-133127117D01*
X120934192Y-132864327D01*
X121076838Y-132520799D01*
X121077162Y-132148833D01*
X120935117Y-131805057D01*
X120931467Y-131801401D01*
X127858009Y-131801401D01*
X128139894Y-131745331D01*
X128378864Y-131585656D01*
X129743426Y-130221094D01*
X129821977Y-130221162D01*
X130165753Y-130079117D01*
X130429002Y-129816327D01*
X130571648Y-129472799D01*
X130571972Y-129100833D01*
X130429927Y-128757057D01*
X130167137Y-128493808D01*
X129823609Y-128351162D01*
X129451643Y-128350838D01*
X129107867Y-128492883D01*
X128844618Y-128755673D01*
X128701972Y-129099201D01*
X128701902Y-129179198D01*
X127552899Y-130328201D01*
X122250296Y-130328201D01*
X122250342Y-130274833D01*
X122108297Y-129931057D01*
X122051780Y-129874441D01*
X122051780Y-125422815D01*
X135364630Y-125422815D01*
X135688980Y-126207800D01*
X136289041Y-126808909D01*
X137073459Y-127134628D01*
X137922815Y-127135370D01*
X138707800Y-126811020D01*
X139308909Y-126210959D01*
X139634628Y-125426541D01*
X139635370Y-124577185D01*
X139311020Y-123792200D01*
X138710959Y-123191091D01*
X137926541Y-122865372D01*
X137077185Y-122864630D01*
X136292200Y-123188980D01*
X135691091Y-123789041D01*
X135365372Y-124573459D01*
X135364630Y-125422815D01*
X122051780Y-125422815D01*
X122051780Y-123085185D01*
X122051781Y-123085180D01*
X121995710Y-122803296D01*
X121995710Y-122803295D01*
X121836035Y-122564325D01*
X120995094Y-121723384D01*
X120995162Y-121644833D01*
X120853117Y-121301057D01*
X120590327Y-121037808D01*
X120246799Y-120895162D01*
X119874833Y-120894838D01*
X119531057Y-121036883D01*
X119267808Y-121299673D01*
X119125162Y-121643201D01*
X119124838Y-122015167D01*
X119266883Y-122358943D01*
X119529673Y-122622192D01*
X119873201Y-122764838D01*
X119953198Y-122764908D01*
X120578580Y-123390290D01*
X120578580Y-129874178D01*
X120522988Y-129929673D01*
X120380342Y-130273201D01*
X120380294Y-130328201D01*
X107346263Y-130328201D01*
X106345088Y-129327026D01*
X106345156Y-129248475D01*
X106203111Y-128904699D01*
X105940321Y-128641450D01*
X105596793Y-128498804D01*
X105224827Y-128498480D01*
X104881051Y-128640525D01*
X104617802Y-128903315D01*
X104475156Y-129246843D01*
X104474832Y-129618809D01*
X102535153Y-129618809D01*
X102535162Y-129608833D01*
X102393117Y-129265057D01*
X102130327Y-129001808D01*
X101786799Y-128859162D01*
X101414833Y-128858838D01*
X101071057Y-129000883D01*
X101014441Y-129057400D01*
X100610672Y-129057400D01*
X100868194Y-128800327D01*
X101010840Y-128456799D01*
X101011160Y-128089173D01*
X101112943Y-128047117D01*
X101376192Y-127784327D01*
X101518838Y-127440799D01*
X101519162Y-127068833D01*
X101377117Y-126725057D01*
X101114327Y-126461808D01*
X100770799Y-126319162D01*
X100398833Y-126318838D01*
X100055057Y-126460883D01*
X99998441Y-126517400D01*
X97790000Y-126517400D01*
X97508115Y-126573470D01*
X97283321Y-126723673D01*
X97269145Y-126733145D01*
X96921384Y-127080906D01*
X96842833Y-127080838D01*
X96499057Y-127222883D01*
X96235808Y-127485673D01*
X96093162Y-127829201D01*
X96092894Y-128136781D01*
X95981808Y-128247673D01*
X95839162Y-128591201D01*
X95838838Y-128963167D01*
X95877774Y-129057400D01*
X87799110Y-129057400D01*
X84165525Y-125423815D01*
X85316630Y-125423815D01*
X85640980Y-126208800D01*
X86241041Y-126809909D01*
X87025459Y-127135628D01*
X87874815Y-127136370D01*
X88659800Y-126812020D01*
X89260909Y-126211959D01*
X89586628Y-125427541D01*
X89586632Y-125422815D01*
X110364630Y-125422815D01*
X110688980Y-126207800D01*
X111289041Y-126808909D01*
X112073459Y-127134628D01*
X112922815Y-127135370D01*
X113707800Y-126811020D01*
X114308909Y-126210959D01*
X114634628Y-125426541D01*
X114635370Y-124577185D01*
X114311020Y-123792200D01*
X113710959Y-123191091D01*
X112926541Y-122865372D01*
X112077185Y-122864630D01*
X111292200Y-123188980D01*
X110691091Y-123789041D01*
X110365372Y-124573459D01*
X110364630Y-125422815D01*
X89586632Y-125422815D01*
X89587370Y-124578185D01*
X89263020Y-123793200D01*
X88662959Y-123192091D01*
X87878541Y-122866372D01*
X87029185Y-122865630D01*
X86244200Y-123189980D01*
X85643091Y-123790041D01*
X85317372Y-124574459D01*
X85316630Y-125423815D01*
X84165525Y-125423815D01*
X80335094Y-121593384D01*
X80335162Y-121514833D01*
X80193117Y-121171057D01*
X79930327Y-120907808D01*
X79586799Y-120765162D01*
X79214833Y-120764838D01*
X78871057Y-120906883D01*
X78607808Y-121169673D01*
X78465162Y-121513201D01*
X78464838Y-121885167D01*
X52739000Y-121885167D01*
X52739000Y-116629000D01*
X61582419Y-116629000D01*
X61739515Y-116786371D01*
G36*
X61789515Y-85306371D02*
X62243266Y-85494785D01*
X62734579Y-85495214D01*
X63188657Y-85307592D01*
X63347526Y-85149000D01*
X86652419Y-85149000D01*
X86809515Y-85306371D01*
X87263266Y-85494785D01*
X87754579Y-85495214D01*
X88208657Y-85307592D01*
X88367526Y-85149000D01*
X96858567Y-85149000D01*
X96855162Y-85157201D01*
X96854929Y-85424849D01*
X96842833Y-85424838D01*
X96499057Y-85566883D01*
X96442441Y-85623400D01*
X89154000Y-85623400D01*
X88872115Y-85679470D01*
X88647321Y-85829673D01*
X88633145Y-85839145D01*
X87871145Y-86601145D01*
X87711470Y-86840115D01*
X87655400Y-87122000D01*
X87655400Y-89863800D01*
X87711470Y-90145685D01*
X87871145Y-90384655D01*
X94266905Y-96780415D01*
X94203569Y-96873110D01*
X94175160Y-97013400D01*
X93063684Y-97013400D01*
X93041782Y-96960392D01*
X92778992Y-96697143D01*
X92435464Y-96554497D01*
X92063498Y-96554173D01*
X91719722Y-96696218D01*
X91632339Y-96783449D01*
X91613094Y-96764204D01*
X91613162Y-96685653D01*
X91471117Y-96341877D01*
X91208327Y-96078628D01*
X90864799Y-95935982D01*
X90492833Y-95935658D01*
X90149057Y-96077703D01*
X89885808Y-96340493D01*
X89809624Y-96523964D01*
X89773461Y-96516771D01*
X89752090Y-96483559D01*
X89539890Y-96338569D01*
X89288000Y-96287560D01*
X88488000Y-96287560D01*
X88252683Y-96331838D01*
X88149354Y-96398329D01*
X88147698Y-96396673D01*
X87914309Y-96300000D01*
X87673750Y-96300000D01*
X87515000Y-96458750D01*
X87515000Y-97183000D01*
X87535000Y-97183000D01*
X87535000Y-97437000D01*
X87515000Y-97437000D01*
X87515000Y-97457000D01*
X87261000Y-97457000D01*
X87261000Y-97437000D01*
X86511750Y-97437000D01*
X86353000Y-97595750D01*
X86353000Y-97811310D01*
X86438862Y-98018600D01*
X79714906Y-98018600D01*
X79400485Y-97703629D01*
X78946734Y-97515215D01*
X78455421Y-97514786D01*
X78096600Y-97663048D01*
X78096600Y-97215822D01*
X78152192Y-97160327D01*
X78294838Y-96816799D01*
X78294845Y-96808690D01*
X86353000Y-96808690D01*
X86353000Y-97024250D01*
X86511750Y-97183000D01*
X87261000Y-97183000D01*
X87261000Y-96458750D01*
X87102250Y-96300000D01*
X86861691Y-96300000D01*
X86628302Y-96396673D01*
X86449673Y-96575301D01*
X86353000Y-96808690D01*
X78294845Y-96808690D01*
X78295162Y-96444833D01*
X78153117Y-96101057D01*
X77890327Y-95837808D01*
X77546799Y-95695162D01*
X77174833Y-95694838D01*
X76831057Y-95836883D01*
X76567808Y-96099673D01*
X76425162Y-96443201D01*
X76424838Y-96815167D01*
X76566883Y-97158943D01*
X76623400Y-97215559D01*
X76623400Y-100664178D01*
X76567808Y-100719673D01*
X76425162Y-101063201D01*
X76424838Y-101435167D01*
X76566883Y-101778943D01*
X76829673Y-102042192D01*
X77173201Y-102184838D01*
X77545167Y-102185162D01*
X77888943Y-102043117D01*
X77916429Y-102015679D01*
X77948750Y-102048000D01*
X78673000Y-102048000D01*
X78673000Y-102028000D01*
X78927000Y-102028000D01*
X78927000Y-102048000D01*
X78947000Y-102048000D01*
X78947000Y-102302000D01*
X78927000Y-102302000D01*
X78927000Y-103051250D01*
X79085750Y-103210000D01*
X79301310Y-103210000D01*
X79534699Y-103113327D01*
X79706363Y-102941662D01*
X79823110Y-103021431D01*
X80075000Y-103072440D01*
X80975000Y-103072440D01*
X81210317Y-103028162D01*
X81306727Y-102966124D01*
X81312130Y-102974521D01*
X81524330Y-103119511D01*
X81776220Y-103170520D01*
X82573780Y-103170520D01*
X82809097Y-103126242D01*
X83025221Y-102987170D01*
X83123255Y-102843691D01*
X83455000Y-102843691D01*
X83455000Y-103134250D01*
X83613750Y-103293000D01*
X84813000Y-103293000D01*
X84813000Y-102493750D01*
X84654250Y-102335000D01*
X83963690Y-102335000D01*
X83730301Y-102431673D01*
X83551673Y-102610302D01*
X83455000Y-102843691D01*
X83123255Y-102843691D01*
X83170211Y-102774970D01*
X83221220Y-102523080D01*
X83221220Y-101725520D01*
X83176942Y-101490203D01*
X83110044Y-101386241D01*
X83112107Y-101384178D01*
X83208780Y-101150789D01*
X83208780Y-100911450D01*
X83050030Y-100752700D01*
X82302000Y-100752700D01*
X82302000Y-100772700D01*
X82048000Y-100772700D01*
X82048000Y-100752700D01*
X82028000Y-100752700D01*
X82028000Y-100498700D01*
X82048000Y-100498700D01*
X82048000Y-100478700D01*
X82302000Y-100478700D01*
X82302000Y-100498700D01*
X83050030Y-100498700D01*
X83208780Y-100339950D01*
X83208780Y-100100611D01*
X83112107Y-99867222D01*
X82933479Y-99688593D01*
X82703663Y-99593400D01*
X83442560Y-99593400D01*
X83442560Y-100470000D01*
X83486838Y-100705317D01*
X83625910Y-100921441D01*
X83838110Y-101066431D01*
X84090000Y-101117440D01*
X85089730Y-101117440D01*
X85877400Y-101905110D01*
X85877400Y-102335000D01*
X85225750Y-102335000D01*
X85067000Y-102493750D01*
X85067000Y-103293000D01*
X85087000Y-103293000D01*
X85087000Y-103547000D01*
X85067000Y-103547000D01*
X85067000Y-103567000D01*
X84813000Y-103567000D01*
X84813000Y-103547000D01*
X83613750Y-103547000D01*
X83455000Y-103705750D01*
X83455000Y-103996309D01*
X83507643Y-104123400D01*
X82015822Y-104123400D01*
X81960327Y-104067808D01*
X81616799Y-103925162D01*
X81244833Y-103924838D01*
X80901057Y-104066883D01*
X80637808Y-104329673D01*
X80495162Y-104673201D01*
X80494838Y-105045167D01*
X80636883Y-105388943D01*
X80899673Y-105652192D01*
X81243201Y-105794838D01*
X81615167Y-105795162D01*
X81958943Y-105653117D01*
X82015559Y-105596600D01*
X86148000Y-105596600D01*
X86429885Y-105540530D01*
X86668855Y-105380855D01*
X86711020Y-105338690D01*
X89875000Y-105338690D01*
X89875000Y-105554250D01*
X90033750Y-105713000D01*
X90783000Y-105713000D01*
X90783000Y-104988750D01*
X90624250Y-104830000D01*
X90383691Y-104830000D01*
X90150302Y-104926673D01*
X89971673Y-105105301D01*
X89875000Y-105338690D01*
X86711020Y-105338690D01*
X87134855Y-104914855D01*
X87294531Y-104675884D01*
X87350601Y-104394000D01*
X87350600Y-104393995D01*
X87350600Y-103138650D01*
X87393000Y-103096250D01*
X87393000Y-102347000D01*
X87373000Y-102347000D01*
X87373000Y-102093000D01*
X87393000Y-102093000D01*
X87393000Y-102073000D01*
X87647000Y-102073000D01*
X87647000Y-102093000D01*
X88371250Y-102093000D01*
X88455000Y-102009250D01*
X88528750Y-102083000D01*
X89253000Y-102083000D01*
X89253000Y-102063000D01*
X89507000Y-102063000D01*
X89507000Y-102083000D01*
X90231250Y-102083000D01*
X90390000Y-101924250D01*
X90390000Y-101683691D01*
X90312836Y-101497400D01*
X91925778Y-101497400D01*
X91992408Y-101658657D01*
X92339515Y-102006371D01*
X92793266Y-102194785D01*
X92824921Y-102194813D01*
X92679808Y-102339673D01*
X92537162Y-102683201D01*
X92537092Y-102763198D01*
X92150890Y-103149400D01*
X90112109Y-103149400D01*
X90114699Y-103148327D01*
X90293327Y-102969698D01*
X90390000Y-102736309D01*
X90390000Y-102495750D01*
X90231250Y-102337000D01*
X89507000Y-102337000D01*
X89507000Y-102357000D01*
X89253000Y-102357000D01*
X89253000Y-102337000D01*
X88528750Y-102337000D01*
X88445000Y-102420750D01*
X88371250Y-102347000D01*
X87647000Y-102347000D01*
X87647000Y-103096250D01*
X87805750Y-103255000D01*
X88021310Y-103255000D01*
X88254699Y-103158327D01*
X88433327Y-102979698D01*
X88452071Y-102934446D01*
X88466673Y-102969698D01*
X88645301Y-103148327D01*
X88771254Y-103200498D01*
X88615808Y-103355673D01*
X88473162Y-103699201D01*
X88472838Y-104071167D01*
X88614883Y-104414943D01*
X88877673Y-104678192D01*
X89221201Y-104820838D01*
X89593167Y-104821162D01*
X89936943Y-104679117D01*
X89993559Y-104622600D01*
X92456000Y-104622600D01*
X92737885Y-104566530D01*
X92976855Y-104406855D01*
X93578616Y-103805094D01*
X93657167Y-103805162D01*
X94000943Y-103663117D01*
X94189709Y-103474680D01*
X94193875Y-103477463D01*
X94495200Y-103537400D01*
X96133848Y-103537400D01*
X96262600Y-103666152D01*
X96262600Y-104548848D01*
X95758848Y-105052600D01*
X93299212Y-105052600D01*
X93274090Y-105013559D01*
X93061890Y-104868569D01*
X92810000Y-104817560D01*
X92010000Y-104817560D01*
X91774683Y-104861838D01*
X91671354Y-104928329D01*
X91669698Y-104926673D01*
X91436309Y-104830000D01*
X91195750Y-104830000D01*
X91037000Y-104988750D01*
X91037000Y-105713000D01*
X91057000Y-105713000D01*
X91057000Y-105967000D01*
X91037000Y-105967000D01*
X91037000Y-106691250D01*
X91195750Y-106850000D01*
X91436309Y-106850000D01*
X91669698Y-106753327D01*
X91671068Y-106751957D01*
X91758110Y-106811431D01*
X92010000Y-106862440D01*
X92810000Y-106862440D01*
X93045317Y-106818162D01*
X93261441Y-106679090D01*
X93296759Y-106627400D01*
X96085000Y-106627400D01*
X96386325Y-106567463D01*
X96641776Y-106396776D01*
X97313400Y-105725152D01*
X97313400Y-105858068D01*
X97171057Y-105916883D01*
X96907808Y-106179673D01*
X96765162Y-106523201D01*
X96764838Y-106895167D01*
X96822580Y-107034914D01*
X96734833Y-107034838D01*
X96391057Y-107176883D01*
X96334441Y-107233400D01*
X76225110Y-107233400D01*
X75613440Y-106621730D01*
X75613440Y-106125750D01*
X89875000Y-106125750D01*
X89875000Y-106341310D01*
X89971673Y-106574699D01*
X90150302Y-106753327D01*
X90383691Y-106850000D01*
X90624250Y-106850000D01*
X90783000Y-106691250D01*
X90783000Y-105967000D01*
X90033750Y-105967000D01*
X89875000Y-106125750D01*
X75613440Y-106125750D01*
X75613440Y-105009000D01*
X75569162Y-104773683D01*
X75430090Y-104557559D01*
X75217890Y-104412569D01*
X74966000Y-104361560D01*
X72934000Y-104361560D01*
X72698683Y-104405838D01*
X72482559Y-104544910D01*
X72371160Y-104707948D01*
X72274818Y-104618615D01*
X71792944Y-104419025D01*
X71537000Y-104538164D01*
X71537000Y-105898000D01*
X71557000Y-105898000D01*
X71557000Y-106152000D01*
X71537000Y-106152000D01*
X71537000Y-107511836D01*
X71792944Y-107630975D01*
X72274818Y-107431385D01*
X72372398Y-107340903D01*
X72469910Y-107492441D01*
X72682110Y-107637431D01*
X72934000Y-107688440D01*
X74596730Y-107688440D01*
X74705279Y-107796989D01*
X73131660Y-107796989D01*
X72849775Y-107853059D01*
X72674761Y-107970000D01*
X72610805Y-108012734D01*
X70450139Y-110173400D01*
X65235822Y-110173400D01*
X65180327Y-110117808D01*
X64836799Y-109975162D01*
X64464833Y-109974838D01*
X64121057Y-110116883D01*
X63857808Y-110379673D01*
X63715162Y-110723201D01*
X63714838Y-111095167D01*
X63856883Y-111438943D01*
X64119673Y-111702192D01*
X64138097Y-111709842D01*
X64121057Y-111716883D01*
X63857808Y-111979673D01*
X63715162Y-112323201D01*
X63714838Y-112695167D01*
X63856883Y-113038943D01*
X64119673Y-113302192D01*
X64463201Y-113444838D01*
X64835167Y-113445162D01*
X65178943Y-113303117D01*
X65442192Y-113040327D01*
X65490572Y-112923815D01*
X72816630Y-112923815D01*
X73140980Y-113708800D01*
X73741041Y-114309909D01*
X74525459Y-114635628D01*
X75374815Y-114636370D01*
X76159800Y-114312020D01*
X76760909Y-113711959D01*
X77086628Y-112927541D01*
X77087370Y-112078185D01*
X76763020Y-111293200D01*
X76162959Y-110692091D01*
X75378541Y-110366372D01*
X74529185Y-110365630D01*
X73744200Y-110689980D01*
X73143091Y-111290041D01*
X72817372Y-112074459D01*
X72816630Y-112923815D01*
X65490572Y-112923815D01*
X65584838Y-112696799D01*
X65584908Y-112616802D01*
X66135110Y-112066600D01*
X70910000Y-112066600D01*
X71191885Y-112010530D01*
X71430855Y-111850855D01*
X73605110Y-109676600D01*
X76114890Y-109676600D01*
X78289145Y-111850855D01*
X78528115Y-112010530D01*
X78810000Y-112066600D01*
X82871690Y-112066600D01*
X83825945Y-113020855D01*
X84064915Y-113180530D01*
X84346800Y-113236600D01*
X84664178Y-113236600D01*
X84719673Y-113292192D01*
X85063201Y-113434838D01*
X85435167Y-113435162D01*
X85778943Y-113293117D01*
X86042192Y-113030327D01*
X86184838Y-112686799D01*
X86185162Y-112314833D01*
X86043117Y-111971057D01*
X85780327Y-111707808D01*
X85761903Y-111700158D01*
X85778943Y-111693117D01*
X86042192Y-111430327D01*
X86184838Y-111086799D01*
X86185162Y-110714833D01*
X86043117Y-110371057D01*
X85780327Y-110107808D01*
X85436799Y-109965162D01*
X85064833Y-109964838D01*
X84721057Y-110106883D01*
X84664441Y-110163400D01*
X79259860Y-110163400D01*
X77803061Y-108706600D01*
X96334178Y-108706600D01*
X96389673Y-108762192D01*
X96482614Y-108800784D01*
X96362061Y-108921337D01*
X96202386Y-109160307D01*
X96146316Y-109442192D01*
X96146316Y-109715105D01*
X95839833Y-109714838D01*
X95496057Y-109856883D01*
X95232808Y-110119673D01*
X95090162Y-110463201D01*
X95089838Y-110835167D01*
X95231883Y-111178943D01*
X95328467Y-111275696D01*
X95343923Y-111353400D01*
X91145110Y-111353400D01*
X90585094Y-110793384D01*
X90585162Y-110714833D01*
X90443117Y-110371057D01*
X90180327Y-110107808D01*
X89836799Y-109965162D01*
X89464833Y-109964838D01*
X89121057Y-110106883D01*
X88857808Y-110369673D01*
X88715162Y-110713201D01*
X88714838Y-111085167D01*
X88856883Y-111428943D01*
X89119673Y-111692192D01*
X89138097Y-111699842D01*
X89121057Y-111706883D01*
X88857808Y-111969673D01*
X88715162Y-112313201D01*
X88714838Y-112685167D01*
X88856883Y-113028943D01*
X89119673Y-113292192D01*
X89463201Y-113434838D01*
X89835167Y-113435162D01*
X90178943Y-113293117D01*
X90235559Y-113236600D01*
X109714178Y-113236600D01*
X109769673Y-113292192D01*
X110113201Y-113434838D01*
X110485167Y-113435162D01*
X110828943Y-113293117D01*
X111092192Y-113030327D01*
X111234838Y-112686799D01*
X111235162Y-112314833D01*
X111093117Y-111971057D01*
X110830327Y-111707808D01*
X110811903Y-111700158D01*
X110828943Y-111693117D01*
X111092192Y-111430327D01*
X111234838Y-111086799D01*
X111235162Y-110714833D01*
X111093117Y-110371057D01*
X110830327Y-110107808D01*
X110486799Y-109965162D01*
X110114833Y-109964838D01*
X109771057Y-110106883D01*
X109507808Y-110369673D01*
X109365162Y-110713201D01*
X109365092Y-110793198D01*
X108804890Y-111353400D01*
X103659624Y-111353400D01*
X103914085Y-111248259D01*
X104177334Y-110985469D01*
X104319980Y-110641941D01*
X104320050Y-110561944D01*
X106675394Y-108206600D01*
X120644178Y-108206600D01*
X120699673Y-108262192D01*
X121043201Y-108404838D01*
X121415167Y-108405162D01*
X121758943Y-108263117D01*
X122022192Y-108000327D01*
X122164838Y-107656799D01*
X122165162Y-107284833D01*
X122047475Y-107000009D01*
X122067192Y-106980327D01*
X122209838Y-106636799D01*
X122209871Y-106598875D01*
X122365974Y-106599011D01*
X122709750Y-106456966D01*
X122972999Y-106194176D01*
X123115645Y-105850648D01*
X123115969Y-105478682D01*
X122973924Y-105134906D01*
X122925702Y-105086600D01*
X125074890Y-105086600D01*
X126544906Y-106556616D01*
X126544838Y-106635167D01*
X126686883Y-106978943D01*
X126949673Y-107242192D01*
X127293201Y-107384838D01*
X127665167Y-107385162D01*
X128008943Y-107243117D01*
X128272192Y-106980327D01*
X128414838Y-106636799D01*
X128415162Y-106264833D01*
X128273117Y-105921057D01*
X128010327Y-105657808D01*
X127666799Y-105515162D01*
X127586802Y-105515092D01*
X125900855Y-103829145D01*
X125661885Y-103669470D01*
X125380000Y-103613400D01*
X103306145Y-103613400D01*
X103280672Y-103478025D01*
X103500000Y-103522440D01*
X104800000Y-103522440D01*
X105035317Y-103478162D01*
X105251441Y-103339090D01*
X105396431Y-103126890D01*
X105447440Y-102875000D01*
X105447440Y-102625000D01*
X105423056Y-102495411D01*
X105424840Y-102486600D01*
X108247010Y-102486600D01*
X108309673Y-102549372D01*
X108653201Y-102692018D01*
X109025167Y-102692342D01*
X109368943Y-102550297D01*
X109632192Y-102287507D01*
X109774838Y-101943979D01*
X109775162Y-101572013D01*
X109633117Y-101228237D01*
X109370327Y-100964988D01*
X109026799Y-100822342D01*
X108654833Y-100822018D01*
X108311057Y-100964063D01*
X108261634Y-101013400D01*
X105426441Y-101013400D01*
X105423056Y-100995411D01*
X105447440Y-100875000D01*
X105447440Y-100625000D01*
X105423056Y-100495411D01*
X105424840Y-100486600D01*
X112144890Y-100486600D01*
X112348906Y-100690616D01*
X112348838Y-100769167D01*
X112490883Y-101112943D01*
X112753673Y-101376192D01*
X113097201Y-101518838D01*
X113469167Y-101519162D01*
X113812943Y-101377117D01*
X114076192Y-101114327D01*
X114218838Y-100770799D01*
X114219162Y-100398833D01*
X114197415Y-100346201D01*
X114274271Y-100314445D01*
X114537520Y-100051655D01*
X114680166Y-99708127D01*
X114680359Y-99486600D01*
X122574890Y-99486600D01*
X127588906Y-104500616D01*
X127588838Y-104579167D01*
X127730883Y-104922943D01*
X127993673Y-105186192D01*
X128337201Y-105328838D01*
X128701880Y-105329156D01*
X128701648Y-105595167D01*
X128843693Y-105938943D01*
X129106483Y-106202192D01*
X129450011Y-106344838D01*
X129821977Y-106345162D01*
X130165753Y-106203117D01*
X130429002Y-105940327D01*
X130571648Y-105596799D01*
X130571972Y-105224833D01*
X130519132Y-105096949D01*
X130763167Y-105097162D01*
X131106943Y-104955117D01*
X131353390Y-104709100D01*
X136158599Y-109514309D01*
X136158599Y-110529536D01*
X136093117Y-110371057D01*
X135830327Y-110107808D01*
X135486799Y-109965162D01*
X135114833Y-109964838D01*
X134771057Y-110106883D01*
X134714441Y-110163400D01*
X129645110Y-110163400D01*
X127454444Y-107972734D01*
X127215474Y-107813059D01*
X126933589Y-107756989D01*
X123026411Y-107756989D01*
X122744526Y-107813059D01*
X122505556Y-107972734D01*
X120314890Y-110163400D01*
X115285822Y-110163400D01*
X115230327Y-110107808D01*
X114886799Y-109965162D01*
X114514833Y-109964838D01*
X114171057Y-110106883D01*
X113907808Y-110369673D01*
X113765162Y-110713201D01*
X113764838Y-111085167D01*
X113906883Y-111428943D01*
X114169673Y-111692192D01*
X114188097Y-111699842D01*
X114171057Y-111706883D01*
X113907808Y-111969673D01*
X113765162Y-112313201D01*
X113764838Y-112685167D01*
X113906883Y-113028943D01*
X114169673Y-113292192D01*
X114513201Y-113434838D01*
X114885167Y-113435162D01*
X115228943Y-113293117D01*
X115492192Y-113030327D01*
X115536835Y-112922815D01*
X122864630Y-112922815D01*
X123188980Y-113707800D01*
X123789041Y-114308909D01*
X124573459Y-114634628D01*
X125422815Y-114635370D01*
X126207800Y-114311020D01*
X126808909Y-113710959D01*
X127134628Y-112926541D01*
X127135370Y-112077185D01*
X126811020Y-111292200D01*
X126210959Y-110691091D01*
X125426541Y-110365372D01*
X124577185Y-110364630D01*
X123792200Y-110688980D01*
X123191091Y-111289041D01*
X122865372Y-112073459D01*
X122864630Y-112922815D01*
X115536835Y-112922815D01*
X115634838Y-112686799D01*
X115634908Y-112606802D01*
X116165110Y-112076600D01*
X120754750Y-112076600D01*
X121036635Y-112020530D01*
X121275605Y-111860855D01*
X123499860Y-109636600D01*
X126460140Y-109636600D01*
X128664395Y-111840855D01*
X128903365Y-112000530D01*
X129185250Y-112056600D01*
X132911690Y-112056600D01*
X133875945Y-113020855D01*
X134114915Y-113180530D01*
X134396800Y-113236600D01*
X134714178Y-113236600D01*
X134769673Y-113292192D01*
X135113201Y-113434838D01*
X135485167Y-113435162D01*
X135828943Y-113293117D01*
X136092192Y-113030327D01*
X136158599Y-112870402D01*
X136158599Y-113476089D01*
X135055288Y-114579400D01*
X127254000Y-114579400D01*
X126974593Y-114634977D01*
X126814833Y-114634838D01*
X126471057Y-114776883D01*
X126207808Y-115039673D01*
X126065162Y-115383201D01*
X126065103Y-115450999D01*
X113756859Y-115450999D01*
X113587592Y-115041343D01*
X113240485Y-114693629D01*
X112786734Y-114505215D01*
X112295421Y-114504786D01*
X111841343Y-114692408D01*
X111682474Y-114851000D01*
X88307581Y-114851000D01*
X88150485Y-114693629D01*
X87696734Y-114505215D01*
X87205421Y-114504786D01*
X86751343Y-114692408D01*
X86592474Y-114851000D01*
X63297581Y-114851000D01*
X63140485Y-114693629D01*
X62686734Y-114505215D01*
X62195421Y-114504786D01*
X61741343Y-114692408D01*
X61582474Y-114851000D01*
X53058236Y-114851000D01*
X52739000Y-114531764D01*
X52739000Y-107801552D01*
X52934000Y-107841040D01*
X54966000Y-107841040D01*
X55201317Y-107796762D01*
X55417441Y-107657690D01*
X55562431Y-107445490D01*
X55613440Y-107193600D01*
X55613440Y-105466400D01*
X55569162Y-105231083D01*
X55430090Y-105014959D01*
X55217890Y-104869969D01*
X55176561Y-104861600D01*
X55194415Y-104849670D01*
X55519271Y-104363489D01*
X55633345Y-103790000D01*
X55519271Y-103216511D01*
X55194415Y-102730330D01*
X54879634Y-102520000D01*
X55194415Y-102309670D01*
X55519271Y-101823489D01*
X55633345Y-101250000D01*
X55519271Y-100676511D01*
X55194415Y-100190330D01*
X54879634Y-99980000D01*
X55194415Y-99769670D01*
X55519271Y-99283489D01*
X55633345Y-98710000D01*
X55519271Y-98136511D01*
X55194415Y-97650330D01*
X54879634Y-97440000D01*
X55194415Y-97229670D01*
X55519271Y-96743489D01*
X55633345Y-96170000D01*
X55519271Y-95596511D01*
X55194415Y-95110330D01*
X54884931Y-94903539D01*
X55300732Y-94532036D01*
X55554709Y-94004791D01*
X55557358Y-93989026D01*
X55436217Y-93757000D01*
X54077000Y-93757000D01*
X54077000Y-93777000D01*
X53823000Y-93777000D01*
X53823000Y-93757000D01*
X53803000Y-93757000D01*
X53803000Y-93503000D01*
X53823000Y-93503000D01*
X53823000Y-92289076D01*
X54077000Y-92289076D01*
X54077000Y-93503000D01*
X55436217Y-93503000D01*
X55557358Y-93270974D01*
X55554709Y-93255209D01*
X55300732Y-92727964D01*
X54864320Y-92338046D01*
X54311913Y-92144816D01*
X54077000Y-92289076D01*
X53823000Y-92289076D01*
X53588087Y-92144816D01*
X53035680Y-92338046D01*
X52739000Y-92603119D01*
X52739000Y-88403200D01*
X58610200Y-88403200D01*
X58610200Y-111656800D01*
X58666270Y-111938685D01*
X58825945Y-112177655D01*
X59314863Y-112666573D01*
X59314838Y-112695167D01*
X59456883Y-113038943D01*
X59719673Y-113302192D01*
X60063201Y-113444838D01*
X60435167Y-113445162D01*
X60778943Y-113303117D01*
X61042192Y-113040327D01*
X61184838Y-112696799D01*
X61185162Y-112324833D01*
X61043117Y-111981057D01*
X60780327Y-111717808D01*
X60761903Y-111710158D01*
X60778943Y-111703117D01*
X61042192Y-111440327D01*
X61184838Y-111096799D01*
X61185162Y-110724833D01*
X61043117Y-110381057D01*
X61036600Y-110374529D01*
X61036600Y-106407946D01*
X69804017Y-106407946D01*
X70072812Y-106993379D01*
X70545182Y-107431385D01*
X71027056Y-107630975D01*
X71283000Y-107511836D01*
X71283000Y-106152000D01*
X69922633Y-106152000D01*
X69804017Y-106407946D01*
X61036600Y-106407946D01*
X61036600Y-105642054D01*
X69804017Y-105642054D01*
X69922633Y-105898000D01*
X71283000Y-105898000D01*
X71283000Y-104538164D01*
X71027056Y-104419025D01*
X70545182Y-104618615D01*
X70072812Y-105056621D01*
X69804017Y-105642054D01*
X61036600Y-105642054D01*
X61036600Y-104325177D01*
X67898838Y-104325177D01*
X68040883Y-104668953D01*
X68303673Y-104932202D01*
X68647201Y-105074848D01*
X69019167Y-105075172D01*
X69362943Y-104933127D01*
X69626192Y-104670337D01*
X69768838Y-104326809D01*
X69769162Y-103954843D01*
X69627117Y-103611067D01*
X69570600Y-103554451D01*
X69570600Y-103513177D01*
X70724838Y-103513177D01*
X70866883Y-103856953D01*
X71129673Y-104120202D01*
X71473201Y-104262848D01*
X71845167Y-104263172D01*
X72188943Y-104121127D01*
X72452192Y-103858337D01*
X72577836Y-103555753D01*
X72793076Y-103645129D01*
X73165042Y-103645453D01*
X73508818Y-103503408D01*
X73772067Y-103240618D01*
X73914713Y-102897090D01*
X73915037Y-102525124D01*
X73888439Y-102460750D01*
X77790000Y-102460750D01*
X77790000Y-102701309D01*
X77886673Y-102934698D01*
X78065301Y-103113327D01*
X78298690Y-103210000D01*
X78514250Y-103210000D01*
X78673000Y-103051250D01*
X78673000Y-102302000D01*
X77948750Y-102302000D01*
X77790000Y-102460750D01*
X73888439Y-102460750D01*
X73772992Y-102181348D01*
X73716600Y-102124858D01*
X73716600Y-97395822D01*
X73772192Y-97340327D01*
X73914838Y-96996799D01*
X73915162Y-96624833D01*
X73773117Y-96281057D01*
X73510327Y-96017808D01*
X73166799Y-95875162D01*
X72794833Y-95874838D01*
X72451057Y-96016883D01*
X72325037Y-96142683D01*
X72230327Y-96047808D01*
X71886799Y-95905162D01*
X71514833Y-95904838D01*
X71171057Y-96046883D01*
X70907808Y-96309673D01*
X70765162Y-96653201D01*
X70764838Y-97025167D01*
X70906883Y-97368943D01*
X70963400Y-97425559D01*
X70963400Y-102702258D01*
X70867808Y-102797683D01*
X70725162Y-103141211D01*
X70724838Y-103513177D01*
X69570600Y-103513177D01*
X69570600Y-96317110D01*
X70663110Y-95224600D01*
X79678178Y-95224600D01*
X79733673Y-95280192D01*
X80077201Y-95422838D01*
X80449167Y-95423162D01*
X80792943Y-95281117D01*
X81056192Y-95018327D01*
X81198838Y-94674799D01*
X81199162Y-94302833D01*
X81057117Y-93959057D01*
X80794327Y-93695808D01*
X80450799Y-93553162D01*
X80078833Y-93552838D01*
X79735057Y-93694883D01*
X79678441Y-93751400D01*
X70358000Y-93751400D01*
X70076115Y-93807470D01*
X69837145Y-93967145D01*
X68313145Y-95491145D01*
X68153470Y-95730115D01*
X68097400Y-96012000D01*
X68097400Y-103554188D01*
X68041808Y-103609683D01*
X67899162Y-103953211D01*
X67898838Y-104325177D01*
X61036600Y-104325177D01*
X61036600Y-89685822D01*
X61092192Y-89630327D01*
X61234838Y-89286799D01*
X61235162Y-88914833D01*
X61093117Y-88571057D01*
X60830327Y-88307808D01*
X60811903Y-88300158D01*
X60828943Y-88293117D01*
X61092192Y-88030327D01*
X61234838Y-87686799D01*
X61234839Y-87685167D01*
X63764838Y-87685167D01*
X63906883Y-88028943D01*
X64169673Y-88292192D01*
X64188097Y-88299842D01*
X64171057Y-88306883D01*
X63907808Y-88569673D01*
X63765162Y-88913201D01*
X63764838Y-89285167D01*
X63906883Y-89628943D01*
X64169673Y-89892192D01*
X64513201Y-90034838D01*
X64885167Y-90035162D01*
X65228943Y-89893117D01*
X65285559Y-89836600D01*
X70764890Y-89836600D01*
X72775555Y-91847266D01*
X73014525Y-92006941D01*
X73296410Y-92063011D01*
X76588340Y-92063011D01*
X76870225Y-92006941D01*
X77109195Y-91847266D01*
X79119860Y-89836600D01*
X84714178Y-89836600D01*
X84769673Y-89892192D01*
X85113201Y-90034838D01*
X85485167Y-90035162D01*
X85828943Y-89893117D01*
X86092192Y-89630327D01*
X86234838Y-89286799D01*
X86235162Y-88914833D01*
X86093117Y-88571057D01*
X85830327Y-88307808D01*
X85811903Y-88300158D01*
X85828943Y-88293117D01*
X86092192Y-88030327D01*
X86234838Y-87686799D01*
X86235162Y-87314833D01*
X86093117Y-86971057D01*
X85830327Y-86707808D01*
X85486799Y-86565162D01*
X85114833Y-86564838D01*
X84771057Y-86706883D01*
X84507808Y-86969673D01*
X84365162Y-87313201D01*
X84365092Y-87393198D01*
X83844890Y-87913400D01*
X78690000Y-87913400D01*
X78408115Y-87969470D01*
X78303353Y-88039470D01*
X78169145Y-88129145D01*
X76114890Y-90183400D01*
X73769860Y-90183400D01*
X71735605Y-88149145D01*
X71496635Y-87989470D01*
X71214750Y-87933400D01*
X67078310Y-87933400D01*
X67067725Y-87922815D01*
X72864630Y-87922815D01*
X73188980Y-88707800D01*
X73789041Y-89308909D01*
X74573459Y-89634628D01*
X75422815Y-89635370D01*
X76207800Y-89311020D01*
X76808909Y-88710959D01*
X77134628Y-87926541D01*
X77135370Y-87077185D01*
X76811020Y-86292200D01*
X76210959Y-85691091D01*
X75426541Y-85365372D01*
X74577185Y-85364630D01*
X73792200Y-85688980D01*
X73191091Y-86289041D01*
X72865372Y-87073459D01*
X72864630Y-87922815D01*
X67067725Y-87922815D01*
X66124055Y-86979145D01*
X65885085Y-86819470D01*
X65603200Y-86763400D01*
X65285822Y-86763400D01*
X65230327Y-86707808D01*
X64886799Y-86565162D01*
X64514833Y-86564838D01*
X64171057Y-86706883D01*
X63907808Y-86969673D01*
X63765162Y-87313201D01*
X63764838Y-87685167D01*
X61234839Y-87685167D01*
X61235162Y-87314833D01*
X61093117Y-86971057D01*
X60830327Y-86707808D01*
X60486799Y-86565162D01*
X60114833Y-86564838D01*
X59771057Y-86706883D01*
X59507808Y-86969673D01*
X59365162Y-87313201D01*
X59365136Y-87343154D01*
X58825945Y-87882345D01*
X58666270Y-88121315D01*
X58610200Y-88403200D01*
X52739000Y-88403200D01*
X52739000Y-85368236D01*
X52958236Y-85149000D01*
X61632419Y-85149000D01*
X61789515Y-85306371D01*
X61789515Y-85306371D01*
G37*
X61789515Y-85306371D02*
X62243266Y-85494785D01*
X62734579Y-85495214D01*
X63188657Y-85307592D01*
X63347526Y-85149000D01*
X86652419Y-85149000D01*
X86809515Y-85306371D01*
X87263266Y-85494785D01*
X87754579Y-85495214D01*
X88208657Y-85307592D01*
X88367526Y-85149000D01*
X96858567Y-85149000D01*
X96855162Y-85157201D01*
X96854929Y-85424849D01*
X96842833Y-85424838D01*
X96499057Y-85566883D01*
X96442441Y-85623400D01*
X89154000Y-85623400D01*
X88872115Y-85679470D01*
X88647321Y-85829673D01*
X88633145Y-85839145D01*
X87871145Y-86601145D01*
X87711470Y-86840115D01*
X87655400Y-87122000D01*
X87655400Y-89863800D01*
X87711470Y-90145685D01*
X87871145Y-90384655D01*
X94266905Y-96780415D01*
X94203569Y-96873110D01*
X94175160Y-97013400D01*
X93063684Y-97013400D01*
X93041782Y-96960392D01*
X92778992Y-96697143D01*
X92435464Y-96554497D01*
X92063498Y-96554173D01*
X91719722Y-96696218D01*
X91632339Y-96783449D01*
X91613094Y-96764204D01*
X91613162Y-96685653D01*
X91471117Y-96341877D01*
X91208327Y-96078628D01*
X90864799Y-95935982D01*
X90492833Y-95935658D01*
X90149057Y-96077703D01*
X89885808Y-96340493D01*
X89809624Y-96523964D01*
X89773461Y-96516771D01*
X89752090Y-96483559D01*
X89539890Y-96338569D01*
X89288000Y-96287560D01*
X88488000Y-96287560D01*
X88252683Y-96331838D01*
X88149354Y-96398329D01*
X88147698Y-96396673D01*
X87914309Y-96300000D01*
X87673750Y-96300000D01*
X87515000Y-96458750D01*
X87515000Y-97183000D01*
X87535000Y-97183000D01*
X87535000Y-97437000D01*
X87515000Y-97437000D01*
X87515000Y-97457000D01*
X87261000Y-97457000D01*
X87261000Y-97437000D01*
X86511750Y-97437000D01*
X86353000Y-97595750D01*
X86353000Y-97811310D01*
X86438862Y-98018600D01*
X79714906Y-98018600D01*
X79400485Y-97703629D01*
X78946734Y-97515215D01*
X78455421Y-97514786D01*
X78096600Y-97663048D01*
X78096600Y-97215822D01*
X78152192Y-97160327D01*
X78294838Y-96816799D01*
X78294845Y-96808690D01*
X86353000Y-96808690D01*
X86353000Y-97024250D01*
X86511750Y-97183000D01*
X87261000Y-97183000D01*
X87261000Y-96458750D01*
X87102250Y-96300000D01*
X86861691Y-96300000D01*
X86628302Y-96396673D01*
X86449673Y-96575301D01*
X86353000Y-96808690D01*
X78294845Y-96808690D01*
X78295162Y-96444833D01*
X78153117Y-96101057D01*
X77890327Y-95837808D01*
X77546799Y-95695162D01*
X77174833Y-95694838D01*
X76831057Y-95836883D01*
X76567808Y-96099673D01*
X76425162Y-96443201D01*
X76424838Y-96815167D01*
X76566883Y-97158943D01*
X76623400Y-97215559D01*
X76623400Y-100664178D01*
X76567808Y-100719673D01*
X76425162Y-101063201D01*
X76424838Y-101435167D01*
X76566883Y-101778943D01*
X76829673Y-102042192D01*
X77173201Y-102184838D01*
X77545167Y-102185162D01*
X77888943Y-102043117D01*
X77916429Y-102015679D01*
X77948750Y-102048000D01*
X78673000Y-102048000D01*
X78673000Y-102028000D01*
X78927000Y-102028000D01*
X78927000Y-102048000D01*
X78947000Y-102048000D01*
X78947000Y-102302000D01*
X78927000Y-102302000D01*
X78927000Y-103051250D01*
X79085750Y-103210000D01*
X79301310Y-103210000D01*
X79534699Y-103113327D01*
X79706363Y-102941662D01*
X79823110Y-103021431D01*
X80075000Y-103072440D01*
X80975000Y-103072440D01*
X81210317Y-103028162D01*
X81306727Y-102966124D01*
X81312130Y-102974521D01*
X81524330Y-103119511D01*
X81776220Y-103170520D01*
X82573780Y-103170520D01*
X82809097Y-103126242D01*
X83025221Y-102987170D01*
X83123255Y-102843691D01*
X83455000Y-102843691D01*
X83455000Y-103134250D01*
X83613750Y-103293000D01*
X84813000Y-103293000D01*
X84813000Y-102493750D01*
X84654250Y-102335000D01*
X83963690Y-102335000D01*
X83730301Y-102431673D01*
X83551673Y-102610302D01*
X83455000Y-102843691D01*
X83123255Y-102843691D01*
X83170211Y-102774970D01*
X83221220Y-102523080D01*
X83221220Y-101725520D01*
X83176942Y-101490203D01*
X83110044Y-101386241D01*
X83112107Y-101384178D01*
X83208780Y-101150789D01*
X83208780Y-100911450D01*
X83050030Y-100752700D01*
X82302000Y-100752700D01*
X82302000Y-100772700D01*
X82048000Y-100772700D01*
X82048000Y-100752700D01*
X82028000Y-100752700D01*
X82028000Y-100498700D01*
X82048000Y-100498700D01*
X82048000Y-100478700D01*
X82302000Y-100478700D01*
X82302000Y-100498700D01*
X83050030Y-100498700D01*
X83208780Y-100339950D01*
X83208780Y-100100611D01*
X83112107Y-99867222D01*
X82933479Y-99688593D01*
X82703663Y-99593400D01*
X83442560Y-99593400D01*
X83442560Y-100470000D01*
X83486838Y-100705317D01*
X83625910Y-100921441D01*
X83838110Y-101066431D01*
X84090000Y-101117440D01*
X85089730Y-101117440D01*
X85877400Y-101905110D01*
X85877400Y-102335000D01*
X85225750Y-102335000D01*
X85067000Y-102493750D01*
X85067000Y-103293000D01*
X85087000Y-103293000D01*
X85087000Y-103547000D01*
X85067000Y-103547000D01*
X85067000Y-103567000D01*
X84813000Y-103567000D01*
X84813000Y-103547000D01*
X83613750Y-103547000D01*
X83455000Y-103705750D01*
X83455000Y-103996309D01*
X83507643Y-104123400D01*
X82015822Y-104123400D01*
X81960327Y-104067808D01*
X81616799Y-103925162D01*
X81244833Y-103924838D01*
X80901057Y-104066883D01*
X80637808Y-104329673D01*
X80495162Y-104673201D01*
X80494838Y-105045167D01*
X80636883Y-105388943D01*
X80899673Y-105652192D01*
X81243201Y-105794838D01*
X81615167Y-105795162D01*
X81958943Y-105653117D01*
X82015559Y-105596600D01*
X86148000Y-105596600D01*
X86429885Y-105540530D01*
X86668855Y-105380855D01*
X86711020Y-105338690D01*
X89875000Y-105338690D01*
X89875000Y-105554250D01*
X90033750Y-105713000D01*
X90783000Y-105713000D01*
X90783000Y-104988750D01*
X90624250Y-104830000D01*
X90383691Y-104830000D01*
X90150302Y-104926673D01*
X89971673Y-105105301D01*
X89875000Y-105338690D01*
X86711020Y-105338690D01*
X87134855Y-104914855D01*
X87294531Y-104675884D01*
X87350601Y-104394000D01*
X87350600Y-104393995D01*
X87350600Y-103138650D01*
X87393000Y-103096250D01*
X87393000Y-102347000D01*
X87373000Y-102347000D01*
X87373000Y-102093000D01*
X87393000Y-102093000D01*
X87393000Y-102073000D01*
X87647000Y-102073000D01*
X87647000Y-102093000D01*
X88371250Y-102093000D01*
X88455000Y-102009250D01*
X88528750Y-102083000D01*
X89253000Y-102083000D01*
X89253000Y-102063000D01*
X89507000Y-102063000D01*
X89507000Y-102083000D01*
X90231250Y-102083000D01*
X90390000Y-101924250D01*
X90390000Y-101683691D01*
X90312836Y-101497400D01*
X91925778Y-101497400D01*
X91992408Y-101658657D01*
X92339515Y-102006371D01*
X92793266Y-102194785D01*
X92824921Y-102194813D01*
X92679808Y-102339673D01*
X92537162Y-102683201D01*
X92537092Y-102763198D01*
X92150890Y-103149400D01*
X90112109Y-103149400D01*
X90114699Y-103148327D01*
X90293327Y-102969698D01*
X90390000Y-102736309D01*
X90390000Y-102495750D01*
X90231250Y-102337000D01*
X89507000Y-102337000D01*
X89507000Y-102357000D01*
X89253000Y-102357000D01*
X89253000Y-102337000D01*
X88528750Y-102337000D01*
X88445000Y-102420750D01*
X88371250Y-102347000D01*
X87647000Y-102347000D01*
X87647000Y-103096250D01*
X87805750Y-103255000D01*
X88021310Y-103255000D01*
X88254699Y-103158327D01*
X88433327Y-102979698D01*
X88452071Y-102934446D01*
X88466673Y-102969698D01*
X88645301Y-103148327D01*
X88771254Y-103200498D01*
X88615808Y-103355673D01*
X88473162Y-103699201D01*
X88472838Y-104071167D01*
X88614883Y-104414943D01*
X88877673Y-104678192D01*
X89221201Y-104820838D01*
X89593167Y-104821162D01*
X89936943Y-104679117D01*
X89993559Y-104622600D01*
X92456000Y-104622600D01*
X92737885Y-104566530D01*
X92976855Y-104406855D01*
X93578616Y-103805094D01*
X93657167Y-103805162D01*
X94000943Y-103663117D01*
X94189709Y-103474680D01*
X94193875Y-103477463D01*
X94495200Y-103537400D01*
X96133848Y-103537400D01*
X96262600Y-103666152D01*
X96262600Y-104548848D01*
X95758848Y-105052600D01*
X93299212Y-105052600D01*
X93274090Y-105013559D01*
X93061890Y-104868569D01*
X92810000Y-104817560D01*
X92010000Y-104817560D01*
X91774683Y-104861838D01*
X91671354Y-104928329D01*
X91669698Y-104926673D01*
X91436309Y-104830000D01*
X91195750Y-104830000D01*
X91037000Y-104988750D01*
X91037000Y-105713000D01*
X91057000Y-105713000D01*
X91057000Y-105967000D01*
X91037000Y-105967000D01*
X91037000Y-106691250D01*
X91195750Y-106850000D01*
X91436309Y-106850000D01*
X91669698Y-106753327D01*
X91671068Y-106751957D01*
X91758110Y-106811431D01*
X92010000Y-106862440D01*
X92810000Y-106862440D01*
X93045317Y-106818162D01*
X93261441Y-106679090D01*
X93296759Y-106627400D01*
X96085000Y-106627400D01*
X96386325Y-106567463D01*
X96641776Y-106396776D01*
X97313400Y-105725152D01*
X97313400Y-105858068D01*
X97171057Y-105916883D01*
X96907808Y-106179673D01*
X96765162Y-106523201D01*
X96764838Y-106895167D01*
X96822580Y-107034914D01*
X96734833Y-107034838D01*
X96391057Y-107176883D01*
X96334441Y-107233400D01*
X76225110Y-107233400D01*
X75613440Y-106621730D01*
X75613440Y-106125750D01*
X89875000Y-106125750D01*
X89875000Y-106341310D01*
X89971673Y-106574699D01*
X90150302Y-106753327D01*
X90383691Y-106850000D01*
X90624250Y-106850000D01*
X90783000Y-106691250D01*
X90783000Y-105967000D01*
X90033750Y-105967000D01*
X89875000Y-106125750D01*
X75613440Y-106125750D01*
X75613440Y-105009000D01*
X75569162Y-104773683D01*
X75430090Y-104557559D01*
X75217890Y-104412569D01*
X74966000Y-104361560D01*
X72934000Y-104361560D01*
X72698683Y-104405838D01*
X72482559Y-104544910D01*
X72371160Y-104707948D01*
X72274818Y-104618615D01*
X71792944Y-104419025D01*
X71537000Y-104538164D01*
X71537000Y-105898000D01*
X71557000Y-105898000D01*
X71557000Y-106152000D01*
X71537000Y-106152000D01*
X71537000Y-107511836D01*
X71792944Y-107630975D01*
X72274818Y-107431385D01*
X72372398Y-107340903D01*
X72469910Y-107492441D01*
X72682110Y-107637431D01*
X72934000Y-107688440D01*
X74596730Y-107688440D01*
X74705279Y-107796989D01*
X73131660Y-107796989D01*
X72849775Y-107853059D01*
X72674761Y-107970000D01*
X72610805Y-108012734D01*
X70450139Y-110173400D01*
X65235822Y-110173400D01*
X65180327Y-110117808D01*
X64836799Y-109975162D01*
X64464833Y-109974838D01*
X64121057Y-110116883D01*
X63857808Y-110379673D01*
X63715162Y-110723201D01*
X63714838Y-111095167D01*
X63856883Y-111438943D01*
X64119673Y-111702192D01*
X64138097Y-111709842D01*
X64121057Y-111716883D01*
X63857808Y-111979673D01*
X63715162Y-112323201D01*
X63714838Y-112695167D01*
X63856883Y-113038943D01*
X64119673Y-113302192D01*
X64463201Y-113444838D01*
X64835167Y-113445162D01*
X65178943Y-113303117D01*
X65442192Y-113040327D01*
X65490572Y-112923815D01*
X72816630Y-112923815D01*
X73140980Y-113708800D01*
X73741041Y-114309909D01*
X74525459Y-114635628D01*
X75374815Y-114636370D01*
X76159800Y-114312020D01*
X76760909Y-113711959D01*
X77086628Y-112927541D01*
X77087370Y-112078185D01*
X76763020Y-111293200D01*
X76162959Y-110692091D01*
X75378541Y-110366372D01*
X74529185Y-110365630D01*
X73744200Y-110689980D01*
X73143091Y-111290041D01*
X72817372Y-112074459D01*
X72816630Y-112923815D01*
X65490572Y-112923815D01*
X65584838Y-112696799D01*
X65584908Y-112616802D01*
X66135110Y-112066600D01*
X70910000Y-112066600D01*
X71191885Y-112010530D01*
X71430855Y-111850855D01*
X73605110Y-109676600D01*
X76114890Y-109676600D01*
X78289145Y-111850855D01*
X78528115Y-112010530D01*
X78810000Y-112066600D01*
X82871690Y-112066600D01*
X83825945Y-113020855D01*
X84064915Y-113180530D01*
X84346800Y-113236600D01*
X84664178Y-113236600D01*
X84719673Y-113292192D01*
X85063201Y-113434838D01*
X85435167Y-113435162D01*
X85778943Y-113293117D01*
X86042192Y-113030327D01*
X86184838Y-112686799D01*
X86185162Y-112314833D01*
X86043117Y-111971057D01*
X85780327Y-111707808D01*
X85761903Y-111700158D01*
X85778943Y-111693117D01*
X86042192Y-111430327D01*
X86184838Y-111086799D01*
X86185162Y-110714833D01*
X86043117Y-110371057D01*
X85780327Y-110107808D01*
X85436799Y-109965162D01*
X85064833Y-109964838D01*
X84721057Y-110106883D01*
X84664441Y-110163400D01*
X79259860Y-110163400D01*
X77803061Y-108706600D01*
X96334178Y-108706600D01*
X96389673Y-108762192D01*
X96482614Y-108800784D01*
X96362061Y-108921337D01*
X96202386Y-109160307D01*
X96146316Y-109442192D01*
X96146316Y-109715105D01*
X95839833Y-109714838D01*
X95496057Y-109856883D01*
X95232808Y-110119673D01*
X95090162Y-110463201D01*
X95089838Y-110835167D01*
X95231883Y-111178943D01*
X95328467Y-111275696D01*
X95343923Y-111353400D01*
X91145110Y-111353400D01*
X90585094Y-110793384D01*
X90585162Y-110714833D01*
X90443117Y-110371057D01*
X90180327Y-110107808D01*
X89836799Y-109965162D01*
X89464833Y-109964838D01*
X89121057Y-110106883D01*
X88857808Y-110369673D01*
X88715162Y-110713201D01*
X88714838Y-111085167D01*
X88856883Y-111428943D01*
X89119673Y-111692192D01*
X89138097Y-111699842D01*
X89121057Y-111706883D01*
X88857808Y-111969673D01*
X88715162Y-112313201D01*
X88714838Y-112685167D01*
X88856883Y-113028943D01*
X89119673Y-113292192D01*
X89463201Y-113434838D01*
X89835167Y-113435162D01*
X90178943Y-113293117D01*
X90235559Y-113236600D01*
X109714178Y-113236600D01*
X109769673Y-113292192D01*
X110113201Y-113434838D01*
X110485167Y-113435162D01*
X110828943Y-113293117D01*
X111092192Y-113030327D01*
X111234838Y-112686799D01*
X111235162Y-112314833D01*
X111093117Y-111971057D01*
X110830327Y-111707808D01*
X110811903Y-111700158D01*
X110828943Y-111693117D01*
X111092192Y-111430327D01*
X111234838Y-111086799D01*
X111235162Y-110714833D01*
X111093117Y-110371057D01*
X110830327Y-110107808D01*
X110486799Y-109965162D01*
X110114833Y-109964838D01*
X109771057Y-110106883D01*
X109507808Y-110369673D01*
X109365162Y-110713201D01*
X109365092Y-110793198D01*
X108804890Y-111353400D01*
X103659624Y-111353400D01*
X103914085Y-111248259D01*
X104177334Y-110985469D01*
X104319980Y-110641941D01*
X104320050Y-110561944D01*
X106675394Y-108206600D01*
X120644178Y-108206600D01*
X120699673Y-108262192D01*
X121043201Y-108404838D01*
X121415167Y-108405162D01*
X121758943Y-108263117D01*
X122022192Y-108000327D01*
X122164838Y-107656799D01*
X122165162Y-107284833D01*
X122047475Y-107000009D01*
X122067192Y-106980327D01*
X122209838Y-106636799D01*
X122209871Y-106598875D01*
X122365974Y-106599011D01*
X122709750Y-106456966D01*
X122972999Y-106194176D01*
X123115645Y-105850648D01*
X123115969Y-105478682D01*
X122973924Y-105134906D01*
X122925702Y-105086600D01*
X125074890Y-105086600D01*
X126544906Y-106556616D01*
X126544838Y-106635167D01*
X126686883Y-106978943D01*
X126949673Y-107242192D01*
X127293201Y-107384838D01*
X127665167Y-107385162D01*
X128008943Y-107243117D01*
X128272192Y-106980327D01*
X128414838Y-106636799D01*
X128415162Y-106264833D01*
X128273117Y-105921057D01*
X128010327Y-105657808D01*
X127666799Y-105515162D01*
X127586802Y-105515092D01*
X125900855Y-103829145D01*
X125661885Y-103669470D01*
X125380000Y-103613400D01*
X103306145Y-103613400D01*
X103280672Y-103478025D01*
X103500000Y-103522440D01*
X104800000Y-103522440D01*
X105035317Y-103478162D01*
X105251441Y-103339090D01*
X105396431Y-103126890D01*
X105447440Y-102875000D01*
X105447440Y-102625000D01*
X105423056Y-102495411D01*
X105424840Y-102486600D01*
X108247010Y-102486600D01*
X108309673Y-102549372D01*
X108653201Y-102692018D01*
X109025167Y-102692342D01*
X109368943Y-102550297D01*
X109632192Y-102287507D01*
X109774838Y-101943979D01*
X109775162Y-101572013D01*
X109633117Y-101228237D01*
X109370327Y-100964988D01*
X109026799Y-100822342D01*
X108654833Y-100822018D01*
X108311057Y-100964063D01*
X108261634Y-101013400D01*
X105426441Y-101013400D01*
X105423056Y-100995411D01*
X105447440Y-100875000D01*
X105447440Y-100625000D01*
X105423056Y-100495411D01*
X105424840Y-100486600D01*
X112144890Y-100486600D01*
X112348906Y-100690616D01*
X112348838Y-100769167D01*
X112490883Y-101112943D01*
X112753673Y-101376192D01*
X113097201Y-101518838D01*
X113469167Y-101519162D01*
X113812943Y-101377117D01*
X114076192Y-101114327D01*
X114218838Y-100770799D01*
X114219162Y-100398833D01*
X114197415Y-100346201D01*
X114274271Y-100314445D01*
X114537520Y-100051655D01*
X114680166Y-99708127D01*
X114680359Y-99486600D01*
X122574890Y-99486600D01*
X127588906Y-104500616D01*
X127588838Y-104579167D01*
X127730883Y-104922943D01*
X127993673Y-105186192D01*
X128337201Y-105328838D01*
X128701880Y-105329156D01*
X128701648Y-105595167D01*
X128843693Y-105938943D01*
X129106483Y-106202192D01*
X129450011Y-106344838D01*
X129821977Y-106345162D01*
X130165753Y-106203117D01*
X130429002Y-105940327D01*
X130571648Y-105596799D01*
X130571972Y-105224833D01*
X130519132Y-105096949D01*
X130763167Y-105097162D01*
X131106943Y-104955117D01*
X131353390Y-104709100D01*
X136158599Y-109514309D01*
X136158599Y-110529536D01*
X136093117Y-110371057D01*
X135830327Y-110107808D01*
X135486799Y-109965162D01*
X135114833Y-109964838D01*
X134771057Y-110106883D01*
X134714441Y-110163400D01*
X129645110Y-110163400D01*
X127454444Y-107972734D01*
X127215474Y-107813059D01*
X126933589Y-107756989D01*
X123026411Y-107756989D01*
X122744526Y-107813059D01*
X122505556Y-107972734D01*
X120314890Y-110163400D01*
X115285822Y-110163400D01*
X115230327Y-110107808D01*
X114886799Y-109965162D01*
X114514833Y-109964838D01*
X114171057Y-110106883D01*
X113907808Y-110369673D01*
X113765162Y-110713201D01*
X113764838Y-111085167D01*
X113906883Y-111428943D01*
X114169673Y-111692192D01*
X114188097Y-111699842D01*
X114171057Y-111706883D01*
X113907808Y-111969673D01*
X113765162Y-112313201D01*
X113764838Y-112685167D01*
X113906883Y-113028943D01*
X114169673Y-113292192D01*
X114513201Y-113434838D01*
X114885167Y-113435162D01*
X115228943Y-113293117D01*
X115492192Y-113030327D01*
X115536835Y-112922815D01*
X122864630Y-112922815D01*
X123188980Y-113707800D01*
X123789041Y-114308909D01*
X124573459Y-114634628D01*
X125422815Y-114635370D01*
X126207800Y-114311020D01*
X126808909Y-113710959D01*
X127134628Y-112926541D01*
X127135370Y-112077185D01*
X126811020Y-111292200D01*
X126210959Y-110691091D01*
X125426541Y-110365372D01*
X124577185Y-110364630D01*
X123792200Y-110688980D01*
X123191091Y-111289041D01*
X122865372Y-112073459D01*
X122864630Y-112922815D01*
X115536835Y-112922815D01*
X115634838Y-112686799D01*
X115634908Y-112606802D01*
X116165110Y-112076600D01*
X120754750Y-112076600D01*
X121036635Y-112020530D01*
X121275605Y-111860855D01*
X123499860Y-109636600D01*
X126460140Y-109636600D01*
X128664395Y-111840855D01*
X128903365Y-112000530D01*
X129185250Y-112056600D01*
X132911690Y-112056600D01*
X133875945Y-113020855D01*
X134114915Y-113180530D01*
X134396800Y-113236600D01*
X134714178Y-113236600D01*
X134769673Y-113292192D01*
X135113201Y-113434838D01*
X135485167Y-113435162D01*
X135828943Y-113293117D01*
X136092192Y-113030327D01*
X136158599Y-112870402D01*
X136158599Y-113476089D01*
X135055288Y-114579400D01*
X127254000Y-114579400D01*
X126974593Y-114634977D01*
X126814833Y-114634838D01*
X126471057Y-114776883D01*
X126207808Y-115039673D01*
X126065162Y-115383201D01*
X126065103Y-115450999D01*
X113756859Y-115450999D01*
X113587592Y-115041343D01*
X113240485Y-114693629D01*
X112786734Y-114505215D01*
X112295421Y-114504786D01*
X111841343Y-114692408D01*
X111682474Y-114851000D01*
X88307581Y-114851000D01*
X88150485Y-114693629D01*
X87696734Y-114505215D01*
X87205421Y-114504786D01*
X86751343Y-114692408D01*
X86592474Y-114851000D01*
X63297581Y-114851000D01*
X63140485Y-114693629D01*
X62686734Y-114505215D01*
X62195421Y-114504786D01*
X61741343Y-114692408D01*
X61582474Y-114851000D01*
X53058236Y-114851000D01*
X52739000Y-114531764D01*
X52739000Y-107801552D01*
X52934000Y-107841040D01*
X54966000Y-107841040D01*
X55201317Y-107796762D01*
X55417441Y-107657690D01*
X55562431Y-107445490D01*
X55613440Y-107193600D01*
X55613440Y-105466400D01*
X55569162Y-105231083D01*
X55430090Y-105014959D01*
X55217890Y-104869969D01*
X55176561Y-104861600D01*
X55194415Y-104849670D01*
X55519271Y-104363489D01*
X55633345Y-103790000D01*
X55519271Y-103216511D01*
X55194415Y-102730330D01*
X54879634Y-102520000D01*
X55194415Y-102309670D01*
X55519271Y-101823489D01*
X55633345Y-101250000D01*
X55519271Y-100676511D01*
X55194415Y-100190330D01*
X54879634Y-99980000D01*
X55194415Y-99769670D01*
X55519271Y-99283489D01*
X55633345Y-98710000D01*
X55519271Y-98136511D01*
X55194415Y-97650330D01*
X54879634Y-97440000D01*
X55194415Y-97229670D01*
X55519271Y-96743489D01*
X55633345Y-96170000D01*
X55519271Y-95596511D01*
X55194415Y-95110330D01*
X54884931Y-94903539D01*
X55300732Y-94532036D01*
X55554709Y-94004791D01*
X55557358Y-93989026D01*
X55436217Y-93757000D01*
X54077000Y-93757000D01*
X54077000Y-93777000D01*
X53823000Y-93777000D01*
X53823000Y-93757000D01*
X53803000Y-93757000D01*
X53803000Y-93503000D01*
X53823000Y-93503000D01*
X53823000Y-92289076D01*
X54077000Y-92289076D01*
X54077000Y-93503000D01*
X55436217Y-93503000D01*
X55557358Y-93270974D01*
X55554709Y-93255209D01*
X55300732Y-92727964D01*
X54864320Y-92338046D01*
X54311913Y-92144816D01*
X54077000Y-92289076D01*
X53823000Y-92289076D01*
X53588087Y-92144816D01*
X53035680Y-92338046D01*
X52739000Y-92603119D01*
X52739000Y-88403200D01*
X58610200Y-88403200D01*
X58610200Y-111656800D01*
X58666270Y-111938685D01*
X58825945Y-112177655D01*
X59314863Y-112666573D01*
X59314838Y-112695167D01*
X59456883Y-113038943D01*
X59719673Y-113302192D01*
X60063201Y-113444838D01*
X60435167Y-113445162D01*
X60778943Y-113303117D01*
X61042192Y-113040327D01*
X61184838Y-112696799D01*
X61185162Y-112324833D01*
X61043117Y-111981057D01*
X60780327Y-111717808D01*
X60761903Y-111710158D01*
X60778943Y-111703117D01*
X61042192Y-111440327D01*
X61184838Y-111096799D01*
X61185162Y-110724833D01*
X61043117Y-110381057D01*
X61036600Y-110374529D01*
X61036600Y-106407946D01*
X69804017Y-106407946D01*
X70072812Y-106993379D01*
X70545182Y-107431385D01*
X71027056Y-107630975D01*
X71283000Y-107511836D01*
X71283000Y-106152000D01*
X69922633Y-106152000D01*
X69804017Y-106407946D01*
X61036600Y-106407946D01*
X61036600Y-105642054D01*
X69804017Y-105642054D01*
X69922633Y-105898000D01*
X71283000Y-105898000D01*
X71283000Y-104538164D01*
X71027056Y-104419025D01*
X70545182Y-104618615D01*
X70072812Y-105056621D01*
X69804017Y-105642054D01*
X61036600Y-105642054D01*
X61036600Y-104325177D01*
X67898838Y-104325177D01*
X68040883Y-104668953D01*
X68303673Y-104932202D01*
X68647201Y-105074848D01*
X69019167Y-105075172D01*
X69362943Y-104933127D01*
X69626192Y-104670337D01*
X69768838Y-104326809D01*
X69769162Y-103954843D01*
X69627117Y-103611067D01*
X69570600Y-103554451D01*
X69570600Y-103513177D01*
X70724838Y-103513177D01*
X70866883Y-103856953D01*
X71129673Y-104120202D01*
X71473201Y-104262848D01*
X71845167Y-104263172D01*
X72188943Y-104121127D01*
X72452192Y-103858337D01*
X72577836Y-103555753D01*
X72793076Y-103645129D01*
X73165042Y-103645453D01*
X73508818Y-103503408D01*
X73772067Y-103240618D01*
X73914713Y-102897090D01*
X73915037Y-102525124D01*
X73888439Y-102460750D01*
X77790000Y-102460750D01*
X77790000Y-102701309D01*
X77886673Y-102934698D01*
X78065301Y-103113327D01*
X78298690Y-103210000D01*
X78514250Y-103210000D01*
X78673000Y-103051250D01*
X78673000Y-102302000D01*
X77948750Y-102302000D01*
X77790000Y-102460750D01*
X73888439Y-102460750D01*
X73772992Y-102181348D01*
X73716600Y-102124858D01*
X73716600Y-97395822D01*
X73772192Y-97340327D01*
X73914838Y-96996799D01*
X73915162Y-96624833D01*
X73773117Y-96281057D01*
X73510327Y-96017808D01*
X73166799Y-95875162D01*
X72794833Y-95874838D01*
X72451057Y-96016883D01*
X72325037Y-96142683D01*
X72230327Y-96047808D01*
X71886799Y-95905162D01*
X71514833Y-95904838D01*
X71171057Y-96046883D01*
X70907808Y-96309673D01*
X70765162Y-96653201D01*
X70764838Y-97025167D01*
X70906883Y-97368943D01*
X70963400Y-97425559D01*
X70963400Y-102702258D01*
X70867808Y-102797683D01*
X70725162Y-103141211D01*
X70724838Y-103513177D01*
X69570600Y-103513177D01*
X69570600Y-96317110D01*
X70663110Y-95224600D01*
X79678178Y-95224600D01*
X79733673Y-95280192D01*
X80077201Y-95422838D01*
X80449167Y-95423162D01*
X80792943Y-95281117D01*
X81056192Y-95018327D01*
X81198838Y-94674799D01*
X81199162Y-94302833D01*
X81057117Y-93959057D01*
X80794327Y-93695808D01*
X80450799Y-93553162D01*
X80078833Y-93552838D01*
X79735057Y-93694883D01*
X79678441Y-93751400D01*
X70358000Y-93751400D01*
X70076115Y-93807470D01*
X69837145Y-93967145D01*
X68313145Y-95491145D01*
X68153470Y-95730115D01*
X68097400Y-96012000D01*
X68097400Y-103554188D01*
X68041808Y-103609683D01*
X67899162Y-103953211D01*
X67898838Y-104325177D01*
X61036600Y-104325177D01*
X61036600Y-89685822D01*
X61092192Y-89630327D01*
X61234838Y-89286799D01*
X61235162Y-88914833D01*
X61093117Y-88571057D01*
X60830327Y-88307808D01*
X60811903Y-88300158D01*
X60828943Y-88293117D01*
X61092192Y-88030327D01*
X61234838Y-87686799D01*
X61234839Y-87685167D01*
X63764838Y-87685167D01*
X63906883Y-88028943D01*
X64169673Y-88292192D01*
X64188097Y-88299842D01*
X64171057Y-88306883D01*
X63907808Y-88569673D01*
X63765162Y-88913201D01*
X63764838Y-89285167D01*
X63906883Y-89628943D01*
X64169673Y-89892192D01*
X64513201Y-90034838D01*
X64885167Y-90035162D01*
X65228943Y-89893117D01*
X65285559Y-89836600D01*
X70764890Y-89836600D01*
X72775555Y-91847266D01*
X73014525Y-92006941D01*
X73296410Y-92063011D01*
X76588340Y-92063011D01*
X76870225Y-92006941D01*
X77109195Y-91847266D01*
X79119860Y-89836600D01*
X84714178Y-89836600D01*
X84769673Y-89892192D01*
X85113201Y-90034838D01*
X85485167Y-90035162D01*
X85828943Y-89893117D01*
X86092192Y-89630327D01*
X86234838Y-89286799D01*
X86235162Y-88914833D01*
X86093117Y-88571057D01*
X85830327Y-88307808D01*
X85811903Y-88300158D01*
X85828943Y-88293117D01*
X86092192Y-88030327D01*
X86234838Y-87686799D01*
X86235162Y-87314833D01*
X86093117Y-86971057D01*
X85830327Y-86707808D01*
X85486799Y-86565162D01*
X85114833Y-86564838D01*
X84771057Y-86706883D01*
X84507808Y-86969673D01*
X84365162Y-87313201D01*
X84365092Y-87393198D01*
X83844890Y-87913400D01*
X78690000Y-87913400D01*
X78408115Y-87969470D01*
X78303353Y-88039470D01*
X78169145Y-88129145D01*
X76114890Y-90183400D01*
X73769860Y-90183400D01*
X71735605Y-88149145D01*
X71496635Y-87989470D01*
X71214750Y-87933400D01*
X67078310Y-87933400D01*
X67067725Y-87922815D01*
X72864630Y-87922815D01*
X73188980Y-88707800D01*
X73789041Y-89308909D01*
X74573459Y-89634628D01*
X75422815Y-89635370D01*
X76207800Y-89311020D01*
X76808909Y-88710959D01*
X77134628Y-87926541D01*
X77135370Y-87077185D01*
X76811020Y-86292200D01*
X76210959Y-85691091D01*
X75426541Y-85365372D01*
X74577185Y-85364630D01*
X73792200Y-85688980D01*
X73191091Y-86289041D01*
X72865372Y-87073459D01*
X72864630Y-87922815D01*
X67067725Y-87922815D01*
X66124055Y-86979145D01*
X65885085Y-86819470D01*
X65603200Y-86763400D01*
X65285822Y-86763400D01*
X65230327Y-86707808D01*
X64886799Y-86565162D01*
X64514833Y-86564838D01*
X64171057Y-86706883D01*
X63907808Y-86969673D01*
X63765162Y-87313201D01*
X63764838Y-87685167D01*
X61234839Y-87685167D01*
X61235162Y-87314833D01*
X61093117Y-86971057D01*
X60830327Y-86707808D01*
X60486799Y-86565162D01*
X60114833Y-86564838D01*
X59771057Y-86706883D01*
X59507808Y-86969673D01*
X59365162Y-87313201D01*
X59365136Y-87343154D01*
X58825945Y-87882345D01*
X58666270Y-88121315D01*
X58610200Y-88403200D01*
X52739000Y-88403200D01*
X52739000Y-85368236D01*
X52958236Y-85149000D01*
X61632419Y-85149000D01*
X61789515Y-85306371D01*
G36*
X147261000Y-85468236D02*
X147261000Y-85788535D01*
X147230327Y-85757808D01*
X146886799Y-85615162D01*
X146514833Y-85614838D01*
X146171057Y-85756883D01*
X145907808Y-86019673D01*
X145765162Y-86363201D01*
X145764838Y-86735167D01*
X145906883Y-87078943D01*
X145963400Y-87135559D01*
X145963400Y-87404890D01*
X145434890Y-87933400D01*
X141165110Y-87933400D01*
X140625094Y-87393384D01*
X140625162Y-87314833D01*
X140483117Y-86971057D01*
X140220327Y-86707808D01*
X139876799Y-86565162D01*
X139504833Y-86564838D01*
X139161057Y-86706883D01*
X138897808Y-86969673D01*
X138755162Y-87313201D01*
X138754838Y-87685167D01*
X138896883Y-88028943D01*
X139159673Y-88292192D01*
X139178097Y-88299842D01*
X139161057Y-88306883D01*
X138897808Y-88569673D01*
X138755162Y-88913201D01*
X138754838Y-89285167D01*
X138896883Y-89628943D01*
X139159673Y-89892192D01*
X139503201Y-90034838D01*
X139875167Y-90035162D01*
X140218943Y-89893117D01*
X140275559Y-89836600D01*
X146480000Y-89836600D01*
X146761885Y-89780530D01*
X146949636Y-89655079D01*
X147045167Y-89655162D01*
X147261000Y-89565982D01*
X147261000Y-92682465D01*
X146864320Y-92328046D01*
X146311913Y-92134816D01*
X146077000Y-92279076D01*
X146077000Y-93493000D01*
X146097000Y-93493000D01*
X146097000Y-93747000D01*
X146077000Y-93747000D01*
X146077000Y-93767000D01*
X145823000Y-93767000D01*
X145823000Y-93747000D01*
X144463783Y-93747000D01*
X144342642Y-93979026D01*
X144345291Y-93994791D01*
X144599268Y-94522036D01*
X145015069Y-94893539D01*
X144705585Y-95100330D01*
X144380729Y-95586511D01*
X144266655Y-96160000D01*
X144380729Y-96733489D01*
X144705585Y-97219670D01*
X145020366Y-97430000D01*
X144705585Y-97640330D01*
X144380729Y-98126511D01*
X144266655Y-98700000D01*
X144380729Y-99273489D01*
X144705585Y-99759670D01*
X145020366Y-99970000D01*
X144705585Y-100180330D01*
X144380729Y-100666511D01*
X144266655Y-101240000D01*
X144380729Y-101813489D01*
X144705585Y-102299670D01*
X145020366Y-102510000D01*
X144705585Y-102720330D01*
X144380729Y-103206511D01*
X144266655Y-103780000D01*
X144380729Y-104353489D01*
X144705585Y-104839670D01*
X144719913Y-104849243D01*
X144698683Y-104853238D01*
X144482559Y-104992310D01*
X144337569Y-105204510D01*
X144286560Y-105456400D01*
X144286560Y-107183600D01*
X144330838Y-107418917D01*
X144469910Y-107635041D01*
X144682110Y-107780031D01*
X144934000Y-107831040D01*
X146966000Y-107831040D01*
X147201317Y-107786762D01*
X147261000Y-107748357D01*
X147261000Y-111539290D01*
X146100855Y-110379145D01*
X145861885Y-110219470D01*
X145580000Y-110163400D01*
X140285822Y-110163400D01*
X140230327Y-110107808D01*
X139886799Y-109965162D01*
X139514833Y-109964838D01*
X139171057Y-110106883D01*
X138907808Y-110369673D01*
X138765162Y-110713201D01*
X138764838Y-111085167D01*
X138906883Y-111428943D01*
X139169673Y-111692192D01*
X139188097Y-111699842D01*
X139171057Y-111706883D01*
X138907808Y-111969673D01*
X138765162Y-112313201D01*
X138764838Y-112685167D01*
X138906883Y-113028943D01*
X139169673Y-113292192D01*
X139513201Y-113434838D01*
X139885167Y-113435162D01*
X140228943Y-113293117D01*
X140492192Y-113030327D01*
X140634838Y-112686799D01*
X140634908Y-112606802D01*
X141195110Y-112046600D01*
X145064890Y-112046600D01*
X145433400Y-112415110D01*
X145433400Y-113194178D01*
X145377808Y-113249673D01*
X145235162Y-113593201D01*
X145234838Y-113965167D01*
X145376883Y-114308943D01*
X145639673Y-114572192D01*
X145983201Y-114714838D01*
X146355167Y-114715162D01*
X146698943Y-114573117D01*
X146962192Y-114310327D01*
X147104838Y-113966799D01*
X147105162Y-113594833D01*
X147039070Y-113434878D01*
X147261000Y-113435071D01*
X147261000Y-114531764D01*
X146931764Y-114861000D01*
X138357581Y-114861000D01*
X138200485Y-114703629D01*
X137746734Y-114515215D01*
X137255421Y-114514786D01*
X137166637Y-114551471D01*
X137416054Y-114302054D01*
X137575729Y-114063084D01*
X137631799Y-113781199D01*
X137631799Y-109209199D01*
X137575729Y-108927314D01*
X137416054Y-108688344D01*
X125956855Y-97229145D01*
X125717885Y-97069470D01*
X125436000Y-97013400D01*
X105426441Y-97013400D01*
X105403162Y-96889683D01*
X105264090Y-96673559D01*
X105051890Y-96528569D01*
X104800000Y-96477560D01*
X103624831Y-96477560D01*
X103337400Y-96358208D01*
X103337400Y-95451152D01*
X103536576Y-95251976D01*
X103707263Y-94996525D01*
X103767200Y-94695200D01*
X103767200Y-93260974D01*
X144342642Y-93260974D01*
X144463783Y-93493000D01*
X145823000Y-93493000D01*
X145823000Y-92279076D01*
X145588087Y-92134816D01*
X145035680Y-92328046D01*
X144599268Y-92717964D01*
X144345291Y-93245209D01*
X144342642Y-93260974D01*
X103767200Y-93260974D01*
X103767200Y-92558471D01*
X103786441Y-92546090D01*
X103931431Y-92333890D01*
X103982440Y-92082000D01*
X103982440Y-91282000D01*
X103938162Y-91046683D01*
X103871671Y-90943354D01*
X103873327Y-90941698D01*
X103970000Y-90708309D01*
X103970000Y-90467750D01*
X103811250Y-90309000D01*
X103087000Y-90309000D01*
X103087000Y-90329000D01*
X102833000Y-90329000D01*
X102833000Y-90309000D01*
X102813000Y-90309000D01*
X102813000Y-90055000D01*
X102833000Y-90055000D01*
X102833000Y-89305750D01*
X103087000Y-89305750D01*
X103087000Y-90055000D01*
X103811250Y-90055000D01*
X103970000Y-89896250D01*
X103970000Y-89655691D01*
X103873327Y-89422302D01*
X103694699Y-89243673D01*
X103461310Y-89147000D01*
X103245750Y-89147000D01*
X103087000Y-89305750D01*
X102833000Y-89305750D01*
X102674250Y-89147000D01*
X102458690Y-89147000D01*
X102225301Y-89243673D01*
X102046673Y-89422302D01*
X101950000Y-89655691D01*
X101950000Y-89896250D01*
X102108748Y-90054998D01*
X101950000Y-90054998D01*
X101950000Y-90105129D01*
X101689989Y-89997162D01*
X101318023Y-89996838D01*
X100974247Y-90138883D01*
X100710998Y-90401673D01*
X100568352Y-90745201D01*
X100568028Y-91117167D01*
X100710073Y-91460943D01*
X100813400Y-91564450D01*
X100813400Y-94373559D01*
X100795411Y-94376944D01*
X100675000Y-94352560D01*
X100425000Y-94352560D01*
X100295411Y-94376944D01*
X100286600Y-94375160D01*
X100286600Y-91464948D01*
X100442151Y-91232150D01*
X100498221Y-90950265D01*
X100498221Y-89468515D01*
X100442151Y-89186630D01*
X100282476Y-88947660D01*
X99981416Y-88646600D01*
X107901690Y-88646600D01*
X108875945Y-89620855D01*
X109114915Y-89780530D01*
X109396800Y-89836600D01*
X109714178Y-89836600D01*
X109769673Y-89892192D01*
X110113201Y-90034838D01*
X110485167Y-90035162D01*
X110828943Y-89893117D01*
X111092192Y-89630327D01*
X111234838Y-89286799D01*
X111235162Y-88914833D01*
X111093117Y-88571057D01*
X110830327Y-88307808D01*
X110811903Y-88300158D01*
X110828943Y-88293117D01*
X111092192Y-88030327D01*
X111234838Y-87686799D01*
X111234839Y-87685167D01*
X113764838Y-87685167D01*
X113906883Y-88028943D01*
X114169673Y-88292192D01*
X114188097Y-88299842D01*
X114171057Y-88306883D01*
X113907808Y-88569673D01*
X113765162Y-88913201D01*
X113764838Y-89285167D01*
X113906883Y-89628943D01*
X114169673Y-89892192D01*
X114513201Y-90034838D01*
X114885167Y-90035162D01*
X115228943Y-89893117D01*
X115285559Y-89836600D01*
X120634890Y-89836600D01*
X122695556Y-91897266D01*
X122934526Y-92056941D01*
X123216411Y-92113011D01*
X126973589Y-92113011D01*
X127255474Y-92056941D01*
X127494444Y-91897266D01*
X129555110Y-89836600D01*
X134704178Y-89836600D01*
X134759673Y-89892192D01*
X135103201Y-90034838D01*
X135475167Y-90035162D01*
X135818943Y-89893117D01*
X136082192Y-89630327D01*
X136224838Y-89286799D01*
X136225162Y-88914833D01*
X136083117Y-88571057D01*
X135820327Y-88307808D01*
X135801903Y-88300158D01*
X135818943Y-88293117D01*
X136082192Y-88030327D01*
X136224838Y-87686799D01*
X136225162Y-87314833D01*
X136083117Y-86971057D01*
X135820327Y-86707808D01*
X135476799Y-86565162D01*
X135104833Y-86564838D01*
X134761057Y-86706883D01*
X134497808Y-86969673D01*
X134355162Y-87313201D01*
X134355092Y-87393198D01*
X133794890Y-87953400D01*
X129085250Y-87953400D01*
X128803365Y-88009470D01*
X128564395Y-88169145D01*
X126500140Y-90233400D01*
X123689860Y-90233400D01*
X121625605Y-88169145D01*
X121386635Y-88009470D01*
X121104750Y-87953400D01*
X117098310Y-87953400D01*
X116124055Y-86979145D01*
X115885085Y-86819470D01*
X115603200Y-86763400D01*
X115285822Y-86763400D01*
X115230327Y-86707808D01*
X114886799Y-86565162D01*
X114514833Y-86564838D01*
X114171057Y-86706883D01*
X113907808Y-86969673D01*
X113765162Y-87313201D01*
X113764838Y-87685167D01*
X111234839Y-87685167D01*
X111235162Y-87314833D01*
X111093117Y-86971057D01*
X110830327Y-86707808D01*
X110486799Y-86565162D01*
X110114833Y-86564838D01*
X109771057Y-86706883D01*
X109714441Y-86763400D01*
X100740897Y-86763400D01*
X100868192Y-86636327D01*
X101010838Y-86292799D01*
X101011162Y-85920833D01*
X100869117Y-85577057D01*
X100606327Y-85313808D01*
X100262799Y-85171162D01*
X99890833Y-85170838D01*
X99547057Y-85312883D01*
X99283808Y-85575673D01*
X99219134Y-85731424D01*
X98725094Y-85237384D01*
X98725162Y-85158833D01*
X98721099Y-85149000D01*
X111612419Y-85149000D01*
X111769515Y-85306371D01*
X112223266Y-85494785D01*
X112450910Y-85494984D01*
X112729793Y-85681328D01*
X113069999Y-85748999D01*
X123732076Y-85748999D01*
X123191091Y-86289041D01*
X122865372Y-87073459D01*
X122864630Y-87922815D01*
X123188980Y-88707800D01*
X123789041Y-89308909D01*
X124573459Y-89634628D01*
X125422815Y-89635370D01*
X126207800Y-89311020D01*
X126808909Y-88710959D01*
X127134628Y-87926541D01*
X127135370Y-87077185D01*
X126811020Y-86292200D01*
X126268766Y-85748999D01*
X136890001Y-85748999D01*
X137230207Y-85681328D01*
X137518619Y-85488617D01*
X137522216Y-85485020D01*
X137744579Y-85485214D01*
X138198657Y-85297592D01*
X138357526Y-85139000D01*
X146931764Y-85139000D01*
X147261000Y-85468236D01*
X147261000Y-85468236D01*
G37*
X147261000Y-85468236D02*
X147261000Y-85788535D01*
X147230327Y-85757808D01*
X146886799Y-85615162D01*
X146514833Y-85614838D01*
X146171057Y-85756883D01*
X145907808Y-86019673D01*
X145765162Y-86363201D01*
X145764838Y-86735167D01*
X145906883Y-87078943D01*
X145963400Y-87135559D01*
X145963400Y-87404890D01*
X145434890Y-87933400D01*
X141165110Y-87933400D01*
X140625094Y-87393384D01*
X140625162Y-87314833D01*
X140483117Y-86971057D01*
X140220327Y-86707808D01*
X139876799Y-86565162D01*
X139504833Y-86564838D01*
X139161057Y-86706883D01*
X138897808Y-86969673D01*
X138755162Y-87313201D01*
X138754838Y-87685167D01*
X138896883Y-88028943D01*
X139159673Y-88292192D01*
X139178097Y-88299842D01*
X139161057Y-88306883D01*
X138897808Y-88569673D01*
X138755162Y-88913201D01*
X138754838Y-89285167D01*
X138896883Y-89628943D01*
X139159673Y-89892192D01*
X139503201Y-90034838D01*
X139875167Y-90035162D01*
X140218943Y-89893117D01*
X140275559Y-89836600D01*
X146480000Y-89836600D01*
X146761885Y-89780530D01*
X146949636Y-89655079D01*
X147045167Y-89655162D01*
X147261000Y-89565982D01*
X147261000Y-92682465D01*
X146864320Y-92328046D01*
X146311913Y-92134816D01*
X146077000Y-92279076D01*
X146077000Y-93493000D01*
X146097000Y-93493000D01*
X146097000Y-93747000D01*
X146077000Y-93747000D01*
X146077000Y-93767000D01*
X145823000Y-93767000D01*
X145823000Y-93747000D01*
X144463783Y-93747000D01*
X144342642Y-93979026D01*
X144345291Y-93994791D01*
X144599268Y-94522036D01*
X145015069Y-94893539D01*
X144705585Y-95100330D01*
X144380729Y-95586511D01*
X144266655Y-96160000D01*
X144380729Y-96733489D01*
X144705585Y-97219670D01*
X145020366Y-97430000D01*
X144705585Y-97640330D01*
X144380729Y-98126511D01*
X144266655Y-98700000D01*
X144380729Y-99273489D01*
X144705585Y-99759670D01*
X145020366Y-99970000D01*
X144705585Y-100180330D01*
X144380729Y-100666511D01*
X144266655Y-101240000D01*
X144380729Y-101813489D01*
X144705585Y-102299670D01*
X145020366Y-102510000D01*
X144705585Y-102720330D01*
X144380729Y-103206511D01*
X144266655Y-103780000D01*
X144380729Y-104353489D01*
X144705585Y-104839670D01*
X144719913Y-104849243D01*
X144698683Y-104853238D01*
X144482559Y-104992310D01*
X144337569Y-105204510D01*
X144286560Y-105456400D01*
X144286560Y-107183600D01*
X144330838Y-107418917D01*
X144469910Y-107635041D01*
X144682110Y-107780031D01*
X144934000Y-107831040D01*
X146966000Y-107831040D01*
X147201317Y-107786762D01*
X147261000Y-107748357D01*
X147261000Y-111539290D01*
X146100855Y-110379145D01*
X145861885Y-110219470D01*
X145580000Y-110163400D01*
X140285822Y-110163400D01*
X140230327Y-110107808D01*
X139886799Y-109965162D01*
X139514833Y-109964838D01*
X139171057Y-110106883D01*
X138907808Y-110369673D01*
X138765162Y-110713201D01*
X138764838Y-111085167D01*
X138906883Y-111428943D01*
X139169673Y-111692192D01*
X139188097Y-111699842D01*
X139171057Y-111706883D01*
X138907808Y-111969673D01*
X138765162Y-112313201D01*
X138764838Y-112685167D01*
X138906883Y-113028943D01*
X139169673Y-113292192D01*
X139513201Y-113434838D01*
X139885167Y-113435162D01*
X140228943Y-113293117D01*
X140492192Y-113030327D01*
X140634838Y-112686799D01*
X140634908Y-112606802D01*
X141195110Y-112046600D01*
X145064890Y-112046600D01*
X145433400Y-112415110D01*
X145433400Y-113194178D01*
X145377808Y-113249673D01*
X145235162Y-113593201D01*
X145234838Y-113965167D01*
X145376883Y-114308943D01*
X145639673Y-114572192D01*
X145983201Y-114714838D01*
X146355167Y-114715162D01*
X146698943Y-114573117D01*
X146962192Y-114310327D01*
X147104838Y-113966799D01*
X147105162Y-113594833D01*
X147039070Y-113434878D01*
X147261000Y-113435071D01*
X147261000Y-114531764D01*
X146931764Y-114861000D01*
X138357581Y-114861000D01*
X138200485Y-114703629D01*
X137746734Y-114515215D01*
X137255421Y-114514786D01*
X137166637Y-114551471D01*
X137416054Y-114302054D01*
X137575729Y-114063084D01*
X137631799Y-113781199D01*
X137631799Y-109209199D01*
X137575729Y-108927314D01*
X137416054Y-108688344D01*
X125956855Y-97229145D01*
X125717885Y-97069470D01*
X125436000Y-97013400D01*
X105426441Y-97013400D01*
X105403162Y-96889683D01*
X105264090Y-96673559D01*
X105051890Y-96528569D01*
X104800000Y-96477560D01*
X103624831Y-96477560D01*
X103337400Y-96358208D01*
X103337400Y-95451152D01*
X103536576Y-95251976D01*
X103707263Y-94996525D01*
X103767200Y-94695200D01*
X103767200Y-93260974D01*
X144342642Y-93260974D01*
X144463783Y-93493000D01*
X145823000Y-93493000D01*
X145823000Y-92279076D01*
X145588087Y-92134816D01*
X145035680Y-92328046D01*
X144599268Y-92717964D01*
X144345291Y-93245209D01*
X144342642Y-93260974D01*
X103767200Y-93260974D01*
X103767200Y-92558471D01*
X103786441Y-92546090D01*
X103931431Y-92333890D01*
X103982440Y-92082000D01*
X103982440Y-91282000D01*
X103938162Y-91046683D01*
X103871671Y-90943354D01*
X103873327Y-90941698D01*
X103970000Y-90708309D01*
X103970000Y-90467750D01*
X103811250Y-90309000D01*
X103087000Y-90309000D01*
X103087000Y-90329000D01*
X102833000Y-90329000D01*
X102833000Y-90309000D01*
X102813000Y-90309000D01*
X102813000Y-90055000D01*
X102833000Y-90055000D01*
X102833000Y-89305750D01*
X103087000Y-89305750D01*
X103087000Y-90055000D01*
X103811250Y-90055000D01*
X103970000Y-89896250D01*
X103970000Y-89655691D01*
X103873327Y-89422302D01*
X103694699Y-89243673D01*
X103461310Y-89147000D01*
X103245750Y-89147000D01*
X103087000Y-89305750D01*
X102833000Y-89305750D01*
X102674250Y-89147000D01*
X102458690Y-89147000D01*
X102225301Y-89243673D01*
X102046673Y-89422302D01*
X101950000Y-89655691D01*
X101950000Y-89896250D01*
X102108748Y-90054998D01*
X101950000Y-90054998D01*
X101950000Y-90105129D01*
X101689989Y-89997162D01*
X101318023Y-89996838D01*
X100974247Y-90138883D01*
X100710998Y-90401673D01*
X100568352Y-90745201D01*
X100568028Y-91117167D01*
X100710073Y-91460943D01*
X100813400Y-91564450D01*
X100813400Y-94373559D01*
X100795411Y-94376944D01*
X100675000Y-94352560D01*
X100425000Y-94352560D01*
X100295411Y-94376944D01*
X100286600Y-94375160D01*
X100286600Y-91464948D01*
X100442151Y-91232150D01*
X100498221Y-90950265D01*
X100498221Y-89468515D01*
X100442151Y-89186630D01*
X100282476Y-88947660D01*
X99981416Y-88646600D01*
X107901690Y-88646600D01*
X108875945Y-89620855D01*
X109114915Y-89780530D01*
X109396800Y-89836600D01*
X109714178Y-89836600D01*
X109769673Y-89892192D01*
X110113201Y-90034838D01*
X110485167Y-90035162D01*
X110828943Y-89893117D01*
X111092192Y-89630327D01*
X111234838Y-89286799D01*
X111235162Y-88914833D01*
X111093117Y-88571057D01*
X110830327Y-88307808D01*
X110811903Y-88300158D01*
X110828943Y-88293117D01*
X111092192Y-88030327D01*
X111234838Y-87686799D01*
X111234839Y-87685167D01*
X113764838Y-87685167D01*
X113906883Y-88028943D01*
X114169673Y-88292192D01*
X114188097Y-88299842D01*
X114171057Y-88306883D01*
X113907808Y-88569673D01*
X113765162Y-88913201D01*
X113764838Y-89285167D01*
X113906883Y-89628943D01*
X114169673Y-89892192D01*
X114513201Y-90034838D01*
X114885167Y-90035162D01*
X115228943Y-89893117D01*
X115285559Y-89836600D01*
X120634890Y-89836600D01*
X122695556Y-91897266D01*
X122934526Y-92056941D01*
X123216411Y-92113011D01*
X126973589Y-92113011D01*
X127255474Y-92056941D01*
X127494444Y-91897266D01*
X129555110Y-89836600D01*
X134704178Y-89836600D01*
X134759673Y-89892192D01*
X135103201Y-90034838D01*
X135475167Y-90035162D01*
X135818943Y-89893117D01*
X136082192Y-89630327D01*
X136224838Y-89286799D01*
X136225162Y-88914833D01*
X136083117Y-88571057D01*
X135820327Y-88307808D01*
X135801903Y-88300158D01*
X135818943Y-88293117D01*
X136082192Y-88030327D01*
X136224838Y-87686799D01*
X136225162Y-87314833D01*
X136083117Y-86971057D01*
X135820327Y-86707808D01*
X135476799Y-86565162D01*
X135104833Y-86564838D01*
X134761057Y-86706883D01*
X134497808Y-86969673D01*
X134355162Y-87313201D01*
X134355092Y-87393198D01*
X133794890Y-87953400D01*
X129085250Y-87953400D01*
X128803365Y-88009470D01*
X128564395Y-88169145D01*
X126500140Y-90233400D01*
X123689860Y-90233400D01*
X121625605Y-88169145D01*
X121386635Y-88009470D01*
X121104750Y-87953400D01*
X117098310Y-87953400D01*
X116124055Y-86979145D01*
X115885085Y-86819470D01*
X115603200Y-86763400D01*
X115285822Y-86763400D01*
X115230327Y-86707808D01*
X114886799Y-86565162D01*
X114514833Y-86564838D01*
X114171057Y-86706883D01*
X113907808Y-86969673D01*
X113765162Y-87313201D01*
X113764838Y-87685167D01*
X111234839Y-87685167D01*
X111235162Y-87314833D01*
X111093117Y-86971057D01*
X110830327Y-86707808D01*
X110486799Y-86565162D01*
X110114833Y-86564838D01*
X109771057Y-86706883D01*
X109714441Y-86763400D01*
X100740897Y-86763400D01*
X100868192Y-86636327D01*
X101010838Y-86292799D01*
X101011162Y-85920833D01*
X100869117Y-85577057D01*
X100606327Y-85313808D01*
X100262799Y-85171162D01*
X99890833Y-85170838D01*
X99547057Y-85312883D01*
X99283808Y-85575673D01*
X99219134Y-85731424D01*
X98725094Y-85237384D01*
X98725162Y-85158833D01*
X98721099Y-85149000D01*
X111612419Y-85149000D01*
X111769515Y-85306371D01*
X112223266Y-85494785D01*
X112450910Y-85494984D01*
X112729793Y-85681328D01*
X113069999Y-85748999D01*
X123732076Y-85748999D01*
X123191091Y-86289041D01*
X122865372Y-87073459D01*
X122864630Y-87922815D01*
X123188980Y-88707800D01*
X123789041Y-89308909D01*
X124573459Y-89634628D01*
X125422815Y-89635370D01*
X126207800Y-89311020D01*
X126808909Y-88710959D01*
X127134628Y-87926541D01*
X127135370Y-87077185D01*
X126811020Y-86292200D01*
X126268766Y-85748999D01*
X136890001Y-85748999D01*
X137230207Y-85681328D01*
X137518619Y-85488617D01*
X137522216Y-85485020D01*
X137744579Y-85485214D01*
X138198657Y-85297592D01*
X138357526Y-85139000D01*
X146931764Y-85139000D01*
X147261000Y-85468236D01*
G36*
X102593673Y-98074192D02*
X102852560Y-98181692D01*
X102852560Y-98375000D01*
X102876944Y-98504589D01*
X102852560Y-98625000D01*
X102852560Y-98875000D01*
X102876944Y-99004589D01*
X102852560Y-99125000D01*
X102852560Y-99375000D01*
X102876944Y-99504589D01*
X102852560Y-99625000D01*
X102852560Y-99875000D01*
X102876944Y-100004589D01*
X102852560Y-100125000D01*
X102852560Y-100375000D01*
X102876944Y-100504589D01*
X102852560Y-100625000D01*
X102852560Y-100875000D01*
X102876944Y-101004589D01*
X102852560Y-101125000D01*
X102852560Y-101375000D01*
X102876944Y-101504589D01*
X102852560Y-101625000D01*
X102852560Y-101875000D01*
X102876944Y-102004589D01*
X102852560Y-102125000D01*
X102852560Y-102375000D01*
X102876944Y-102504589D01*
X102852560Y-102625000D01*
X102852560Y-102875000D01*
X102894328Y-103096975D01*
X102675000Y-103052560D01*
X102425000Y-103052560D01*
X102295411Y-103076944D01*
X102175000Y-103052560D01*
X101925000Y-103052560D01*
X101795411Y-103076944D01*
X101675000Y-103052560D01*
X101425000Y-103052560D01*
X101295411Y-103076944D01*
X101175000Y-103052560D01*
X100925000Y-103052560D01*
X100795411Y-103076944D01*
X100675000Y-103052560D01*
X100425000Y-103052560D01*
X100295411Y-103076944D01*
X100175000Y-103052560D01*
X99925000Y-103052560D01*
X99795411Y-103076944D01*
X99675000Y-103052560D01*
X99425000Y-103052560D01*
X99295411Y-103076944D01*
X99175000Y-103052560D01*
X98925000Y-103052560D01*
X98795411Y-103076944D01*
X98675000Y-103052560D01*
X98425000Y-103052560D01*
X98295411Y-103076944D01*
X98175000Y-103052560D01*
X97925000Y-103052560D01*
X97819295Y-103072450D01*
X97801310Y-103065000D01*
X97782699Y-103065000D01*
X97777463Y-103038675D01*
X97606776Y-102783224D01*
X97016776Y-102193224D01*
X96761325Y-102022537D01*
X96726871Y-102015684D01*
X96723056Y-101995411D01*
X96747440Y-101875000D01*
X96747440Y-101625000D01*
X96723056Y-101495411D01*
X96747440Y-101375000D01*
X96747440Y-101125000D01*
X96723056Y-100995411D01*
X96747440Y-100875000D01*
X96747440Y-100625000D01*
X96723056Y-100495411D01*
X96747440Y-100375000D01*
X96747440Y-100125000D01*
X96723056Y-99995411D01*
X96747440Y-99875000D01*
X96747440Y-99625000D01*
X96730957Y-99537400D01*
X100685710Y-99537400D01*
X100987035Y-99477463D01*
X101242486Y-99306776D01*
X102534423Y-98014839D01*
X102593673Y-98074192D01*
X102593673Y-98074192D01*
G37*
X102593673Y-98074192D02*
X102852560Y-98181692D01*
X102852560Y-98375000D01*
X102876944Y-98504589D01*
X102852560Y-98625000D01*
X102852560Y-98875000D01*
X102876944Y-99004589D01*
X102852560Y-99125000D01*
X102852560Y-99375000D01*
X102876944Y-99504589D01*
X102852560Y-99625000D01*
X102852560Y-99875000D01*
X102876944Y-100004589D01*
X102852560Y-100125000D01*
X102852560Y-100375000D01*
X102876944Y-100504589D01*
X102852560Y-100625000D01*
X102852560Y-100875000D01*
X102876944Y-101004589D01*
X102852560Y-101125000D01*
X102852560Y-101375000D01*
X102876944Y-101504589D01*
X102852560Y-101625000D01*
X102852560Y-101875000D01*
X102876944Y-102004589D01*
X102852560Y-102125000D01*
X102852560Y-102375000D01*
X102876944Y-102504589D01*
X102852560Y-102625000D01*
X102852560Y-102875000D01*
X102894328Y-103096975D01*
X102675000Y-103052560D01*
X102425000Y-103052560D01*
X102295411Y-103076944D01*
X102175000Y-103052560D01*
X101925000Y-103052560D01*
X101795411Y-103076944D01*
X101675000Y-103052560D01*
X101425000Y-103052560D01*
X101295411Y-103076944D01*
X101175000Y-103052560D01*
X100925000Y-103052560D01*
X100795411Y-103076944D01*
X100675000Y-103052560D01*
X100425000Y-103052560D01*
X100295411Y-103076944D01*
X100175000Y-103052560D01*
X99925000Y-103052560D01*
X99795411Y-103076944D01*
X99675000Y-103052560D01*
X99425000Y-103052560D01*
X99295411Y-103076944D01*
X99175000Y-103052560D01*
X98925000Y-103052560D01*
X98795411Y-103076944D01*
X98675000Y-103052560D01*
X98425000Y-103052560D01*
X98295411Y-103076944D01*
X98175000Y-103052560D01*
X97925000Y-103052560D01*
X97819295Y-103072450D01*
X97801310Y-103065000D01*
X97782699Y-103065000D01*
X97777463Y-103038675D01*
X97606776Y-102783224D01*
X97016776Y-102193224D01*
X96761325Y-102022537D01*
X96726871Y-102015684D01*
X96723056Y-101995411D01*
X96747440Y-101875000D01*
X96747440Y-101625000D01*
X96723056Y-101495411D01*
X96747440Y-101375000D01*
X96747440Y-101125000D01*
X96723056Y-100995411D01*
X96747440Y-100875000D01*
X96747440Y-100625000D01*
X96723056Y-100495411D01*
X96747440Y-100375000D01*
X96747440Y-100125000D01*
X96723056Y-99995411D01*
X96747440Y-99875000D01*
X96747440Y-99625000D01*
X96730957Y-99537400D01*
X100685710Y-99537400D01*
X100987035Y-99477463D01*
X101242486Y-99306776D01*
X102534423Y-98014839D01*
X102593673Y-98074192D01*
G36*
X86809515Y-66756371D02*
X87263266Y-66944785D01*
X87754579Y-66945214D01*
X88208657Y-66757592D01*
X88367526Y-66599000D01*
X111652419Y-66599000D01*
X111809515Y-66756371D01*
X112263266Y-66944785D01*
X112754579Y-66945214D01*
X113208657Y-66757592D01*
X113367526Y-66599000D01*
X136622419Y-66599000D01*
X136779515Y-66756371D01*
X137233266Y-66944785D01*
X137487771Y-66945007D01*
X147261000Y-76718236D01*
X147261000Y-83361000D01*
X138357581Y-83361000D01*
X138200485Y-83203629D01*
X137746734Y-83015215D01*
X137255421Y-83014786D01*
X136801343Y-83202408D01*
X136453629Y-83549515D01*
X136278613Y-83970999D01*
X123362869Y-83970999D01*
X123363162Y-83634833D01*
X123221117Y-83291057D01*
X123124533Y-83194304D01*
X123108530Y-83113851D01*
X122948855Y-82874881D01*
X118293119Y-78219145D01*
X118054149Y-78059470D01*
X117772264Y-78003400D01*
X104361374Y-78003400D01*
X104323119Y-77965145D01*
X104084149Y-77805470D01*
X104003850Y-77789498D01*
X103908327Y-77693808D01*
X103564799Y-77551162D01*
X103192833Y-77550838D01*
X102849057Y-77692883D01*
X102585808Y-77955673D01*
X102443162Y-78299201D01*
X102442951Y-78541241D01*
X102082600Y-78180890D01*
X102082600Y-75422815D01*
X110364630Y-75422815D01*
X110688980Y-76207800D01*
X111289041Y-76808909D01*
X112073459Y-77134628D01*
X112922815Y-77135370D01*
X113707800Y-76811020D01*
X114308909Y-76210959D01*
X114634628Y-75426541D01*
X114634631Y-75422815D01*
X135364630Y-75422815D01*
X135688980Y-76207800D01*
X136289041Y-76808909D01*
X137073459Y-77134628D01*
X137922815Y-77135370D01*
X138707800Y-76811020D01*
X139308909Y-76210959D01*
X139634628Y-75426541D01*
X139635370Y-74577185D01*
X139311020Y-73792200D01*
X138710959Y-73191091D01*
X137926541Y-72865372D01*
X137077185Y-72864630D01*
X136292200Y-73188980D01*
X135691091Y-73789041D01*
X135365372Y-74573459D01*
X135364630Y-75422815D01*
X114634631Y-75422815D01*
X114635370Y-74577185D01*
X114311020Y-73792200D01*
X113710959Y-73191091D01*
X112926541Y-72865372D01*
X112077185Y-72864630D01*
X111292200Y-73188980D01*
X110691091Y-73789041D01*
X110365372Y-74573459D01*
X110364630Y-75422815D01*
X102082600Y-75422815D01*
X102082600Y-69165822D01*
X102138192Y-69110327D01*
X102280838Y-68766799D01*
X102281162Y-68394833D01*
X102139117Y-68051057D01*
X101876327Y-67787808D01*
X101532799Y-67645162D01*
X101160833Y-67644838D01*
X100817057Y-67786883D01*
X100553808Y-68049673D01*
X100411162Y-68393201D01*
X100410838Y-68765167D01*
X100552883Y-69108943D01*
X100609400Y-69165559D01*
X100609400Y-78486000D01*
X100665470Y-78767885D01*
X100825145Y-79006855D01*
X101683947Y-79865657D01*
X101922917Y-80025332D01*
X102204802Y-80081402D01*
X116885692Y-80081402D01*
X120476906Y-83672616D01*
X120476838Y-83751167D01*
X120567671Y-83970999D01*
X113686859Y-83970999D01*
X113517592Y-83561343D01*
X113170485Y-83213629D01*
X112716734Y-83025215D01*
X112225421Y-83024786D01*
X111771343Y-83212408D01*
X111612474Y-83371000D01*
X98545455Y-83371000D01*
X98582192Y-83334327D01*
X98724838Y-82990799D01*
X98725162Y-82618833D01*
X98583117Y-82275057D01*
X98320327Y-82011808D01*
X97976799Y-81869162D01*
X97896802Y-81869092D01*
X94500855Y-78473145D01*
X94261885Y-78313470D01*
X93980000Y-78257400D01*
X70435822Y-78257400D01*
X70380327Y-78201808D01*
X70036799Y-78059162D01*
X69664833Y-78058838D01*
X69321057Y-78200883D01*
X69057808Y-78463673D01*
X68915162Y-78807201D01*
X68914838Y-79179167D01*
X69056883Y-79522943D01*
X69319673Y-79786192D01*
X69663201Y-79928838D01*
X70035167Y-79929162D01*
X70378943Y-79787117D01*
X70435559Y-79730600D01*
X93674890Y-79730600D01*
X96854906Y-82910616D01*
X96854838Y-82989167D01*
X96996883Y-83332943D01*
X97034874Y-83371000D01*
X88367581Y-83371000D01*
X88210485Y-83213629D01*
X87756734Y-83025215D01*
X87265421Y-83024786D01*
X86811343Y-83212408D01*
X86652474Y-83371000D01*
X63347581Y-83371000D01*
X63190485Y-83213629D01*
X62736734Y-83025215D01*
X62245421Y-83024786D01*
X61791343Y-83212408D01*
X61632474Y-83371000D01*
X52739000Y-83371000D01*
X52739000Y-76768236D01*
X54084421Y-75422815D01*
X60364630Y-75422815D01*
X60688980Y-76207800D01*
X61289041Y-76808909D01*
X62073459Y-77134628D01*
X62922815Y-77135370D01*
X63707800Y-76811020D01*
X64308909Y-76210959D01*
X64634628Y-75426541D01*
X64635370Y-74577185D01*
X64311020Y-73792200D01*
X63710959Y-73191091D01*
X62926541Y-72865372D01*
X62077185Y-72864630D01*
X61292200Y-73188980D01*
X60691091Y-73789041D01*
X60365372Y-74573459D01*
X60364630Y-75422815D01*
X54084421Y-75422815D01*
X58710069Y-70797167D01*
X69168838Y-70797167D01*
X69310883Y-71140943D01*
X69573673Y-71404192D01*
X69917201Y-71546838D01*
X70289167Y-71547162D01*
X70632943Y-71405117D01*
X70689559Y-71348600D01*
X77926890Y-71348600D01*
X78003400Y-71425110D01*
X78003400Y-76630178D01*
X77947808Y-76685673D01*
X77805162Y-77029201D01*
X77804838Y-77401167D01*
X77946883Y-77744943D01*
X78209673Y-78008192D01*
X78553201Y-78150838D01*
X78925167Y-78151162D01*
X79268943Y-78009117D01*
X79532192Y-77746327D01*
X79674838Y-77402799D01*
X79675162Y-77030833D01*
X79533117Y-76687057D01*
X79476600Y-76630441D01*
X79476600Y-75422815D01*
X85364630Y-75422815D01*
X85688980Y-76207800D01*
X86289041Y-76808909D01*
X87073459Y-77134628D01*
X87922815Y-77135370D01*
X88707800Y-76811020D01*
X89308909Y-76210959D01*
X89634628Y-75426541D01*
X89635370Y-74577185D01*
X89311020Y-73792200D01*
X88710959Y-73191091D01*
X87926541Y-72865372D01*
X87077185Y-72864630D01*
X86292200Y-73188980D01*
X85691091Y-73789041D01*
X85365372Y-74573459D01*
X85364630Y-75422815D01*
X79476600Y-75422815D01*
X79476600Y-71120000D01*
X79420530Y-70838115D01*
X79260855Y-70599145D01*
X78752855Y-70091145D01*
X78513885Y-69931470D01*
X78232000Y-69875400D01*
X70689822Y-69875400D01*
X70634327Y-69819808D01*
X70290799Y-69677162D01*
X69918833Y-69676838D01*
X69575057Y-69818883D01*
X69311808Y-70081673D01*
X69169162Y-70425201D01*
X69168838Y-70797167D01*
X58710069Y-70797167D01*
X62562225Y-66945011D01*
X62794579Y-66945214D01*
X63248657Y-66757592D01*
X63407526Y-66599000D01*
X86652419Y-66599000D01*
X86809515Y-66756371D01*
X86809515Y-66756371D01*
G37*
X86809515Y-66756371D02*
X87263266Y-66944785D01*
X87754579Y-66945214D01*
X88208657Y-66757592D01*
X88367526Y-66599000D01*
X111652419Y-66599000D01*
X111809515Y-66756371D01*
X112263266Y-66944785D01*
X112754579Y-66945214D01*
X113208657Y-66757592D01*
X113367526Y-66599000D01*
X136622419Y-66599000D01*
X136779515Y-66756371D01*
X137233266Y-66944785D01*
X137487771Y-66945007D01*
X147261000Y-76718236D01*
X147261000Y-83361000D01*
X138357581Y-83361000D01*
X138200485Y-83203629D01*
X137746734Y-83015215D01*
X137255421Y-83014786D01*
X136801343Y-83202408D01*
X136453629Y-83549515D01*
X136278613Y-83970999D01*
X123362869Y-83970999D01*
X123363162Y-83634833D01*
X123221117Y-83291057D01*
X123124533Y-83194304D01*
X123108530Y-83113851D01*
X122948855Y-82874881D01*
X118293119Y-78219145D01*
X118054149Y-78059470D01*
X117772264Y-78003400D01*
X104361374Y-78003400D01*
X104323119Y-77965145D01*
X104084149Y-77805470D01*
X104003850Y-77789498D01*
X103908327Y-77693808D01*
X103564799Y-77551162D01*
X103192833Y-77550838D01*
X102849057Y-77692883D01*
X102585808Y-77955673D01*
X102443162Y-78299201D01*
X102442951Y-78541241D01*
X102082600Y-78180890D01*
X102082600Y-75422815D01*
X110364630Y-75422815D01*
X110688980Y-76207800D01*
X111289041Y-76808909D01*
X112073459Y-77134628D01*
X112922815Y-77135370D01*
X113707800Y-76811020D01*
X114308909Y-76210959D01*
X114634628Y-75426541D01*
X114634631Y-75422815D01*
X135364630Y-75422815D01*
X135688980Y-76207800D01*
X136289041Y-76808909D01*
X137073459Y-77134628D01*
X137922815Y-77135370D01*
X138707800Y-76811020D01*
X139308909Y-76210959D01*
X139634628Y-75426541D01*
X139635370Y-74577185D01*
X139311020Y-73792200D01*
X138710959Y-73191091D01*
X137926541Y-72865372D01*
X137077185Y-72864630D01*
X136292200Y-73188980D01*
X135691091Y-73789041D01*
X135365372Y-74573459D01*
X135364630Y-75422815D01*
X114634631Y-75422815D01*
X114635370Y-74577185D01*
X114311020Y-73792200D01*
X113710959Y-73191091D01*
X112926541Y-72865372D01*
X112077185Y-72864630D01*
X111292200Y-73188980D01*
X110691091Y-73789041D01*
X110365372Y-74573459D01*
X110364630Y-75422815D01*
X102082600Y-75422815D01*
X102082600Y-69165822D01*
X102138192Y-69110327D01*
X102280838Y-68766799D01*
X102281162Y-68394833D01*
X102139117Y-68051057D01*
X101876327Y-67787808D01*
X101532799Y-67645162D01*
X101160833Y-67644838D01*
X100817057Y-67786883D01*
X100553808Y-68049673D01*
X100411162Y-68393201D01*
X100410838Y-68765167D01*
X100552883Y-69108943D01*
X100609400Y-69165559D01*
X100609400Y-78486000D01*
X100665470Y-78767885D01*
X100825145Y-79006855D01*
X101683947Y-79865657D01*
X101922917Y-80025332D01*
X102204802Y-80081402D01*
X116885692Y-80081402D01*
X120476906Y-83672616D01*
X120476838Y-83751167D01*
X120567671Y-83970999D01*
X113686859Y-83970999D01*
X113517592Y-83561343D01*
X113170485Y-83213629D01*
X112716734Y-83025215D01*
X112225421Y-83024786D01*
X111771343Y-83212408D01*
X111612474Y-83371000D01*
X98545455Y-83371000D01*
X98582192Y-83334327D01*
X98724838Y-82990799D01*
X98725162Y-82618833D01*
X98583117Y-82275057D01*
X98320327Y-82011808D01*
X97976799Y-81869162D01*
X97896802Y-81869092D01*
X94500855Y-78473145D01*
X94261885Y-78313470D01*
X93980000Y-78257400D01*
X70435822Y-78257400D01*
X70380327Y-78201808D01*
X70036799Y-78059162D01*
X69664833Y-78058838D01*
X69321057Y-78200883D01*
X69057808Y-78463673D01*
X68915162Y-78807201D01*
X68914838Y-79179167D01*
X69056883Y-79522943D01*
X69319673Y-79786192D01*
X69663201Y-79928838D01*
X70035167Y-79929162D01*
X70378943Y-79787117D01*
X70435559Y-79730600D01*
X93674890Y-79730600D01*
X96854906Y-82910616D01*
X96854838Y-82989167D01*
X96996883Y-83332943D01*
X97034874Y-83371000D01*
X88367581Y-83371000D01*
X88210485Y-83213629D01*
X87756734Y-83025215D01*
X87265421Y-83024786D01*
X86811343Y-83212408D01*
X86652474Y-83371000D01*
X63347581Y-83371000D01*
X63190485Y-83213629D01*
X62736734Y-83025215D01*
X62245421Y-83024786D01*
X61791343Y-83212408D01*
X61632474Y-83371000D01*
X52739000Y-83371000D01*
X52739000Y-76768236D01*
X54084421Y-75422815D01*
X60364630Y-75422815D01*
X60688980Y-76207800D01*
X61289041Y-76808909D01*
X62073459Y-77134628D01*
X62922815Y-77135370D01*
X63707800Y-76811020D01*
X64308909Y-76210959D01*
X64634628Y-75426541D01*
X64635370Y-74577185D01*
X64311020Y-73792200D01*
X63710959Y-73191091D01*
X62926541Y-72865372D01*
X62077185Y-72864630D01*
X61292200Y-73188980D01*
X60691091Y-73789041D01*
X60365372Y-74573459D01*
X60364630Y-75422815D01*
X54084421Y-75422815D01*
X58710069Y-70797167D01*
X69168838Y-70797167D01*
X69310883Y-71140943D01*
X69573673Y-71404192D01*
X69917201Y-71546838D01*
X70289167Y-71547162D01*
X70632943Y-71405117D01*
X70689559Y-71348600D01*
X77926890Y-71348600D01*
X78003400Y-71425110D01*
X78003400Y-76630178D01*
X77947808Y-76685673D01*
X77805162Y-77029201D01*
X77804838Y-77401167D01*
X77946883Y-77744943D01*
X78209673Y-78008192D01*
X78553201Y-78150838D01*
X78925167Y-78151162D01*
X79268943Y-78009117D01*
X79532192Y-77746327D01*
X79674838Y-77402799D01*
X79675162Y-77030833D01*
X79533117Y-76687057D01*
X79476600Y-76630441D01*
X79476600Y-75422815D01*
X85364630Y-75422815D01*
X85688980Y-76207800D01*
X86289041Y-76808909D01*
X87073459Y-77134628D01*
X87922815Y-77135370D01*
X88707800Y-76811020D01*
X89308909Y-76210959D01*
X89634628Y-75426541D01*
X89635370Y-74577185D01*
X89311020Y-73792200D01*
X88710959Y-73191091D01*
X87926541Y-72865372D01*
X87077185Y-72864630D01*
X86292200Y-73188980D01*
X85691091Y-73789041D01*
X85365372Y-74573459D01*
X85364630Y-75422815D01*
X79476600Y-75422815D01*
X79476600Y-71120000D01*
X79420530Y-70838115D01*
X79260855Y-70599145D01*
X78752855Y-70091145D01*
X78513885Y-69931470D01*
X78232000Y-69875400D01*
X70689822Y-69875400D01*
X70634327Y-69819808D01*
X70290799Y-69677162D01*
X69918833Y-69676838D01*
X69575057Y-69818883D01*
X69311808Y-70081673D01*
X69169162Y-70425201D01*
X69168838Y-70797167D01*
X58710069Y-70797167D01*
X62562225Y-66945011D01*
X62794579Y-66945214D01*
X63248657Y-66757592D01*
X63407526Y-66599000D01*
X86652419Y-66599000D01*
X86809515Y-66756371D01*
M02*
