M48
;DRILL file {KiCad 4.0.2-stable} date 2016-07-18 00:25:07
;FORMAT={-:-/ absolute / inch / decimal}
FMAT,2
INCH,TZ
T1C0.012
T2C0.024
T3C0.040
%
G90
G05
M72
T1
X2.0276Y-5.5906
X2.0866Y-5.6299
X2.17Y-2.18
X2.23Y-5.79
X2.23Y-5.8472
X2.2835Y-5.8465
X2.372Y-4.3665
X2.372Y-4.4295
X2.372Y-5.4134
X2.372Y-5.4764
X2.3736Y-2.3976
X2.3736Y-2.4606
X2.374Y-3.4449
X2.374Y-3.5079
X2.4587Y-4.3071
X2.4587Y-5.5374
X2.4606Y-2.3327
X2.4606Y-3.5768
X2.5453Y-4.3665
X2.5453Y-4.4295
X2.5453Y-5.4134
X2.5453Y-5.4764
X2.5469Y-2.3976
X2.5469Y-2.4606
X2.5472Y-3.4449
X2.5472Y-3.5079
X2.71Y-4.1
X2.74Y-5.73
X2.75Y-3.11
X2.75Y-5.13
X2.76Y-2.78
X2.8Y-4.85
X2.8213Y-4.068
X2.8228Y-3.8126
X2.8732Y-4.0437
X2.8732Y-3.8114
X2.95Y-4.91
X3.0457Y-3.8043
X3.0457Y-3.9862
X3.1Y-3.04
X3.126Y-4.7913
X3.16Y-3.72
X3.2059Y-4.1283
X3.32Y-2.9
X3.3563Y-4.3661
X3.3563Y-4.4291
X3.3563Y-5.4134
X3.3563Y-5.4764
X3.3583Y-2.3976
X3.3583Y-2.4606
X3.3583Y-3.4449
X3.3583Y-3.5079
X3.4429Y-4.3031
X3.4429Y-5.5413
X3.4449Y-2.3366
X3.4449Y-3.5728
X3.52Y-4.09
X3.5295Y-4.3661
X3.5295Y-4.4291
X3.5295Y-5.4134
X3.5295Y-5.4764
X3.5315Y-2.3976
X3.5315Y-2.4606
X3.5315Y-3.4449
X3.5315Y-3.5079
X3.57Y-3.8138
X3.6318Y-3.8382
X3.68Y-4.05
X3.68Y-4.85
X3.71Y-3.69
X3.7598Y-3.7205
X3.78Y-4.92
X3.7805Y-4.3563
X3.79Y-3.55
X3.81Y-5.07
X3.8143Y-4.3604
X3.8157Y-4.2508
X3.82Y-3.4
X3.82Y-3.6
X3.82Y-5.04
X3.8364Y-3.65
X3.84Y-3.83
X3.8406Y-4.03
X3.8465Y-4.2012
X3.85Y-3.26
X3.85Y-3.36
X3.8722Y-4.3307
X3.9Y-3.53
X3.9038Y-3.5693
X3.9071Y-4.3615
X3.91Y-3.42
X3.911Y-4.3069
X3.94Y-3.39
X3.94Y-3.84
X3.94Y-5.05
X3.9576Y-4.3361
X3.96Y-5.01
X3.9827Y-3.8287
X3.99Y-2.28
X3.99Y-2.7
X3.9962Y-3.58
X4.Y-5.11
X4.0012Y-4.2433
X4.0041Y-4.3811
X4.01Y-5.37
X4.0268Y-4.2843
X4.03Y-5.56
X4.05Y-5.2
X4.06Y-2.54
X4.06Y-3.83
X4.07Y-3.09
X4.07Y-4.86
X4.0703Y-4.3486
X4.08Y-4.67
X4.12Y-4.2
X4.15Y-5.0958
X4.21Y-4.89
X4.285Y-4.0062
X4.34Y-5.78
X4.3421Y-5.4134
X4.3421Y-5.4764
X4.3425Y-2.3976
X4.3425Y-2.4606
X4.3425Y-2.5236
X4.3425Y-3.4449
X4.3425Y-3.5079
X4.3425Y-4.3661
X4.3425Y-4.4291
X4.41Y-5.78
X4.4291Y-3.5748
X4.4291Y-4.3051
X4.4291Y-5.5394
X4.4508Y-2.3406
X4.46Y-3.96
X4.4782Y-3.9182
X4.48Y-5.78
X4.5154Y-5.4134
X4.5154Y-5.4764
X4.5157Y-2.3976
X4.5157Y-2.4606
X4.5157Y-3.4449
X4.5157Y-3.5079
X4.5157Y-4.3661
X4.5157Y-4.4291
X4.54Y-5.78
X4.7268Y-4.7965
X4.73Y-5.21
X4.76Y-2.67
X4.7728Y-4.2311
X4.7746Y-4.1909
X4.7762Y-5.1362
X4.78Y-3.29
X4.8103Y-4.16
X4.82Y-3.3
X4.93Y-5.22
X4.95Y-2.95
X5.Y-4.55
X5.0169Y-5.6492
X5.0189Y-4.1909
X5.04Y-4.01
X5.048Y-5.611
X5.06Y-4.11
X5.07Y-2.22
X5.0709Y-5.6492
X5.1038Y-4.15
X5.1038Y-5.09
X5.1409Y-4.1009
X5.16Y-3.8
X5.2795Y-4.9291
X5.2933Y-2.9685
X5.31Y-3.85
X5.3264Y-2.3976
X5.3264Y-2.4606
X5.3264Y-3.4449
X5.3264Y-3.5079
X5.3264Y-5.4134
X5.3264Y-5.4764
X5.3268Y-4.3661
X5.3268Y-4.4291
X5.4134Y-2.3406
X5.4134Y-3.5669
X5.4134Y-5.5394
X5.44Y-4.3
X5.4996Y-2.3976
X5.4996Y-2.4606
X5.4996Y-3.4449
X5.4996Y-3.5079
X5.4996Y-5.4134
X5.4996Y-5.4764
X5.5Y-4.3661
X5.5Y-4.4291
X5.56Y-3.84
X5.7547Y-4.4795
X5.7697Y-2.502
X5.7756Y-3.4075
X5.78Y-5.62
X5.78Y-5.68
X5.7811Y-5.4126
X5.7819Y-3.4929
X5.7831Y-5.4768
X5.7945Y-4.4291
X5.8042Y-2.4638
X5.83Y-5.59
X5.83Y-5.66
X5.87Y-3.67
T2
X2.4583Y-4.5567
X2.4587Y-5.2862
X2.4602Y-3.3173
X2.4626Y-2.587
X3.0984Y-3.8878
X3.4429Y-4.5567
X3.4433Y-5.2862
X3.4453Y-2.587
X3.4453Y-3.3173
X3.59Y-3.89
X3.663Y-3.9748
X4.428Y-3.3173
X4.4283Y-5.2862
X4.4295Y-2.587
X4.4307Y-4.5567
X5.4118Y-5.2846
X5.4126Y-2.587
X5.4134Y-3.3169
X5.4134Y-4.5571
T3
X2.124Y-3.6862
X2.124Y-3.7862
X2.124Y-3.8862
X2.124Y-3.9862
X2.124Y-4.0862
X2.124Y-4.1862
X2.8114Y-4.1742
X2.9114Y-4.1742
X3.6858Y-5.7461
X3.6862Y-2.0488
X3.7858Y-5.7461
X3.7862Y-2.0488
X3.8858Y-5.7461
X3.8862Y-2.0488
X3.9858Y-5.7461
X3.9862Y-2.0488
X4.0858Y-5.7461
X4.0862Y-2.0488
X4.1858Y-5.7461
X4.1862Y-2.0488
X4.6291Y-5.7469
X4.7291Y-5.7469
X4.8291Y-5.7469
X4.9291Y-5.7469
X5.0291Y-5.7469
X5.1291Y-5.7469
X5.2291Y-5.7469
X5.7461Y-3.6858
X5.7461Y-3.7858
X5.7461Y-3.8858
X5.7461Y-3.9858
X5.7461Y-4.0858
X5.7461Y-4.1858
T0
M30
