M48
;DRILL file {KiCad 4.0.2-stable} date 2016-07-18 00:25:07
;FORMAT={-:-/ absolute / inch / decimal}
FMAT,2
INCH,TZ
T1C0.118
T2C0.126
%
G90
G05
M72
T1
X2.4587Y-4.9213
X2.4606Y-2.9528
X2.9509Y-4.4292
X2.9509Y-5.4134
X2.9528Y-2.4606
X2.9528Y-3.4449
X3.443Y-4.9213
X3.4449Y-2.9528
X4.4291Y-2.9528
X4.4291Y-4.9213
X4.9213Y-2.4606
X4.9213Y-3.4449
X4.9213Y-4.4291
X4.9213Y-5.4134
X5.4134Y-2.9528
X5.4134Y-4.9213
T2
X2.0669Y-2.0669
X2.0669Y-5.8071
X5.8071Y-2.0669
X5.8071Y-5.8071
T0
M30
